<?xml version="1.0" standalone="no"?>
<!DOCTYPE svg PUBLIC "-//W3C//DTD SVG 1.1//EN" "http://www.w3.org/Graphics/SVG/1.1/DTD/svg11.dtd" >
<svg>
<metadata>
Created by FontForge 20090914 at Mon Dec 17 20:58:10 2012
 By www-data
Copyright 1990-2001 Bitstream Inc. All rights reserved.
</metadata>
<defs>
<font id="Century725BT-Italic" horiz-adv-x="1063" >
  <font-face 
    font-family="Century725 BT"
    font-weight="400"
    font-style="italic"
    font-stretch="normal"
    units-per-em="2048"
    panose-1="2 4 5 4 6 7 5 9 3 4"
    ascent="1556"
    descent="-492"
    x-height="1047"
    cap-height="1436"
    bbox="-369 -483 2124 1985"
    underline-thickness="133"
    underline-position="-112"
    slope="-17.5"
    unicode-range="U+000D-U+E000"
  />
<missing-glyph horiz-adv-x="748" 
d="M68 0v1365h544v-1365h-544zM136 68h408v1229h-408v-1229z" />
    <glyph glyph-name=".notdef" horiz-adv-x="748" 
d="M68 0v1365h544v-1365h-544zM136 68h408v1229h-408v-1229z" />
    <glyph glyph-name="glyph1" horiz-adv-x="2048" 
 />
    <glyph glyph-name="glyph1" horiz-adv-x="2048" 
 />
    <glyph glyph-name="uni000D" unicode="&#xd;" horiz-adv-x="530" 
 />
    <glyph glyph-name="space" unicode=" " horiz-adv-x="530" 
 />
    <glyph glyph-name="exclam" unicode="!" horiz-adv-x="764" 
d="M57 113c0 37.333 13 69.166 39 95.499s57.333 39.5 94 39.5c37.333 0 69.333 -13.167 96 -39.5s40 -58.166 40 -95.499c0 -38 -13.333 -70.167 -40 -96.5s-58.667 -39.5 -96 -39.5c-36 0 -67.167 13.5 -93.5 40.5s-39.5 58.833 -39.5 95.5zM250 391l179.998 875
c16.667 82 35.334 137 56.001 165s49.667 42 87 42c36 0 64.833 -9.5 86.5 -28.5s32.5 -43.833 32.5 -74.5c0 -16 -3.16699 -35.5 -9.5 -58.5s-16.166 -50.5 -29.499 -82.5l-354 -838h-49z" />
    <glyph glyph-name="quotedbl" unicode="&#x22;" horiz-adv-x="678" 
d="M90 1362c0 32 7.33203 56.666 21.999 73.999s35.334 26 62.001 26c27.333 0 48.5 -8.66699 63.5 -26s22.5 -42 22.5 -74c0 -6 -1 -17.333 -3 -34c-0.666992 -3.33301 -1 -5.66602 -1 -6.99902l-66 -457h-32l-64 457l-3 26c-0.666992 6 -1 11 -1 15zM417.999 1360
c0 32.667 7.49902 57.833 22.499 75.5s36.167 26.5 63.5 26.5c26.667 0 47.334 -8.66699 62.001 -26s22 -42 22 -74c0 -9.33301 -0.166992 -17 -0.5 -23s-0.833008 -12 -1.5 -18l-68 -457h-31l-65 457c0 1.33301 -0.333008 3.33301 -1 6c-2 14.667 -3 25.667 -3 33z" />
    <glyph glyph-name="numbersign" unicode="#" horiz-adv-x="1575" 
d="M104 467l43 115h322l100 286h-348l43 117h348l166 471h133l-168 -471h287l168 471h131l-166 -471h307l-40 -117h-310l-100 -286h332l-43 -115h-330l-166 -469h-133l166 469h-287l-166 -469h-131l166 469h-324zM600 582h289l102 286h-291z" />
    <glyph glyph-name="dollar" unicode="$" 
d="M-8 342c0 53.333 13.8311 98.0049 41.498 134.005s61.5 54 101.5 54c30 0 55 -10.5 75 -31.5s30 -47.167 30 -78.5c0 -24 -6.83301 -45.5 -20.5 -64.5s-31.834 -31.833 -54.501 -38.5c-4.66699 -1.33301 -12 -2.66602 -22 -3.99902
c-36.667 -6.66699 -55 -24.334 -55 -53.001c0 -48.667 20.333 -91.5 61 -128.5s95.334 -61.833 164.001 -74.5l193 609c-99.333 62 -169.666 121.5 -210.999 178.5s-62 121.5 -62 193.5c0 109.333 43.667 199.5 131 270.5s200 106.5 338 106.5h39l43 133h60l-45 -139
c87.333 -17.333 154.5 -48.833 201.5 -94.5s70.5 -102.167 70.5 -169.5c0 -42 -11.667 -75.667 -35 -101s-54.666 -38 -93.999 -38c-27.333 0 -49.833 9.16699 -67.5 27.5s-26.5 41.166 -26.5 68.499c0 35.333 15.333 64.5 46 87.5s46 40.833 46 53.5
c0 26 -12.833 48.667 -38.5 68s-64.834 36.333 -117.501 51l-163 -520c98.667 -56.667 171.334 -116.834 218.001 -180.501s70 -133.834 70 -210.501c0 -124 -50.833 -230.167 -152.5 -318.5s-227.5 -132.5 -377.5 -132.5h-14h-9l-43 -135h-59l45 145
c-93.333 17.333 -167.833 56.166 -223.5 116.499s-83.5 132.166 -83.5 215.499zM370.998 49.0049l8 -0.00195312c106.667 0 197.5 30.833 272.5 92.5s112.5 133.834 112.5 216.501c0 50.667 -17 98.834 -51 144.501s-86 90.5 -156 134.5zM386.998 1116
c0 -48 14 -90.833 42 -128.5s75.333 -76.167 142 -115.5l158 498h-20c-95.333 0 -172.833 -23.833 -232.5 -71.5s-89.5 -108.5 -89.5 -182.5z" />
    <glyph glyph-name="percent" unicode="%" horiz-adv-x="1518" 
d="M117 1008c0 115.333 38.333 216.833 115 304.5s166 131.5 268 131.5c83.333 0 150.5 -27 201.5 -81s76.5 -125.333 76.5 -214c0 -114.667 -40 -217 -120 -307s-169.667 -135 -269 -135c-78 0 -142.833 28.167 -194.5 84.5s-77.5 128.5 -77.5 216.5zM195 -18l1030 1464h90
l-1030 -1464h-90zM231 901c0 -46.667 13.832 -85.001 41.499 -115.001s63.167 -45 106.5 -45c31.333 0 60.833 10 88.5 30s52.834 49.667 75.501 89c31.333 56 59 125 83 207s36 149.667 36 203c0 42 -13.5 76 -40.5 102s-62.167 39 -105.5 39c-30 0 -58.333 -9 -85 -27
s-51 -45 -73 -81c-34 -56 -63.667 -124.167 -89 -204.5s-38 -146.166 -38 -197.499zM744.999 280.999c0 115.333 38.501 216.833 115.501 304.5s166.167 131.5 267.5 131.5c84 0 151.5 -27 202.5 -81s76.5 -125.333 76.5 -214c0 -114 -40 -215.833 -120 -305.5
s-169.667 -134.5 -269 -134.5c-78.667 0 -143.834 28 -195.501 84s-77.5 127.667 -77.5 215zM860 173.999c0 -47.333 13.501 -85.832 40.501 -115.499s62.167 -44.5 105.5 -44.5c31.333 0 61.166 10.167 89.499 30.5s53.5 49.833 75.5 88.5
c32 55.333 59.833 124.5 83.5 207.5s35.5 151.167 35.5 204.5c0 41.333 -13.333 74.833 -40 100.5s-61.667 38.5 -105 38.5c-30.667 0 -59.167 -9 -85.5 -27s-50.5 -45.333 -72.5 -82c-34.667 -55.333 -64.5 -123.333 -89.5 -204s-37.5 -146.334 -37.5 -197.001z" />
    <glyph glyph-name="ampersand" unicode="&#x26;" horiz-adv-x="1575" 
d="M14 330c0 134 49.4961 246.499 148.496 337.499s242.833 155.833 431.5 194.5c29.333 176.667 88.5 321.167 177.5 433.5s185.5 168.5 289.5 168.5c62 0 112.333 -17.833 151 -53.5s58 -81.834 58 -138.501c0 -85.333 -43.167 -164.5 -129.5 -237.5
s-205.166 -129.833 -356.499 -170.5c-2.66699 -32.667 -4.66699 -63.167 -6 -91.5s-2 -54.5 -2 -78.5c0 -45.333 1.33301 -93.5 4 -144.5s8.33398 -122.167 17.001 -213.5c38.667 59.333 86.667 139.666 144 240.999c110.667 198 212.667 297 306 297
c50.667 0 93.834 -16.167 129.501 -48.5s53.5 -71.166 53.5 -116.499c0 -38 -11.5 -69 -34.5 -93s-52.5 -36 -88.5 -36c-32.667 0 -59 10.333 -79 31s-30 47 -30 79c0 22.667 6.83301 46 20.5 70s20.5 37.667 20.5 41c0 6 -3.33301 11.5 -10 16.5s-13.667 7.5 -21 7.5
c-52.667 0 -123.667 -79.667 -213 -239c-72 -127.333 -135.333 -230.666 -190 -309.999c14 -72.667 39.667 -128.667 77 -168s83.333 -59 138 -59c56.667 0 111.667 25.5 165 76.5s102.666 124.5 147.999 220.5h45c-44 -115.333 -102.167 -204.833 -174.5 -268.5
s-151.166 -95.5 -236.499 -95.5c-60 0 -112.5 13.5 -157.5 40.5s-85.5 69.5 -121.5 127.5c-52 -56 -106.667 -98 -164 -126s-117.333 -42 -180 -42c-97.333 0 -176.666 32.333 -237.999 97s-92 148.334 -92 251.001zM208.996 374.999c0 -98 20.168 -176.168 60.501 -234.501
s93.833 -87.5 160.5 -87.5c39.333 0 79.666 11.667 120.999 35s80.333 56.666 117 99.999c-30.667 70.667 -53 145.334 -67 224.001s-21 170.667 -21 276c0 17.333 0.666992 37 2 59s3.33301 46 6 72c-130 -25.333 -225.667 -74.166 -287 -146.499s-92 -171.5 -92 -297.5z
M781.997 904.998c128.667 37.333 227.169 89.668 295.502 157.001s102.5 145.333 102.5 234c0 40 -10.833 70.833 -32.5 92.5s-51.834 32.5 -90.501 32.5c-82.667 0 -146.834 -42.833 -192.501 -128.5s-73.167 -214.834 -82.5 -387.501z" />
    <glyph glyph-name="quotesingle" unicode="'" horiz-adv-x="348" 
d="M90 1360c0 33.333 7.16797 58.667 21.501 76s35.166 26 62.499 26s48.5 -8.66699 63.5 -26s22.5 -42 22.5 -74c0 -6 -1 -17.333 -3 -34c-0.666992 -3.33301 -1 -5.66602 -1 -6.99902l-66 -457h-32l-66 457c-0.666992 5.33301 -1.16699 10.666 -1.5 15.999
s-0.5 13 -0.5 23z" />
    <glyph glyph-name="parenleft" unicode="(" horiz-adv-x="735" 
d="M80 252c0 240.667 66 466 198 676s321.333 390.667 568 542l20 -34c-81.333 -62 -153.833 -134.5 -217.5 -217.5s-121.5 -180.5 -173.5 -292.5c-76 -162.667 -137 -331.5 -183 -506.5s-69 -318.167 -69 -429.5c0 -65.333 6.33301 -127.833 19 -187.5
s31 -113.167 55 -160.5l-39 -23c-58.667 100.667 -103 204.167 -133 310.5s-45 213.833 -45 322.5z" />
    <glyph glyph-name="parenright" unicode=")" horiz-adv-x="735" 
d="M-225 -346c79.333 58.667 150.667 129.332 214 211.999s122.333 182 177 298c76 162.667 137 331.334 183 506.001s69 318 69 430c0 64.667 -6.33301 127 -19 187s-31 113.667 -55 161l39 22c59.333 -101.333 103.833 -205 133.5 -311s44.5 -213 44.5 -321
c0 -240.667 -66 -466 -198 -676s-321.333 -391 -568 -543z" />
    <glyph glyph-name="asterisk" unicode="*" horiz-adv-x="1024" 
d="M238 891c0 31.333 12.502 55.6709 37.502 73.0039s62.167 27 111.5 29c39.333 2 75.5 8.5 108.5 19.5s61.167 25.833 84.5 44.5c-48 34 -113.667 53.667 -197 59c-13.333 0.666992 -23.333 1.33398 -30 2.00098c-34.667 3.33301 -62.5 14 -83.5 32s-31.5 40.333 -31.5 67
c0 24.667 8.5 46.5 25.5 65.5s37.833 28.5 62.5 28.5c35.333 0 76.5 -31.833 123.5 -95.5s96.5 -108.5 148.5 -134.5v19c0 49.333 -12.667 103.5 -38 162.5s-38 97.5 -38 115.5c0 27.333 8.5 49.5 25.5 66.5s39.167 25.5 66.5 25.5c29.333 0 51.833 -7.5 67.5 -22.5
s23.5 -36.833 23.5 -65.5c0 -20 -12.333 -59.167 -37 -117.5s-37 -112.5 -37 -162.5v-25c49.333 28 97.5 73.667 144.5 137s89.5 95 127.5 95c22 0 41.833 -9.66699 59.5 -29s26.5 -40.333 26.5 -63c0 -24.667 -10.5 -46.334 -31.5 -65.001s-45.5 -29.334 -73.5 -32.001
c-2.66699 0 -7.66699 -0.333008 -15 -1c-104 -9.33301 -178 -31.333 -222 -66c53.333 -33.333 120.666 -53.333 201.999 -60c11.333 -0.666992 20 -1.33398 26 -2.00098c33.333 -2.66699 60.666 -13.667 81.999 -33s32 -43 32 -71c0 -22.667 -9.66699 -43.334 -29 -62.001
s-40.333 -28 -63 -28c-34 0 -74.5 32.167 -121.5 96.5s-95.833 108.5 -146.5 132.5v-18c0 -49.333 12.667 -103.333 38 -162s38 -99 38 -121c0 -25.333 -8.33301 -46 -25 -62s-38.667 -24 -66 -24c-28.667 0 -51.167 7.83301 -67.5 23.5s-24.5 37.167 -24.5 64.5
c0 20.667 12.333 59 37 115s37 110 37 162v26c-48.667 -26.667 -97 -71.5 -145 -134.5s-89.667 -94.5 -125 -94.5c-24 0 -44.667 8.66699 -62 26s-26 38.666 -26 63.999z" />
    <glyph glyph-name="plus" unicode="+" horiz-adv-x="1706" 
d="M254 553v117h541v551h118v-551h539v-117h-539v-553h-118v553h-541z" />
    <glyph glyph-name="comma" unicode="," horiz-adv-x="530" 
d="M-47 -287c66.667 42 115.001 78.835 145.001 110.502s45 61.167 45 88.5c0 21.333 -17 51.666 -51 90.999s-51 76.666 -51 111.999c0 32 11.667 59 35 81s52 33 86 33c37.333 0 68.833 -15.667 94.5 -47s38.5 -70 38.5 -116c0 -70 -27.333 -138.833 -82 -206.5
s-132.334 -129.5 -233.001 -185.5z" />
    <glyph glyph-name="hyphen" unicode="-" horiz-adv-x="717" 
d="M29 424l57 180h506l-57 -180h-506z" />
    <glyph glyph-name="period" unicode="." horiz-adv-x="530" 
d="M53 98c0 34 11.667 63 35 87s52 36 86 36c32.667 0 61 -12 85 -36s36 -53 36 -87c0 -32.667 -12 -61 -36 -85s-52.333 -36 -85 -36c-33.333 0 -61.833 12 -85.5 36s-35.5 52.333 -35.5 85z" />
    <glyph glyph-name="slash" unicode="/" horiz-adv-x="569" 
d="M-186 -190l766 1660h112l-768 -1660h-110z" />
    <glyph glyph-name="zero" unicode="0" 
d="M33 440c0 127.333 24.832 257.668 74.499 391.001s119.5 256.333 209.5 369c61.333 77.333 127.666 137.666 198.999 180.999s140.333 65 207 65c92.667 0 166.334 -40.833 221.001 -122.5s82 -192.5 82 -332.5c0 -130 -26.167 -263.5 -78.5 -400.5
s-125.166 -261.5 -218.499 -373.5c-64 -77.333 -128.333 -135.833 -193 -175.5s-128 -59.5 -190 -59.5c-96 0 -172.167 41 -228.5 123s-84.5 193.667 -84.5 335zM179.999 227.002c0 -60.667 14.4971 -107.834 43.4971 -141.501s69.167 -50.5 120.5 -50.5
c52.667 0 100.834 20.5 144.501 61.5s83.5 103.833 119.5 188.5c29.333 67.333 59.333 143.833 90 229.5s60.667 176.834 90 273.501c32 105.333 55.833 192.666 71.5 261.999s23.5 120.666 23.5 153.999c0 64.667 -13.667 113.334 -41 146.001s-67.666 49 -120.999 49
c-49.333 0 -96.333 -21.333 -141 -64s-86.334 -106 -125.001 -190c-29.333 -63.333 -57.666 -131.166 -84.999 -203.499s-53.666 -148.5 -78.999 -228.5c-38 -121.333 -66 -221.5 -84 -300.5s-27 -140.833 -27 -185.5z" />
    <glyph glyph-name="one" unicode="1" 
d="M2 0l15.999 57.001h115c88.667 0 150.334 56.333 185.001 169c3.33301 10.667 6 18.667 8 24l227 721c8 26.667 13.667 48.167 17 64.5s5 28.833 5 37.5c0 26.667 -10.5 45.667 -31.5 57s-60.167 17 -117.5 17h-160l19 53h26c118.667 0 222.667 20.167 312 60.5
s166.333 102.166 231 185.499h37l-389 -1229c-6 -18 -10.333 -33.5 -13 -46.5s-4 -24.167 -4 -33.5c0 -28.667 8 -49.167 24 -61.5s42.333 -18.5 79 -18.5h71l-16 -57h-641z" />
    <glyph glyph-name="two" unicode="2" 
d="M-61 0c12.667 80 46.666 164.17 101.999 252.503s124.333 168.166 207 239.499c53.333 46 119.333 98.333 198 157s128 97 148 115c68.667 62 118.667 121.333 150 178s47 116 47 178c0 76.667 -25.333 140.667 -76 192s-113.667 77 -189 77
c-68.667 0 -129.167 -21 -181.5 -63s-78.5 -87.333 -78.5 -136c0 -44.667 32 -74.334 96 -89.001c3.33301 -0.666992 5.33301 -1 6 -1c38.667 -9.33301 65.834 -21.833 81.501 -37.5s23.5 -37.5 23.5 -65.5c0 -34 -12.5 -63 -37.5 -87s-55.5 -36 -91.5 -36
c-49.333 0 -91 21.333 -125 64s-51 96 -51 160c0 96 37.833 177.667 113.5 245s168.167 101 277.5 101c120.667 0 222.167 -37.667 304.5 -113s123.5 -168 123.5 -278c0 -57.333 -12 -111.5 -36 -162.5s-58.333 -95.167 -103 -132.5
c-58 -49.333 -155.333 -105.666 -292 -168.999c-54 -25.333 -94.667 -45 -122 -59c-95.333 -48.667 -174.5 -101.834 -237.5 -159.501s-102.5 -112.834 -118.5 -165.501h493c69.333 0 114.5 8 135.5 24s41.5 55.667 61.5 119l27 88h43l-138 -436h-761z" />
    <glyph glyph-name="three" unicode="3" 
d="M-14 287c0 56 15.334 102.331 46.001 138.998s68.334 55 113.001 55c42 0 75.5 -12 100.5 -36s37.5 -56.333 37.5 -97c0 -22.667 -7.5 -44.5 -22.5 -65.5s-35.5 -38.833 -61.5 -53.5l-24 -11c-34.667 -16 -52 -36 -52 -60c0 -29.333 18.833 -56.166 56.5 -80.499
s80.834 -36.5 129.501 -36.5c51.333 0 99 13.833 143 41.5s80.333 67.167 109 118.5c26 45.333 47.5 98.5 64.5 159.5s25.5 114.833 25.5 161.5c0 77.333 -24.667 133.5 -74 168.5s-129 52.5 -239 52.5h-31l15 58c12 0 28.667 -0.333008 50 -1s36.666 -1 45.999 -1
c56 0 101.167 3.66699 135.5 11s64.166 19.333 89.499 36c46 28.667 83.5 74.5 112.5 137.5s43.5 130.5 43.5 202.5c0 65.333 -19.333 116.5 -58 153.5s-91.667 55.5 -159 55.5c-54.667 0 -100.5 -9.66699 -137.5 -29s-55.5 -42.666 -55.5 -69.999
c0 -17.333 16.333 -40.666 49 -69.999s49 -61.333 49 -96c0 -32.667 -11.5 -60.167 -34.5 -82.5s-52.167 -33.5 -87.5 -33.5c-38.667 0 -70.334 14.167 -95.001 42.5s-37 65.166 -37 110.499c0 80.667 35.833 147 107.5 199s164.167 78 277.5 78
c110.667 0 201.5 -31.667 272.5 -95s106.5 -143.666 106.5 -240.999c0 -102 -36.333 -182.5 -109 -241.5s-179.667 -95.167 -321 -108.5c94 -30.667 164.667 -73.5 212 -128.5s71 -121.5 71 -199.5c0 -126.667 -47.167 -232.334 -141.5 -317.001s-213.833 -127 -358.5 -127
c-99.333 0 -184.833 30.333 -256.5 91s-107.5 130.667 -107.5 210z" />
    <glyph glyph-name="four" unicode="4" 
d="M8 379l21 67l944 1000h37l-316 -1000h258l-20 -67h-258l-66 -205c-4 -12 -7 -24.333 -9 -37s-3 -25 -3 -37c0 -16 5.16699 -27.167 15.5 -33.5s31.833 -9.5 64.5 -9.5h147l-18 -57h-660l17 57h117c50.667 0 83.167 7.16699 97.5 21.5s29.5 47.5 45.5 99.5l61 201h-475z
M98 446h408l203 648z" />
    <glyph glyph-name="five" unicode="5" 
d="M-18 272c0 51.333 15.668 95.332 47.001 131.999s68 55 110 55c40 0 71.833 -11 95.5 -33s35.5 -51.333 35.5 -88c0 -28.667 -8.66699 -54.5 -26 -77.5s-42 -41.5 -74 -55.5c-2.66699 -1.33301 -7.33398 -3.33301 -14.001 -6c-37.333 -16 -56 -34.667 -56 -56
c0 -28 21.5 -53 64.5 -75s93.833 -33 152.5 -33c55.333 0 105.5 11.833 150.5 35.5s82.5 58.167 112.5 103.5c42 63.333 77.667 142 107 236s44 174.333 44 241c0 68 -18 119.167 -54 153.5s-89.667 51.5 -161 51.5c-50 0 -99.333 -13.5 -148 -40.5
s-87.334 -62.5 -116.001 -106.5c-7.33301 -11.333 -15.666 -28.333 -24.999 -51c-16 -38.667 -35 -58 -57 -58c-12.667 0 -23.334 3.66699 -32.001 11s-13 16.666 -13 27.999c0 12.667 15.667 41 47 85s57.333 87.333 78 130c32.667 68.667 64.5 153.334 95.5 254.001
s57.833 207 80.5 319h47c39.333 -31.333 78.666 -54.166 117.999 -68.499s82 -21.5 128 -21.5s89.167 6.5 129.5 19.5s81.166 33.167 122.499 60.5l26 -16c-39.333 -74.667 -92.166 -131.667 -158.499 -171s-142.5 -59 -228.5 -59c-34.667 0 -67.5 3.16699 -98.5 9.5
s-60.833 15.5 -89.5 27.5c-29.333 -98 -55.166 -177.667 -77.499 -239s-46.5 -120 -72.5 -176c40 37.333 82.333 65 127 83s93.334 27 146.001 27c108 0 196 -36 264 -108s102 -165.667 102 -281c0 -149.333 -54 -275.333 -162 -378s-241 -154 -399 -154
c-112 0 -201.333 26.333 -268 79s-100 123 -100 211z" />
    <glyph glyph-name="six" unicode="6" 
d="M63 453c0 125.333 25.834 258.334 77.501 399.001s118.167 260 199.5 358c62 74 132.5 131.833 211.5 173.5s157.167 62.5 234.5 62.5c85.333 0 155.166 -23.333 209.499 -70s81.5 -106 81.5 -178c0 -52.667 -15.667 -96.5 -47 -131.5s-70.333 -52.5 -117 -52.5
c-35.333 0 -65 11.333 -89 34s-36 51 -36 85c0 24.667 7.5 47 22.5 67s35.5 35.667 61.5 47c6 2.66699 15.333 6 28 10c40.667 13.333 61 30.666 61 51.999s-16.333 41.666 -49 60.999s-69.667 29 -111 29c-108 0 -200 -52.333 -276 -157s-148.667 -281 -218 -529
c42.667 62 90.667 109.5 144 142.5s109 49.5 167 49.5c95.333 0 172.833 -34.667 232.5 -104s89.5 -160.333 89.5 -273c0 -150 -48.5 -278.5 -145.5 -385.5s-213.167 -160.5 -348.5 -160.5c-118.667 0 -212.167 41.833 -280.5 125.5s-102.5 198.834 -102.5 345.501z
M215.001 242.001c0 -60 18.5 -110.166 55.5 -150.499s82.833 -60.5 137.5 -60.5c50 0 94.167 17.167 132.5 51.5s73.833 88.166 106.5 161.499c35.333 78 63 154.5 83 229.5s30 136.833 30 185.5c0 58 -16 104 -48 138s-75.333 51 -130 51
c-44.667 0 -87.5 -13.5 -128.5 -40.5s-76.833 -65.5 -107.5 -115.5c-37.333 -60.667 -68.5 -134.167 -93.5 -220.5s-37.5 -162.833 -37.5 -229.5z" />
    <glyph glyph-name="seven" unicode="7" 
d="M199 985l141.001 442.004h764c-8.66699 -52 -24.5 -103.833 -47.5 -155.5s-54.167 -105.5 -93.5 -161.5c-16.667 -22.667 -67.834 -84.334 -153.501 -185.001s-151.5 -193.334 -197.5 -278.001c-32 -58.667 -55.167 -114.667 -69.5 -168s-22.5 -123.666 -24.5 -210.999
v-1c-4 -190 -47 -285 -129 -285c-37.333 0 -66.166 15.333 -86.499 46s-30.5 74.667 -30.5 132c0 83.333 23.833 174.166 71.5 272.499s114.167 193.833 199.5 286.5l114 122c174 185.333 279.333 314.666 316 387.999h-512c-61.333 0 -100.833 -7.33301 -118.5 -22
s-34.834 -48.334 -51.501 -101.001l-39 -121h-53z" />
    <glyph glyph-name="eight" unicode="8" 
d="M10 360c0 99.333 34.835 183.669 104.502 253.002s172.167 122.333 307.5 159c-64.667 58.667 -109.834 111.167 -135.501 157.5s-38.5 96.166 -38.5 149.499c0 106.667 39.833 194.5 119.5 263.5s183.167 103.5 310.5 103.5c108 0 196.833 -29.5 266.5 -88.5
s104.5 -133.833 104.5 -224.5s-32.833 -164.334 -98.5 -221.001s-159.834 -93 -282.501 -109c91.333 -77.333 155.833 -146.833 193.5 -208.5s56.5 -128.167 56.5 -199.5c0 -119.333 -44 -218 -132 -296s-200.333 -117 -337 -117c-128 0 -233.167 35.5 -315.5 106.5
s-123.5 161.5 -123.5 271.5zM129.002 362.003c0 -95.333 30.167 -173.999 90.5 -235.999s137.5 -93 231.5 -93c85.333 0 157.5 27.5 216.5 82.5s88.5 120.833 88.5 197.5c0 66 -22.167 131.167 -66.5 195.5s-121.833 141.166 -232.5 230.499
c-110.667 -38 -193 -88.167 -247 -150.5s-81 -137.833 -81 -226.5zM383.002 1174c0 -47.333 17.168 -95.1689 51.501 -143.502s98.5 -111.166 192.5 -188.499c95.333 12.667 170.666 46.834 225.999 102.501s83 125.167 83 208.5c0 71.333 -25 130.5 -75 177.5
s-113 70.5 -189 70.5c-85.333 0 -154.833 -21.333 -208.5 -64s-80.5 -97 -80.5 -163z" />
    <glyph glyph-name="nine" unicode="9" 
d="M0 231c0 53.333 15.501 97.5029 46.501 132.503s69.5 52.5 115.5 52.5c37.333 0 67.5 -11.333 90.5 -34s34.5 -52.334 34.5 -89.001c0 -26 -8.83301 -49.333 -26.5 -70s-42.5 -36.334 -74.5 -47.001c-47.333 -15.333 -71 -33.666 -71 -54.999
c0 -22.667 16.833 -43.334 50.5 -62.001s73.5 -28 119.5 -28c102.667 0 192 53.667 268 161s147.667 282.333 215 525c-42.667 -62.667 -90.334 -110.5 -143.001 -143.5s-108 -49.5 -166 -49.5c-95.333 0 -173.166 34.833 -233.499 104.5s-90.5 160.5 -90.5 272.5
c0 150 48.5 278.667 145.5 386s213.167 161 348.5 161c118.667 0 212.167 -42 280.5 -126s102.5 -199 102.5 -345c0 -126.667 -25.667 -260.334 -77 -401.001s-118 -259.667 -200 -357c-61.333 -74 -131.333 -131.667 -210 -173s-157.334 -62 -236.001 -62
c-85.333 0 -154.833 23 -208.5 69s-80.5 105.333 -80.5 178zM317.001 770.003c0 -58 15.8311 -103.832 47.498 -137.499s74.834 -50.5 129.501 -50.5c44.667 0 87.834 13.5 129.501 40.5s77.5 65.167 107.5 114.5c36.667 60 67.334 133.167 92.001 219.5s37 163.5 37 231.5
c0 60 -18.333 110.167 -55 150.5s-82.334 60.5 -137.001 60.5c-50 0 -94.5 -17.333 -133.5 -52s-74.5 -88.334 -106.5 -161.001c-34 -76.667 -61 -152.667 -81 -228s-30 -138 -30 -188z" />
    <glyph glyph-name="colon" unicode=":" horiz-adv-x="578" 
d="M-6 98c0 34 11.999 63 35.999 87s53 36 87 36c32.667 0 61 -12 85 -36s36 -53 36 -87c0 -32.667 -12 -61 -36 -85s-52.333 -36 -85 -36c-33.333 0 -62.166 12.167 -86.499 36.5s-36.5 52.5 -36.5 84.5zM216.999 815c0 33.333 11.999 61.833 35.999 85.5s53 35.5 87 35.5
c33.333 0 61.833 -11.833 85.5 -35.5s35.5 -52.167 35.5 -85.5c0 -32.667 -12 -61.334 -36 -86.001s-52.333 -37 -85 -37c-33.333 0 -62.166 12.333 -86.499 37s-36.5 53.334 -36.5 86.001z" />
    <glyph glyph-name="semicolon" unicode=";" horiz-adv-x="578" 
d="M-96 -287c67.333 42.667 116.168 79.6699 146.501 111.003s45.5 60.666 45.5 87.999c0 21.333 -17 51.666 -51 90.999s-51 76.666 -51 111.999c0 32 11.333 59 34 81s51 33 85 33c37.333 0 69.166 -15.667 95.499 -47s39.5 -70 39.5 -116
c0 -69.333 -27.5 -138 -82.5 -206s-133.5 -130 -235.5 -186zM217.002 815.003c0 33.333 11.999 61.833 35.999 85.5s53 35.5 87 35.5c33.333 0 61.833 -11.833 85.5 -35.5s35.5 -52.167 35.5 -85.5c0 -32.667 -12 -61.334 -36 -86.001s-52.333 -37 -85 -37
c-33.333 0 -62.166 12.333 -86.499 37s-36.5 53.334 -36.5 86.001z" />
    <glyph glyph-name="less" unicode="&#x3c;" horiz-adv-x="1706" 
d="M264 559v103l1178 483v-127l-1000 -408l1000 -405v-129z" />
    <glyph glyph-name="equal" unicode="=" horiz-adv-x="1706" 
d="M254 360v117h1198v-117h-1198zM254 743v117h1198v-117h-1198z" />
    <glyph glyph-name="greater" unicode="&#x3e;" horiz-adv-x="1706" 
d="M264 76v129l1000 405l-1000 408v127l1178 -483v-103z" />
    <glyph glyph-name="question" unicode="?" horiz-adv-x="1006" 
d="M127 113c0 37.333 12.833 69.166 38.5 95.499s57.167 39.5 94.5 39.5s69.166 -13.167 95.499 -39.5s39.5 -58.166 39.5 -95.499c0 -38 -13.167 -70.167 -39.5 -96.5s-58.166 -39.5 -95.499 -39.5c-36 0 -67.167 13.5 -93.5 40.5s-39.5 58.833 -39.5 95.5zM203 592
c0 64.667 22.998 122.669 68.998 174.002s117 97.666 213 138.999c35.333 16 85 36 149 60c182 70.667 273 153 273 247c0 58 -26.667 108 -80 150s-118.666 63 -195.999 63c-67.333 0 -124.833 -15.5 -172.5 -46.5s-71.5 -66.5 -71.5 -106.5
c0 -18 5.83301 -42.333 17.5 -73s17.5 -55 17.5 -73c0 -30.667 -9.33301 -55.667 -28 -75s-42.667 -29 -72 -29c-34 0 -61 11.167 -81 33.5s-30 52.166 -30 89.499c0 79.333 44 153.333 132 222s188.667 103 302 103c104 0 190.167 -31 258.5 -93s102.5 -138.667 102.5 -230
c0 -67.333 -13.667 -124.5 -41 -171.5s-71 -89.5 -131 -127.5c-47.333 -30 -129 -65.333 -245 -106l-91 -33c-80 -29.333 -135.5 -57.166 -166.5 -83.499s-46.5 -57.5 -46.5 -93.5c0 -32.667 12.833 -59.5 38.5 -80.5s59.167 -31.5 100.5 -31.5c60 0 113 17 159 51
s83 84 111 150h43c-26.667 -76.667 -67.667 -136.834 -123 -180.501s-117.333 -65.5 -186 -65.5c-65.333 0 -119.166 20.5 -161.499 61.5s-63.5 92.833 -63.5 155.5z" />
    <glyph glyph-name="at" unicode="@" horiz-adv-x="2019" 
d="M145 537c0 136 28.666 262.999 85.999 380.999s140.666 222.333 249.999 313c87.333 73.333 184.333 128.5 291 165.5s221.334 55.5 344.001 55.5c231.333 0 415.833 -62.333 553.5 -187s206.5 -291 206.5 -499c0 -104.667 -19.333 -203.667 -58 -297s-93 -172 -163 -236
c-38 -34.667 -79.167 -61.334 -123.5 -80.001s-89.166 -28 -134.499 -28c-64.667 0 -114.334 17.5 -149.001 52.5s-54 87.833 -58 158.5c-41.333 -70.667 -87.666 -123.5 -138.999 -158.5s-108 -52.5 -170 -52.5c-83.333 0 -150.333 30.667 -201 92s-76 142.666 -76 243.999
c0 72 16.333 144 49 216s78.667 136.333 138 193c43.333 42.667 91.333 76 144 100s104.334 36 155.001 36c58 0 105.667 -16.5 143 -49.5s63.333 -81.5 78 -145.5l53 180h143l-170 -610c0 -1.33301 -0.333008 -3 -1 -5c-11.333 -39.333 -17 -74 -17 -104
c0 -31.333 8.5 -56.166 25.5 -74.499s39.833 -27.5 68.5 -27.5c22.667 0 49 5.83301 79 17.5s58.333 27.834 85 48.501c81.333 60 143.666 137 186.999 231s65 199 65 315c0 93.333 -16.667 177.333 -50 252s-84.333 142.334 -153 203.001c-60 52.667 -132 93.5 -216 122.5
s-173 43.5 -267 43.5c-124.667 0 -238.5 -19.5 -341.5 -58.5s-194.833 -97.5 -275.5 -175.5c-86.667 -84 -152.334 -181.833 -197.001 -293.5s-67 -234.834 -67 -369.501c0 -116.667 19 -218.167 57 -304.5s98.333 -164.5 181 -234.5c76 -64.667 163 -113.5 261 -146.5
s204.667 -49.5 320 -49.5c108.667 0 214.5 17.333 317.5 52s201.5 86 295.5 154l30 -36c-98.667 -73.333 -203 -128.666 -313 -165.999s-224 -56 -342 -56c-124.667 0 -238.667 15.5 -342 46.5s-194.666 77.167 -273.999 138.5
c-100.667 75.333 -177.167 166.833 -229.5 274.5s-78.5 227.167 -78.5 358.5zM749.999 374.999c0 -62 13.501 -110.999 40.501 -146.999s63.167 -54 108.5 -54c44 0 86 14.833 126 44.5s78.667 74.167 116 133.5c38 62.667 68.333 130.167 91 202.5s34 138.166 34 197.499
c0 62 -15.833 113 -47.5 153s-71.834 60 -120.501 60c-36 0 -69 -10.333 -99 -31s-60.667 -54 -92 -100c-48 -72 -86.167 -150 -114.5 -234s-42.5 -159 -42.5 -225z" />
    <glyph glyph-name="A" unicode="A" horiz-adv-x="1276" 
d="M-231 0l16 61c58.667 0 109.667 14.5 153 43.5s103 100.5 179 214.5l741 1117h76l-37 -1229v-29c0 -48.667 6.66699 -80.334 20 -95.001s49.666 -22 108.999 -22h86l-18 -61h-633l18 61h88c57.333 0 94.333 8 111 24s27 56.667 31 122l14 239h-444l-86 -135
c-22.667 -35.333 -39.667 -66.333 -51 -93s-17 -48.667 -17 -66c0 -31.333 11 -54.666 33 -69.999s55.333 -23 100 -23c3.33301 0 8.83301 0.333008 16.5 1s13.834 1 18.501 1l-21 -61h-503zM326 516h397l29 655z" />
    <glyph glyph-name="B" unicode="B" horiz-adv-x="1341" 
d="M-178 0l19.999 61h105c47.333 0 81.5 8.5 102.5 25.5s41.5 56.5 61.5 118.5l325 1032c6.66699 20 11.834 37.833 15.501 53.5s5.5 28.5 5.5 38.5c0 17.333 -6.5 29.833 -19.5 37.5s-33.833 11.5 -62.5 11.5h-13h-112l16 58h553c160 0 279.833 -25.667 359.5 -77
s119.5 -128.333 119.5 -231c0 -100 -39 -181.5 -117 -244.5s-193 -106.167 -345 -129.5c92.667 -25.333 164.5 -65.833 215.5 -121.5s76.5 -121.167 76.5 -196.5c0 -138 -62.333 -245.167 -187 -321.5s-301 -114.5 -529 -114.5h-590zM284.999 131
c0 -26.667 10.167 -44.998 30.5 -54.998s59.833 -15 118.5 -15c84 0 148.167 4.5 192.5 13.5s81.833 23.833 112.5 44.5c49.333 32 91.5 86.167 126.5 162.5s52.5 153.166 52.5 230.499c0 74 -19.333 127.667 -58 161s-100.667 50 -186 50h-209l-162 -508
c-6 -18.667 -10.5 -34.834 -13.5 -48.501s-4.5 -25.5 -4.5 -35.5zM482.999 786.002l153.999 -0.000976562c82.667 0 148 5.16699 196 15.5s86.333 27.166 115 50.499c40.667 32 74.5 81 101.5 147s40.5 132.333 40.5 199s-19.667 113.334 -59 140.001
s-110.666 40 -213.999 40c-64.667 0 -107.5 -7.66699 -128.5 -23s-43.5 -60.666 -67.5 -135.999z" />
    <glyph glyph-name="C" unicode="C" horiz-adv-x="1262" 
d="M49 481c0 116 23.168 236.166 69.501 360.499s110.5 239.166 192.5 344.499c69.333 88 147.333 156.333 234 205s173.334 73 260.001 73c74 0 151 -22.167 231 -66.5s128.667 -66.5 146 -66.5c27.333 0 51.666 9 72.999 27s38 44 50 78h53l-178 -562h-51
c3.33301 37.333 5.83301 69.833 7.5 97.5s2.5 52.834 2.5 75.501c0 105.333 -29.167 191.333 -87.5 258s-133.166 100 -224.499 100c-72.667 0 -138 -24.833 -196 -74.5s-114.667 -129.834 -170 -240.501c-68.667 -137.333 -123.834 -277.333 -165.501 -420
s-62.5 -256 -62.5 -340c0 -95.333 25.167 -170 75.5 -224s119.5 -81 207.5 -81c110 0 211 44.333 303 133s169.333 216.334 232 383.001h59c-64.667 -187.333 -150.167 -330.166 -256.5 -428.499s-228.5 -147.5 -366.5 -147.5c-126.667 0 -231.334 48.5 -314.001 145.5
s-124 220.5 -124 370.5z" />
    <glyph glyph-name="D" unicode="D" horiz-adv-x="1427" 
d="M-170 0l20.002 60.999h101c46.667 0 80.667 8.5 102 25.5s42 56.5 62 118.5l325 1032c6 18 10.667 35 14 51s5 29.667 5 41c0 18.667 -6.83301 31.834 -20.5 39.501s-37.5 11.5 -71.5 11.5h-101l19 56h530c189.333 0 330.166 -41.5 422.499 -124.5
s138.5 -209.5 138.5 -379.5c0 -147.333 -33.833 -289.5 -101.5 -426.5s-160.834 -250.833 -279.501 -341.5c-75.333 -58.667 -159 -100.667 -251 -126s-216.333 -38 -373 -38h-541zM291.002 130.999c0 -25.333 9.16699 -42.999 27.5 -52.999s52.166 -15 101.499 -15
c96.667 0 184 15.5 262 46.5s144.333 76.5 199 136.5c38.667 43.333 73.5 92.333 104.5 147s62.167 123.667 93.5 207c36 96 63.5 185.667 82.5 269s28.5 154.666 28.5 213.999c0 103.333 -27.667 178 -83 224s-145 69 -269 69c-75.333 0 -125 -8.5 -149 -25.5
s-44.667 -54.167 -62 -111.5l-312 -993c-7.33301 -24.667 -13.166 -47.5 -17.499 -68.5s-6.5 -36.5 -6.5 -46.5z" />
    <glyph glyph-name="E" unicode="E" horiz-adv-x="1323" 
d="M-170 0l20.002 60.998h101c46.667 0 80.667 8.5 102 25.5s42 56.5 62 118.5l325 1032c6 18 10.667 35 14 51s5 29.667 5 41c0 18.667 -6.83301 31.834 -20.5 39.501s-37.5 11.5 -71.5 11.5h-101l19 56h1085l-172 -564h-55c12.667 50 21.667 92 27 126s8 64.667 8 92
c0 103.333 -26.333 177.5 -79 222.5s-139.667 67.5 -261 67.5h-41c-56.667 0 -93.834 -6.66699 -111.501 -20s-35.834 -49.666 -54.501 -108.999l-150 -479h99c93.333 0 164 21.333 212 64s87 119.667 117 231h56l-220 -698h-57c14 42 24.333 78.833 31 110.5
s10 59.5 10 83.5c0 55.333 -15.667 94.5 -47 117.5s-88 34.5 -170 34.5h-49l-170 -537c-4 -12.667 -7 -24.667 -9 -36s-3 -21 -3 -29c0 -19.333 7.16699 -32.833 21.5 -40.5s42.5 -11.5 84.5 -11.5h94c166.667 0 296.167 35.333 388.5 106s165.833 189.667 220.5 357h61
l-166 -524h-1155z" />
    <glyph glyph-name="F" unicode="F" horiz-adv-x="1229" 
d="M-170 0l20.0029 60.998h101c46.667 0 80.667 8.5 102 25.5s42 56.5 62 118.5l325 1032c6 18 10.667 35 14 51s5 29.667 5 41c0 18.667 -6.83301 31.834 -20.5 39.501s-37.5 11.5 -71.5 11.5h-101l19 56h1085l-172 -564h-55c12.667 50 21.667 92 27 126s8 64.667 8 92
c0 103.333 -26.333 177.5 -79 222.5s-139.667 67.5 -261 67.5h-41c-56.667 0 -93.834 -6.66699 -111.501 -20s-35.834 -49.666 -54.501 -108.999l-150 -479h99c93.333 0 164 21.333 212 64s87 119.667 117 231h56l-220 -698h-57c14 42 24.333 78.833 31 110.5
s10 59.5 10 83.5c0 55.333 -15.667 94.5 -47 117.5s-88 34.5 -170 34.5h-49l-176 -561c-0.666992 -2 -1.33398 -4.66699 -2.00098 -8c-2.66699 -13.333 -4 -24.333 -4 -33c0 -19.333 7.16699 -32.833 21.5 -40.5s42.5 -11.5 84.5 -11.5h102l-20 -61h-639z" />
    <glyph glyph-name="G" unicode="G" horiz-adv-x="1442" 
d="M49 481c0 115.333 23.0029 234.997 69.0029 358.997s110.333 238.667 193 344c71.333 90.667 151.333 160.334 240 209.001s180.667 73 276 73c47.333 0 92.833 -5.83301 136.5 -17.5s86.5 -29.5 128.5 -53.5c6.66699 -4 16.667 -10.333 30 -19
c62 -36.667 107 -55 135 -55c29.333 0 55.666 10 78.999 30s41.666 48.333 54.999 85h53l-178 -557h-51c2.66699 27.333 5 53.5 7 78.5s3 45.833 3 62.5c0 112.667 -35.667 205.334 -107 278.001s-161.333 109 -270 109c-80.667 0 -150.667 -24.333 -210 -73
s-117.666 -130 -174.999 -244c-69.333 -138 -125 -278.5 -167 -421.5s-63 -255.833 -63 -338.5c0 -95.333 25 -170 75 -224s118.667 -81 206 -81c88 0 165.833 27.833 233.5 83.5s116.167 132.167 145.5 229.5l43 143c7.33301 25.333 12.5 44.833 15.5 58.5
s4.5 24.834 4.5 33.501c0 18.667 -7 32 -21 40s-38.333 12 -73 12h-149l24 57h664l-23 -57h-88c-48.667 0 -83.834 -9.5 -105.501 -28.5s-41.167 -57.5 -58.5 -115.5l-143 -481h-51v29c0 22 -4.5 39.667 -13.5 53s-20.833 20 -35.5 20c-4 0 -49.5 -22.833 -136.5 -68.5
s-173.5 -68.5 -259.5 -68.5c-126.667 0 -231.334 48.5 -314.001 145.5s-124 220.5 -124 370.5z" />
    <glyph glyph-name="H" unicode="H" horiz-adv-x="1565" 
d="M-170 0l19.998 60.9971h101c46.667 0 80.667 8.5 102 25.5s42 56.5 62 118.5l325 1032c6 18 10.667 35 14 51s5 29.667 5 41c0 18.667 -6.83301 31.834 -20.5 39.501s-37.5 11.5 -71.5 11.5h-101l19 56h624l-16 -56h-100c-47.333 0 -81.5 -8.33301 -102.5 -25
s-41.5 -56 -61.5 -118l-142 -444h633l142 444c6.66699 20.667 11.667 38.5 15 53.5s5 27.167 5 36.5c0 19.333 -7 33 -21 41s-37.667 12 -71 12h-100l18 56h625l-19 -56h-98c-47.333 0 -81.666 -8.66699 -102.999 -26s-41.666 -56.333 -60.999 -117l-326 -1032
c-8 -28 -13.333 -48 -16 -60s-4 -22 -4 -30c0 -19.333 7.33301 -33.166 22 -41.499s38.667 -12.5 72 -12.5h119l-19 -61h-645l19 61h100c47.333 0 81.5 8.5 102.5 25.5s41.5 56.5 61.5 118.5l160 516h-633l-162 -516c-6 -21.333 -10.5 -39.166 -13.5 -53.499
s-4.5 -26.5 -4.5 -36.5c0 -20 6.66699 -34 20 -42s37.333 -12 72 -12h100l-20 -61h-627z" />
    <glyph glyph-name="I" unicode="I" horiz-adv-x="766" 
d="M-160 0l19 60.998h100c47.333 0 81.5 8.5 102.5 25.5s41.5 56.5 61.5 118.5l326 1032c6.66699 20 11.667 37.833 15 53.5s5 28.5 5 38.5c0 18.667 -7 31.834 -21 39.501s-38.333 11.5 -73 11.5h-99l19 56h625l-19 -56h-98c-47.333 0 -81.5 -8.33301 -102.5 -25
s-41.5 -56 -61.5 -118l-326 -1032c-8 -28 -13.333 -48 -16 -60s-4 -22 -4 -30c0 -19.333 7 -33.166 21 -41.499s38.333 -12.5 73 -12.5h98l-18 -61h-627z" />
    <glyph glyph-name="J" unicode="J" horiz-adv-x="1071" 
d="M-74 262c0 70 16.334 126.831 49.001 170.498s74.334 65.5 125.001 65.5c37.333 0 67.833 -11.667 91.5 -35s35.5 -53.333 35.5 -90c0 -32 -8.16699 -57.833 -24.5 -77.5s-42.166 -34.167 -77.499 -43.5c-2 -0.666992 -5.33301 -1.66699 -10 -3
c-53.333 -15.333 -80 -41.666 -80 -78.999s17.333 -70.166 52 -98.499s76 -42.5 124 -42.5c61.333 0 110.666 21.167 147.999 63.5s81.666 141.833 132.999 298.5l274 846c6.66699 20.667 11.667 38.5 15 53.5s5 27.167 5 36.5c0 18.667 -7.16699 32.167 -21.5 40.5
s-38.5 12.5 -72.5 12.5h-135l21 56h641l-21 -56h-80c-46.667 0 -80.667 -8.33301 -102 -25s-42 -56 -62 -118l-260 -825c-51.333 -164 -111.5 -279.167 -180.5 -345.5s-158.833 -99.5 -269.5 -99.5c-92.667 0 -168.834 28.333 -228.501 85s-89.5 126.667 -89.5 210z" />
    <glyph glyph-name="K" unicode="K" horiz-adv-x="1370" 
d="M-170 0l19.998 60.998h101c46.667 0 80.667 8.5 102 25.5s42 56.5 62 118.5l325 1032c6 18 10.667 35 14 51s5 29.667 5 41c0 18.667 -6.83301 31.834 -20.5 39.501s-37.5 11.5 -71.5 11.5h-101l19 56h624l-16 -56h-100c-48 0 -82.667 -8.66699 -104 -26
s-41.333 -56.333 -60 -117l-170 -543l616 490c36.667 29.333 62.334 53.5 77.001 72.5s22 37.167 22 54.5c0 23.333 -9.5 39.833 -28.5 49.5s-56.5 15.5 -112.5 17.5l16 58h526l-19 -58c-46 0 -93.667 -11.667 -143 -35s-126.333 -76.333 -231 -159l-377 -293l151 -684
c13.333 -62.667 30.333 -102.667 51 -120s58.334 -26 113.001 -26h78l-20 -61h-576l19 61h47c41.333 0 69.333 5.33301 84 16s22 29.334 22 56.001c0 16 -0.5 28.667 -1.5 38s-2.5 18.333 -4.5 27l-115 576l-225 -174l-125 -395c-6 -19.333 -10.5 -36.5 -13.5 -51.5
s-4.5 -27.833 -4.5 -38.5c0 -20 6.66699 -34 20 -42s37.333 -12 72 -12h100l-20 -61h-627z" />
    <glyph glyph-name="L" unicode="L" horiz-adv-x="1270" 
d="M-170 0l19.999 60.999h101c46.667 0 80.667 8.5 102 25.5s42 56.5 62 118.5l325 1032c6 18 10.667 35 14 51s5 29.667 5 41c0 18.667 -6.83301 31.834 -20.5 39.501s-37.5 11.5 -71.5 11.5h-101l19 56h624l-16 -56h-100c-47.333 0 -81.5 -8.33301 -102.5 -25
s-41.5 -56 -61.5 -118l-330 -1050c-1.33301 -4 -2.66602 -8.66699 -3.99902 -14c-9.33301 -30 -14 -50 -14 -60c0 -19.333 7.16699 -32.833 21.5 -40.5s42.5 -11.5 84.5 -11.5h47c153.333 0 281.333 39.5 384 118.5s189 204.167 259 375.5h53l-167 -555h-1133z" />
    <glyph glyph-name="M" unicode="M" horiz-adv-x="1645" 
d="M-180 0l18 61.002c4.66699 -0.666992 9.5 -1.16699 14.5 -1.5s12.5 -0.5 22.5 -0.5c70 0 127 20.167 171 60.5s80 105.5 108 195.5l303 961c2.66699 9.33301 4.66699 18.166 6 26.499s2 15.166 2 20.499c0 20.667 -7 35 -21 43s-40.333 12 -79 12h-111l18 58h449
l-43 -1149l678 1149h461l-19 -58h-100c-82 0 -139.333 -53 -172 -159l-320 -1010c-5.33301 -18.667 -9.33301 -35 -12 -49s-4 -25.667 -4 -35c0 -22.667 7.66699 -39 23 -49s40.333 -15 75 -15h94l-18 -61h-614l18 61h96c74.667 0 125.667 44.333 153 133l3 9l364 1165
l-811 -1380h-67l43 1374l-338 -1077c-8 -24 -13.833 -44.667 -17.5 -62s-5.5 -33 -5.5 -47c0 -38.667 10.333 -67.5 31 -86.5s52 -28.5 94 -28.5h52l-15 -61h-530z" />
    <glyph glyph-name="N" unicode="N" horiz-adv-x="1384" 
d="M-176 0l19.999 60.999h15c78 0 138.833 19.333 182.5 58s81.167 107 112.5 205l286 913c4.66699 14 8.33398 26.833 11.001 38.5s4 19.834 4 24.501c0 30 -9.83301 50.5 -29.5 61.5s-57.167 16.5 -112.5 16.5h-55l18 58h402l254 -1160l282 902
c6 16 10.333 31.833 13 47.5s4 31.167 4 46.5c0 37.333 -11.5 64.333 -34.5 81s-60.833 25 -113.5 25h-57l18 58h508l-18 -58h-57c-51.333 0 -90.666 -13.333 -117.999 -40s-55 -83.667 -83 -171l-367 -1167h-94l-289 1309l-313 -990
c-8.66699 -25.333 -15.334 -50.833 -20.001 -76.5s-7 -49.167 -7 -70.5c0 -40 12 -68.5 36 -85.5s64.667 -25.5 122 -25.5h57l-20 -61h-557z" />
    <glyph glyph-name="O" unicode="O" horiz-adv-x="1436" 
d="M49 510c0 126 26 251.334 78 376.001s124.333 235 217 331c77.333 80 162.333 142.167 255 186.5s183.667 66.5 273 66.5c160 0 285.667 -48 377 -144s137 -227.333 137 -394c0 -132.667 -30.167 -266 -90.5 -400s-141.833 -249.333 -244.5 -346
c-76 -70.667 -157.833 -124.834 -245.5 -162.501s-175.834 -56.5 -264.501 -56.5c-145.333 0 -263.666 50.5 -354.999 151.5s-137 231.5 -137 391.5zM231 358.001c0 -104 27.166 -185.833 81.499 -245.5s128.5 -89.5 222.5 -89.5c87.333 0 166.5 24.667 237.5 74
s134.5 124.333 190.5 225c70.667 128 127.167 261.333 169.5 400s63.5 255 63.5 349c0 108.667 -27.167 193.167 -81.5 253.5s-130.166 90.5 -227.499 90.5c-74.667 0 -145.5 -21.167 -212.5 -63.5s-125.833 -103.166 -176.5 -182.499
c-25.333 -39.333 -51 -86.833 -77 -142.5s-51 -115.834 -75 -180.501c-37.333 -104.667 -65.833 -198.167 -85.5 -280.5s-29.5 -151.5 -29.5 -207.5z" />
    <glyph glyph-name="P" unicode="P" horiz-adv-x="1247" 
d="M-170 0l20 61h101c46.667 0 80.667 8.5 102 25.5s42 56.5 62 118.5l325 1032c6 18 10.667 35 14 51s5 29.667 5 41c0 18 -6 30.667 -18 38s-32.667 11 -62 11h-12h-101l19 58h495c167.333 0 294.5 -30.333 381.5 -91s130.5 -149.334 130.5 -266.001
c0 -128.667 -51.333 -228.667 -154 -300s-248 -107 -436 -107h-256l-143 -467c-6 -21.333 -10.5 -39.166 -13.5 -53.499s-4.5 -26.5 -4.5 -36.5c0 -20 6.66699 -34 20 -42s37.333 -12 72 -12h135l-18 -61h-664zM467 733l159.999 -0.000976562
c90.667 0 156.834 4.83301 198.501 14.5s77.167 26.167 106.5 49.5c44 34 83 90.833 117 170.5s51 153.834 51 222.501c0 66 -21.333 113.833 -64 143.5s-111.667 44.5 -207 44.5h-49c-46 0 -78 -7.16699 -96 -21.5s-36.333 -51.5 -55 -111.5z" />
    <glyph glyph-name="Q" unicode="Q" horiz-adv-x="1436" 
d="M49 510c0 125.333 26.002 250.169 78.002 374.502s124.333 235.166 217 332.499c77.333 80 162.333 142.167 255 186.5s183.667 66.5 273 66.5c159.333 0 284.833 -48 376.5 -144s137.5 -227.333 137.5 -394c0 -188 -53.333 -364.5 -160 -529.5
s-247.667 -288.167 -423 -369.5c-4 -32.667 -7 -60.334 -9 -83.001s-3 -40 -3 -52c0 -52.667 11.5 -93.167 34.5 -121.5s55.833 -42.5 98.5 -42.5c56 0 112.167 29.5 168.5 88.5s99.166 135.833 128.499 230.5h59c-35.333 -124.667 -90.833 -222 -166.5 -292
s-162.834 -105 -261.501 -105c-75.333 0 -133.5 22.5 -174.5 67.5s-61.5 109.167 -61.5 192.5c0 9.33301 0.333008 19 1 29s1 20 1 30c-15.333 -3.33301 -30.333 -5.83301 -45 -7.5s-31 -2.5 -49 -2.5c-133.333 0 -245.833 51.667 -337.5 155s-137.5 233.333 -137.5 390z
M231.002 358.003c0 -62.667 8.99902 -116.831 26.999 -162.498s44 -81.5 78 -107.5v23c0 72 20.333 130.833 61 176.5s92.667 68.5 156 68.5c74 0 133.167 -21.667 177.5 -65s66.5 -101.333 66.5 -174v-4c36 29.333 70.333 66.333 103 111s65 99 97 163
c62 124.667 110.667 248.5 146 371.5s53 227.167 53 312.5c0 108.667 -27.167 193.167 -81.5 253.5s-130.166 90.5 -227.499 90.5c-74 0 -144.667 -21.5 -212 -64.5s-127 -104.833 -179 -185.5c-24 -36.667 -48.833 -82.334 -74.5 -137.001s-51.5 -117.334 -77.5 -188.001
c-38 -104.667 -66.333 -196.667 -85 -276s-28 -148 -28 -206zM379.001 104.006c0 -5.33301 1.00391 -16.333 3.00391 -33c0 -5.33301 0.333008 -10 1 -14c22 -12 45.667 -21.167 71 -27.5s53.666 -9.5 84.999 -9.5c11.333 0 24.166 1.16699 38.499 3.5
s30.166 5.5 47.499 9.5c5.33301 33.333 9 57.833 11 73.5s3 28.5 3 38.5c0 44 -11 78 -33 102s-52.667 36 -92 36c-40.667 0 -73.334 -16.333 -98.001 -49s-37 -76 -37 -130z" />
    <glyph glyph-name="R" unicode="R" horiz-adv-x="1399" 
d="M-170 0l20.001 60.9971h101c46.667 0 80.667 8.5 102 25.5s42 56.5 62 118.5l325 1032c6 18 10.667 35 14 51s5 29.667 5 41c0 18.667 -6.83301 31.834 -20.5 39.501s-37.5 11.5 -71.5 11.5h-101l19 56h587c140.667 0 248.667 -26.833 324 -80.5s113 -130.167 113 -229.5
c0 -114 -44.333 -204.667 -133 -272s-211 -102.666 -367 -105.999c83.333 -24 146.5 -57.5 189.5 -100.5s64.5 -94.167 64.5 -153.5c0 -57.333 -19.833 -129.5 -59.5 -216.5s-59.5 -144.167 -59.5 -171.5c0 -20 5.66699 -35.167 17 -45.5s28.333 -15.5 51 -15.5
c38 0 78.333 24.167 121 72.5s79.334 112.833 110.001 193.5h60c-36 -110 -82 -192.667 -138 -248s-121.333 -83 -196 -83c-64.667 0 -116.334 18.167 -155.001 54.5s-58 84.833 -58 145.5c0 54.667 19.333 128.334 58 221.001s58 155.667 58 189
c0 50.667 -20.833 86.5 -62.5 107.5s-114.834 31.5 -219.501 31.5h-119l-168 -524c-6 -19.333 -10.5 -36.5 -13.5 -51.5s-4.5 -27.833 -4.5 -38.5c0 -20 6.66699 -34 20 -42s37.333 -12 72 -12h100l-20 -61h-627zM489.001 785.997l167.998 -0.000976562
c78 0 137.333 4.33301 178 13s74.334 23 101.001 43c44.667 34 83.834 88.333 117.501 163s50.5 145.334 50.5 212.001c0 54.667 -19.5 95.5 -58.5 122.5s-98.167 40.5 -177.5 40.5h-86c-70.667 0 -116.667 -33.333 -138 -100c-1.33301 -4.66699 -2.33301 -8 -3 -10z" />
    <glyph glyph-name="S" unicode="S" horiz-adv-x="1223" 
d="M-51 0l201.001 634.998h51c-7.33301 -38.667 -12.333 -70 -15 -94s-4 -46 -4 -66c0 -130 35.167 -235.167 105.5 -315.5s160.833 -120.5 271.5 -120.5c84 0 153.833 28.667 209.5 86s83.5 129 83.5 215c0 107.333 -88.667 220.333 -266 339l-4 3
c-104.667 68.667 -176.667 131.667 -216 189s-59 122.666 -59 195.999c0 108 38.833 200.833 116.5 278.5s171.5 116.5 281.5 116.5c45.333 0 88.5 -6.66699 129.5 -20s81.167 -34 120.5 -62c7.33301 -5.33301 18 -13.666 32 -24.999c39.333 -32 69.333 -48 90 -48
s40.167 10.833 58.5 32.5s34.5 53.834 48.5 96.501h53l-174 -549h-53c8.66699 38 14.834 70 18.501 96s5.5 50 5.5 72c0 102.667 -31.167 187 -93.5 253s-141.833 99 -238.5 99c-72.667 0 -132.334 -21.833 -179.001 -65.5s-70 -98.834 -70 -165.501
c0 -56.667 17.167 -107.667 51.5 -153s105.833 -103.666 214.5 -174.999c112 -74 187.833 -140.667 227.5 -200s59.5 -128.666 59.5 -207.999c0 -128.667 -43.5 -237.5 -130.5 -326.5s-194.5 -133.5 -322.5 -133.5c-38.667 0 -78.334 6.5 -119.001 19.5
s-81 32.167 -121 57.5l-44 30c-54 37.333 -95.333 56 -124 56c-30 0 -57 -11.667 -81 -35s-45.333 -59.333 -64 -108h-51z" />
    <glyph glyph-name="T" unicode="T" horiz-adv-x="1286" 
d="M121 0l20.001 60.998h101c46.667 0 80.667 8.5 102 25.5s42 56.5 62 118.5l325 1032c4.66699 16 8.16699 31.333 10.5 46s3.5 28 3.5 40c0 18 -8.33301 32 -25 42s-40.334 15 -71.001 15c-96.667 0 -178 -33.667 -244 -101s-130.667 -184.333 -194 -351h-57l149 508h1153
l-151 -508h-56c7.33301 32.667 12.666 61.834 15.999 87.501s5 51.167 5 76.5c0 96.667 -18.167 168.167 -54.5 214.5s-92.5 69.5 -168.5 69.5c-38.667 0 -67.5 -8.5 -86.5 -25.5s-38.833 -58.833 -59.5 -125.5l-307 -1020c-6.66699 -21.333 -11.5 -39.166 -14.5 -53.499
s-4.5 -26.5 -4.5 -36.5c0 -20 6.83301 -34 20.5 -42s37.834 -12 72.501 -12h100l-20 -61h-627z" />
    <glyph glyph-name="U" unicode="U" horiz-adv-x="1407" 
d="M160 283c0 36 4.5 76.668 13.5 122.001s27.5 113 55.5 203l197 625c5.33301 16.667 9.33301 32 12 46s4 25.333 4 34c0 27.333 -7.33301 45.333 -22 54s-44.667 13 -90 13h-90l18 56h647l-18 -56h-68c-67.333 0 -112.5 -9.83301 -135.5 -29.5
s-46.833 -67.834 -71.5 -144.501l-235 -751c-16.667 -52.667 -28.334 -96.5 -35.001 -131.5s-10 -66.5 -10 -94.5c0 -61.333 21.833 -109.666 65.5 -144.999s103.834 -53 180.501 -53c106.667 0 193.5 32 260.5 96s124.167 171.333 171.5 322l219 702
c8 24.667 14 46.667 18 66s6 36.333 6 51c0 36.667 -11.167 64.5 -33.5 83.5s-55.5 28.5 -99.5 28.5h-47l19 56h493l-16 -55c-78.667 -4 -138.167 -23.833 -178.5 -59.5s-77.833 -109.5 -112.5 -221.5l-211 -674c-52 -164.667 -118.333 -282.334 -199 -353.001
s-187.667 -106 -321 -106c-118 0 -212 28.833 -282 86.5s-105 134.167 -105 229.5z" />
    <glyph glyph-name="V" unicode="V" horiz-adv-x="1200" 
d="M143 1380l18.999 55.999h588l-17 -56h-84c-49.333 0 -80.833 -6.66699 -94.5 -20s-21.167 -45 -22.5 -95l-18 -976l512 870c18 31.333 31.667 58.333 41 81s14 40 14 52c0 30 -11.667 52.167 -35 66.5s-58.666 21.5 -105.999 21.5h-47l18 56h508l-18 -56h-6
c-62.667 0 -115.667 -16.167 -159 -48.5s-95 -98.5 -155 -198.5l-692 -1166h-51l14 1311c0 42.667 -6.83301 70.334 -20.5 83.001s-46.5 19 -98.5 19h-90z" />
    <glyph glyph-name="W" unicode="W" horiz-adv-x="1864" 
d="M143 1380l18.998 55.999h588l-17 -56h-84c-50 0 -81.667 -6.83301 -95 -20.5s-20.666 -45.167 -21.999 -94.5l-18 -976l498 841l2 148v10c0 37.333 -7.33301 62 -22 74s-47 18 -97 18h-45l12 56h551l-18 -56h-82c-49.333 0 -81.166 -7.16699 -95.499 -21.5
s-22.166 -45.166 -23.499 -92.499l-18 -977l503 856c24 40.667 40 71 48 91s12 38 12 54c0 31.333 -10.833 54.166 -32.5 68.499s-55.834 21.5 -102.501 21.5h-50l19 56h508l-17 -56h-6c-62.667 0 -116.167 -16.333 -160.5 -49s-95.833 -98.667 -154.5 -198l-692 -1166h-52
l11 1045l-621 -1045h-51l14 1311c0 42.667 -6.83301 70.334 -20.5 83.001s-46.5 19 -98.5 19h-90z" />
    <glyph glyph-name="X" unicode="X" horiz-adv-x="1356" 
d="M-195 0l19 61.0029h8c62.667 0 128.167 22 196.5 66s148.833 116.333 241.5 217l342 369l-161 549c-16 54 -33 87.167 -51 99.5s-57 18.5 -117 18.5h-64l19 56h583l-18 -56h-86c-37.333 0 -62.666 -3.83301 -75.999 -11.5s-20 -21.5 -20 -41.5
c0 -8.66699 2.66699 -22.334 8 -41.001c2 -6.66699 3.33301 -11.334 4 -14.001l123 -414l293 313c22.667 24 40.167 47.333 52.5 70s18.5 42.334 18.5 59.001c0 28 -11.333 48.333 -34 61s-59 19 -109 19h-55l20 56h567l-16 -56h-12c-98.667 0 -202 -56.333 -310 -169
l-16 -17l-381 -401l189 -635c10.667 -37.333 24.667 -62.833 42 -76.5s51 -20.5 101 -20.5h84l-21 -61h-600l21 61h55c48 0 81.167 6.66699 99.5 20s27.5 35.333 27.5 66c0 17.333 -7 50.666 -21 99.999l-1 4l-117 398l-316 -342c-26 -28.667 -44.667 -54 -56 -76
s-17 -43.667 -17 -65c0 -34.667 11.167 -60.834 33.5 -78.501s56.166 -26.5 101.499 -26.5h59l-18 -61h-615z" />
    <glyph glyph-name="Y" unicode="Y" horiz-adv-x="1253" 
d="M106 0l18.999 60.9971h100c47.333 0 81.5 8.5 102.5 25.5s41.5 56.5 61.5 118.5l131 424l-182 647c-12 43.333 -26.667 71.166 -44 83.499s-50.333 18.5 -99 18.5h-76l18 58h623l-19 -58h-110c-38 0 -65.333 -4.66699 -82 -14s-25 -24.333 -25 -45
c0 -4.66699 1.5 -11.667 4.5 -21s5.16699 -16.333 6.5 -21l151 -587l361 447c22.667 28.667 39.834 54.834 51.501 78.501s17.5 44.5 17.5 62.5c0 34 -13.833 59.167 -41.5 75.5s-70.5 24.5 -128.5 24.5h-22l16 58h524l-19 -58c-45.333 -0.666992 -87 -12.667 -125 -36
s-89.667 -74.666 -155 -153.999l-456 -557l-131 -426c-6.66699 -21.333 -11.5 -39.166 -14.5 -53.499s-4.5 -26.5 -4.5 -36.5c0 -19.333 7 -33.166 21 -41.499s37.667 -12.5 71 -12.5h119l-18 -61h-646z" />
    <glyph glyph-name="Z" unicode="Z" horiz-adv-x="1298" 
d="M-45 0l4 61l1108 1315h-176c-156 0 -283.5 -35.5 -382.5 -106.5s-181.167 -184.833 -246.5 -341.5h-57l162 508h929l-4 -60l-1118 -1315h150c217.333 0 379.5 36.667 486.5 110s199.167 204 276.5 392h58l-178 -563h-1012z" />
    <glyph glyph-name="bracketleft" unicode="[" horiz-adv-x="735" 
d="M-98 -348l563 1784h412l-19 -58h-96c-60 0 -98.333 -7.16699 -115 -21.5s-33.667 -49.5 -51 -105.5l-432 -1370c-10 -28.667 -17 -51.667 -21 -69s-6 -31.666 -6 -42.999c0 -22 9.16699 -37.5 27.5 -46.5s49.5 -13.5 93.5 -13.5h94l-18 -57h-432z" />
    <glyph glyph-name="backslash" unicode="\" horiz-adv-x="569" 
d="M195 1470h102l137 -1660h-104z" />
    <glyph glyph-name="bracketright" unicode="]" horiz-adv-x="735" 
d="M-256 -348l18 57.002h95c60.667 0 99.5 7.5 116.5 22.5s34.167 49.833 51.5 104.5l432 1370c8 25.333 14 47.166 18 65.499s6 34.166 6 47.499c0 21.333 -9 36.5 -27 45.5s-49.333 13.5 -94 13.5h-92l19 58h430l-561 -1784h-412z" />
    <glyph glyph-name="asciicircum" unicode="^" horiz-adv-x="2048" 
d="M412 897l522 565h178l520 -565h-92l-518 436l-520 -436h-90z" />
    <glyph glyph-name="underscore" unicode="_" horiz-adv-x="1024" 
d="M0 -365h1024v-118h-1024v118z" />
    <glyph glyph-name="grave" unicode="`" horiz-adv-x="1024" 
d="M397 1456c0 18.667 6.83301 35 20.5 49s29.5 21 47.5 21c14 0 28.5 -5 43.5 -15s29.167 -24.333 42.5 -43l215 -301h-68l-243 203c-23.333 18.667 -38.833 34.167 -46.5 46.5s-11.5 25.5 -11.5 39.5z" />
    <glyph glyph-name="a" unicode="a" horiz-adv-x="1219" 
d="M12 324c0 94.667 22.167 192.168 66.5 292.501s105.5 190.5 183.5 270.5c50.667 51.333 105 90.833 163 118.5s115.667 41.5 173 41.5c70 0 124.5 -17.833 163.5 -53.5s61.5 -88.167 67.5 -157.5l62 198h178l-266 -843c-0.666992 -2.66699 -2 -6.33398 -4 -11.001
c-10 -32 -15 -58.667 -15 -80c0 -18.667 4.66699 -32.834 14 -42.501s22.666 -14.5 39.999 -14.5c37.333 0 80.166 27.333 128.499 82s95.5 129.667 141.5 225h43c-54 -121.333 -111.667 -213.333 -173 -276s-123.666 -94 -186.999 -94c-46 0 -81.833 15.833 -107.5 47.5
s-38.5 75.834 -38.5 132.501c0 12 0.5 25 1.5 39s2.5 29.333 4.5 46c-56 -87.333 -115 -153.333 -177 -198s-125 -67 -189 -67c-81.333 0 -147.166 31.333 -197.499 94s-75.5 146 -75.5 250zM174 172.001c0 -46 10.834 -81 32.501 -105s53.167 -36 94.5 -36
c76 0 153.167 42.167 231.5 126.5s137.166 190.166 176.499 317.499l57 184c8 25.333 14.167 50.333 18.5 75s6.5 47.667 6.5 69c0 58 -16.167 105.5 -48.5 142.5s-72.833 55.5 -121.5 55.5c-46.667 0 -90 -16.167 -130 -48.5s-78 -82.166 -114 -149.499
c-58 -105.333 -106.333 -220.833 -145 -346.5s-58 -220.5 -58 -284.5z" />
    <glyph glyph-name="b" unicode="b" 
d="M43 305c0 32 4.16602 69.1699 12.499 111.503s21.166 91.166 38.499 146.499l215 682c6 19.333 10.667 36.166 14 50.499s5 24.833 5 31.5c0 25.333 -5.5 42 -16.5 50s-39.167 12 -84.5 12h-65l17 57c12.667 -0.666992 27.167 -1.16699 43.5 -1.5s40.5 -0.5 72.5 -0.5
c49.333 0 95.833 1.16699 139.5 3.5s85.834 5.83301 126.501 10.5l-199 -629c46.667 74 96 129.5 148 166.5s107.333 55.5 166 55.5c82 0 147.167 -32.167 195.5 -96.5s72.5 -151.833 72.5 -262.5c0 -98 -15.667 -191.167 -47 -279.5s-76.333 -166.5 -135 -234.5
c-55.333 -64.667 -116.666 -114.334 -183.999 -149.001s-137 -52 -209 -52c-99.333 0 -178.5 29.667 -237.5 89s-88.5 139 -88.5 239zM189.999 195.003c0 -52 14.6719 -93.001 44.0049 -123.001s69.333 -45 120 -45c43.333 0 83.166 12.833 119.499 38.5
s71.166 65.167 104.499 118.5c17.333 28.667 35.666 65.667 54.999 111s41.666 104 66.999 176c30.667 89.333 52.667 162.833 66 220.5s20 106.5 20 146.5c0 51.333 -11.667 91.333 -35 120s-56 43 -98 43c-64 0 -130.333 -37.667 -199 -113
s-120.334 -168.666 -155.001 -279.999l-70 -217c-14 -47.333 -24 -85.833 -30 -115.5s-9 -56.5 -9 -80.5z" />
    <glyph glyph-name="c" unicode="c" horiz-adv-x="940" 
d="M16 322c0 92 21.6641 189.502 64.9971 292.502s100.333 191.833 171 266.5c52 56 108 99 168 129s119.333 45 178 45c74 0 135.5 -23.667 184.5 -71s73.5 -105.666 73.5 -174.999c0 -54 -14.5 -98.167 -43.5 -132.5s-64.833 -51.5 -107.5 -51.5
c-31.333 0 -57.333 9.66699 -78 29s-31 43.666 -31 72.999c0 28 9.33301 50.667 28 68s48.334 31 89.001 41c24.667 6 41.667 13.167 51 21.5s14 20.166 14 35.499c0 29.333 -17 56.166 -51 80.499s-73 36.5 -117 36.5c-43.333 0 -83.166 -14.167 -119.499 -42.5
s-70.166 -71.5 -101.499 -129.5c-20.667 -37.333 -42.167 -84.833 -64.5 -142.5s-46.5 -127.834 -72.5 -210.501c-21.333 -68 -37 -124.167 -47 -168.5s-15 -81.5 -15 -111.5c0 -54 13.5 -96.167 40.5 -126.5s64.167 -45.5 111.5 -45.5c72.667 0 146.5 30.667 221.5 92
s139.833 145.333 194.5 252h43c-57.333 -122.667 -129.833 -220 -217.5 -292s-177.167 -108 -268.5 -108c-90 0 -162.333 31.333 -217 94s-82 146.334 -82 251.001z" />
    <glyph glyph-name="d" unicode="d" horiz-adv-x="1219" 
d="M12 324c0 94.667 22.167 192.167 66.5 292.5s105.5 190.5 183.5 270.5c49.333 51.333 103 90.833 161 118.5s116.333 41.5 175 41.5c67.333 0 120.5 -17 159.5 -51s61.5 -82.667 67.5 -146l123 395c6 20.667 10.667 38.167 14 52.5s5 24.166 5 29.499
c0 25.333 -5.5 42 -16.5 50s-39.167 12 -84.5 12h-65l19 57c12.667 -0.666992 27 -1.16699 43 -1.5s39.667 -0.5 71 -0.5c49.333 0 95.833 1.16699 139.5 3.5s85.834 5.83301 126.501 10.5l-397 -1268c-0.666992 -1.33301 -1.33398 -3 -2.00098 -5
c-11.333 -32.667 -17 -61 -17 -85c0 -18.667 4.66699 -32.834 14 -42.501s22.666 -14.5 39.999 -14.5c37.333 0 80.166 27.333 128.499 82s95.5 129.667 141.5 225h43c-54 -121.333 -111.667 -213.333 -173 -276s-123.666 -94 -186.999 -94
c-46 0 -81.833 15.833 -107.5 47.5s-38.5 75.834 -38.5 132.501c0 22.667 1.66699 47.334 5 74.001c0.666992 6 1 10 1 12c-56 -88.667 -114.5 -155.167 -175.5 -199.5s-124.5 -66.5 -190.5 -66.5c-81.333 0 -147.166 31.333 -197.499 94s-75.5 146 -75.5 250zM174 172
c0 -46 10.832 -81.001 32.499 -105.001s53.167 -36 94.5 -36c76.667 0 153.834 42 231.501 126s136.5 190 176.5 318l57 184c8 25.333 14.167 50.333 18.5 75s6.5 47.667 6.5 69c0 58 -16.167 105.5 -48.5 142.5s-72.833 55.5 -121.5 55.5c-46.667 0 -90 -16.167 -130 -48.5
s-78 -82.166 -114 -149.499c-58 -105.333 -106.333 -220.833 -145 -346.5s-58 -220.5 -58 -284.5z" />
    <glyph glyph-name="e" unicode="e" horiz-adv-x="963" 
d="M14 322c0 88 21.1689 179.497 63.502 274.497s100.5 181.5 174.5 259.5c62.667 66 127.667 115.667 195 149s136 50 206 50c67.333 0 121.833 -18.667 163.5 -56s62.5 -85.666 62.5 -144.999c0 -102 -57.333 -190.667 -172 -266s-274.334 -128.666 -479.001 -159.999
l-6 -20c-29.333 -107.333 -44 -182 -44 -224c0 -46 13.667 -83 41 -111s63.666 -42 108.999 -42c69.333 0 141.5 28.833 216.5 86.5s140.5 135.834 196.5 234.501h47c-62.667 -118 -136.167 -210 -220.5 -276s-170.5 -99 -258.5 -99c-88.667 0 -160 31.5 -214 94.5
s-81 146.5 -81 250.5zM246.002 478.997c145.333 16 264.167 62.334 356.5 139.001s138.5 163.667 138.5 261c0 41.333 -11.167 74.166 -33.5 98.499s-52.833 36.5 -91.5 36.5c-62.667 0 -125.5 -45.5 -188.5 -136.5s-123.5 -223.833 -181.5 -398.5z" />
    <glyph glyph-name="f" unicode="f" horiz-adv-x="696" 
d="M8 0l303 963.002h-180l23 71h180c40.667 148.667 92 258.167 154 328.5s138.333 105.5 229 105.5c63.333 0 114 -16 152 -48s57 -74.667 57 -128c0 -38.667 -11.667 -71.167 -35 -97.5s-52 -39.5 -86 -39.5c-28.667 0 -52.167 8.83301 -70.5 26.5
s-27.5 40.167 -27.5 67.5c0 31.333 13.5 60.666 40.5 87.999s40.5 44.666 40.5 51.999c0 10.667 -6 20.167 -18 28.5s-27 12.5 -45 12.5c-52 0 -100.333 -68.667 -145 -206v-1l-62 -189h187l-23 -71h-186l-303 -963h-185z" />
    <glyph glyph-name="g" unicode="g" horiz-adv-x="1114" 
d="M-98 -180c0 36.667 11.8311 66.667 35.498 90s54.834 35 93.501 35c34 0 63 -10.333 87 -31s36 -45.334 36 -74.001c0 -23.333 -10.333 -47.833 -31 -73.5s-31 -41.5 -31 -47.5c0 -13.333 10.167 -25.166 30.5 -35.499s45.833 -15.5 76.5 -15.5
c78.667 0 147.5 29.167 206.5 87.5s113.5 152.166 163.5 281.499l82 209c-56 -88 -115 -154.333 -177 -199s-125 -67 -189 -67c-81.333 0 -147.166 31.333 -197.499 94s-75.5 146 -75.5 250c0 94.667 22.167 192.167 66.5 292.5s105.5 190.5 183.5 270.5
c50.667 51.333 105 90.833 163 118.5s115.667 41.5 173 41.5c70 0 124.5 -17.833 163.5 -53.5s61.5 -88.167 67.5 -157.5l62 198h178l-244 -768c-38.667 -124.667 -72.334 -217.667 -101.001 -279s-60.334 -112.333 -95.001 -153
c-59.333 -69.333 -126.666 -122.166 -201.999 -158.499s-155.666 -54.5 -240.999 -54.5c-81.333 0 -149 19.333 -203 58s-81 85.667 -81 141zM173.998 172c0 -46 10.834 -81 32.501 -105s53.167 -36 94.5 -36c76 0 153.167 42.167 231.5 126.5
s137.166 190.166 176.499 317.499l57 184c8 25.333 14.167 50.333 18.5 75s6.5 47.667 6.5 69c0 58 -16.167 105.5 -48.5 142.5s-72.833 55.5 -121.5 55.5c-46.667 0 -90 -16.167 -130 -48.5s-78 -82.166 -114 -149.499c-58 -105.333 -106.333 -220.833 -145 -346.5
s-58 -220.5 -58 -284.5z" />
    <glyph glyph-name="h" unicode="h" horiz-adv-x="1161" 
d="M-31 0l392.004 1246c6 21.333 10.5 38.833 13.5 52.5s4.5 23.167 4.5 28.5c0 25.333 -5.5 42 -16.5 50s-38.833 12 -83.5 12h-66l16 56c13.333 0 28.166 -0.166992 44.499 -0.5s40.5 -0.5 72.5 -0.5c49.333 0 96 1.16699 140 3.5s86 5.83301 126 10.5l-252 -794
c74 126.667 144.667 221 212 283s132.666 93 195.999 93c56 0 102.167 -20.5 138.5 -61.5s54.5 -93.5 54.5 -157.5c0 -51.333 -8 -105 -24 -161s-46.333 -130.667 -91 -224l-52 -106c-55.333 -111.333 -83 -184.333 -83 -219c0 -21.333 7.83301 -39.333 23.5 -54
s34.5 -22 56.5 -22c43.333 0 91 28.833 143 86.5s97 133.834 135 228.501h41c-41.333 -114 -91.833 -203.5 -151.5 -268.5s-120.5 -97.5 -182.5 -97.5c-56.667 0 -102.834 21.833 -138.501 65.5s-53.5 100.834 -53.5 171.501c0 45.333 10.333 99.833 31 163.5
s51.334 133.5 92.001 209.5l49 91c58.667 104 88 176.667 88 218c0 27.333 -8.83301 49.5 -26.5 66.5s-40.167 25.5 -67.5 25.5c-74.667 0 -162.334 -68.333 -263.001 -205s-182.334 -305 -245.001 -505l-90 -285h-183z" />
    <glyph glyph-name="i" unicode="i" horiz-adv-x="797" 
d="M-6 639c53.333 132 113.332 233.668 179.999 305.001s135 107 205 107c56 0 101 -19.667 135 -59s51 -91.333 51 -156c0 -54 -13.5 -117.5 -40.5 -190.5s-74.833 -172.833 -143.5 -299.5c-36.667 -66 -60.834 -114.667 -72.501 -146s-17.5 -59 -17.5 -83
c0 -27.333 6.83301 -48.5 20.5 -63.5s32.834 -22.5 57.501 -22.5c42 0 87.333 27.5 136 82.5s97.334 133.833 146.001 236.5h45c-53.333 -124.667 -109.5 -217.5 -168.5 -278.5s-122.167 -91.5 -189.5 -91.5c-52.667 0 -95.5 21.333 -128.5 64s-49.5 99 -49.5 169
c0 49.333 8.5 101.333 25.5 156s48.167 125 93.5 211l58 106c64.667 115.333 97 192.666 97 231.999c0 26 -7.33301 46.833 -22 62.5s-34.667 23.5 -60 23.5c-48 0 -100 -32.333 -156 -97s-109 -154 -159 -268h-43zM458.999 1315c0 36 12.833 66.833 38.5 92.5
s57.167 38.5 94.5 38.5c36.667 0 67.667 -12.667 93 -38s38 -56.333 38 -93c0 -36 -13 -67.167 -39 -93.5s-56.667 -39.5 -92 -39.5c-36 0 -67.167 13.167 -93.5 39.5s-39.5 57.5 -39.5 93.5z" />
    <glyph glyph-name="j" unicode="j" horiz-adv-x="772" 
d="M-236 -180c0 40 13.335 74.165 40.002 102.498s58.667 42.5 96 42.5c29.333 0 54 -9.83301 74 -29.5s30 -43.834 30 -72.501c0 -38 -19.5 -68.667 -58.5 -92s-58.5 -42.666 -58.5 -57.999c0 -12.667 7.33301 -23.667 22 -33s32.667 -14 54 -14
c44 0 80.667 18.167 110 54.5s59.666 104.166 90.999 203.499l291 922c5.33301 16.667 9.33301 31.834 12 45.501s4 25.167 4 34.5c0 20 -5.5 35.5 -16.5 46.5s-26.5 16.5 -46.5 16.5c-49.333 0 -101 -31.667 -155 -95s-104.333 -151 -151 -263h-45
c55.333 136 116.833 240.667 184.5 314s137.5 110 209.5 110c52 0 94 -17.167 126 -51.5s48 -80.166 48 -137.499c0 -26 -4 -58.167 -12 -96.5s-19.667 -81.166 -35 -128.499l-175 -553c-52 -164.667 -110.5 -283.667 -175.5 -357s-143.5 -110 -235.5 -110
c-70.667 0 -126.334 17.833 -167.001 53.5s-61 84.167 -61 145.5zM496.002 1315c0 36 12.833 66.833 38.5 92.5s57.167 38.5 94.5 38.5c36.667 0 67.667 -12.667 93 -38s38 -56.333 38 -93c0 -36 -13 -67.167 -39 -93.5s-56.667 -39.5 -92 -39.5
c-36 0 -67.167 13.167 -93.5 39.5s-39.5 57.5 -39.5 93.5z" />
    <glyph glyph-name="k" unicode="k" horiz-adv-x="1180" 
d="M-33 0l406.001 1287l1 4c8.66699 28 13 47.667 13 59c0 14.667 -5.33301 24.834 -16 30.501s-34.667 8.5 -72 8.5h-80l19 57h65c54.667 0 108.334 1 161.001 3s105 5 157 9l-281 -899h74c67.333 0 117.5 10 150.5 30s60.5 55.667 82.5 107
c7.33301 16.667 17.666 41.667 30.999 75c74.667 185.333 161.334 278 260.001 278c48.667 0 89.834 -15.667 123.501 -47s50.5 -69.666 50.5 -114.999c0 -36.667 -10.333 -67 -31 -91s-46.334 -36 -77.001 -36c-24.667 0 -45.667 8.16699 -63 24.5s-26 36.166 -26 59.499
c0 22.667 11.333 45.167 34 67.5s34 39.5 34 51.5c0 10 -5.5 18.833 -16.5 26.5s-23.833 11.5 -38.5 11.5c-56.667 0 -107.667 -61 -153 -183l-27 -70c-26.667 -65.333 -57 -115.166 -91 -149.499s-75.667 -57.166 -125 -68.499
c58.667 -9.33301 104.167 -29.166 136.5 -59.499s48.5 -67.833 48.5 -112.5c0 -43.333 -12 -93.5 -36 -150.5s-36 -93.5 -36 -109.5c0 -14 5.83301 -25.667 17.5 -35s26.5 -14 44.5 -14c42.667 0 89.5 28.667 140.5 86s92.167 130.333 123.5 219h47
c-40.667 -115.333 -93.334 -205.833 -158.001 -271.5s-133 -98.5 -205 -98.5c-53.333 0 -96 15.833 -128 47.5s-48 74.5 -48 128.5c0 44 12.667 96.167 38 156.5s38 100.833 38 121.5c0 20 -12.333 35.667 -37 47s-59.334 17 -104.001 17h-92l-160 -502h-195z" />
    <glyph glyph-name="l" unicode="l" horiz-adv-x="696" 
d="M57 166c0 44 14.332 111.67 42.999 203.003c6 18 10.333 31.667 13 41l264 835c6 19.333 10.5 36.166 13.5 50.499s4.5 24.833 4.5 31.5c0 25.333 -5.33301 42 -16 50s-38.667 12 -84 12h-66l17 57c13.333 -0.666992 28 -1.16699 44 -1.5s39.333 -0.5 70 -0.5
c50 0 96.833 1.16699 140.5 3.5s85.5 5.83301 125.5 10.5l-395 -1268c0 -0.666992 -0.666992 -2.66699 -2 -6c-10.667 -32 -16 -60 -16 -84c0 -18.667 4.5 -32.834 13.5 -42.501s22.167 -14.5 39.5 -14.5c37.333 0 79.833 27.167 127.5 81.5s94.834 129.5 141.501 225.5h45
c-54.667 -122 -112.667 -214.667 -174 -278s-123.666 -95 -186.999 -95c-50.667 0 -90.334 16.667 -119.001 50s-43 79.666 -43 138.999z" />
    <glyph glyph-name="m" unicode="m" horiz-adv-x="1831" 
d="M-25 627c52 128.667 110.332 229.67 174.999 303.003s126.667 110 186 110c47.333 0 83.666 -17.667 108.999 -53s38 -85.666 38 -150.999c0 -24.667 -2 -51.334 -6 -80.001s-10 -59.334 -18 -92.001c74 127.333 144.5 221.833 211.5 283.5s132.167 92.5 195.5 92.5
c56 0 101.833 -20.333 137.5 -61s53.5 -93.334 53.5 -158.001c0 -22 -2.16699 -46 -6.5 -72s-11.166 -54.333 -20.499 -85c74 126.667 144.5 221 211.5 283s132.5 93 196.5 93c55.333 0 100.833 -20.333 136.5 -61s53.5 -93.334 53.5 -158.001
c0 -52.667 -8 -107.5 -24 -164.5s-45.333 -130.5 -88 -220.5l-52 -106c-56 -111.333 -84 -184.333 -84 -219c0 -21.333 7.66699 -39.333 23 -54s33.666 -22 54.999 -22c43.333 0 91 28.833 143 86.5s97.333 133.834 136 228.501h43
c-41.333 -114 -91.833 -203.5 -151.5 -268.5s-120.5 -97.5 -182.5 -97.5c-57.333 0 -104.166 21.833 -140.499 65.5s-54.5 100.834 -54.5 171.501c0 45.333 10.5 99.833 31.5 163.5s51.5 133.5 91.5 209.5l54 99c55.333 99.333 83 168.666 83 207.999
c0 28.667 -8 51.5 -24 68.5s-37.333 25.5 -64 25.5c-82 0 -174.667 -74.5 -278 -223.5s-191.333 -341.167 -264 -576.5l-60 -195h-184l256 809c6.66699 19.333 11.667 38.166 15 56.499s5 33.5 5 45.5c0 22.667 -6.83301 40.334 -20.5 53.001s-32.5 19 -56.5 19
c-79.333 0 -169.5 -74 -270.5 -222s-186.5 -336.667 -256.5 -566l-59 -195h-184l253 803c10 28.667 16.667 51.167 20 67.5s5 31.166 5 44.499c0 16.667 -4.33301 29.5 -13 38.5s-20.667 13.5 -36 13.5c-38.667 0 -83.167 -30.667 -133.5 -92s-98.166 -144 -143.499 -248
h-43z" />
    <glyph glyph-name="n" unicode="n" horiz-adv-x="1260" 
d="M-25 627c52 128.667 110.332 229.667 174.999 303s126.667 110 186 110c47.333 0 83.666 -17.667 108.999 -53s38 -85.666 38 -150.999c0 -24.667 -2 -51.334 -6 -80.001s-10 -59.334 -18 -92.001c74 126.667 144.5 221 211.5 283s132.167 93 195.5 93
c56 0 101.833 -20.333 137.5 -61s53.5 -93.334 53.5 -158.001c0 -52.667 -8 -107.5 -24 -164.5s-45.667 -130.5 -89 -220.5l-52 -106c-55.333 -111.333 -83 -184.333 -83 -219c0 -21.333 7.5 -39.333 22.5 -54s33.5 -22 55.5 -22c43.333 0 91 28.833 143 86.5
s97 133.834 135 228.501h43c-41.333 -114 -91.666 -203.5 -150.999 -268.5s-120.333 -97.5 -183 -97.5c-56.667 0 -103.167 21.833 -139.5 65.5s-54.5 100.834 -54.5 171.501c0 44.667 10.333 98.5 31 161.5s51.334 133.5 92.001 211.5c11.333 22 28 52.333 50 91
c58 104 87 176.667 87 218c0 28 -8.33301 50.333 -25 67s-39 25 -67 25c-78.667 0 -166.834 -69.667 -264.501 -209s-183.5 -322.666 -257.5 -549.999l-76 -236h-184l253 803c10 28.667 16.667 51.167 20 67.5s5 31.166 5 44.499c0 16.667 -4.33301 29.5 -13 38.5
s-20.667 13.5 -36 13.5c-38.667 0 -83.167 -30.667 -133.5 -92s-98.166 -144 -143.499 -248h-43z" />
    <glyph glyph-name="o" unicode="o" horiz-adv-x="1100" 
d="M14 420c0 82 16.001 162.499 48.001 241.499s77.667 151.5 137 217.5c54 58.667 113.167 103.334 177.5 134.001s132.166 46 203.499 46c123.333 0 222.333 -39.5 297 -118.5s112 -184.167 112 -315.5c0 -80.667 -16.833 -162.5 -50.5 -245.5
s-79.5 -156.167 -137.5 -219.5c-54 -58 -114.833 -103.333 -182.5 -136s-134.5 -49 -200.5 -49c-115.333 0 -211.5 42.167 -288.5 126.5s-115.5 190.5 -115.5 318.5zM184.001 259.999c0 -69.333 20 -125.832 60 -169.499s91.667 -65.5 155 -65.5c48 0 93 15 135 45
s79 73.667 111 131c16.667 28.667 33.167 63.167 49.5 103.5s32.5 86.166 48.5 137.499c25.333 79.333 44 148.333 56 207s18 110.667 18 156c0 61.333 -19.5 111.166 -58.5 149.499s-89.833 57.5 -152.5 57.5c-43.333 0 -84.5 -13.5 -123.5 -40.5
s-75.5 -67.5 -109.5 -121.5c-20 -31.333 -40.667 -72.166 -62 -122.499s-43.666 -110.5 -66.999 -180.5c-20.667 -60.667 -35.834 -114 -45.501 -160s-14.5 -88.333 -14.5 -127z" />
    <glyph glyph-name="p" unicode="p" horiz-adv-x="1233" 
d="M-270 -356l16 53.0029h96c56.667 0 95 8 115 24s39.667 55.667 59 119l308 977c9.33301 30.667 15.666 53.334 18.999 68.001s5 27 5 37c0 19.333 -4.83301 34.333 -14.5 45s-23.167 16 -40.5 16c-38 0 -84.167 -31.833 -138.5 -95.5s-105.833 -147.834 -154.5 -252.501
h-49c68 140.667 133.667 244.5 197 311.5s127.333 100.5 192 100.5c50 0 89.5 -16.333 118.5 -49s43.5 -77.334 43.5 -134.001c0 -10 -0.5 -21.667 -1.5 -35s-2.5 -28 -4.5 -44c62 89.333 122.5 155.333 181.5 198s119.167 64 180.5 64
c79.333 0 143.833 -34.167 193.5 -102.5s74.5 -157.833 74.5 -268.5c0 -88.667 -18.5 -175.334 -55.5 -260.001s-90.833 -163.334 -161.5 -236.001c-62 -64 -127.667 -113.333 -197 -148s-136 -52 -200 -52c-54.667 0 -100 17.5 -136 52.5s-57.667 82.833 -65 143.5
l-116 -362c-1.33301 -3.33301 -2.66602 -7.33301 -3.99902 -12c-7.33301 -25.333 -11 -46 -11 -62c0 -14.667 6.5 -25.5 19.5 -32.5s33.167 -10.5 60.5 -10.5h113l-13 -53h-630zM350 221.003c0 -59.333 14.5 -107.167 43.5 -143.5s66.5 -54.5 112.5 -54.5
c37.333 0 74.5 13 111.5 39s74.167 65.333 111.5 118c26 37.333 52 82.5 78 135.5s52.667 115.833 80 188.5c28 76.667 49 143 63 199s21 103.667 21 143c0 47.333 -11.833 84.333 -35.5 111s-56.167 40 -97.5 40c-48.667 0 -101.5 -22.167 -158.5 -66.5
s-109.5 -104.5 -157.5 -180.5c-48.667 -78 -89.5 -168.667 -122.5 -272s-49.5 -189 -49.5 -257z" />
    <glyph glyph-name="q" unicode="q" horiz-adv-x="1118" 
d="M12 324c0 94.667 22.167 192.168 66.5 292.501s105.5 190.5 183.5 270.5c49.333 50.667 103.166 90 161.499 118s116.5 42 174.5 42c40.667 0 77.5 -7.16699 110.5 -21.5s61.833 -35.833 86.5 -64.5l23 -31c29.333 -38.667 56.333 -58 81 -58c24 0 47 14.167 69 42.5
s40.667 68.166 56 119.499h45l-387 -1221c-5.33301 -14 -9 -26.667 -11 -38s-3 -23 -3 -35c0 -14.667 6.33301 -25.5 19 -32.5s33 -10.5 61 -10.5h96l-17 -53h-612l16 53h99c54 0 90.667 7.33301 110 22s40 55 62 121l121 365c-52 -74 -106.667 -130 -164 -168
s-115.333 -57 -174 -57c-81.333 0 -147.166 31.333 -197.499 94s-75.5 146 -75.5 250zM174 172.001c0 -46 10.834 -81 32.501 -105s53.167 -36 94.5 -36c76 0 153.167 42.167 231.5 126.5s137.166 190.166 176.499 317.499l57 184c8 25.333 14.167 50.333 18.5 75
s6.5 47.667 6.5 69c0 58 -16.167 105.5 -48.5 142.5s-72.833 55.5 -121.5 55.5c-46.667 0 -90 -16.167 -130 -48.5s-78 -82.166 -114 -149.499c-58 -105.333 -106.333 -220.833 -145 -346.5s-58 -220.5 -58 -284.5z" />
    <glyph glyph-name="r" unicode="r" horiz-adv-x="963" 
d="M-25 627c52 128 110.334 228.501 175.001 301.501s126.667 109.5 186 109.5c49.333 0 86.5 -17 111.5 -51s37.5 -84.333 37.5 -151c0 -6.66699 -0.5 -16.334 -1.5 -29.001s-3.83301 -39 -8.5 -79c40.667 98 87.5 173.833 140.5 227.5s107.833 80.5 164.5 80.5
c45.333 0 82.666 -16 111.999 -48s44 -72.667 44 -122c0 -45.333 -12.833 -82.833 -38.5 -112.5s-57.834 -44.5 -96.501 -44.5c-30 0 -54.333 8.83301 -73 26.5s-28 40.834 -28 69.501c0 34.667 17.833 65.5 53.5 92.5s53.5 45.833 53.5 56.5c0 8.66699 -4.5 16 -13.5 22
s-20.167 9 -33.5 9c-64 0 -131.5 -59.833 -202.5 -179.5s-142.167 -293.167 -213.5 -520.5l-88 -285h-190l253 803c10 28.667 16.667 51.167 20 67.5s5 31.166 5 44.499c0 16.667 -4.33301 29.5 -13 38.5s-20.667 13.5 -36 13.5c-38.667 0 -83.167 -30.667 -133.5 -92
s-98.166 -144 -143.499 -248h-43z" />
    <glyph glyph-name="s" unicode="s" horiz-adv-x="932" 
d="M-41 217c0 42 12.333 76.332 37 102.999s56 40 94 40c32 0 58.5 -9.83301 79.5 -29.5s31.5 -44.5 31.5 -74.5c0 -32.667 -15.833 -62.334 -47.5 -89.001s-47.5 -44.667 -47.5 -54c0 -22.667 18 -43 54 -61s79.667 -27 131 -27c84 0 154.5 21 211.5 63
s85.5 93.333 85.5 154c0 65.333 -64.667 134.333 -194 207l-21 12c-78 44.667 -133 88.5 -165 131.5s-48 93.167 -48 150.5c0 88.667 36.333 163.167 109 223.5s164.667 90.5 276 90.5c84 0 155.167 -22.333 213.5 -67s87.5 -97.667 87.5 -159
c0 -37.333 -11 -67.333 -33 -90s-50.667 -34 -86 -34c-31.333 0 -57.333 9.33301 -78 28s-31 42.667 -31 72c0 32 16.167 59.167 48.5 81.5s48.5 36.833 48.5 43.5c0 20.667 -17.333 39.167 -52 55.5s-77.334 24.5 -128.001 24.5c-72 0 -131 -18 -177 -54s-69 -81 -69 -135
c0 -61.333 55.333 -123.666 166 -186.999l6 -3c112 -63.333 183.667 -115.833 215 -157.5s47 -91.5 47 -149.5c0 -98 -40.667 -180.167 -122 -246.5s-183.333 -99.5 -306 -99.5c-101.333 0 -182.666 21.833 -243.999 65.5s-92 100.834 -92 171.501z" />
    <glyph glyph-name="t" unicode="t" horiz-adv-x="754" 
d="M72 164c0 27.333 3.3291 57.4971 9.99609 90.4971s18.334 75.833 35.001 128.5l184 580h-180l22 71h181l112 357h185l-115 -357h201l-23 -71h-201l-243 -778c-5.33301 -16.667 -9.16602 -30.667 -11.499 -42s-3.5 -20.666 -3.5 -27.999c0 -24 7 -42.667 21 -56
s33.667 -20 59 -20c47.333 0 94.833 27.333 142.5 82s88.834 130.334 123.501 227.001h45c-38 -119.333 -88.167 -211.333 -150.5 -276s-132.166 -97 -209.499 -97c-55.333 0 -99.833 17.333 -133.5 52s-50.5 80.334 -50.5 137.001z" />
    <glyph glyph-name="u" unicode="u" horiz-adv-x="1260" 
d="M-37 641c38.667 124 89.999 222.665 153.999 295.998s130 110 198 110c56 0 101.5 -21.5 136.5 -64.5s52.5 -99.5 52.5 -169.5c0 -45.333 -10.5 -99.666 -31.5 -162.999s-51.5 -133.333 -91.5 -210c-10.667 -20.667 -26.667 -49.667 -48 -87
c-59.333 -107.333 -89 -183.333 -89 -228c0 -24 8.66699 -44.667 26 -62s38 -26 62 -26c77.333 0 166.833 68.833 268.5 206.5s183.5 306.5 245.5 506.5l88 284h184l-252 -803c-0.666992 -2.66699 -1.66699 -6.33398 -3 -11.001c-14 -46.667 -21 -81 -21 -103
c0 -16 4.16699 -28.167 12.5 -36.5s20.5 -12.5 36.5 -12.5c34.667 0 75 25.5 121 76.5s89.667 120.167 131 207.5h45c-47.333 -109.333 -102.166 -196.333 -164.499 -261s-120.833 -97 -175.5 -97c-47.333 0 -83.5 17.5 -108.5 52.5s-37.5 85.833 -37.5 152.5
c0 25.333 2.16699 51.833 6.5 79.5s10.5 57.834 18.5 90.501c-76 -130.667 -147.5 -227.5 -214.5 -290.5s-131.5 -94.5 -193.5 -94.5c-56 0 -101.667 21.5 -137 64.5s-53 98.5 -53 166.5c0 50 8.33301 104 25 162s46 131 88 219l51 104c56 112.667 84 187.334 84 224.001
c0 20.667 -7.66699 38 -23 52s-34.333 21 -57 21c-49.333 0 -101.5 -33 -156.5 -99s-99.833 -151.667 -134.5 -257h-43z" />
    <glyph glyph-name="v" unicode="v" horiz-adv-x="1165" 
d="M-6 627c43.333 131.333 97.4951 234.835 162.495 310.502s132.167 113.5 201.5 113.5c56.667 0 102.334 -20.667 137.001 -62s52 -96 52 -164c0 -54 -10.833 -114.333 -32.5 -181s-53.167 -137.334 -94.5 -212.001l-47 -82c-62.667 -108 -94 -181 -94 -219
c0 -32 10.667 -57.667 32 -77s50 -29 86 -29c50.667 0 104.834 18.833 162.501 56.5s117.5 93.167 179.5 166.5c66 78.667 116.333 154.834 151 228.501s52 141.5 52 203.5c0 29.333 -4.33301 54.333 -13 75s-22.667 39.334 -42 56.001c-5.33301 4.66699 -14.333 12 -27 22
c-46 35.333 -69 73 -69 113c0 30 10.333 55.333 31 76s45.667 31 75 31c42.667 0 76.5 -17.5 101.5 -52.5s37.5 -82.5 37.5 -142.5c0 -88.667 -19.167 -184.834 -57.5 -288.501s-92.166 -202.834 -161.499 -297.501c-71.333 -96.667 -144.166 -170.334 -218.499 -221.001
s-146.833 -76 -217.5 -76c-65.333 0 -118.166 21 -158.499 63s-60.5 97 -60.5 165c0 55.333 11.167 117.333 33.5 186s58.833 152 109.5 250l35 65c53.333 100 80 169 80 207c0 27.333 -6.66699 48.5 -20 63.5s-32 22.5 -56 22.5c-52.667 0 -105.667 -31.833 -159 -95.5
s-103.333 -155.167 -150 -274.5h-41z" />
    <glyph glyph-name="w" unicode="w" horiz-adv-x="1741" 
d="M-8 629c51.333 137.333 108.838 241.332 172.505 311.999s131.834 106 204.501 106c58.667 0 104.667 -19.5 138 -58.5s50 -92.833 50 -161.5c0 -55.333 -11.333 -116 -34 -182s-60.334 -146.667 -113.001 -242l-17 -30c-70.667 -126.667 -106 -210 -106 -250
c0 -28 9 -51 27 -69s41 -27 69 -27c71.333 0 154.166 59.333 248.499 178s167.833 260 220.5 424l131 405h182l-254 -807c-6 -21.333 -10.833 -41.666 -14.5 -60.999s-5.5 -34.333 -5.5 -45c0 -29.333 7.5 -51.666 22.5 -66.999s36.833 -23 65.5 -23
c45.333 0 98.5 19.5 159.5 58.5s119.833 91.833 176.5 158.5c64 75.333 115.167 153.5 153.5 234.5s57.5 150.167 57.5 207.5c0 24.667 -3.83301 45.5 -11.5 62.5s-21.834 35.167 -42.501 54.5c-5.33301 5.33301 -14.333 13.333 -27 24c-52.667 45.333 -79 86.333 -79 123
c0 29.333 10 53.833 30 73.5s44.667 29.5 74 29.5c41.333 0 75.666 -20.833 102.999 -62.5s41 -95.167 41 -160.5c0 -96 -24 -200 -72 -312s-113.333 -215 -196 -309c-68.667 -78 -136.834 -137.167 -204.501 -177.5s-134.167 -60.5 -199.5 -60.5
c-61.333 0 -109 18.333 -143 55s-51 88 -51 154c0 24 2.33301 50.667 7 80s11.667 61.333 21 96c-64.667 -125.333 -131.334 -220 -200.001 -284s-137.667 -96 -207 -96c-60.667 0 -109 21.167 -145 63.5s-54 99.5 -54 171.5c0 96.667 43.333 228.334 130 395.001l24 46
c37.333 73.333 63 128.166 77 164.499s21 64.5 21 84.5c0 26 -7.66699 47.5 -23 64.5s-34.333 25.5 -57 25.5c-49.333 0 -101.333 -32.333 -156 -97s-105 -154.334 -151 -269.001h-43z" />
    <glyph glyph-name="x" unicode="x" horiz-adv-x="1104" 
d="M-33 147c0 47.333 13.1689 87.1641 39.502 119.497s57.5 48.5 93.5 48.5c27.333 0 50.666 -9.5 69.999 -28.5s29 -41.5 29 -67.5c0 -24 -8 -45.833 -24 -65.5s-37.333 -34.5 -64 -44.5c-2.66699 -1.33301 -7 -3 -13 -5c-28.667 -10.667 -43 -25 -43 -43
c0 -11.333 5.5 -21 16.5 -29s25.5 -12 43.5 -12c51.333 0 99.333 30.167 144 90.5s85.334 149.833 122.001 268.5l135 430c7.33301 22 13 43 17 63s6 38 6 54c0 19.333 -8.16699 36 -24.5 50s-36.166 21 -59.499 21c-63.333 0 -123.5 -30.833 -180.5 -92.5
s-108.167 -151.5 -153.5 -269.5h-43c46.667 130.667 104 232.334 172 305.001s139.667 109 215 109c51.333 0 94.166 -19.167 128.499 -57.5s51.5 -86.166 51.5 -143.499c0 -6.66699 -0.166992 -13.667 -0.5 -21s-0.833008 -14.666 -1.5 -21.999
c43.333 80.667 88 141.167 134 181.5s94.333 60.5 145 60.5c43.333 0 78.666 -14.333 105.999 -43s41 -65.667 41 -111c0 -46 -12.667 -84.167 -38 -114.5s-56.333 -45.5 -93 -45.5c-30 0 -54.5 8.66699 -73.5 26s-28.5 39.333 -28.5 66c0 25.333 7 46.166 21 62.499
s37 30.5 69 42.5c20 6.66699 33.167 12.834 39.5 18.501s9.5 13.167 9.5 22.5s-4.83301 17.833 -14.5 25.5s-21.167 11.5 -34.5 11.5c-51.333 0 -100.5 -30 -147.5 -90s-87.5 -144 -121.5 -252l-126 -407c-1.33301 -4.66699 -3.66602 -11.667 -6.99902 -21
c-14.667 -50.667 -22 -88.334 -22 -113.001c0 -28 7.66699 -49.667 23 -65s37 -23 65 -23c51.333 0 106.166 27.333 164.499 82s116.166 133 173.499 235h47c-62 -120 -127.5 -211.333 -196.5 -274s-138.167 -94 -207.5 -94c-51.333 0 -92.5 15.833 -123.5 47.5
s-46.5 73.834 -46.5 126.501c0 7.33301 0.333008 15.5 1 24.5s1.66699 21.833 3 38.5c-38 -76 -81.833 -134.833 -131.5 -176.5s-100.5 -62.5 -152.5 -62.5c-46.667 0 -84 15 -112 45s-42 69.333 -42 118z" />
    <glyph glyph-name="y" unicode="y" horiz-adv-x="1251" 
d="M-6 -186c0 38 12.5 69.667 37.5 95s56.833 38 95.5 38c32.667 0 58.5 -9.66699 77.5 -29s28.5 -45.333 28.5 -78c0 -26 -9.5 -52 -28.5 -78s-28.5 -41 -28.5 -45c0 -15.333 9.33301 -27.666 28 -36.999s44.334 -14 77.001 -14c91.333 0 173.333 38.167 246 114.5
s134.667 189.833 186 340.5l80 233c-76 -125.333 -149.5 -219 -220.5 -281s-139.5 -93 -205.5 -93c-60 0 -107.5 21.167 -142.5 63.5s-52.5 100.166 -52.5 173.499c0 90.667 42.667 218 128 382l30 58c40 78.667 67.667 137.5 83 176.5s23 68.5 23 88.5
c0 23.333 -7.33301 41.666 -22 54.999s-35.334 20 -62.001 20c-48.667 0 -100.667 -33 -156 -99s-106.333 -157 -153 -273h-45c58 142 118.833 248.5 182.5 319.5s129.834 106.5 198.501 106.5c55.333 0 99.5 -20.5 132.5 -61.5s49.5 -95.833 49.5 -164.5
c0 -93.333 -55 -241.666 -165 -444.999l-5 -9c-4 -8 -9.66699 -18.667 -17 -32c-59.333 -110.667 -89 -182.667 -89 -216c0 -28 9.16699 -50.667 27.5 -68s41.833 -26 70.5 -26c35.333 0 73.166 13 113.499 39s81.833 64 124.5 114c58 70 110.167 145.667 156.5 227
s80.833 158 103.5 230l123 395h184l-232 -737c-40 -129.333 -81.333 -231 -124 -305s-94.667 -139 -156 -195c-62.667 -56 -130.167 -99.333 -202.5 -130s-142.166 -46 -209.499 -46c-82.667 0 -148.334 17.5 -197.001 52.5s-73 81.833 -73 140.5z" />
    <glyph glyph-name="z" unicode="z" horiz-adv-x="922" 
d="M-12 76c0 60.667 25.334 128.334 76.001 203.001s119.334 143.334 206.001 206.001c44 32 111 73 201 123c158.667 88 260.334 168.667 305.001 242c-14.667 -10 -30.167 -17.333 -46.5 -22s-35.5 -7 -57.5 -7c-36.667 0 -89 7.16699 -157 21.5s-117.333 21.5 -148 21.5
c-55.333 0 -103.166 -18 -143.499 -54s-76.5 -93 -108.5 -171h-39c46.667 127.333 103.834 227.166 171.501 299.499s136.834 108.5 207.501 108.5c33.333 0 64.666 -7.5 93.999 -22.5s64.666 -43.167 105.999 -84.5c2 -1.33301 4.33301 -3.66602 7 -6.99902
c28 -28 54.333 -42 79 -42c9.33301 0 17.833 4.16699 25.5 12.5s11.5 17.166 11.5 26.499c0 8 -4.33301 19.833 -13 35.5s-13 28.5 -13 38.5c0 12.667 5.16699 24 15.5 34s22.166 15 35.499 15c17.333 0 30.833 -7.16699 40.5 -21.5s14.5 -34.5 14.5 -60.5
c0 -70 -31.833 -147.333 -95.5 -232s-147.834 -160.334 -252.501 -227.001c-38 -24 -93.667 -56 -167 -96c-148 -79.333 -239.667 -149.666 -275 -210.999c17.333 13.333 35.5 23.166 54.5 29.499s40.833 9.5 65.5 9.5c58 0 125.167 -14.333 201.5 -43s125.5 -43 147.5 -43
c41.333 0 79.166 16.833 113.499 50.5s64.5 83.5 90.5 149.5h45c-40.667 -115.333 -94.167 -206.166 -160.5 -272.499s-135.5 -99.5 -207.5 -99.5c-38 0 -71.5 8.16699 -100.5 24.5s-57.167 42.833 -84.5 79.5c-21.333 30 -40.5 50.833 -57.5 62.5s-35.833 17.5 -56.5 17.5
c-18.667 0 -33.334 -3.83301 -44.001 -11.5s-16 -18.167 -16 -31.5c0 -11.333 7.16699 -27.333 21.5 -48s21.5 -38 21.5 -52c0 -14.667 -4.16699 -26.167 -12.5 -34.5s-19.833 -12.5 -34.5 -12.5c-20 0 -36.167 8.66699 -48.5 26s-18.5 40.666 -18.5 69.999z" />
    <glyph glyph-name="braceleft" unicode="{" horiz-adv-x="1024" 
d="M176 606l0.00195312 60c110 10 184.333 34.667 223 74s58 111.333 58 216v213c0 133.333 27 224.5 81 273.5s153.333 73.5 298 73.5h10v-51c-94.667 -1.33301 -159.334 -19.833 -194.001 -55.5s-52 -105.5 -52 -209.5v-143c0 -150.667 -20.333 -253.5 -61 -308.5
s-116 -92.833 -226 -113.5c110 -20.667 185.333 -58.5 226 -113.5s61 -157.833 61 -308.5v-143c0 -104 17.167 -173.5 51.5 -208.5s99.166 -53.167 194.499 -54.5v-51h-10c-144.667 0 -244 24.5 -298 73.5s-81 139.833 -81 272.5v213c0 105.333 -19.667 178 -59 218
s-113.333 64.333 -222 73z" />
    <glyph glyph-name="bar" unicode="|" horiz-adv-x="1024" 
d="M449 -483v2048h126v-2048h-126z" />
    <glyph glyph-name="braceright" unicode="}" horiz-adv-x="1024" 
d="M178 -193c95.333 1.33301 160.168 19.5 194.501 54.5s51.5 104.5 51.5 208.5v143c0 150.667 20.333 253.5 61 308.5s116 92.833 226 113.5c-110 20.667 -185.333 58.5 -226 113.5s-61 157.833 -61 308.5v143c0 104 -17.333 173.833 -52 209.5
s-99.334 54.167 -194.001 55.5v51h10c144 0 243.167 -24.667 297.5 -74s81.5 -140.333 81.5 -273v-213c0 -104.667 19.333 -176.667 58 -216s113 -64 223 -74v-60c-108.667 -8.66699 -182.667 -33 -222 -73s-59 -112.667 -59 -218v-213c0 -132 -27.167 -222.667 -81.5 -272
s-153.5 -74 -297.5 -74h-10v51z" />
    <glyph glyph-name="asciitilde" unicode="~" horiz-adv-x="1706" 
d="M178 461l-0.00195312 133.001c70 48.667 137.333 85 202 109s126.334 36 185.001 36c37.333 0 76.166 -4.16699 116.499 -12.5s98.5 -25.833 174.5 -52.5c8 -2.66699 19.667 -7 35 -13c109.333 -39.333 194 -59 254 -59c56.667 0 115.334 12.167 176.001 36.5
s130.334 64.166 209.001 119.499v-131c-67.333 -48 -133.166 -84 -197.499 -108s-127.5 -36 -189.5 -36c-28.667 0 -58.834 3 -90.501 9s-65.167 14.667 -100.5 26c-20 6.66699 -49 17 -87 31c-134.667 48 -235.334 72 -302.001 72c-55.333 0 -113.166 -12.5 -173.499 -37.5
s-130.833 -65.833 -211.5 -122.5z" />
    <glyph glyph-name="uni00A0" unicode="&#xa0;" 
 />
    <glyph glyph-name="exclamdown" unicode="&#xa1;" horiz-adv-x="764" 
d="M74 82c0 14 3.16895 32.333 9.50195 55s16.166 49.334 29.499 80.001l354 838h49l-180 -873c-16.667 -82.667 -35.334 -137.834 -56.001 -165.501s-49.667 -41.5 -87 -41.5s-66.5 9.5 -87.5 28.5s-31.5 45.167 -31.5 78.5zM442.002 1335c0 38 13 69.6689 39 95.002
s57.333 38 94 38c37.333 0 69.333 -13.167 96 -39.5s40 -57.5 40 -93.5c0 -36.667 -13.333 -68.334 -40 -95.001s-58.667 -40 -96 -40c-36.667 0 -68 13.167 -94 39.5s-39 58.166 -39 95.499z" />
    <glyph glyph-name="cent" unicode="&#xa2;" 
d="M98 334c0 108 25.999 218.501 77.999 331.501s120.333 207.167 205 282.5c48 42.667 97.333 74.834 148 96.501s102.334 32.5 155.001 32.5h21l65 172h57l-65 -182c52.667 -16 95.167 -45.667 127.5 -89s48.5 -92.333 48.5 -147c0 -49.333 -11.667 -89.5 -35 -120.5
s-53.333 -46.5 -90 -46.5c-27.333 0 -50.166 9 -68.499 27s-27.5 40.333 -27.5 67c0 27.333 7 49 21 65s37.667 28.333 71 37c18 5.33301 31 12.333 39 21s12 20 12 34c0 22 -10.667 43.167 -32 63.5s-49 35.5 -83 45.5l-349 -969
c5.33301 -0.666992 10.666 -1.16699 15.999 -1.5s12 -0.5 20 -0.5c65.333 0 136.333 31.833 213 95.5s141.667 147.167 195 250.5h43c-57.333 -122.667 -129.5 -219.834 -216.5 -291.501s-175.5 -107.5 -265.5 -107.5c-8 0 -14.167 0.166992 -18.5 0.5
s-8.16602 0.833008 -11.499 1.5l-64 -180h-57l67 190c-64.667 12.667 -117.334 48.667 -158.001 108s-61 130.666 -61 213.999zM257.999 223.001c0 -39.333 6.49902 -71.334 19.499 -96.001s33.167 -43 60.5 -55l352 960h-14c-33.333 0 -65.666 -9.16699 -96.999 -27.5
s-59 -44.5 -83 -78.5c-24.667 -34 -48.667 -77 -72 -129s-50 -122.333 -80 -211c-30 -86 -51.833 -158.167 -65.5 -216.5s-20.5 -107.166 -20.5 -146.499z" />
    <glyph glyph-name="sterling" unicode="&#xa3;" 
d="M-41 131c0 49.333 18.8271 88.9961 56.4941 118.996s87.834 45 150.501 45c20.667 0 43 -2.16699 67 -6.5s50.667 -11.166 80 -20.499c15.333 28.667 27.333 65 36 109s13 91.667 13 143c0 26 -2.16699 55 -6.5 87s-12.833 79 -25.5 141h-217l18 61h186
c-4.66699 25.333 -8.16699 50 -10.5 74s-3.5 47.667 -3.5 71c0 148.667 41.333 267.5 124 356.5s192.334 133.5 329.001 133.5c102 0 186.167 -28.333 252.5 -85s99.5 -128 99.5 -214c0 -51.333 -11.833 -92.166 -35.5 -122.499s-54.834 -45.5 -93.501 -45.5
c-29.333 0 -54.5 10.167 -75.5 30.5s-31.5 44.833 -31.5 73.5c0 24.667 6.5 45.5 19.5 62.5s33.833 31.833 62.5 44.5c2 0.666992 4.33301 1.66699 7 3c28.667 13.333 43 29.333 43 48c0 32 -22.167 64.5 -66.5 97.5s-94.166 49.5 -149.499 49.5
c-85.333 0 -152.666 -32.333 -201.999 -97s-74 -153.667 -74 -267c0 -31.333 1.66699 -70.5 5 -117.5s5 -78.833 5 -95.5h391l-20 -61h-365v-70c0 -72.667 -11.167 -145.667 -33.5 -219s-55.5 -145 -99.5 -215c80 -29.333 151.333 -52 214 -68s111 -24 145 -24
c46.667 0 85.334 10.333 116.001 31s55.334 53.334 74.001 98.001l41 -19c-24 -88 -61.833 -155.333 -113.5 -202s-114.167 -70 -187.5 -70c-39.333 0 -81.833 9.33301 -127.5 28s-118.5 59.667 -218.5 123c-32.667 -48 -69.167 -85.167 -109.5 -111.5
s-81.166 -39.5 -122.499 -39.5c-42 0 -77 13.333 -105 40s-42 60.334 -42 101.001zM9.99414 132.996c0 -24 9 -44.333 27 -61s40.333 -25 67 -25c30.667 0 60.5 11.333 89.5 34s55.167 55 78.5 97c-26 16 -51.667 28.167 -77 36.5s-49.333 12.5 -72 12.5
c-31.333 0 -58 -9.16699 -80 -27.5s-33 -40.5 -33 -66.5z" />
    <glyph glyph-name="currency" unicode="&#xa4;" 
d="M-41 569l29 55.999h133c2.66699 16 6 32.333 10 49s8.66699 34.334 14 53.001c8.66699 28.667 15.5 50.167 20.5 64.5s9.83301 26.833 14.5 37.5h-157l28 56h152c17.333 38 37 77 59 117s46.667 81.333 74 124c62.667 95.333 137.167 172.5 223.5 231.5
s170.166 88.5 251.499 88.5c62.667 0 124 -18.833 184 -56.5s91.667 -56.5 95 -56.5c9.33301 0 18.166 4.5 26.499 13.5s15.833 21.833 22.5 38.5c5.33301 10.667 10 21.334 14 32.001h53l-143 -452h-51c0 6.66699 0.333008 17 1 31s1 25 1 33
c0.666992 7.33301 1.16699 15.5 1.5 24.5s0.5 22.5 0.5 40.5c0 99.333 -16.333 172.833 -49 220.5s-82 71.5 -148 71.5c-58.667 0 -112.667 -24.667 -162 -74s-99.666 -129.666 -150.999 -240.999c-16.667 -36.667 -30.5 -68.334 -41.5 -95.001s-22.5 -57 -34.5 -91h533
l-29 -56h-524l-1 -2c-28.667 -88 -49 -155.333 -61 -202h473l-30 -56h-457c-11.333 -50.667 -20 -98 -26 -142s-9 -84 -9 -120c0 -88 17 -154.333 51 -199s84.667 -67 152 -67c74.667 0 147.334 32.667 218.001 98s131.667 157 183 275h62
c-58 -140.667 -129 -247.834 -213 -321.501s-176.333 -110.5 -277 -110.5c-106.667 0 -195.5 44.5 -266.5 133.5s-106.5 201.5 -106.5 337.5c0 4.66699 0.333008 12 1 22s1 17.667 1 23c2 18 3.5 32 4.5 42s2.16699 19.667 3.5 29h-153z" />
    <glyph glyph-name="yen" unicode="&#xa5;" horiz-adv-x="1157" 
d="M66 0l20.001 61.0029h98c47.333 0 81.666 8.83301 102.999 26.5s41 56.167 59 115.5l121 395h-397l20 55h375l-62 232h-241l18 55h205l-90 324c-12 42.667 -26.5 70.334 -43.5 83.001s-49.5 19 -97.5 19h-74l16 55h609l-17 -55h-110c-38 0 -65 -4.66699 -81 -14
s-24 -24.333 -24 -45c0 -7.33301 2.33301 -20 7 -38c0.666992 -2.66699 1 -4.33398 1 -5.00098l152 -580l356 440c22.667 28.667 40 55.167 52 79.5s18 45.166 18 62.499c0 33.333 -14.333 58.333 -43 75s-71.667 25 -129 25h-21l19 55h518l-19 -55
c-44 -0.666992 -84.5 -12.334 -121.5 -35.001s-88.5 -74.334 -154.5 -155.001l-193 -236h224l-21 -55h-252l-188 -232h369l-19 -55h-385l-117 -395c-8 -25.333 -13.333 -44.5 -16 -57.5s-4 -23.833 -4 -32.5c0 -18.667 7.16699 -32 21.5 -40s37.833 -12 70.5 -12h119
l-21 -61h-630z" />
    <glyph glyph-name="brokenbar" unicode="&#xa6;" horiz-adv-x="1024" 
d="M449 -350v758h126v-758h-126zM449 674v758h126v-758h-126z" />
    <glyph glyph-name="section" unicode="&#xa7;" horiz-adv-x="1024" 
d="M6 -27c0 43.333 11.002 77.834 33.002 103.501s51.333 38.5 88 38.5c30.667 0 55.667 -9.83301 75 -29.5s29 -45.5 29 -77.5c0 -29.333 -7 -51.666 -21 -66.999s-38 -26.333 -72 -33c-14.667 -2.66699 -24.5 -6.33398 -29.5 -11.001s-7.83301 -12 -8.5 -22
c0 -22.667 20.833 -46 62.5 -70s87.167 -36 136.5 -36c75.333 0 138.5 23.167 189.5 69.5s76.5 103.5 76.5 171.5c0 42.667 -11 81.167 -33 115.5s-69 79.166 -141 134.499c-131.333 100.667 -215 177.167 -251 229.5s-54 108.833 -54 169.5
c0 74.667 28.167 138.5 84.5 191.5s124.5 79.5 204.5 79.5c8 0 17.667 -0.5 29 -1.5s28.666 -3.16699 51.999 -6.5c-32.667 39.333 -56.5 77.833 -71.5 115.5s-22.5 78.167 -22.5 121.5c0 84 33.167 155.5 99.5 214.5s148.833 88.5 247.5 88.5
c81.333 0 151.166 -24.5 209.499 -73.5s87.5 -106.167 87.5 -171.5c0 -37.333 -10.167 -67.5 -30.5 -90.5s-46.5 -34.5 -78.5 -34.5c-28.667 0 -52.167 9 -70.5 27s-27.5 41 -27.5 69c0 27.333 15.667 53.333 47 78s47 43 47 55c0 23.333 -18.5 46.166 -55.5 68.499
s-78.5 33.5 -124.5 33.5c-72.667 0 -131.5 -18.167 -176.5 -54.5s-67.5 -83.5 -67.5 -141.5c0 -39.333 11.167 -76 33.5 -110s67.166 -78 134.499 -132l35 -28c170.667 -136 256 -259 256 -369c0 -80.667 -27.833 -147.667 -83.5 -201s-125.5 -80 -209.5 -80
c-4.66699 0 -16 1 -34 3c-8.66699 0.666992 -15 1 -19 1c29.333 -38 51.333 -76.667 66 -116s22 -80.333 22 -123c0 -99.333 -34.5 -182.666 -103.5 -249.999s-154.833 -101 -257.5 -101c-87.333 0 -159.666 24 -216.999 72s-86 108 -86 180zM203.002 729.001
c0 -30.667 10.499 -61.834 31.499 -93.501s56.833 -70.167 107.5 -115.5c65.333 -60 122 -103.333 170 -130s92.333 -40 133 -40c48.667 0 89.167 15.833 121.5 47.5s48.5 71.834 48.5 120.501c0 30 -10.667 61.333 -32 94s-57.666 71.667 -108.999 117
c-62.667 55.333 -117 95.5 -163 120.5s-88 37.5 -126 37.5c-51.333 0 -94.5 -15.333 -129.5 -46s-52.5 -68 -52.5 -112z" />
    <glyph glyph-name="dieresis" unicode="&#xa8;" horiz-adv-x="1024" 
d="M362 1317c0 25.333 10.001 48 30.001 68s43 30 69 30s48.833 -9.83301 68.5 -29.5s29.5 -42.5 29.5 -68.5c0 -29.333 -9.33301 -53.333 -28 -72s-42 -28 -70 -28c-26.667 0 -49.834 9.83301 -69.501 29.5s-29.5 43.167 -29.5 70.5zM711.001 1317c0 25.333 10 48 30 68
s42.667 30 68 30c26.667 0 50 -9.83301 70 -29.5s30 -42.5 30 -68.5c0 -28.667 -9.5 -52.5 -28.5 -71.5s-42.833 -28.5 -71.5 -28.5c-26.667 0 -49.667 9.83301 -69 29.5s-29 43.167 -29 70.5z" />
    <glyph glyph-name="copyright" unicode="&#xa9;" horiz-adv-x="1683" 
d="M139 678c0 93.333 17.666 182.833 52.999 268.5s86 162.167 152 229.5c65.333 66 141.333 116.833 228 152.5s177.334 53.5 272.001 53.5c91.333 0 180.166 -17.833 266.499 -53.5s161.833 -85.834 226.5 -150.501c65.333 -64.667 116.166 -140.834 152.499 -228.501
s54.5 -178.167 54.5 -271.5s-17.667 -182.666 -53 -267.999s-86.666 -162 -153.999 -230c-65.333 -66.667 -140.333 -117.5 -225 -152.5s-174.667 -52.5 -270 -52.5s-185 17.5 -269 52.5s-159.667 85.833 -227 152.5s-118.666 142.334 -153.999 227.001s-53 175 -53 271z
M224.999 678c0 -83.333 15.665 -162.833 46.998 -238.5s76.666 -142.834 135.999 -201.501c58.667 -59.333 124.834 -104.333 198.501 -135s152.167 -46 235.5 -46c84 0 162.833 15.333 236.5 46s139.5 75.667 197.5 135c58.667 60 103.667 127.667 135 203
s47 154.333 47 237s-15.833 162.834 -47.5 240.501s-75.834 144.834 -132.501 201.501c-57.333 58 -124.166 103 -200.499 135s-154.166 48 -233.499 48c-82 0 -161.167 -16.167 -237.5 -48.5s-143.166 -77.833 -200.499 -136.5
c-58.667 -59.333 -103.5 -126.833 -134.5 -202.5s-46.5 -154.834 -46.5 -237.501zM425.997 664c0 124 38.6719 227.999 116.005 311.999s172.333 126 285 126c49.333 0 98.666 -11.333 147.999 -34s76.666 -34 81.999 -34c18 0 32 4.83301 42 14.5s17 25.5 21 47.5h35
l2 -314h-41c-22.667 91.333 -57.334 160 -104.001 206s-105.334 69 -176.001 69c-82 0 -143.833 -31.5 -185.5 -94.5s-62.5 -155.833 -62.5 -278.5c0 -126 22.333 -221 67 -285s111 -96 199 -96c57.333 0 109.333 14.333 156 43s89 72.334 127 131.001l34 -24
c-38.667 -70 -86.334 -122.333 -143.001 -157s-123 -52 -199 -52c-111.333 0 -206.333 41 -285 123s-118 181 -118 297z" />
    <glyph glyph-name="ordfeminine" unicode="&#xaa;" horiz-adv-x="913" 
d="M10 930c0 66 16.6699 133.999 50.0029 203.999s79 133 137 189c38 36 78.667 63.833 122 83.5s86.666 29.5 129.999 29.5c51.333 0 91.833 -12.5 121.5 -37.5s47.167 -61.833 52.5 -110.5l45 139h135l-201 -591l-3 -9c-7.33301 -21.333 -11 -39.666 -11 -54.999
c0 -12.667 3.5 -22.334 10.5 -29.001s17.167 -10 30.5 -10c28 0 60.167 19.167 96.5 57.5s71.5 90.833 105.5 157.5h33c-40.667 -84.667 -84 -149.167 -130 -193.5s-92.667 -66.5 -140 -66.5c-34.667 0 -61.834 11.167 -81.501 33.5s-29.5 53.5 -29.5 93.5
c0 8.66699 0.5 17.667 1.5 27s2.5 20 4.5 32c-42 -61.333 -86.333 -107.666 -133 -138.999s-94.334 -47 -143.001 -47c-60 0 -108.833 22.167 -146.5 66.5s-56.5 102.833 -56.5 175.5zM131.003 822.999c0 -32 8 -56.332 24 -72.999s39.333 -25 70 -25
c58 0 116.333 29.167 175 87.5s102.667 132.166 132 221.499l43 129c6 19.333 10.667 38 14 56s5 33 5 45c0 40.667 -12 74 -36 100s-55 39 -93 39c-35.333 0 -68 -11.5 -98 -34.5s-58 -57.833 -84 -104.5c-43.333 -72.667 -79.5 -153 -108.5 -241
s-43.5 -154.667 -43.5 -200z" />
    <glyph glyph-name="guillemotleft" unicode="&#xab;" horiz-adv-x="938" 
d="M53 549l293 299h139l-297 -313l166 -365h-118zM422 549l295 299h137l-297 -313l168 -365h-121z" />
    <glyph glyph-name="logicalnot" unicode="&#xac;" horiz-adv-x="1706" 
d="M254 741v117h1198v-502h-115v385h-1083z" />
    <glyph glyph-name="uni00AD" unicode="&#xad;" horiz-adv-x="717" 
d="M29 424l57 180h506l-57 -180h-506z" />
    <glyph glyph-name="registered" unicode="&#xae;" horiz-adv-x="1683" 
d="M139 678c0 93.333 17.666 182.832 52.999 268.499s86 162.167 152 229.5c65.333 66 141.333 116.833 228 152.5s177.334 53.5 272.001 53.5c92 0 181.5 -18 268.5 -54s163.167 -86.667 228.5 -152c64.667 -64.667 114.667 -140.667 150 -228s53 -178 53 -272
c0 -91.333 -18.5 -180.5 -55.5 -267.5s-89.5 -164.5 -157.5 -232.5c-66 -66 -140.833 -116 -224.5 -150s-173.834 -51 -270.501 -51c-91.333 0 -179 17.5 -263 52.5s-159.667 85.833 -227 152.5s-118.666 142.334 -153.999 227.001s-53 175 -53 271zM224.999 677.999
c0 -84.667 15.498 -164.331 46.498 -238.998s76.5 -141.667 136.5 -201c58.667 -59.333 124.834 -104.333 198.501 -135s152.167 -46 235.5 -46c84 0 162.833 15.333 236.5 46s139.5 75.667 197.5 135c58.667 60 103.667 127.667 135 203s47 154.333 47 237
s-15.833 163.167 -47.5 241.5s-75.834 145.166 -132.501 200.499c-57.333 58 -124.166 103 -200.499 135s-154.166 48 -233.499 48c-81.333 0 -160 -16 -236 -48s-143.333 -77.667 -202 -137s-103.5 -126.833 -134.5 -202.5s-46.5 -154.834 -46.5 -237.501zM468.997 291.002
v39.999c48 2 81.167 10.167 99.5 24.5s27.5 39.833 27.5 76.5v516c0 36.667 -8.66699 62 -26 76s-51 22.333 -101 25v43h393c98 0 175.5 -18.167 232.5 -54.5s85.5 -85.166 85.5 -146.499c0 -50.667 -23.167 -92 -69.5 -124s-118.833 -57 -217.5 -75
c62 -19.333 109.333 -45.166 142 -77.499s56.334 -76.833 71.001 -133.5c4 -14.667 7.66699 -35.667 11 -63c8.66699 -58.667 28.334 -88 59.001 -88c21.333 0 37.833 11.333 49.5 34s17.5 55.667 17.5 99h43v-12c0 -58.667 -13.5 -103.167 -40.5 -133.5
s-66.833 -45.5 -119.5 -45.5c-30.667 0 -56.834 5.66699 -78.501 17s-37.834 27.666 -48.501 48.999c-12 26.667 -19 64.5 -21 113.5s-5 80.833 -9 95.5c-13.333 45.333 -36.833 78.833 -70.5 100.5s-79.167 32.5 -136.5 32.5h-33v-248c0 -36 8.83301 -61.167 26.5 -75.5
s50.5 -22.833 98.5 -25.5v-40h-385zM728.997 719.001c10.667 -0.666992 21.334 -1.16797 32.001 -1.50098s22 -0.5 34 -0.5c74.667 0 132.5 15.167 173.5 45.5s61.5 73.166 61.5 128.499c0 48.667 -17.667 87.834 -53 117.501s-83 44.5 -143 44.5
c-34.667 0 -60.834 -6.16699 -78.501 -18.5s-26.5 -30.166 -26.5 -53.499v-262z" />
    <glyph glyph-name="macron" unicode="&#xaf;" horiz-adv-x="1024" 
d="M365 1253l26 125h516l-26 -125h-516z" />
    <glyph glyph-name="degree" unicode="&#xb0;" horiz-adv-x="674" 
d="M55 1171c0 79.333 27.501 146.331 82.501 200.998s121.833 82 200.5 82c78 0 144.667 -27.667 200 -83s83 -122 83 -200c0 -77.333 -27.833 -143.666 -83.5 -198.999s-122.834 -83 -201.501 -83s-145.167 27.333 -199.5 82s-81.5 121.334 -81.5 200.001zM135.001 1171
c0 -56 19.833 -103.667 59.5 -143s87.5 -59 143.5 -59s103.5 19.667 142.5 59s58.5 87 58.5 143s-19.5 103.5 -58.5 142.5s-86.5 58.5 -142.5 58.5s-103.833 -19.5 -143.5 -58.5s-59.5 -86.5 -59.5 -142.5z" />
    <glyph glyph-name="plusminus" unicode="&#xb1;" horiz-adv-x="1706" 
d="M254 41v117h1198v-117h-1198zM254 719v117h541v344h118v-344h539v-117h-539v-344h-118v344h-541z" />
    <glyph glyph-name="uni00B2" unicode="&#xb2;" horiz-adv-x="702" 
d="M-41 569c8.66699 48.667 31.3281 99.501 67.9951 152.501s82.334 100.5 137.001 142.5c34.667 27.333 77.834 58.666 129.501 93.999s84.167 58.666 97.5 69.999c45.333 36.667 78.5 72.167 99.5 106.5s31.5 69.833 31.5 106.5c0 46 -16.667 84.5 -50 115.5
s-74.666 46.5 -123.999 46.5c-45.333 0 -85.333 -12.5 -120 -37.5s-52 -52.167 -52 -81.5c0 -28 22 -46.333 66 -55h2c25.333 -6 42.833 -13.667 52.5 -23s14.5 -22.333 14.5 -39c0 -20 -8 -37.167 -24 -51.5s-36 -21.5 -60 -21.5c-32 0 -59.333 12.833 -82 38.5
s-34 57.834 -34 96.501c0 57.333 24.833 106.166 74.5 146.499s110.834 60.5 183.501 60.5c79.333 0 146.166 -22.667 200.499 -68s81.5 -101.333 81.5 -168c0 -34 -8 -66.167 -24 -96.5s-38.667 -56.833 -68 -79.5c-37.333 -28.667 -100.333 -62 -189 -100l-83 -37
c-63.333 -29.333 -115.666 -61.166 -156.999 -95.499s-67.666 -67.5 -78.999 -99.5h326c44.667 0 74.167 4.83301 88.5 14.5s28.5 33.5 42.5 71.5l16 53h29l-90 -262h-504z" />
    <glyph glyph-name="uni00B3" unicode="&#xb3;" horiz-adv-x="702" 
d="M-10 741c0 34 10.333 62.0039 31 84.0039s45.667 33 75 33c27.333 0 49.166 -7.33301 65.499 -22s24.5 -34 24.5 -58c0 -13.333 -4.83301 -26.333 -14.5 -39s-22.834 -23.334 -39.501 -32.001l-12 -5c-25.333 -10 -38 -22.667 -38 -38c0 -17.333 12.5 -33.333 37.5 -48
s53.5 -22 85.5 -22c34 0 65.333 8.33301 94 25s52.667 40.334 72 71.001c17.333 27.333 31.5 59.166 42.5 95.499s16.5 68.833 16.5 97.5c0 46 -16.5 79.667 -49.5 101s-85.5 32 -157.5 32h-20l10 35c8 0 18.833 -0.333008 32.5 -1s23.834 -1 30.501 -1
c38.667 0 69 2.16699 91 6.5s41 11.5 57 21.5c30.667 17.333 55.334 44.666 74.001 81.999s28 77.666 28 120.999c0 39.333 -12.667 70.333 -38 93s-60.333 34 -105 34c-36 0 -66.167 -5.83301 -90.5 -17.5s-36.5 -25.5 -36.5 -41.5c0 -10.667 11 -25 33 -43
s33 -37.333 33 -58c0 -20 -7.83301 -36.5 -23.5 -49.5s-35.167 -19.5 -58.5 -19.5c-25.333 0 -46 8.5 -62 25.5s-24 39.167 -24 66.5c0 47.333 23.5 86.833 70.5 118.5s108.167 47.5 183.5 47.5c73.333 0 133.166 -18.833 179.499 -56.5s69.5 -85.834 69.5 -144.501
c0 -62 -23.667 -110.667 -71 -146s-117.666 -57 -210.999 -65c62 -18.667 108.5 -44.334 139.5 -77.001s46.5 -72.667 46.5 -120c0 -76 -31 -139.333 -93 -190s-141 -76 -237 -76c-65.333 0 -121.833 18.333 -169.5 55s-71.5 78.334 -71.5 125.001z" />
    <glyph glyph-name="acute" unicode="&#xb4;" horiz-adv-x="1024" 
d="M451 1167l299 313.999c12.667 12.667 26.5 23 41.5 31s28.167 12 39.5 12c18 0 33.833 -7.16699 47.5 -21.5s20.5 -30.5 20.5 -48.5c0 -14 -5.16699 -27.167 -15.5 -39.5s-28.5 -27.166 -54.5 -44.499l-307 -203h-71z" />
    <glyph glyph-name="uni00B5" unicode="&#xb5;" horiz-adv-x="1120" 
d="M-80 -330c0 26.667 21.5029 117.835 64.5029 273.502s78.167 298.167 105.5 427.5l109 514h147l-104 -492c-4 -20 -7.16699 -39.5 -9.5 -58.5s-3.5 -36.833 -3.5 -53.5c0 -55.333 14 -98.333 42 -129s67.333 -46 118 -46c65.333 0 119.833 22.833 163.5 68.5
s75.167 112.5 94.5 200.5l111 510h149l-114 -531c-8.66699 -39.333 -14.334 -68.5 -17.001 -87.5s-4 -35.5 -4 -49.5c0 -32 8.66699 -58 26 -78s39.333 -30 66 -30c23.333 0 45.166 6 65.499 18s37.5 29 51.5 51s27.667 53.167 41 93.5s26.333 60.5 39 60.5
c8 0 14.333 -3.33301 19 -10s7 -15.667 7 -27c0 -16.667 -3.66699 -38.834 -11 -66.501s-17 -55.5 -29 -83.5c-25.333 -54.667 -57 -95.5 -95 -122.5s-83 -40.5 -135 -40.5c-45.333 0 -81.5 17 -108.5 51s-40.5 80.333 -40.5 139v23
c-30.667 -73.333 -69.334 -128 -116.001 -164s-101.667 -54 -165 -54c-64 0 -114.833 18.167 -152.5 54.5s-61.167 90.166 -70.5 161.499c-18 -90.667 -35.333 -203.667 -52 -339c-22.667 -181.333 -60 -272 -112 -272c-24.667 0 -44.167 7.83301 -58.5 23.5
s-21.5 37.167 -21.5 64.5z" />
    <glyph glyph-name="paragraph" unicode="&#xb6;" horiz-adv-x="1024" 
d="M76 1130c0 104.667 35.8311 189 107.498 253s166.834 96 285.501 96h479v-78h-125v-1401h-94v1401h-182v-1401h-96v782c-115.333 5.33301 -206.666 39.5 -273.999 102.5s-101 144.833 -101 245.5z" />
    <glyph glyph-name="periodcentered" unicode="&#xb7;" horiz-adv-x="530" 
d="M141 717c0 33.333 12 61.833 36 85.5s53 35.5 87 35.5c33.333 0 61.833 -11.833 85.5 -35.5s35.5 -52.167 35.5 -85.5c0 -32.667 -12 -61 -36 -85s-52.333 -36 -85 -36c-34 0 -63 12 -87 36s-36 52.333 -36 85z" />
    <glyph glyph-name="cedilla" unicode="&#xb8;" horiz-adv-x="1024" 
d="M-2 -373l35.001 80.002c40.667 -22.667 80.5 -40.334 119.5 -53.001s73.5 -19 103.5 -19c41.333 0 72.166 7.66699 92.499 23s30.5 38.666 30.5 69.999c0 27.333 -9.83301 49.166 -29.5 65.499s-46.834 24.5 -81.501 24.5c-13.333 0 -37.666 -3 -72.999 -9
c-8 -1.33301 -14.333 -2.33301 -19 -3l62 194h63l-35 -112c15.333 2 28.5 3.33301 39.5 4s21.167 1.33398 30.5 2.00098c52 0 94 -15.167 126 -45.5s48 -69.833 48 -118.5c0 -54.667 -19.833 -97.667 -59.5 -129s-94.167 -47 -163.5 -47
c-37.333 0 -79.333 5.83301 -126 17.5s-101 30.167 -163 55.5z" />
    <glyph glyph-name="uni00B9" unicode="&#xb9;" horiz-adv-x="700" 
d="M0 569l11.9971 34.999h76c58 0 99 34.333 123 103c2 5.33301 3.33301 9.33301 4 12l149 431c4.66699 14 8.33398 26.5 11.001 37.5s4 19.167 4 24.5c0 16.667 -7 28.334 -21 35.001s-39.667 10 -77 10h-105l12 33h17c78.667 0 147.334 12 206.001 36
s109.334 61.333 152.001 112h25l-258 -737c-4 -13.333 -6.66699 -23.5 -8 -30.5s-2.33301 -13.5 -3 -19.5c0 -17.333 5.16699 -29.5 15.5 -36.5s27.833 -10.5 52.5 -10.5h47l-10 -35h-424z" />
    <glyph glyph-name="ordmasculine" unicode="&#xba;" horiz-adv-x="825" 
d="M10 997c0 58 12 114.668 36 170.001s58.667 105.333 104 150c40 41.333 84.167 72.833 132.5 94.5s98.833 32.5 151.5 32.5c93.333 0 167.833 -27.5 223.5 -82.5s83.5 -128.5 83.5 -220.5c0 -57.333 -12.5 -115 -37.5 -173s-59.5 -109 -103.5 -153
c-39.333 -40.667 -84.5 -72.334 -135.5 -95.001s-101.5 -34 -151.5 -34c-86 0 -158 29.5 -216 88.5s-87 133.167 -87 222.5zM139 885.001c0 -48.667 14.999 -88.498 44.999 -119.498s68.333 -46.5 115 -46.5c36 0 69.5 10.5 100.5 31.5s58.833 52.167 83.5 93.5
c12 18.667 24.167 42 36.5 70s24.833 60.667 37.5 98c18.667 53.333 32.5 100.666 41.5 141.999s13.5 78.666 13.5 111.999c0 42.667 -14.5 77.5 -43.5 104.5s-66.833 40.5 -113.5 40.5c-32.667 0 -63.667 -9.5 -93 -28.5s-56.333 -47.167 -81 -84.5
c-14 -18.667 -28.667 -44.5 -44 -77.5s-33.666 -78.167 -54.999 -135.5c-14.667 -42 -25.5 -79.167 -32.5 -111.5s-10.5 -61.833 -10.5 -88.5z" />
    <glyph glyph-name="guillemotright" unicode="&#xbb;" horiz-adv-x="938" 
d="M-12 170l297 313l-168 365h121l182 -377l-293 -301h-139zM358 170l295 313l-166 365h119l182 -377l-292 -301h-138z" />
    <glyph glyph-name="onequarter" unicode="&#xbc;" horiz-adv-x="1681" 
d="M0 627l10.001 32h74c56 0 95 32 117 96c2 5.33301 3.33301 9 4 11l143 403l5 17c6 22 9 35.667 9 41c0 15.333 -6.83301 26.333 -20.5 33s-38.167 10 -73.5 10h-100l10 28h19c74 0 139.167 11.333 195.5 34s105.166 57.334 146.499 104.001h22l-246 -689
c-3.33301 -10.667 -5.83301 -19.334 -7.5 -26.001s-2.5 -12 -2.5 -16c0 -16.667 5 -28.5 15 -35.5s27 -10.5 51 -10.5h45l-10 -32h-406zM328.001 -18l934 1464h90l-932 -1464h-92zM1018 213l12 37l594 559h25l-199 -559h162l-13 -37h-163l-41 -115
c-2.66699 -8 -4.83398 -15.667 -6.50098 -23s-2.5 -14 -2.5 -20c0.666992 -8.66699 4 -14.5 10 -17.5s20 -4.5 42 -4.5h92l-10 -33h-416l10 33h74c32 0 52.333 4 61 12s18.334 26.333 29.001 55l39 113h-299zM1073 250h258l127 362z" />
    <glyph glyph-name="onehalf" unicode="&#xbd;" horiz-adv-x="1681" 
d="M0 627l10.001 32h74c56 0 95 32 117 96c2 5.33301 3.33301 9 4 11l143 403l5 17c6 22 9 35.667 9 41c0 15.333 -6.83301 26.333 -20.5 33s-38.167 10 -73.5 10h-100l10 28h19c74 0 139.167 11.333 195.5 34s105.166 57.334 146.499 104.001h22l-246 -689
c-3.33301 -10.667 -5.83301 -19.334 -7.5 -26.001s-2.5 -12 -2.5 -16c0 -16.667 5 -28.5 15 -35.5s27 -10.5 51 -10.5h45l-10 -32h-406zM328.001 -18l934 1464h90l-932 -1464h-92zM973.001 0c8.66699 45.333 30.333 92.667 65 142s77.667 93.333 129 132
c36 28.667 79 59.5 129 92.5s80 53.5 90 61.5c44 35.333 75.5 68.666 94.5 99.999s28.5 64.333 28.5 99c0 42.667 -15.833 78.5 -47.5 107.5s-71.167 43.5 -118.5 43.5c-43.333 0 -81.333 -11.833 -114 -35.5s-49 -49.167 -49 -76.5c0 -24 18.333 -40 55 -48
c3.33301 -0.666992 6 -1.33398 8 -2.00098c24.667 -5.33301 42.167 -12.333 52.5 -21s15.5 -20.667 15.5 -36c0 -19.333 -8 -35.833 -24 -49.5s-35.333 -20.5 -58 -20.5c-31.333 0 -57.666 12 -78.999 36s-32 53.667 -32 89c0 54.667 23.667 100.834 71 138.501
s105.666 56.5 174.999 56.5c76 0 140 -21.167 192 -63.5s78 -94.166 78 -155.499c0 -32 -7.5 -62.333 -22.5 -91s-36.833 -53.667 -65.5 -75c-36 -27.333 -97.333 -59 -184 -95l-76 -32c-61.333 -28 -111.833 -58.167 -151.5 -90.5s-64.167 -62.833 -73.5 -91.5h311
c44 0 72.5 4.5 85.5 13.5s25.5 31.167 37.5 66.5l16 49h29l-88 -244h-479z" />
    <glyph glyph-name="threequarters" unicode="&#xbe;" horiz-adv-x="1681" 
d="M-8 786c0 32 9.66406 58.5068 28.9971 79.5068s43 31.5 71 31.5c26 0 46.833 -6.83301 62.5 -20.5s23.5 -32.167 23.5 -55.5c0 -12 -4.66699 -23.833 -14 -35.5s-22.333 -21.5 -39 -29.5c-2.66699 -1.33301 -7 -3.33301 -13 -6c-22.667 -10 -34 -21.667 -34 -35
c0 -16 11.833 -31 35.5 -45s50.834 -21 81.501 -21c32 0 61.833 7.83301 89.5 23.5s50.834 37.834 69.501 66.501c16.667 24.667 30.167 54.167 40.5 88.5s15.5 65.166 15.5 92.499c0 42.667 -15.5 73.667 -46.5 93s-81.167 29 -150.5 29h-18l8 33
c8 0 18.667 -0.333008 32 -1s23 -1 29 -1c32.667 0 60.334 2.16699 83.001 6.5s42.334 11.166 59.001 20.499c28.667 16.667 52.167 42.667 70.5 78s27.5 72.666 27.5 111.999c0 37.333 -12.167 66.166 -36.5 86.499s-57.833 30.5 -100.5 30.5
c-34.667 0 -63.5 -5.5 -86.5 -16.5s-34.5 -23.833 -34.5 -38.5c0 -9.33301 10.167 -22.166 30.5 -38.499s30.5 -34.166 30.5 -53.499c0 -18.667 -7.33301 -34.334 -22 -47.001s-33.334 -19 -56.001 -19c-24 0 -43.667 7.83301 -59 23.5s-23 36.5 -23 62.5
c0 45.333 22.5 82.666 67.5 111.999s103.167 44 174.5 44c69.333 0 126.666 -17.833 171.999 -53.5s68 -80.834 68 -135.501c0 -56.667 -23 -101.834 -69 -135.501s-113.333 -53.834 -202 -60.501c58.667 -17.333 102.834 -41.333 132.501 -72s44.5 -67.667 44.5 -111
c0 -71.333 -29.667 -130.833 -89 -178.5s-134.333 -71.5 -225 -71.5c-62.667 0 -116.5 17.167 -161.5 51.5s-67.5 73.166 -67.5 116.499zM327.997 -17.9932l934 1464h90l-932 -1464h-92zM1018 213.007l12 37l594 559h25l-199 -559h162l-13 -37h-163l-41 -115
c-2.66699 -8 -4.83398 -15.667 -6.50098 -23s-2.5 -14 -2.5 -20c0.666992 -8.66699 4 -14.5 10 -17.5s20 -4.5 42 -4.5h92l-10 -33h-416l10 33h74c32 0 52.333 4 61 12s18.334 26.333 29.001 55l39 113h-299zM1073 250.007h258l127 362z" />
    <glyph glyph-name="questiondown" unicode="&#xbf;" horiz-adv-x="1006" 
d="M-2 309c0 92.667 29.999 168.168 89.999 226.501s183.667 120.166 371 185.499c105.333 36.667 175.333 68.5 210 95.5s52 58.5 52 94.5c0 35.333 -12.833 63.666 -38.5 84.999s-59.167 32 -100.5 32c-60 0 -113 -17.167 -159 -51.5s-83.333 -84.833 -112 -151.5h-43
c27.333 76.667 68.833 137.167 124.5 181.5s117.5 66.5 185.5 66.5c64.667 0 118.334 -20.667 161.001 -62s64 -93.666 64 -156.999c0 -64.667 -23 -122.167 -69 -172.5s-118 -96.5 -216 -138.5c-33.333 -14.667 -80.333 -34 -141 -58c-186 -72 -279 -153 -279 -243
c0 -62 26.333 -114.5 79 -157.5s118.667 -64.5 198 -64.5c68 0 125.5 15.833 172.5 47.5s70.5 69.167 70.5 112.5c0 13.333 -5.66699 35.333 -17 66s-17 55 -17 73c0 32.667 9.33301 58.334 28 77.001s44.667 28 78 28c30 0 55 -11.5 75 -34.5s30 -52.5 30 -88.5
c0 -78.667 -44 -152.334 -132 -221.001s-189 -103 -303 -103c-106 0 -192.833 31.167 -260.5 93.5s-101.5 141.833 -101.5 238.5zM609.999 1335c0 38 13 69.6689 39 95.002s57.333 38 94 38s68.5 -13.167 95.5 -39.5s40.5 -57.5 40.5 -93.5
c0 -36.667 -13.333 -68.334 -40 -95.001s-58.667 -40 -96 -40c-36.667 0 -68 13.167 -94 39.5s-39 58.166 -39 95.499z" />
    <glyph glyph-name="Agrave" unicode="&#xc0;" horiz-adv-x="1276" 
d="M-231 0l16 61c58.667 0 109.667 14.5 153 43.5s103 100.5 179 214.5l741 1117h76l-37 -1229v-29c0 -48.667 6.66699 -80.334 20 -95.001s49.666 -22 108.999 -22h86l-18 -61h-633l18 61h88c57.333 0 94.333 8 111 24s27 56.667 31 122l14 239h-444l-86 -135
c-22.667 -35.333 -39.667 -66.333 -51 -93s-17 -48.667 -17 -66c0 -31.333 11 -54.666 33 -69.999s55.333 -23 100 -23c3.33301 0 8.83301 0.333008 16.5 1s13.834 1 18.501 1l-21 -61h-503zM326 516h397l29 655zM692 1868c0 18.667 6.83301 35 20.5 49s29.5 21 47.5 21
c14 0 28.5 -5 43.5 -15s29.167 -24.333 42.5 -43l215 -301h-68l-243 203c-23.333 18.667 -38.833 34.167 -46.5 46.5s-11.5 25.5 -11.5 39.5z" />
    <glyph glyph-name="Aacute" unicode="&#xc1;" horiz-adv-x="1276" 
d="M-231 0l16 61c58.667 0 109.667 14.5 153 43.5s103 100.5 179 214.5l741 1117h76l-37 -1229v-29c0 -48.667 6.66699 -80.334 20 -95.001s49.666 -22 108.999 -22h86l-18 -61h-633l18 61h88c57.333 0 94.333 8 111 24s27 56.667 31 122l14 239h-444l-86 -135
c-22.667 -35.333 -39.667 -66.333 -51 -93s-17 -48.667 -17 -66c0 -31.333 11 -54.666 33 -69.999s55.333 -23 100 -23c3.33301 0 8.83301 0.333008 16.5 1s13.834 1 18.501 1l-21 -61h-503zM326 516h397l29 655zM746 1579l299 313.999c12.667 12.667 26.5 23 41.5 31
s28.167 12 39.5 12c18 0 33.833 -7.16699 47.5 -21.5s20.5 -30.5 20.5 -48.5c0 -14 -5.16699 -27.167 -15.5 -39.5s-28.5 -27.166 -54.5 -44.499l-307 -203h-71z" />
    <glyph glyph-name="Acircumflex" unicode="&#xc2;" horiz-adv-x="1276" 
d="M-231 0l16 61c58.667 0 109.667 14.5 153 43.5s103 100.5 179 214.5l741 1117h76l-37 -1229v-29c0 -48.667 6.66699 -80.334 20 -95.001s49.666 -22 108.999 -22h86l-18 -61h-633l18 61h88c57.333 0 94.333 8 111 24s27 56.667 31 122l14 239h-444l-86 -135
c-22.667 -35.333 -39.667 -66.333 -51 -93s-17 -48.667 -17 -66c0 -31.333 11 -54.666 33 -69.999s55.333 -23 100 -23c3.33301 0 8.83301 0.333008 16.5 1s13.834 1 18.501 1l-21 -61h-503zM326 516h397l29 655zM602 1579l307 349h107l162 -349h-56l-178 207l-274 -207h-68
z" />
    <glyph glyph-name="Atilde" unicode="&#xc3;" horiz-adv-x="1276" 
d="M-231 0l16 61c58.667 0 109.667 14.5 153 43.5s103 100.5 179 214.5l741 1117h76l-37 -1229v-29c0 -48.667 6.66699 -80.334 20 -95.001s49.666 -22 108.999 -22h86l-18 -61h-633l18 61h88c57.333 0 94.333 8 111 24s27 56.667 31 122l14 239h-444l-86 -135
c-22.667 -35.333 -39.667 -66.333 -51 -93s-17 -48.667 -17 -66c0 -31.333 11 -54.666 33 -69.999s55.333 -23 100 -23c3.33301 0 8.83301 0.333008 16.5 1s13.834 1 18.501 1l-21 -61h-503zM326 516h397l29 655zM641 1637c10.667 62 30.1699 108.169 58.5029 138.502
s66.166 45.5 113.499 45.5c14 0 27.333 -0.833008 40 -2.5s24.334 -4.16699 35.001 -7.5l132 -37c8.66699 -2 17.667 -3.5 27 -4.5s18.666 -1.5 27.999 -1.5c28.667 0 51.167 6.5 67.5 19.5s28.166 33.833 35.499 62.5h49
c-12.667 -66.667 -33.834 -115.834 -63.501 -147.501s-69.167 -47.5 -118.5 -47.5c-12 0 -23 0.666992 -33 2s-19.667 3.33301 -29 6l-131 37c-14 4 -26.667 7 -38 9s-21.333 3 -30 3c-25.333 0 -46 -6.33301 -62 -19s-26.667 -31.334 -32 -56.001h-49z" />
    <glyph glyph-name="Adieresis" unicode="&#xc4;" horiz-adv-x="1276" 
d="M-231 0l16 61c58.667 0 109.667 14.5 153 43.5s103 100.5 179 214.5l741 1117h76l-37 -1229v-29c0 -48.667 6.66699 -80.334 20 -95.001s49.666 -22 108.999 -22h86l-18 -61h-633l18 61h88c57.333 0 94.333 8 111 24s27 56.667 31 122l14 239h-444l-86 -135
c-22.667 -35.333 -39.667 -66.333 -51 -93s-17 -48.667 -17 -66c0 -31.333 11 -54.666 33 -69.999s55.333 -23 100 -23c3.33301 0 8.83301 0.333008 16.5 1s13.834 1 18.501 1l-21 -61h-503zM326 516h397l29 655zM657 1729c0 25.333 10.001 48 30.001 68s43 30 69 30
s48.833 -9.83301 68.5 -29.5s29.5 -42.5 29.5 -68.5c0 -29.333 -9.33301 -53.333 -28 -72s-42 -28 -70 -28c-26.667 0 -49.834 9.83301 -69.501 29.5s-29.5 43.167 -29.5 70.5zM1006 1729c0 25.333 10 48 30 68s42.667 30 68 30c26.667 0 50 -9.83301 70 -29.5
s30 -42.5 30 -68.5c0 -28.667 -9.5 -52.5 -28.5 -71.5s-42.833 -28.5 -71.5 -28.5c-26.667 0 -49.667 9.83301 -69 29.5s-29 43.167 -29 70.5z" />
    <glyph glyph-name="Aring" unicode="&#xc5;" horiz-adv-x="1276" 
d="M-231 0l16 61c58.667 0 109.667 14.5 153 43.5s103 100.5 179 214.5l741 1117h76l-37 -1229v-29c0 -48.667 6.66699 -80.334 20 -95.001s49.666 -22 108.999 -22h86l-18 -61h-633l18 61h88c57.333 0 94.333 8 111 24s27 56.667 31 122l14 239h-444l-86 -135
c-22.667 -35.333 -39.667 -66.333 -51 -93s-17 -48.667 -17 -66c0 -31.333 11 -54.666 33 -69.999s55.333 -23 100 -23c3.33301 0 8.83301 0.333008 16.5 1s13.834 1 18.501 1l-21 -61h-503zM326 516h397l29 655zM680 1743c0 67.333 23.5 124.502 70.5 171.502
s104.167 70.5 171.5 70.5c66 0 122.667 -23.667 170 -71s71 -104.333 71 -171s-23.333 -123.334 -70 -170.001s-103.667 -70 -171 -70s-124.5 23.167 -171.5 69.5s-70.5 103.166 -70.5 170.499zM766 1743c0 -43.333 14.999 -80.166 44.999 -110.499s67 -45.5 111 -45.5
c42.667 0 78.834 15.167 108.501 45.5s44.5 67.166 44.5 110.499c0 42.667 -15 79.167 -45 109.5s-66 45.5 -108 45.5c-44 0 -81 -14.833 -111 -44.5s-45 -66.5 -45 -110.5z" />
    <glyph glyph-name="AE" unicode="&#xc6;" horiz-adv-x="1991" 
d="M-190 0l16.001 60.9961h12c48.667 0 97.334 17 146.001 51s118.334 103 209.001 207l800 945h1c29.333 36.667 44 62.334 44 77.001c0 12 -7.33301 21.5 -22 28.5s-34.667 10.5 -60 10.5h-73l18 56h1131l-172 -564h-56c12.667 50 21.667 92 27 126s8 64.667 8 92
c0 103.333 -26.167 177.5 -78.5 222.5s-139.5 67.5 -261.5 67.5h-41c-56.667 0 -93.834 -6.66699 -111.501 -20s-35.834 -49.666 -54.501 -108.999l-149 -479h98c94 0 165 21.333 213 64s87 119.667 117 231h55l-219 -698h-57c14 42 24.333 78.833 31 110.5s10 59.5 10 83.5
c0 55.333 -15.833 94.5 -47.5 117.5s-88.167 34.5 -169.5 34.5h-50l-170 -537c-4 -12.667 -7 -24.667 -9 -36s-3 -21 -3 -29c0 -19.333 7.33301 -32.833 22 -40.5s43 -11.5 85 -11.5h94c166 0 295.333 35.333 388 106s166 189.667 220 357h61l-165 -524h-1135l18 61h82
c46 0 79.333 8 100 24s41.334 56 62.001 120l80 241h-473l-123 -143c-27.333 -31.333 -47.833 -59.666 -61.5 -84.999s-20.5 -47.333 -20.5 -66c0 -31.333 12.5 -54.666 37.5 -69.999s62.5 -23 112.5 -23c11.333 0 20.166 0.166992 26.499 0.5s12.166 0.833008 17.499 1.5
l-18 -61h-542zM436.001 515.996h434l267 825z" />
    <glyph glyph-name="Ccedilla" unicode="&#xc7;" horiz-adv-x="1262" 
d="M49 481c0 116 23.168 236.166 69.501 360.499s110.5 239.166 192.5 344.499c69.333 88 147.333 156.333 234 205s173.334 73 260.001 73c74 0 151 -22.167 231 -66.5s128.667 -66.5 146 -66.5c27.333 0 51.666 9 72.999 27s38 44 50 78h53l-178 -562h-51
c3.33301 37.333 5.83301 69.833 7.5 97.5s2.5 52.834 2.5 75.501c0 105.333 -29.167 191.333 -87.5 258s-133.166 100 -224.499 100c-72.667 0 -138 -24.833 -196 -74.5s-114.667 -129.834 -170 -240.501c-68.667 -137.333 -123.834 -277.333 -165.501 -420
s-62.5 -256 -62.5 -340c0 -95.333 25.167 -170 75.5 -224s119.5 -81 207.5 -81c110 0 211 44.333 303 133s169.333 216.334 232 383.001h59c-64.667 -187.333 -150.167 -330.166 -256.5 -428.499s-228.5 -147.5 -366.5 -147.5c-126.667 0 -231.334 48.5 -314.001 145.5
s-124 220.5 -124 370.5zM121.001 -373.001l35.001 80.002c40.667 -22.667 80.5 -40.334 119.5 -53.001s73.5 -19 103.5 -19c41.333 0 72.166 7.66699 92.499 23s30.5 38.666 30.5 69.999c0 27.333 -9.83301 49.166 -29.5 65.499s-46.834 24.5 -81.501 24.5
c-13.333 0 -37.666 -3 -72.999 -9c-8 -1.33301 -14.333 -2.33301 -19 -3l62 194h63l-35 -112c15.333 2 28.5 3.33301 39.5 4s21.167 1.33398 30.5 2.00098c52 0 94 -15.167 126 -45.5s48 -69.833 48 -118.5c0 -54.667 -19.833 -97.667 -59.5 -129s-94.167 -47 -163.5 -47
c-37.333 0 -79.333 5.83301 -126 17.5s-101 30.167 -163 55.5z" />
    <glyph glyph-name="Egrave" unicode="&#xc8;" horiz-adv-x="1323" 
d="M-170 0l20.002 60.998h101c46.667 0 80.667 8.5 102 25.5s42 56.5 62 118.5l325 1032c6 18 10.667 35 14 51s5 29.667 5 41c0 18.667 -6.83301 31.834 -20.5 39.501s-37.5 11.5 -71.5 11.5h-101l19 56h1085l-172 -564h-55c12.667 50 21.667 92 27 126s8 64.667 8 92
c0 103.333 -26.333 177.5 -79 222.5s-139.667 67.5 -261 67.5h-41c-56.667 0 -93.834 -6.66699 -111.501 -20s-35.834 -49.666 -54.501 -108.999l-150 -479h99c93.333 0 164 21.333 212 64s87 119.667 117 231h56l-220 -698h-57c14 42 24.333 78.833 31 110.5
s10 59.5 10 83.5c0 55.333 -15.667 94.5 -47 117.5s-88 34.5 -170 34.5h-49l-170 -537c-4 -12.667 -7 -24.667 -9 -36s-3 -21 -3 -29c0 -19.333 7.16699 -32.833 21.5 -40.5s42.5 -11.5 84.5 -11.5h94c166.667 0 296.167 35.333 388.5 106s165.833 189.667 220.5 357h61
l-166 -524h-1155zM714.002 1868c0 18.667 6.83301 35 20.5 49s29.5 21 47.5 21c14 0 28.5 -5 43.5 -15s29.167 -24.333 42.5 -43l215 -301h-68l-243 203c-23.333 18.667 -38.833 34.167 -46.5 46.5s-11.5 25.5 -11.5 39.5z" />
    <glyph glyph-name="Eacute" unicode="&#xc9;" horiz-adv-x="1323" 
d="M-170 0l20.002 60.998h101c46.667 0 80.667 8.5 102 25.5s42 56.5 62 118.5l325 1032c6 18 10.667 35 14 51s5 29.667 5 41c0 18.667 -6.83301 31.834 -20.5 39.501s-37.5 11.5 -71.5 11.5h-101l19 56h1085l-172 -564h-55c12.667 50 21.667 92 27 126s8 64.667 8 92
c0 103.333 -26.333 177.5 -79 222.5s-139.667 67.5 -261 67.5h-41c-56.667 0 -93.834 -6.66699 -111.501 -20s-35.834 -49.666 -54.501 -108.999l-150 -479h99c93.333 0 164 21.333 212 64s87 119.667 117 231h56l-220 -698h-57c14 42 24.333 78.833 31 110.5
s10 59.5 10 83.5c0 55.333 -15.667 94.5 -47 117.5s-88 34.5 -170 34.5h-49l-170 -537c-4 -12.667 -7 -24.667 -9 -36s-3 -21 -3 -29c0 -19.333 7.16699 -32.833 21.5 -40.5s42.5 -11.5 84.5 -11.5h94c166.667 0 296.167 35.333 388.5 106s165.833 189.667 220.5 357h61
l-166 -524h-1155zM768.002 1579l299 313.999c12.667 12.667 26.5 23 41.5 31s28.167 12 39.5 12c18 0 33.833 -7.16699 47.5 -21.5s20.5 -30.5 20.5 -48.5c0 -14 -5.16699 -27.167 -15.5 -39.5s-28.5 -27.166 -54.5 -44.499l-307 -203h-71z" />
    <glyph glyph-name="Ecircumflex" unicode="&#xca;" horiz-adv-x="1323" 
d="M-170 0l20.002 60.998h101c46.667 0 80.667 8.5 102 25.5s42 56.5 62 118.5l325 1032c6 18 10.667 35 14 51s5 29.667 5 41c0 18.667 -6.83301 31.834 -20.5 39.501s-37.5 11.5 -71.5 11.5h-101l19 56h1085l-172 -564h-55c12.667 50 21.667 92 27 126s8 64.667 8 92
c0 103.333 -26.333 177.5 -79 222.5s-139.667 67.5 -261 67.5h-41c-56.667 0 -93.834 -6.66699 -111.501 -20s-35.834 -49.666 -54.501 -108.999l-150 -479h99c93.333 0 164 21.333 212 64s87 119.667 117 231h56l-220 -698h-57c14 42 24.333 78.833 31 110.5
s10 59.5 10 83.5c0 55.333 -15.667 94.5 -47 117.5s-88 34.5 -170 34.5h-49l-170 -537c-4 -12.667 -7 -24.667 -9 -36s-3 -21 -3 -29c0 -19.333 7.16699 -32.833 21.5 -40.5s42.5 -11.5 84.5 -11.5h94c166.667 0 296.167 35.333 388.5 106s165.833 189.667 220.5 357h61
l-166 -524h-1155zM624.002 1579l307 349h107l162 -349h-56l-178 207l-274 -207h-68z" />
    <glyph glyph-name="Edieresis" unicode="&#xcb;" horiz-adv-x="1323" 
d="M-170 0l20.002 60.998h101c46.667 0 80.667 8.5 102 25.5s42 56.5 62 118.5l325 1032c6 18 10.667 35 14 51s5 29.667 5 41c0 18.667 -6.83301 31.834 -20.5 39.501s-37.5 11.5 -71.5 11.5h-101l19 56h1085l-172 -564h-55c12.667 50 21.667 92 27 126s8 64.667 8 92
c0 103.333 -26.333 177.5 -79 222.5s-139.667 67.5 -261 67.5h-41c-56.667 0 -93.834 -6.66699 -111.501 -20s-35.834 -49.666 -54.501 -108.999l-150 -479h99c93.333 0 164 21.333 212 64s87 119.667 117 231h56l-220 -698h-57c14 42 24.333 78.833 31 110.5
s10 59.5 10 83.5c0 55.333 -15.667 94.5 -47 117.5s-88 34.5 -170 34.5h-49l-170 -537c-4 -12.667 -7 -24.667 -9 -36s-3 -21 -3 -29c0 -19.333 7.16699 -32.833 21.5 -40.5s42.5 -11.5 84.5 -11.5h94c166.667 0 296.167 35.333 388.5 106s165.833 189.667 220.5 357h61
l-166 -524h-1155zM679.002 1729c0 25.333 10.001 48 30.001 68s43 30 69 30s48.833 -9.83301 68.5 -29.5s29.5 -42.5 29.5 -68.5c0 -29.333 -9.33301 -53.333 -28 -72s-42 -28 -70 -28c-26.667 0 -49.834 9.83301 -69.501 29.5s-29.5 43.167 -29.5 70.5zM1028 1729
c0 25.333 10 48 30 68s42.667 30 68 30c26.667 0 50 -9.83301 70 -29.5s30 -42.5 30 -68.5c0 -28.667 -9.5 -52.5 -28.5 -71.5s-42.833 -28.5 -71.5 -28.5c-26.667 0 -49.667 9.83301 -69 29.5s-29 43.167 -29 70.5z" />
    <glyph glyph-name="Igrave" unicode="&#xcc;" horiz-adv-x="766" 
d="M-160 0l19 60.998h100c47.333 0 81.5 8.5 102.5 25.5s41.5 56.5 61.5 118.5l326 1032c6.66699 20 11.667 37.833 15 53.5s5 28.5 5 38.5c0 18.667 -7 31.834 -21 39.501s-38.333 11.5 -73 11.5h-99l19 56h625l-19 -56h-98c-47.333 0 -81.5 -8.33301 -102.5 -25
s-41.5 -56 -61.5 -118l-326 -1032c-8 -28 -13.333 -48 -16 -60s-4 -22 -4 -30c0 -19.333 7 -33.166 21 -41.499s38.333 -12.5 73 -12.5h98l-18 -61h-627zM436 1868c0 18.667 6.83301 35 20.5 49s29.5 21 47.5 21c14 0 28.5 -5 43.5 -15s29.167 -24.333 42.5 -43l215 -301
h-68l-243 203c-23.333 18.667 -38.833 34.167 -46.5 46.5s-11.5 25.5 -11.5 39.5z" />
    <glyph glyph-name="Iacute" unicode="&#xcd;" horiz-adv-x="766" 
d="M-160 0l19 60.998h100c47.333 0 81.5 8.5 102.5 25.5s41.5 56.5 61.5 118.5l326 1032c6.66699 20 11.667 37.833 15 53.5s5 28.5 5 38.5c0 18.667 -7 31.834 -21 39.501s-38.333 11.5 -73 11.5h-99l19 56h625l-19 -56h-98c-47.333 0 -81.5 -8.33301 -102.5 -25
s-41.5 -56 -61.5 -118l-326 -1032c-8 -28 -13.333 -48 -16 -60s-4 -22 -4 -30c0 -19.333 7 -33.166 21 -41.499s38.333 -12.5 73 -12.5h98l-18 -61h-627zM490 1579l299 313.999c12.667 12.667 26.5 23 41.5 31s28.167 12 39.5 12c18 0 33.833 -7.16699 47.5 -21.5
s20.5 -30.5 20.5 -48.5c0 -14 -5.16699 -27.167 -15.5 -39.5s-28.5 -27.166 -54.5 -44.499l-307 -203h-71z" />
    <glyph glyph-name="Icircumflex" unicode="&#xce;" horiz-adv-x="766" 
d="M-160 0l19 60.998h100c47.333 0 81.5 8.5 102.5 25.5s41.5 56.5 61.5 118.5l326 1032c6.66699 20 11.667 37.833 15 53.5s5 28.5 5 38.5c0 18.667 -7 31.834 -21 39.501s-38.333 11.5 -73 11.5h-99l19 56h625l-19 -56h-98c-47.333 0 -81.5 -8.33301 -102.5 -25
s-41.5 -56 -61.5 -118l-326 -1032c-8 -28 -13.333 -48 -16 -60s-4 -22 -4 -30c0 -19.333 7 -33.166 21 -41.499s38.333 -12.5 73 -12.5h98l-18 -61h-627zM346 1579l307 349h107l162 -349h-56l-178 207l-274 -207h-68z" />
    <glyph glyph-name="Idieresis" unicode="&#xcf;" horiz-adv-x="766" 
d="M-160 0l19 60.998h100c47.333 0 81.5 8.5 102.5 25.5s41.5 56.5 61.5 118.5l326 1032c6.66699 20 11.667 37.833 15 53.5s5 28.5 5 38.5c0 18.667 -7 31.834 -21 39.501s-38.333 11.5 -73 11.5h-99l19 56h625l-19 -56h-98c-47.333 0 -81.5 -8.33301 -102.5 -25
s-41.5 -56 -61.5 -118l-326 -1032c-8 -28 -13.333 -48 -16 -60s-4 -22 -4 -30c0 -19.333 7 -33.166 21 -41.499s38.333 -12.5 73 -12.5h98l-18 -61h-627zM401 1729c0 25.333 10.001 48 30.001 68s43 30 69 30s48.833 -9.83301 68.5 -29.5s29.5 -42.5 29.5 -68.5
c0 -29.333 -9.33301 -53.333 -28 -72s-42 -28 -70 -28c-26.667 0 -49.834 9.83301 -69.501 29.5s-29.5 43.167 -29.5 70.5zM750.001 1729c0 25.333 10 48 30 68s42.667 30 68 30c26.667 0 50 -9.83301 70 -29.5s30 -42.5 30 -68.5c0 -28.667 -9.5 -52.5 -28.5 -71.5
s-42.833 -28.5 -71.5 -28.5c-26.667 0 -49.667 9.83301 -69 29.5s-29 43.167 -29 70.5z" />
    <glyph glyph-name="Eth" unicode="&#xd0;" horiz-adv-x="1475" 
d="M-123 0l21 60.998h100c46 0 79.5 8.33301 100.5 25s41.5 56.334 61.5 119.001l166 522h-222l23 66h217l141 444c6.66699 20 11.834 37.833 15.501 53.5s5.5 28.5 5.5 38.5c0 18.667 -6.83301 31.834 -20.5 39.501s-37.5 11.5 -71.5 11.5h-101l19 56h530
c190 0 331 -41.5 423 -124.5s138 -209.5 138 -379.5c0 -147.333 -33.833 -289.5 -101.5 -426.5s-160.834 -250.833 -279.501 -341.5c-75.333 -58.667 -159 -100.667 -251 -126s-216.333 -38 -373 -38h-541zM338 130.998c0 -25.333 9.16699 -42.999 27.5 -52.999
s52.166 -15 101.499 -15c96.667 0 184 15.5 262 46.5s144.333 76.5 199 136.5c38.667 43.333 73.5 92.333 104.5 147s62.167 123.667 93.5 207c36 96 63.5 185.667 82.5 269s28.5 154.666 28.5 213.999c0 103.333 -27.5 178 -82.5 224s-144.833 69 -269.5 69
c-76 0 -125.833 -8.66699 -149.5 -26s-44.167 -54.333 -61.5 -111l-139 -446h331l-20 -66h-334l-150 -481c-7.33301 -24 -13.166 -46.833 -17.499 -68.5s-6.5 -37.167 -6.5 -46.5z" />
    <glyph glyph-name="Ntilde" unicode="&#xd1;" horiz-adv-x="1384" 
d="M-176 0l19.999 60.999h15c78 0 138.833 19.333 182.5 58s81.167 107 112.5 205l286 913c4.66699 14 8.33398 26.833 11.001 38.5s4 19.834 4 24.501c0 30 -9.83301 50.5 -29.5 61.5s-57.167 16.5 -112.5 16.5h-55l18 58h402l254 -1160l282 902
c6 16 10.333 31.833 13 47.5s4 31.167 4 46.5c0 37.333 -11.5 64.333 -34.5 81s-60.833 25 -113.5 25h-57l18 58h508l-18 -58h-57c-51.333 0 -90.666 -13.333 -117.999 -40s-55 -83.667 -83 -171l-367 -1167h-94l-289 1309l-313 -990
c-8.66699 -25.333 -15.334 -50.833 -20.001 -76.5s-7 -49.167 -7 -70.5c0 -40 12 -68.5 36 -85.5s64.667 -25.5 122 -25.5h57l-20 -61h-557zM693.999 1637c10.667 62 30.1699 108.169 58.5029 138.502s66.166 45.5 113.499 45.5c14 0 27.333 -0.833008 40 -2.5
s24.334 -4.16699 35.001 -7.5l132 -37c8.66699 -2 17.667 -3.5 27 -4.5s18.666 -1.5 27.999 -1.5c28.667 0 51.167 6.5 67.5 19.5s28.166 33.833 35.499 62.5h49c-12.667 -66.667 -33.834 -115.834 -63.501 -147.501s-69.167 -47.5 -118.5 -47.5c-12 0 -23 0.666992 -33 2
s-19.667 3.33301 -29 6l-131 37c-14 4 -26.667 7 -38 9s-21.333 3 -30 3c-25.333 0 -46 -6.33301 -62 -19s-26.667 -31.334 -32 -56.001h-49z" />
    <glyph glyph-name="Ograve" unicode="&#xd2;" horiz-adv-x="1436" 
d="M49 510c0 126 26 251.334 78 376.001s124.333 235 217 331c77.333 80 162.333 142.167 255 186.5s183.667 66.5 273 66.5c160 0 285.667 -48 377 -144s137 -227.333 137 -394c0 -132.667 -30.167 -266 -90.5 -400s-141.833 -249.333 -244.5 -346
c-76 -70.667 -157.833 -124.834 -245.5 -162.501s-175.834 -56.5 -264.501 -56.5c-145.333 0 -263.666 50.5 -354.999 151.5s-137 231.5 -137 391.5zM231 358.001c0 -104 27.166 -185.833 81.499 -245.5s128.5 -89.5 222.5 -89.5c87.333 0 166.5 24.667 237.5 74
s134.5 124.333 190.5 225c70.667 128 127.167 261.333 169.5 400s63.5 255 63.5 349c0 108.667 -27.167 193.167 -81.5 253.5s-130.166 90.5 -227.499 90.5c-74.667 0 -145.5 -21.167 -212.5 -63.5s-125.833 -103.166 -176.5 -182.499
c-25.333 -39.333 -51 -86.833 -77 -142.5s-51 -115.834 -75 -180.501c-37.333 -104.667 -65.833 -198.167 -85.5 -280.5s-29.5 -151.5 -29.5 -207.5zM771.999 1868c0 18.667 6.83301 35 20.5 49s29.5 21 47.5 21c14 0 28.5 -5 43.5 -15s29.167 -24.333 42.5 -43l215 -301
h-68l-243 203c-23.333 18.667 -38.833 34.167 -46.5 46.5s-11.5 25.5 -11.5 39.5z" />
    <glyph glyph-name="Oacute" unicode="&#xd3;" horiz-adv-x="1436" 
d="M49 510c0 126 26 251.334 78 376.001s124.333 235 217 331c77.333 80 162.333 142.167 255 186.5s183.667 66.5 273 66.5c160 0 285.667 -48 377 -144s137 -227.333 137 -394c0 -132.667 -30.167 -266 -90.5 -400s-141.833 -249.333 -244.5 -346
c-76 -70.667 -157.833 -124.834 -245.5 -162.501s-175.834 -56.5 -264.501 -56.5c-145.333 0 -263.666 50.5 -354.999 151.5s-137 231.5 -137 391.5zM231 358.001c0 -104 27.166 -185.833 81.499 -245.5s128.5 -89.5 222.5 -89.5c87.333 0 166.5 24.667 237.5 74
s134.5 124.333 190.5 225c70.667 128 127.167 261.333 169.5 400s63.5 255 63.5 349c0 108.667 -27.167 193.167 -81.5 253.5s-130.166 90.5 -227.499 90.5c-74.667 0 -145.5 -21.167 -212.5 -63.5s-125.833 -103.166 -176.5 -182.499
c-25.333 -39.333 -51 -86.833 -77 -142.5s-51 -115.834 -75 -180.501c-37.333 -104.667 -65.833 -198.167 -85.5 -280.5s-29.5 -151.5 -29.5 -207.5zM825.999 1579l299 313.999c12.667 12.667 26.5 23 41.5 31s28.167 12 39.5 12c18 0 33.833 -7.16699 47.5 -21.5
s20.5 -30.5 20.5 -48.5c0 -14 -5.16699 -27.167 -15.5 -39.5s-28.5 -27.166 -54.5 -44.499l-307 -203h-71z" />
    <glyph glyph-name="Ocircumflex" unicode="&#xd4;" horiz-adv-x="1436" 
d="M49 510c0 126 26 251.334 78 376.001s124.333 235 217 331c77.333 80 162.333 142.167 255 186.5s183.667 66.5 273 66.5c160 0 285.667 -48 377 -144s137 -227.333 137 -394c0 -132.667 -30.167 -266 -90.5 -400s-141.833 -249.333 -244.5 -346
c-76 -70.667 -157.833 -124.834 -245.5 -162.501s-175.834 -56.5 -264.501 -56.5c-145.333 0 -263.666 50.5 -354.999 151.5s-137 231.5 -137 391.5zM231 358.001c0 -104 27.166 -185.833 81.499 -245.5s128.5 -89.5 222.5 -89.5c87.333 0 166.5 24.667 237.5 74
s134.5 124.333 190.5 225c70.667 128 127.167 261.333 169.5 400s63.5 255 63.5 349c0 108.667 -27.167 193.167 -81.5 253.5s-130.166 90.5 -227.499 90.5c-74.667 0 -145.5 -21.167 -212.5 -63.5s-125.833 -103.166 -176.5 -182.499
c-25.333 -39.333 -51 -86.833 -77 -142.5s-51 -115.834 -75 -180.501c-37.333 -104.667 -65.833 -198.167 -85.5 -280.5s-29.5 -151.5 -29.5 -207.5zM681.999 1579l307 349h107l162 -349h-56l-178 207l-274 -207h-68z" />
    <glyph glyph-name="Otilde" unicode="&#xd5;" horiz-adv-x="1436" 
d="M49 510c0 126 26 251.334 78 376.001s124.333 235 217 331c77.333 80 162.333 142.167 255 186.5s183.667 66.5 273 66.5c160 0 285.667 -48 377 -144s137 -227.333 137 -394c0 -132.667 -30.167 -266 -90.5 -400s-141.833 -249.333 -244.5 -346
c-76 -70.667 -157.833 -124.834 -245.5 -162.501s-175.834 -56.5 -264.501 -56.5c-145.333 0 -263.666 50.5 -354.999 151.5s-137 231.5 -137 391.5zM231 358.001c0 -104 27.166 -185.833 81.499 -245.5s128.5 -89.5 222.5 -89.5c87.333 0 166.5 24.667 237.5 74
s134.5 124.333 190.5 225c70.667 128 127.167 261.333 169.5 400s63.5 255 63.5 349c0 108.667 -27.167 193.167 -81.5 253.5s-130.166 90.5 -227.499 90.5c-74.667 0 -145.5 -21.167 -212.5 -63.5s-125.833 -103.166 -176.5 -182.499
c-25.333 -39.333 -51 -86.833 -77 -142.5s-51 -115.834 -75 -180.501c-37.333 -104.667 -65.833 -198.167 -85.5 -280.5s-29.5 -151.5 -29.5 -207.5zM720.999 1637c10.667 62 30.1699 108.169 58.5029 138.502s66.166 45.5 113.499 45.5c14 0 27.333 -0.833008 40 -2.5
s24.334 -4.16699 35.001 -7.5l132 -37c8.66699 -2 17.667 -3.5 27 -4.5s18.666 -1.5 27.999 -1.5c28.667 0 51.167 6.5 67.5 19.5s28.166 33.833 35.499 62.5h49c-12.667 -66.667 -33.834 -115.834 -63.501 -147.501s-69.167 -47.5 -118.5 -47.5c-12 0 -23 0.666992 -33 2
s-19.667 3.33301 -29 6l-131 37c-14 4 -26.667 7 -38 9s-21.333 3 -30 3c-25.333 0 -46 -6.33301 -62 -19s-26.667 -31.334 -32 -56.001h-49z" />
    <glyph glyph-name="Odieresis" unicode="&#xd6;" horiz-adv-x="1436" 
d="M49 510c0 126 26 251.334 78 376.001s124.333 235 217 331c77.333 80 162.333 142.167 255 186.5s183.667 66.5 273 66.5c160 0 285.667 -48 377 -144s137 -227.333 137 -394c0 -132.667 -30.167 -266 -90.5 -400s-141.833 -249.333 -244.5 -346
c-76 -70.667 -157.833 -124.834 -245.5 -162.501s-175.834 -56.5 -264.501 -56.5c-145.333 0 -263.666 50.5 -354.999 151.5s-137 231.5 -137 391.5zM231 358.001c0 -104 27.166 -185.833 81.499 -245.5s128.5 -89.5 222.5 -89.5c87.333 0 166.5 24.667 237.5 74
s134.5 124.333 190.5 225c70.667 128 127.167 261.333 169.5 400s63.5 255 63.5 349c0 108.667 -27.167 193.167 -81.5 253.5s-130.166 90.5 -227.499 90.5c-74.667 0 -145.5 -21.167 -212.5 -63.5s-125.833 -103.166 -176.5 -182.499
c-25.333 -39.333 -51 -86.833 -77 -142.5s-51 -115.834 -75 -180.501c-37.333 -104.667 -65.833 -198.167 -85.5 -280.5s-29.5 -151.5 -29.5 -207.5zM736.999 1729c0 25.333 10.001 48 30.001 68s43 30 69 30s48.833 -9.83301 68.5 -29.5s29.5 -42.5 29.5 -68.5
c0 -29.333 -9.33301 -53.333 -28 -72s-42 -28 -70 -28c-26.667 0 -49.834 9.83301 -69.501 29.5s-29.5 43.167 -29.5 70.5zM1086 1729c0 25.333 10 48 30 68s42.667 30 68 30c26.667 0 50 -9.83301 70 -29.5s30 -42.5 30 -68.5c0 -28.667 -9.5 -52.5 -28.5 -71.5
s-42.833 -28.5 -71.5 -28.5c-26.667 0 -49.667 9.83301 -69 29.5s-29 43.167 -29 70.5z" />
    <glyph glyph-name="multiply" unicode="&#xd7;" horiz-adv-x="1706" 
d="M301 135l475 475l-475 477l80 82l477 -477l475 477l82 -82l-475 -477l475 -475l-82 -82l-475 475l-477 -475z" />
    <glyph glyph-name="Oslash" unicode="&#xd8;" horiz-adv-x="1436" 
d="M16 -33l150.002 173.997c-38.667 50 -67.834 106.167 -87.501 168.5s-29.5 130.5 -29.5 204.5c0 124.667 26 248.667 78 372s124.333 233.666 217 330.999c79.333 81.333 164.833 143.833 256.5 187.5s182.167 65.5 271.5 65.5c70.667 0 135.834 -10.333 195.501 -31
s113.5 -51.667 161.5 -93l108 124h80l-145 -165c38 -52 66.5 -109.167 85.5 -171.5s28.5 -130.166 28.5 -203.499c0 -132 -30 -264.667 -90 -398s-141.667 -248.666 -245 -345.999c-76.667 -71.333 -158.334 -125.666 -245.001 -162.999s-174.334 -56 -263.001 -56
c-70 0 -133.167 11.333 -189.5 34s-105.833 56.334 -148.5 101.001l-121 -135h-68zM231.002 357.997c0 -20 1.16699 -40.334 3.5 -61.001s5.5 -41 9.5 -61l913 1030c-23.333 46 -59.166 82.333 -107.499 109s-102.5 40 -162.5 40c-74 0 -144.667 -21.5 -212 -64.5
s-127 -104.833 -179 -185.5c-25.333 -39.333 -50.833 -86.666 -76.5 -141.999s-50.834 -116.333 -75.501 -183c-38 -104.667 -66.333 -196.667 -85 -276s-28 -148 -28 -206zM270.002 175.996c24.667 -49.333 60 -87.167 106 -113.5s99.667 -39.5 161 -39.5
c86.667 0 165.667 24.833 237 74.5s134.333 123.5 189 221.5c72 132 129.5 269.833 172.5 413.5s64.5 264.167 64.5 361.5c0 18.667 -1.5 37 -4.5 55s-7.5 36.333 -13.5 55z" />
    <glyph glyph-name="Ugrave" unicode="&#xd9;" horiz-adv-x="1407" 
d="M160 283c0 36 4.5 76.668 13.5 122.001s27.5 113 55.5 203l197 625c5.33301 16.667 9.33301 32 12 46s4 25.333 4 34c0 27.333 -7.33301 45.333 -22 54s-44.667 13 -90 13h-90l18 56h647l-18 -56h-68c-67.333 0 -112.5 -9.83301 -135.5 -29.5
s-46.833 -67.834 -71.5 -144.501l-235 -751c-16.667 -52.667 -28.334 -96.5 -35.001 -131.5s-10 -66.5 -10 -94.5c0 -61.333 21.833 -109.666 65.5 -144.999s103.834 -53 180.501 -53c106.667 0 193.5 32 260.5 96s124.167 171.333 171.5 322l219 702
c8 24.667 14 46.667 18 66s6 36.333 6 51c0 36.667 -11.167 64.5 -33.5 83.5s-55.5 28.5 -99.5 28.5h-47l19 56h493l-16 -55c-78.667 -4 -138.167 -23.833 -178.5 -59.5s-77.833 -109.5 -112.5 -221.5l-211 -674c-52 -164.667 -118.333 -282.334 -199 -353.001
s-187.667 -106 -321 -106c-118 0 -212 28.833 -282 86.5s-105 134.167 -105 229.5zM757 1868c0 18.667 6.83301 35 20.5 49s29.5 21 47.5 21c14 0 28.5 -5 43.5 -15s29.167 -24.333 42.5 -43l215 -301h-68l-243 203c-23.333 18.667 -38.833 34.167 -46.5 46.5
s-11.5 25.5 -11.5 39.5z" />
    <glyph glyph-name="Uacute" unicode="&#xda;" horiz-adv-x="1407" 
d="M160 283c0 36 4.5 76.668 13.5 122.001s27.5 113 55.5 203l197 625c5.33301 16.667 9.33301 32 12 46s4 25.333 4 34c0 27.333 -7.33301 45.333 -22 54s-44.667 13 -90 13h-90l18 56h647l-18 -56h-68c-67.333 0 -112.5 -9.83301 -135.5 -29.5
s-46.833 -67.834 -71.5 -144.501l-235 -751c-16.667 -52.667 -28.334 -96.5 -35.001 -131.5s-10 -66.5 -10 -94.5c0 -61.333 21.833 -109.666 65.5 -144.999s103.834 -53 180.501 -53c106.667 0 193.5 32 260.5 96s124.167 171.333 171.5 322l219 702
c8 24.667 14 46.667 18 66s6 36.333 6 51c0 36.667 -11.167 64.5 -33.5 83.5s-55.5 28.5 -99.5 28.5h-47l19 56h493l-16 -55c-78.667 -4 -138.167 -23.833 -178.5 -59.5s-77.833 -109.5 -112.5 -221.5l-211 -674c-52 -164.667 -118.333 -282.334 -199 -353.001
s-187.667 -106 -321 -106c-118 0 -212 28.833 -282 86.5s-105 134.167 -105 229.5zM811 1579l299 313.999c12.667 12.667 26.5 23 41.5 31s28.167 12 39.5 12c18 0 33.833 -7.16699 47.5 -21.5s20.5 -30.5 20.5 -48.5c0 -14 -5.16699 -27.167 -15.5 -39.5
s-28.5 -27.166 -54.5 -44.499l-307 -203h-71z" />
    <glyph glyph-name="Ucircumflex" unicode="&#xdb;" horiz-adv-x="1407" 
d="M160 283c0 36 4.5 76.668 13.5 122.001s27.5 113 55.5 203l197 625c5.33301 16.667 9.33301 32 12 46s4 25.333 4 34c0 27.333 -7.33301 45.333 -22 54s-44.667 13 -90 13h-90l18 56h647l-18 -56h-68c-67.333 0 -112.5 -9.83301 -135.5 -29.5
s-46.833 -67.834 -71.5 -144.501l-235 -751c-16.667 -52.667 -28.334 -96.5 -35.001 -131.5s-10 -66.5 -10 -94.5c0 -61.333 21.833 -109.666 65.5 -144.999s103.834 -53 180.501 -53c106.667 0 193.5 32 260.5 96s124.167 171.333 171.5 322l219 702
c8 24.667 14 46.667 18 66s6 36.333 6 51c0 36.667 -11.167 64.5 -33.5 83.5s-55.5 28.5 -99.5 28.5h-47l19 56h493l-16 -55c-78.667 -4 -138.167 -23.833 -178.5 -59.5s-77.833 -109.5 -112.5 -221.5l-211 -674c-52 -164.667 -118.333 -282.334 -199 -353.001
s-187.667 -106 -321 -106c-118 0 -212 28.833 -282 86.5s-105 134.167 -105 229.5zM667 1579l307 349h107l162 -349h-56l-178 207l-274 -207h-68z" />
    <glyph glyph-name="Udieresis" unicode="&#xdc;" horiz-adv-x="1407" 
d="M160 283c0 36 4.5 76.668 13.5 122.001s27.5 113 55.5 203l197 625c5.33301 16.667 9.33301 32 12 46s4 25.333 4 34c0 27.333 -7.33301 45.333 -22 54s-44.667 13 -90 13h-90l18 56h647l-18 -56h-68c-67.333 0 -112.5 -9.83301 -135.5 -29.5
s-46.833 -67.834 -71.5 -144.501l-235 -751c-16.667 -52.667 -28.334 -96.5 -35.001 -131.5s-10 -66.5 -10 -94.5c0 -61.333 21.833 -109.666 65.5 -144.999s103.834 -53 180.501 -53c106.667 0 193.5 32 260.5 96s124.167 171.333 171.5 322l219 702
c8 24.667 14 46.667 18 66s6 36.333 6 51c0 36.667 -11.167 64.5 -33.5 83.5s-55.5 28.5 -99.5 28.5h-47l19 56h493l-16 -55c-78.667 -4 -138.167 -23.833 -178.5 -59.5s-77.833 -109.5 -112.5 -221.5l-211 -674c-52 -164.667 -118.333 -282.334 -199 -353.001
s-187.667 -106 -321 -106c-118 0 -212 28.833 -282 86.5s-105 134.167 -105 229.5zM722 1729c0 25.333 10.001 48 30.001 68s43 30 69 30s48.833 -9.83301 68.5 -29.5s29.5 -42.5 29.5 -68.5c0 -29.333 -9.33301 -53.333 -28 -72s-42 -28 -70 -28
c-26.667 0 -49.834 9.83301 -69.501 29.5s-29.5 43.167 -29.5 70.5zM1071 1729c0 25.333 10 48 30 68s42.667 30 68 30c26.667 0 50 -9.83301 70 -29.5s30 -42.5 30 -68.5c0 -28.667 -9.5 -52.5 -28.5 -71.5s-42.833 -28.5 -71.5 -28.5c-26.667 0 -49.667 9.83301 -69 29.5
s-29 43.167 -29 70.5z" />
    <glyph glyph-name="Yacute" unicode="&#xdd;" horiz-adv-x="1253" 
d="M106 0l18.999 60.9971h100c47.333 0 81.5 8.5 102.5 25.5s41.5 56.5 61.5 118.5l131 424l-182 647c-12 43.333 -26.667 71.166 -44 83.499s-50.333 18.5 -99 18.5h-76l18 58h623l-19 -58h-110c-38 0 -65.333 -4.66699 -82 -14s-25 -24.333 -25 -45
c0 -4.66699 1.5 -11.667 4.5 -21s5.16699 -16.333 6.5 -21l151 -587l361 447c22.667 28.667 39.834 54.834 51.501 78.501s17.5 44.5 17.5 62.5c0 34 -13.833 59.167 -41.5 75.5s-70.5 24.5 -128.5 24.5h-22l16 58h524l-19 -58c-45.333 -0.666992 -87 -12.667 -125 -36
s-89.667 -74.666 -155 -153.999l-456 -557l-131 -426c-6.66699 -21.333 -11.5 -39.166 -14.5 -53.499s-4.5 -26.5 -4.5 -36.5c0 -19.333 7 -33.166 21 -41.499s37.667 -12.5 71 -12.5h119l-18 -61h-646zM733.999 1579l299 313.999c12.667 12.667 26.5 23 41.5 31
s28.167 12 39.5 12c18 0 33.833 -7.16699 47.5 -21.5s20.5 -30.5 20.5 -48.5c0 -14 -5.16699 -27.167 -15.5 -39.5s-28.5 -27.166 -54.5 -44.499l-307 -203h-71z" />
    <glyph glyph-name="Thorn" unicode="&#xde;" horiz-adv-x="1266" 
d="M-170 0l19.999 60.998h101c46.667 0 80.667 8.5 102 25.5s42 56.5 62 118.5l325 1032c6 18 10.667 35 14 51s5 29.667 5 41c0 18.667 -6.83301 31.834 -20.5 39.501s-37.5 11.5 -71.5 11.5h-101l19 56h624l-16 -56h-100c-75.333 0 -128.666 -43.667 -159.999 -131l-4 -12
l-17 -47h90c167.333 0 294.5 -30.5 381.5 -91.5s130.5 -150.167 130.5 -267.5c0 -128.667 -51.333 -228.667 -154 -300s-247.667 -107 -435 -107h-256l-66 -219c-6 -21.333 -10.5 -39.166 -13.5 -53.499s-4.5 -26.5 -4.5 -36.5c0 -20 6.66699 -34 20 -42s37.333 -12 72 -12
h135l-18 -61h-664zM388.999 484.998l159.999 -0.000976562c90.667 0 156.834 4.83301 198.501 14.5s77.167 26.167 106.5 49.5c44.667 34 83.834 90.833 117.501 170.5s50.5 153.834 50.5 222.501c0 66.667 -21.333 115.167 -64 145.5s-111.334 45.5 -206.001 45.5h-50
c-45.333 0 -77 -7.33301 -95 -22s-36.667 -52.667 -56 -114z" />
    <glyph glyph-name="germandbls" unicode="&#xdf;" horiz-adv-x="1124" 
d="M-49 0l270.003 857.999c66.667 210 148.667 364.167 246 462.5s216 147.5 356 147.5c92.667 0 166.667 -23.667 222 -71s83 -110.333 83 -189c0 -94 -38 -171.5 -114 -232.5s-185.333 -101.5 -328 -121.5c85.333 -20.667 151.333 -62.5 198 -125.5s70 -141.833 70 -236.5
c0 -138 -40.5 -259 -121.5 -363s-172.833 -156 -275.5 -156c-62 0 -112 21.667 -150 65s-57 100.333 -57 171c0 55.333 12.5 111.833 37.5 169.5s61.167 112.5 108.5 164.5l30 -27c-44.667 -61.333 -77 -116.833 -97 -166.5s-30 -98.5 -30 -146.5
c0 -46 11.167 -83.833 33.5 -113.5s50.166 -44.5 83.499 -44.5c29.333 0 56.666 11.833 81.999 35.5s49.333 60.167 72 109.5c41.333 91.333 73.5 175.833 96.5 253.5s34.5 140.167 34.5 187.5c0 64.667 -20 114.667 -60 150s-96.667 53 -170 53
c-10.667 0 -18.667 -0.166992 -24 -0.5s-10.666 -0.833008 -15.999 -1.5l14 42h10c107.333 0 199.333 40.333 276 121s115 175 115 283c0 44 -13.333 79.167 -40 105.5s-62.334 39.5 -107.001 39.5c-74.667 0 -139.834 -35.667 -195.501 -107
s-109.5 -189.666 -161.5 -354.999l-301 -961h-190z" />
    <glyph glyph-name="agrave" unicode="&#xe0;" horiz-adv-x="1219" 
d="M12 324c0 94.667 22.167 192.168 66.5 292.501s105.5 190.5 183.5 270.5c50.667 51.333 105 90.833 163 118.5s115.667 41.5 173 41.5c70 0 124.5 -17.833 163.5 -53.5s61.5 -88.167 67.5 -157.5l62 198h178l-266 -843c-0.666992 -2.66699 -2 -6.33398 -4 -11.001
c-10 -32 -15 -58.667 -15 -80c0 -18.667 4.66699 -32.834 14 -42.501s22.666 -14.5 39.999 -14.5c37.333 0 80.166 27.333 128.499 82s95.5 129.667 141.5 225h43c-54 -121.333 -111.667 -213.333 -173 -276s-123.666 -94 -186.999 -94c-46 0 -81.833 15.833 -107.5 47.5
s-38.5 75.834 -38.5 132.501c0 12 0.5 25 1.5 39s2.5 29.333 4.5 46c-56 -87.333 -115 -153.333 -177 -198s-125 -67 -189 -67c-81.333 0 -147.166 31.333 -197.499 94s-75.5 146 -75.5 250zM174 172.001c0 -46 10.834 -81 32.501 -105s53.167 -36 94.5 -36
c76 0 153.167 42.167 231.5 126.5s137.166 190.166 176.499 317.499l57 184c8 25.333 14.167 50.333 18.5 75s6.5 47.667 6.5 69c0 58 -16.167 105.5 -48.5 142.5s-72.833 55.5 -121.5 55.5c-46.667 0 -90 -16.167 -130 -48.5s-78 -82.166 -114 -149.499
c-58 -105.333 -106.333 -220.833 -145 -346.5s-58 -220.5 -58 -284.5zM495.001 1456c0 18.667 6.83301 35 20.5 49s29.5 21 47.5 21c14 0 28.5 -5 43.5 -15s29.167 -24.333 42.5 -43l215 -301h-68l-243 203c-23.333 18.667 -38.833 34.167 -46.5 46.5s-11.5 25.5 -11.5 39.5
z" />
    <glyph glyph-name="aacute" unicode="&#xe1;" horiz-adv-x="1219" 
d="M12 324c0 94.667 22.167 192.168 66.5 292.501s105.5 190.5 183.5 270.5c50.667 51.333 105 90.833 163 118.5s115.667 41.5 173 41.5c70 0 124.5 -17.833 163.5 -53.5s61.5 -88.167 67.5 -157.5l62 198h178l-266 -843c-0.666992 -2.66699 -2 -6.33398 -4 -11.001
c-10 -32 -15 -58.667 -15 -80c0 -18.667 4.66699 -32.834 14 -42.501s22.666 -14.5 39.999 -14.5c37.333 0 80.166 27.333 128.499 82s95.5 129.667 141.5 225h43c-54 -121.333 -111.667 -213.333 -173 -276s-123.666 -94 -186.999 -94c-46 0 -81.833 15.833 -107.5 47.5
s-38.5 75.834 -38.5 132.501c0 12 0.5 25 1.5 39s2.5 29.333 4.5 46c-56 -87.333 -115 -153.333 -177 -198s-125 -67 -189 -67c-81.333 0 -147.166 31.333 -197.499 94s-75.5 146 -75.5 250zM174 172.001c0 -46 10.834 -81 32.501 -105s53.167 -36 94.5 -36
c76 0 153.167 42.167 231.5 126.5s137.166 190.166 176.499 317.499l57 184c8 25.333 14.167 50.333 18.5 75s6.5 47.667 6.5 69c0 58 -16.167 105.5 -48.5 142.5s-72.833 55.5 -121.5 55.5c-46.667 0 -90 -16.167 -130 -48.5s-78 -82.166 -114 -149.499
c-58 -105.333 -106.333 -220.833 -145 -346.5s-58 -220.5 -58 -284.5zM549.001 1167l299 313.999c12.667 12.667 26.5 23 41.5 31s28.167 12 39.5 12c18 0 33.833 -7.16699 47.5 -21.5s20.5 -30.5 20.5 -48.5c0 -14 -5.16699 -27.167 -15.5 -39.5
s-28.5 -27.166 -54.5 -44.499l-307 -203h-71z" />
    <glyph glyph-name="acircumflex" unicode="&#xe2;" horiz-adv-x="1219" 
d="M12 324c0 94.667 22.167 192.168 66.5 292.501s105.5 190.5 183.5 270.5c50.667 51.333 105 90.833 163 118.5s115.667 41.5 173 41.5c70 0 124.5 -17.833 163.5 -53.5s61.5 -88.167 67.5 -157.5l62 198h178l-266 -843c-0.666992 -2.66699 -2 -6.33398 -4 -11.001
c-10 -32 -15 -58.667 -15 -80c0 -18.667 4.66699 -32.834 14 -42.501s22.666 -14.5 39.999 -14.5c37.333 0 80.166 27.333 128.499 82s95.5 129.667 141.5 225h43c-54 -121.333 -111.667 -213.333 -173 -276s-123.666 -94 -186.999 -94c-46 0 -81.833 15.833 -107.5 47.5
s-38.5 75.834 -38.5 132.501c0 12 0.5 25 1.5 39s2.5 29.333 4.5 46c-56 -87.333 -115 -153.333 -177 -198s-125 -67 -189 -67c-81.333 0 -147.166 31.333 -197.499 94s-75.5 146 -75.5 250zM174 172.001c0 -46 10.834 -81 32.501 -105s53.167 -36 94.5 -36
c76 0 153.167 42.167 231.5 126.5s137.166 190.166 176.499 317.499l57 184c8 25.333 14.167 50.333 18.5 75s6.5 47.667 6.5 69c0 58 -16.167 105.5 -48.5 142.5s-72.833 55.5 -121.5 55.5c-46.667 0 -90 -16.167 -130 -48.5s-78 -82.166 -114 -149.499
c-58 -105.333 -106.333 -220.833 -145 -346.5s-58 -220.5 -58 -284.5zM405.001 1167l307 349h107l162 -349h-56l-178 207l-274 -207h-68z" />
    <glyph glyph-name="atilde" unicode="&#xe3;" horiz-adv-x="1219" 
d="M12 324c0 94.667 22.167 192.168 66.5 292.501s105.5 190.5 183.5 270.5c50.667 51.333 105 90.833 163 118.5s115.667 41.5 173 41.5c70 0 124.5 -17.833 163.5 -53.5s61.5 -88.167 67.5 -157.5l62 198h178l-266 -843c-0.666992 -2.66699 -2 -6.33398 -4 -11.001
c-10 -32 -15 -58.667 -15 -80c0 -18.667 4.66699 -32.834 14 -42.501s22.666 -14.5 39.999 -14.5c37.333 0 80.166 27.333 128.499 82s95.5 129.667 141.5 225h43c-54 -121.333 -111.667 -213.333 -173 -276s-123.666 -94 -186.999 -94c-46 0 -81.833 15.833 -107.5 47.5
s-38.5 75.834 -38.5 132.501c0 12 0.5 25 1.5 39s2.5 29.333 4.5 46c-56 -87.333 -115 -153.333 -177 -198s-125 -67 -189 -67c-81.333 0 -147.166 31.333 -197.499 94s-75.5 146 -75.5 250zM174 172.001c0 -46 10.834 -81 32.501 -105s53.167 -36 94.5 -36
c76 0 153.167 42.167 231.5 126.5s137.166 190.166 176.499 317.499l57 184c8 25.333 14.167 50.333 18.5 75s6.5 47.667 6.5 69c0 58 -16.167 105.5 -48.5 142.5s-72.833 55.5 -121.5 55.5c-46.667 0 -90 -16.167 -130 -48.5s-78 -82.166 -114 -149.499
c-58 -105.333 -106.333 -220.833 -145 -346.5s-58 -220.5 -58 -284.5zM444.001 1225c10.667 62 30.1699 108.169 58.5029 138.502s66.166 45.5 113.499 45.5c14 0 27.333 -0.833008 40 -2.5s24.334 -4.16699 35.001 -7.5l132 -37c8.66699 -2 17.667 -3.5 27 -4.5
s18.666 -1.5 27.999 -1.5c28.667 0 51.167 6.5 67.5 19.5s28.166 33.833 35.499 62.5h49c-12.667 -66.667 -33.834 -115.834 -63.501 -147.501s-69.167 -47.5 -118.5 -47.5c-12 0 -23 0.666992 -33 2s-19.667 3.33301 -29 6l-131 37c-14 4 -26.667 7 -38 9s-21.333 3 -30 3
c-25.333 0 -46 -6.33301 -62 -19s-26.667 -31.334 -32 -56.001h-49z" />
    <glyph glyph-name="adieresis" unicode="&#xe4;" horiz-adv-x="1219" 
d="M12 324c0 94.667 22.167 192.168 66.5 292.501s105.5 190.5 183.5 270.5c50.667 51.333 105 90.833 163 118.5s115.667 41.5 173 41.5c70 0 124.5 -17.833 163.5 -53.5s61.5 -88.167 67.5 -157.5l62 198h178l-266 -843c-0.666992 -2.66699 -2 -6.33398 -4 -11.001
c-10 -32 -15 -58.667 -15 -80c0 -18.667 4.66699 -32.834 14 -42.501s22.666 -14.5 39.999 -14.5c37.333 0 80.166 27.333 128.499 82s95.5 129.667 141.5 225h43c-54 -121.333 -111.667 -213.333 -173 -276s-123.666 -94 -186.999 -94c-46 0 -81.833 15.833 -107.5 47.5
s-38.5 75.834 -38.5 132.501c0 12 0.5 25 1.5 39s2.5 29.333 4.5 46c-56 -87.333 -115 -153.333 -177 -198s-125 -67 -189 -67c-81.333 0 -147.166 31.333 -197.499 94s-75.5 146 -75.5 250zM174 172.001c0 -46 10.834 -81 32.501 -105s53.167 -36 94.5 -36
c76 0 153.167 42.167 231.5 126.5s137.166 190.166 176.499 317.499l57 184c8 25.333 14.167 50.333 18.5 75s6.5 47.667 6.5 69c0 58 -16.167 105.5 -48.5 142.5s-72.833 55.5 -121.5 55.5c-46.667 0 -90 -16.167 -130 -48.5s-78 -82.166 -114 -149.499
c-58 -105.333 -106.333 -220.833 -145 -346.5s-58 -220.5 -58 -284.5zM460.001 1317c0 25.333 10.001 48 30.001 68s43 30 69 30s48.833 -9.83301 68.5 -29.5s29.5 -42.5 29.5 -68.5c0 -29.333 -9.33301 -53.333 -28 -72s-42 -28 -70 -28
c-26.667 0 -49.834 9.83301 -69.501 29.5s-29.5 43.167 -29.5 70.5zM809.002 1317c0 25.333 10 48 30 68s42.667 30 68 30c26.667 0 50 -9.83301 70 -29.5s30 -42.5 30 -68.5c0 -28.667 -9.5 -52.5 -28.5 -71.5s-42.833 -28.5 -71.5 -28.5
c-26.667 0 -49.667 9.83301 -69 29.5s-29 43.167 -29 70.5z" />
    <glyph glyph-name="aring" unicode="&#xe5;" horiz-adv-x="1219" 
d="M12 324c0 94.667 22.168 192.17 66.501 292.503s105.5 190.5 183.5 270.5c50.667 51.333 105 90.833 163 118.5s115.667 41.5 173 41.5c70 0 124.5 -17.833 163.5 -53.5s61.5 -88.167 67.5 -157.5l62 198h178l-266 -843c-0.666992 -2.66699 -2 -6.33398 -4 -11.001
c-10 -32 -15 -58.667 -15 -80c0 -18.667 4.66699 -32.834 14 -42.501s22.666 -14.5 39.999 -14.5c37.333 0 80.166 27.333 128.499 82s95.5 129.667 141.5 225h43c-54.667 -122 -112.5 -214.667 -173.5 -278s-123.167 -95 -186.5 -95c-45.333 0 -81 16.167 -107 48.5
s-39 77.166 -39 134.499c0 12 0.5 25 1.5 39s2.5 29.333 4.5 46c-56 -87.333 -115 -153.333 -177 -198s-125 -67 -189 -67c-81.333 0 -147.166 31.333 -197.499 94s-75.5 146 -75.5 250zM174.001 172.003c0 -46 10.834 -81 32.501 -105s53.167 -36 94.5 -36
c76 0 153.167 42.167 231.5 126.5s137.166 190.166 176.499 317.499l57 184c8 25.333 14.167 50.333 18.5 75s6.5 47.667 6.5 69c0 58 -16.167 105.5 -48.5 142.5s-72.833 55.5 -121.5 55.5c-46.667 0 -90 -16.167 -130 -48.5s-78 -82.166 -114 -149.499
c-58 -105.333 -106.333 -220.833 -145 -346.5s-58 -220.5 -58 -284.5zM471.002 1364c0 67.333 23.5 124.5 70.5 171.5s104.167 70.5 171.5 70.5c66 0 122.333 -23.667 169 -71s70 -104.333 70 -171s-23 -123.334 -69 -170.001s-102.667 -70 -170 -70
s-124.5 23.333 -171.5 70s-70.5 103.334 -70.5 170.001zM557.002 1364c0 -43.333 14.999 -80.167 44.999 -110.5s67 -45.5 111 -45.5c42.667 0 78.834 15.167 108.501 45.5s44.5 67.166 44.5 110.499c0 42.667 -15 79.334 -45 110.001s-66 46 -108 46
c-44 0 -81 -15 -111 -45s-45 -67 -45 -111z" />
    <glyph glyph-name="ae" unicode="&#xe6;" horiz-adv-x="1610" 
d="M12 324c0 94.667 22.1689 192.166 66.502 292.499s105.5 190.5 183.5 270.5c50.667 51.333 105 90.833 163 118.5s115.667 41.5 173 41.5c70 0 124.5 -17.833 163.5 -53.5s61.5 -88.167 67.5 -157.5l62 198h166l-31 -106c44 42 89 73.667 135 95s92.333 32 139 32
c68 0 122.667 -18.833 164 -56.5s62 -87.167 62 -148.5c0 -100 -57.5 -187.5 -172.5 -262.5s-274.5 -128.167 -478.5 -159.5l-6 -20c-29.333 -107.333 -44 -182 -44 -224c0 -46 13.667 -83 41 -111s63.666 -42 108.999 -42c69.333 0 141.666 28.833 216.999 86.5
s141 135.834 197 234.501h47c-62.667 -118 -136.167 -209.5 -220.5 -274.5s-170.833 -97.5 -259.5 -97.5c-82 0 -148.667 25.667 -200 77s-82 123.666 -92 216.999c-53.333 -93.333 -113 -165.666 -179 -216.999s-132 -77 -198 -77c-82 0 -148.333 31.333 -199 94
s-76 146 -76 250zM174.002 171.999c0 -46 10.834 -81 32.501 -105s53.167 -36 94.5 -36c76 0 153.167 42.167 231.5 126.5s137.166 190.166 176.499 317.499l57 184c8 25.333 14.167 50.333 18.5 75s6.5 47.667 6.5 69c0 58 -16.167 105.5 -48.5 142.5
s-72.833 55.5 -121.5 55.5c-46.667 0 -90 -16.167 -130 -48.5s-78 -82.166 -114 -149.499c-58 -105.333 -106.333 -220.833 -145 -346.5s-58 -220.5 -58 -284.5zM893.003 478.999c145.333 16 264.333 62.334 357 139.001s139 163.667 139 261
c0 41.333 -11.333 74.166 -34 98.499s-53 36.5 -91 36.5c-62.667 0 -125.667 -45.5 -189 -136.5s-124 -223.833 -182 -398.5z" />
    <glyph glyph-name="ccedilla" unicode="&#xe7;" horiz-adv-x="940" 
d="M-43 -373l35.001 80.002c40.667 -22.667 80.5 -40.334 119.5 -53.001s73.5 -19 103.5 -19c41.333 0 72.166 7.66699 92.499 23s30.5 38.666 30.5 69.999c0 27.333 -9.83301 49.166 -29.5 65.499s-46.834 24.5 -81.501 24.5c-13.333 0 -37.666 -3 -72.999 -9
c-8 -1.33301 -14.333 -2.33301 -19 -3l62 194h63l-35 -112c15.333 2 28.5 3.33301 39.5 4s21.167 1.33398 30.5 2.00098c52 0 94 -15.167 126 -45.5s48 -69.833 48 -118.5c0 -54.667 -19.833 -97.667 -59.5 -129s-94.167 -47 -163.5 -47
c-37.333 0 -79.333 5.83301 -126 17.5s-101 30.167 -163 55.5zM16.001 322.002c0 92 21.6641 189.502 64.9971 292.502s100.333 191.833 171 266.5c52 56 108 99 168 129s119.333 45 178 45c74 0 135.5 -23.667 184.5 -71s73.5 -105.666 73.5 -174.999
c0 -54 -14.5 -98.167 -43.5 -132.5s-64.833 -51.5 -107.5 -51.5c-31.333 0 -57.333 9.66699 -78 29s-31 43.666 -31 72.999c0 28 9.33301 50.667 28 68s48.334 31 89.001 41c24.667 6 41.667 13.167 51 21.5s14 20.166 14 35.499c0 29.333 -17 56.166 -51 80.499
s-73 36.5 -117 36.5c-43.333 0 -83.166 -14.167 -119.499 -42.5s-70.166 -71.5 -101.499 -129.5c-20.667 -37.333 -42.167 -84.833 -64.5 -142.5s-46.5 -127.834 -72.5 -210.501c-21.333 -68 -37 -124.167 -47 -168.5s-15 -81.5 -15 -111.5c0 -54 13.5 -96.167 40.5 -126.5
s64.167 -45.5 111.5 -45.5c72.667 0 146.5 30.667 221.5 92s139.833 145.333 194.5 252h43c-57.333 -122.667 -129.833 -220 -217.5 -292s-177.167 -108 -268.5 -108c-90 0 -162.333 31.333 -217 94s-82 146.334 -82 251.001z" />
    <glyph glyph-name="egrave" unicode="&#xe8;" horiz-adv-x="963" 
d="M14 322c0 88 21.1689 179.497 63.502 274.497s100.5 181.5 174.5 259.5c62.667 66 127.667 115.667 195 149s136 50 206 50c67.333 0 121.833 -18.667 163.5 -56s62.5 -85.666 62.5 -144.999c0 -102 -57.333 -190.667 -172 -266s-274.334 -128.666 -479.001 -159.999
l-6 -20c-29.333 -107.333 -44 -182 -44 -224c0 -46 13.667 -83 41 -111s63.666 -42 108.999 -42c69.333 0 141.5 28.833 216.5 86.5s140.5 135.834 196.5 234.501h47c-62.667 -118 -136.167 -210 -220.5 -276s-170.5 -99 -258.5 -99c-88.667 0 -160 31.5 -214 94.5
s-81 146.5 -81 250.5zM246.002 478.997c145.333 16 264.167 62.334 356.5 139.001s138.5 163.667 138.5 261c0 41.333 -11.167 74.166 -33.5 98.499s-52.833 36.5 -91.5 36.5c-62.667 0 -125.5 -45.5 -188.5 -136.5s-123.5 -223.833 -181.5 -398.5zM422.003 1456
c0 18.667 6.83301 35 20.5 49s29.5 21 47.5 21c14 0 28.5 -5 43.5 -15s29.167 -24.333 42.5 -43l215 -301h-68l-243 203c-23.333 18.667 -38.833 34.167 -46.5 46.5s-11.5 25.5 -11.5 39.5z" />
    <glyph glyph-name="eacute" unicode="&#xe9;" horiz-adv-x="963" 
d="M14 322c0 88 21.1689 179.497 63.502 274.497s100.5 181.5 174.5 259.5c62.667 66 127.667 115.667 195 149s136 50 206 50c67.333 0 121.833 -18.667 163.5 -56s62.5 -85.666 62.5 -144.999c0 -102 -57.333 -190.667 -172 -266s-274.334 -128.666 -479.001 -159.999
l-6 -20c-29.333 -107.333 -44 -182 -44 -224c0 -46 13.667 -83 41 -111s63.666 -42 108.999 -42c69.333 0 141.5 28.833 216.5 86.5s140.5 135.834 196.5 234.501h47c-62.667 -118 -136.167 -210 -220.5 -276s-170.5 -99 -258.5 -99c-88.667 0 -160 31.5 -214 94.5
s-81 146.5 -81 250.5zM246.002 478.997c145.333 16 264.167 62.334 356.5 139.001s138.5 163.667 138.5 261c0 41.333 -11.167 74.166 -33.5 98.499s-52.833 36.5 -91.5 36.5c-62.667 0 -125.5 -45.5 -188.5 -136.5s-123.5 -223.833 -181.5 -398.5zM476.003 1167
l299 313.999c12.667 12.667 26.5 23 41.5 31s28.167 12 39.5 12c18 0 33.833 -7.16699 47.5 -21.5s20.5 -30.5 20.5 -48.5c0 -14 -5.16699 -27.167 -15.5 -39.5s-28.5 -27.166 -54.5 -44.499l-307 -203h-71z" />
    <glyph glyph-name="ecircumflex" unicode="&#xea;" horiz-adv-x="963" 
d="M14 322c0 88 21.1689 179.497 63.502 274.497s100.5 181.5 174.5 259.5c62.667 66 127.667 115.667 195 149s136 50 206 50c67.333 0 121.833 -18.667 163.5 -56s62.5 -85.666 62.5 -144.999c0 -102 -57.333 -190.667 -172 -266s-274.334 -128.666 -479.001 -159.999
l-6 -20c-29.333 -107.333 -44 -182 -44 -224c0 -46 13.667 -83 41 -111s63.666 -42 108.999 -42c69.333 0 141.5 28.833 216.5 86.5s140.5 135.834 196.5 234.501h47c-62.667 -118 -136.167 -210 -220.5 -276s-170.5 -99 -258.5 -99c-88.667 0 -160 31.5 -214 94.5
s-81 146.5 -81 250.5zM246.002 478.997c145.333 16 264.167 62.334 356.5 139.001s138.5 163.667 138.5 261c0 41.333 -11.167 74.166 -33.5 98.499s-52.833 36.5 -91.5 36.5c-62.667 0 -125.5 -45.5 -188.5 -136.5s-123.5 -223.833 -181.5 -398.5zM332.003 1167l307 349
h107l162 -349h-56l-178 207l-274 -207h-68z" />
    <glyph glyph-name="edieresis" unicode="&#xeb;" horiz-adv-x="963" 
d="M14 322c0 88 21.1689 179.497 63.502 274.497s100.5 181.5 174.5 259.5c62.667 66 127.667 115.667 195 149s136 50 206 50c67.333 0 121.833 -18.667 163.5 -56s62.5 -85.666 62.5 -144.999c0 -102 -57.333 -190.667 -172 -266s-274.334 -128.666 -479.001 -159.999
l-6 -20c-29.333 -107.333 -44 -182 -44 -224c0 -46 13.667 -83 41 -111s63.666 -42 108.999 -42c69.333 0 141.5 28.833 216.5 86.5s140.5 135.834 196.5 234.501h47c-62.667 -118 -136.167 -210 -220.5 -276s-170.5 -99 -258.5 -99c-88.667 0 -160 31.5 -214 94.5
s-81 146.5 -81 250.5zM246.002 478.997c145.333 16 264.167 62.334 356.5 139.001s138.5 163.667 138.5 261c0 41.333 -11.167 74.166 -33.5 98.499s-52.833 36.5 -91.5 36.5c-62.667 0 -125.5 -45.5 -188.5 -136.5s-123.5 -223.833 -181.5 -398.5zM387.003 1317
c0 25.333 10.001 48 30.001 68s43 30 69 30s48.833 -9.83301 68.5 -29.5s29.5 -42.5 29.5 -68.5c0 -29.333 -9.33301 -53.333 -28 -72s-42 -28 -70 -28c-26.667 0 -49.834 9.83301 -69.501 29.5s-29.5 43.167 -29.5 70.5zM736.004 1317c0 25.333 10 48 30 68
s42.667 30 68 30c26.667 0 50 -9.83301 70 -29.5s30 -42.5 30 -68.5c0 -28.667 -9.5 -52.5 -28.5 -71.5s-42.833 -28.5 -71.5 -28.5c-26.667 0 -49.667 9.83301 -69 29.5s-29 43.167 -29 70.5z" />
    <glyph glyph-name="igrave" unicode="&#xec;" horiz-adv-x="797" 
d="M-6 639c53.333 132 113.332 233.668 179.999 305.001s135 107 205 107c56 0 101 -19.667 135 -59s51 -91.333 51 -156c0 -54 -13.5 -117.5 -40.5 -190.5s-74.833 -172.833 -143.5 -299.5c-36.667 -66 -60.834 -114.667 -72.501 -146s-17.5 -59 -17.5 -83
c0 -27.333 6.83301 -48.5 20.5 -63.5s32.834 -22.5 57.501 -22.5c42 0 87.333 27.5 136 82.5s97.334 133.833 146.001 236.5h45c-53.333 -124.667 -109.5 -217.5 -168.5 -278.5s-122.167 -91.5 -189.5 -91.5c-52.667 0 -95.5 21.333 -128.5 64s-49.5 99 -49.5 169
c0 49.333 8.5 101.333 25.5 156s48.167 125 93.5 211l58 106c64.667 115.333 97 192.666 97 231.999c0 26 -7.33301 46.833 -22 62.5s-34.667 23.5 -60 23.5c-48 0 -100 -32.333 -156 -97s-109 -154 -159 -268h-43zM283.999 1456c0 18.667 6.83301 35 20.5 49
s29.5 21 47.5 21c14 0 28.5 -5 43.5 -15s29.167 -24.333 42.5 -43l215 -301h-68l-243 203c-23.333 18.667 -38.833 34.167 -46.5 46.5s-11.5 25.5 -11.5 39.5z" />
    <glyph glyph-name="iacute" unicode="&#xed;" horiz-adv-x="797" 
d="M-6 639c53.333 132 113.332 233.668 179.999 305.001s135 107 205 107c56 0 101 -19.667 135 -59s51 -91.333 51 -156c0 -54 -13.5 -117.5 -40.5 -190.5s-74.833 -172.833 -143.5 -299.5c-36.667 -66 -60.834 -114.667 -72.501 -146s-17.5 -59 -17.5 -83
c0 -27.333 6.83301 -48.5 20.5 -63.5s32.834 -22.5 57.501 -22.5c42 0 87.333 27.5 136 82.5s97.334 133.833 146.001 236.5h45c-53.333 -124.667 -109.5 -217.5 -168.5 -278.5s-122.167 -91.5 -189.5 -91.5c-52.667 0 -95.5 21.333 -128.5 64s-49.5 99 -49.5 169
c0 49.333 8.5 101.333 25.5 156s48.167 125 93.5 211l58 106c64.667 115.333 97 192.666 97 231.999c0 26 -7.33301 46.833 -22 62.5s-34.667 23.5 -60 23.5c-48 0 -100 -32.333 -156 -97s-109 -154 -159 -268h-43zM337.999 1167l299 313.999c12.667 12.667 26.5 23 41.5 31
s28.167 12 39.5 12c18 0 33.833 -7.16699 47.5 -21.5s20.5 -30.5 20.5 -48.5c0 -14 -5.16699 -27.167 -15.5 -39.5s-28.5 -27.166 -54.5 -44.499l-307 -203h-71z" />
    <glyph glyph-name="icircumflex" unicode="&#xee;" horiz-adv-x="797" 
d="M-6 639c53.333 132 113.332 233.668 179.999 305.001s135 107 205 107c56 0 101 -19.667 135 -59s51 -91.333 51 -156c0 -54 -13.5 -117.5 -40.5 -190.5s-74.833 -172.833 -143.5 -299.5c-36.667 -66 -60.834 -114.667 -72.501 -146s-17.5 -59 -17.5 -83
c0 -27.333 6.83301 -48.5 20.5 -63.5s32.834 -22.5 57.501 -22.5c42 0 87.333 27.5 136 82.5s97.334 133.833 146.001 236.5h45c-53.333 -124.667 -109.5 -217.5 -168.5 -278.5s-122.167 -91.5 -189.5 -91.5c-52.667 0 -95.5 21.333 -128.5 64s-49.5 99 -49.5 169
c0 49.333 8.5 101.333 25.5 156s48.167 125 93.5 211l58 106c64.667 115.333 97 192.666 97 231.999c0 26 -7.33301 46.833 -22 62.5s-34.667 23.5 -60 23.5c-48 0 -100 -32.333 -156 -97s-109 -154 -159 -268h-43zM193.999 1167l307 349h107l162 -349h-56l-178 207
l-274 -207h-68z" />
    <glyph glyph-name="idieresis" unicode="&#xef;" horiz-adv-x="797" 
d="M-6 639c53.333 132 113.332 233.668 179.999 305.001s135 107 205 107c56 0 101 -19.667 135 -59s51 -91.333 51 -156c0 -54 -13.5 -117.5 -40.5 -190.5s-74.833 -172.833 -143.5 -299.5c-36.667 -66 -60.834 -114.667 -72.501 -146s-17.5 -59 -17.5 -83
c0 -27.333 6.83301 -48.5 20.5 -63.5s32.834 -22.5 57.501 -22.5c42 0 87.333 27.5 136 82.5s97.334 133.833 146.001 236.5h45c-53.333 -124.667 -109.5 -217.5 -168.5 -278.5s-122.167 -91.5 -189.5 -91.5c-52.667 0 -95.5 21.333 -128.5 64s-49.5 99 -49.5 169
c0 49.333 8.5 101.333 25.5 156s48.167 125 93.5 211l58 106c64.667 115.333 97 192.666 97 231.999c0 26 -7.33301 46.833 -22 62.5s-34.667 23.5 -60 23.5c-48 0 -100 -32.333 -156 -97s-109 -154 -159 -268h-43zM248.999 1317c0 25.333 10.001 48 30.001 68s43 30 69 30
s48.833 -9.83301 68.5 -29.5s29.5 -42.5 29.5 -68.5c0 -29.333 -9.33301 -53.333 -28 -72s-42 -28 -70 -28c-26.667 0 -49.834 9.83301 -69.501 29.5s-29.5 43.167 -29.5 70.5zM598 1317c0 25.333 10 48 30 68s42.667 30 68 30c26.667 0 50 -9.83301 70 -29.5
s30 -42.5 30 -68.5c0 -28.667 -9.5 -52.5 -28.5 -71.5s-42.833 -28.5 -71.5 -28.5c-26.667 0 -49.667 9.83301 -69 29.5s-29 43.167 -29 70.5z" />
    <glyph glyph-name="eth" unicode="&#xf0;" horiz-adv-x="1100" 
d="M14 401c0 79.333 16.167 157.501 48.5 234.501s77.833 146.5 136.5 208.5c52.667 56 111.334 98.333 176.001 127s133.667 43 207 43c38 0 71.5 -3.33301 100.5 -10s56.167 -17 81.5 -31c-7.33301 40.667 -16 81.167 -26 121.5s-22 81.166 -36 122.499l-315 -117l-20 63
l313 121c-8 22.667 -17.833 47 -29.5 73s-25.834 55.667 -42.501 89l64 33c16 -21.333 32.167 -44.833 48.5 -70.5s34.166 -55.5 53.499 -89.5l283 104l24 -61l-270 -102c58.667 -123.333 103 -237.833 133 -343.5s45 -200.834 45 -285.501
c0 -178.667 -57.5 -332.667 -172.5 -462s-248.5 -194 -400.5 -194c-115.333 0 -211.166 40.333 -287.499 121s-114.5 182.334 -114.5 305.001zM184 248.001c0 -66 20.168 -120.002 60.501 -162.002s91.833 -63 154.5 -63c46.667 0 90.5 14 131.5 42s78.5 69.667 112.5 125
c46 76 83.833 165.833 113.5 269.5s44.5 197.5 44.5 281.5c0 71.333 -17 127.5 -51 168.5s-80 61.5 -138 61.5c-46 0 -89 -13 -129 -39s-76.667 -65 -110 -117c-21.333 -34 -43 -75.667 -65 -125s-43.333 -104.666 -64 -165.999
c-20.667 -59.333 -35.834 -111.166 -45.501 -155.499s-14.5 -84.5 -14.5 -120.5z" />
    <glyph glyph-name="ntilde" unicode="&#xf1;" horiz-adv-x="1260" 
d="M-25 627c52 128.667 110.332 229.667 174.999 303s126.667 110 186 110c47.333 0 83.666 -17.667 108.999 -53s38 -85.666 38 -150.999c0 -24.667 -2 -51.334 -6 -80.001s-10 -59.334 -18 -92.001c74 126.667 144.5 221 211.5 283s132.167 93 195.5 93
c56 0 101.833 -20.333 137.5 -61s53.5 -93.334 53.5 -158.001c0 -52.667 -8 -107.5 -24 -164.5s-45.667 -130.5 -89 -220.5l-52 -106c-55.333 -111.333 -83 -184.333 -83 -219c0 -21.333 7.5 -39.333 22.5 -54s33.5 -22 55.5 -22c43.333 0 91 28.833 143 86.5
s97 133.834 135 228.501h43c-41.333 -114 -91.666 -203.5 -150.999 -268.5s-120.333 -97.5 -183 -97.5c-56.667 0 -103.167 21.833 -139.5 65.5s-54.5 100.834 -54.5 171.501c0 44.667 10.333 98.5 31 161.5s51.334 133.5 92.001 211.5c11.333 22 28 52.333 50 91
c58 104 87 176.667 87 218c0 28 -8.33301 50.333 -25 67s-39 25 -67 25c-78.667 0 -166.834 -69.667 -264.501 -209s-183.5 -322.666 -257.5 -549.999l-76 -236h-184l253 803c10 28.667 16.667 51.167 20 67.5s5 31.166 5 44.499c0 16.667 -4.33301 29.5 -13 38.5
s-20.667 13.5 -36 13.5c-38.667 0 -83.167 -30.667 -133.5 -92s-98.166 -144 -143.499 -248h-43zM511.999 1225c10.667 62 30.1699 108.169 58.5029 138.502s66.166 45.5 113.499 45.5c14 0 27.333 -0.833008 40 -2.5s24.334 -4.16699 35.001 -7.5l132 -37
c8.66699 -2 17.667 -3.5 27 -4.5s18.666 -1.5 27.999 -1.5c28.667 0 51.167 6.5 67.5 19.5s28.166 33.833 35.499 62.5h49c-12.667 -66.667 -33.834 -115.834 -63.501 -147.501s-69.167 -47.5 -118.5 -47.5c-12 0 -23 0.666992 -33 2s-19.667 3.33301 -29 6l-131 37
c-14 4 -26.667 7 -38 9s-21.333 3 -30 3c-25.333 0 -46 -6.33301 -62 -19s-26.667 -31.334 -32 -56.001h-49z" />
    <glyph glyph-name="ograve" unicode="&#xf2;" horiz-adv-x="1100" 
d="M14 420c0 82 16.001 162.499 48.001 241.499s77.667 151.5 137 217.5c54 58.667 113.167 103.334 177.5 134.001s132.166 46 203.499 46c123.333 0 222.333 -39.5 297 -118.5s112 -184.167 112 -315.5c0 -80.667 -16.833 -162.5 -50.5 -245.5
s-79.5 -156.167 -137.5 -219.5c-54 -58 -114.833 -103.333 -182.5 -136s-134.5 -49 -200.5 -49c-115.333 0 -211.5 42.167 -288.5 126.5s-115.5 190.5 -115.5 318.5zM184.001 259.999c0 -69.333 20 -125.832 60 -169.499s91.667 -65.5 155 -65.5c48 0 93 15 135 45
s79 73.667 111 131c16.667 28.667 33.167 63.167 49.5 103.5s32.5 86.166 48.5 137.499c25.333 79.333 44 148.333 56 207s18 110.667 18 156c0 61.333 -19.5 111.166 -58.5 149.499s-89.833 57.5 -152.5 57.5c-43.333 0 -84.5 -13.5 -123.5 -40.5
s-75.5 -67.5 -109.5 -121.5c-20 -31.333 -40.667 -72.166 -62 -122.499s-43.666 -110.5 -66.999 -180.5c-20.667 -60.667 -35.834 -114 -45.501 -160s-14.5 -88.333 -14.5 -127zM450.001 1456c0 18.667 6.83301 35 20.5 49s29.5 21 47.5 21c14 0 28.5 -5 43.5 -15
s29.167 -24.333 42.5 -43l215 -301h-68l-243 203c-23.333 18.667 -38.833 34.167 -46.5 46.5s-11.5 25.5 -11.5 39.5z" />
    <glyph glyph-name="oacute" unicode="&#xf3;" horiz-adv-x="1100" 
d="M14 420c0 82 16.001 162.499 48.001 241.499s77.667 151.5 137 217.5c54 58.667 113.167 103.334 177.5 134.001s132.166 46 203.499 46c123.333 0 222.333 -39.5 297 -118.5s112 -184.167 112 -315.5c0 -80.667 -16.833 -162.5 -50.5 -245.5
s-79.5 -156.167 -137.5 -219.5c-54 -58 -114.833 -103.333 -182.5 -136s-134.5 -49 -200.5 -49c-115.333 0 -211.5 42.167 -288.5 126.5s-115.5 190.5 -115.5 318.5zM184.001 259.999c0 -69.333 20 -125.832 60 -169.499s91.667 -65.5 155 -65.5c48 0 93 15 135 45
s79 73.667 111 131c16.667 28.667 33.167 63.167 49.5 103.5s32.5 86.166 48.5 137.499c25.333 79.333 44 148.333 56 207s18 110.667 18 156c0 61.333 -19.5 111.166 -58.5 149.499s-89.833 57.5 -152.5 57.5c-43.333 0 -84.5 -13.5 -123.5 -40.5
s-75.5 -67.5 -109.5 -121.5c-20 -31.333 -40.667 -72.166 -62 -122.499s-43.666 -110.5 -66.999 -180.5c-20.667 -60.667 -35.834 -114 -45.501 -160s-14.5 -88.333 -14.5 -127zM504.001 1167l299 313.999c12.667 12.667 26.5 23 41.5 31s28.167 12 39.5 12
c18 0 33.833 -7.16699 47.5 -21.5s20.5 -30.5 20.5 -48.5c0 -14 -5.16699 -27.167 -15.5 -39.5s-28.5 -27.166 -54.5 -44.499l-307 -203h-71z" />
    <glyph glyph-name="ocircumflex" unicode="&#xf4;" horiz-adv-x="1100" 
d="M14 420c0 82 16.001 162.499 48.001 241.499s77.667 151.5 137 217.5c54 58.667 113.167 103.334 177.5 134.001s132.166 46 203.499 46c123.333 0 222.333 -39.5 297 -118.5s112 -184.167 112 -315.5c0 -80.667 -16.833 -162.5 -50.5 -245.5
s-79.5 -156.167 -137.5 -219.5c-54 -58 -114.833 -103.333 -182.5 -136s-134.5 -49 -200.5 -49c-115.333 0 -211.5 42.167 -288.5 126.5s-115.5 190.5 -115.5 318.5zM184.001 259.999c0 -69.333 20 -125.832 60 -169.499s91.667 -65.5 155 -65.5c48 0 93 15 135 45
s79 73.667 111 131c16.667 28.667 33.167 63.167 49.5 103.5s32.5 86.166 48.5 137.499c25.333 79.333 44 148.333 56 207s18 110.667 18 156c0 61.333 -19.5 111.166 -58.5 149.499s-89.833 57.5 -152.5 57.5c-43.333 0 -84.5 -13.5 -123.5 -40.5
s-75.5 -67.5 -109.5 -121.5c-20 -31.333 -40.667 -72.166 -62 -122.499s-43.666 -110.5 -66.999 -180.5c-20.667 -60.667 -35.834 -114 -45.501 -160s-14.5 -88.333 -14.5 -127zM360.001 1167l307 349h107l162 -349h-56l-178 207l-274 -207h-68z" />
    <glyph glyph-name="otilde" unicode="&#xf5;" horiz-adv-x="1100" 
d="M14 420c0 82 16.001 162.499 48.001 241.499s77.667 151.5 137 217.5c54 58.667 113.167 103.334 177.5 134.001s132.166 46 203.499 46c123.333 0 222.333 -39.5 297 -118.5s112 -184.167 112 -315.5c0 -80.667 -16.833 -162.5 -50.5 -245.5
s-79.5 -156.167 -137.5 -219.5c-54 -58 -114.833 -103.333 -182.5 -136s-134.5 -49 -200.5 -49c-115.333 0 -211.5 42.167 -288.5 126.5s-115.5 190.5 -115.5 318.5zM184.001 259.999c0 -69.333 20 -125.832 60 -169.499s91.667 -65.5 155 -65.5c48 0 93 15 135 45
s79 73.667 111 131c16.667 28.667 33.167 63.167 49.5 103.5s32.5 86.166 48.5 137.499c25.333 79.333 44 148.333 56 207s18 110.667 18 156c0 61.333 -19.5 111.166 -58.5 149.499s-89.833 57.5 -152.5 57.5c-43.333 0 -84.5 -13.5 -123.5 -40.5
s-75.5 -67.5 -109.5 -121.5c-20 -31.333 -40.667 -72.166 -62 -122.499s-43.666 -110.5 -66.999 -180.5c-20.667 -60.667 -35.834 -114 -45.501 -160s-14.5 -88.333 -14.5 -127zM399.001 1225c10.667 62 30.1699 108.169 58.5029 138.502s66.166 45.5 113.499 45.5
c14 0 27.333 -0.833008 40 -2.5s24.334 -4.16699 35.001 -7.5l132 -37c8.66699 -2 17.667 -3.5 27 -4.5s18.666 -1.5 27.999 -1.5c28.667 0 51.167 6.5 67.5 19.5s28.166 33.833 35.499 62.5h49c-12.667 -66.667 -33.834 -115.834 -63.501 -147.501
s-69.167 -47.5 -118.5 -47.5c-12 0 -23 0.666992 -33 2s-19.667 3.33301 -29 6l-131 37c-14 4 -26.667 7 -38 9s-21.333 3 -30 3c-25.333 0 -46 -6.33301 -62 -19s-26.667 -31.334 -32 -56.001h-49z" />
    <glyph glyph-name="odieresis" unicode="&#xf6;" horiz-adv-x="1100" 
d="M14 420c0 82 16.001 162.499 48.001 241.499s77.667 151.5 137 217.5c54 58.667 113.167 103.334 177.5 134.001s132.166 46 203.499 46c123.333 0 222.333 -39.5 297 -118.5s112 -184.167 112 -315.5c0 -80.667 -16.833 -162.5 -50.5 -245.5
s-79.5 -156.167 -137.5 -219.5c-54 -58 -114.833 -103.333 -182.5 -136s-134.5 -49 -200.5 -49c-115.333 0 -211.5 42.167 -288.5 126.5s-115.5 190.5 -115.5 318.5zM184.001 259.999c0 -69.333 20 -125.832 60 -169.499s91.667 -65.5 155 -65.5c48 0 93 15 135 45
s79 73.667 111 131c16.667 28.667 33.167 63.167 49.5 103.5s32.5 86.166 48.5 137.499c25.333 79.333 44 148.333 56 207s18 110.667 18 156c0 61.333 -19.5 111.166 -58.5 149.499s-89.833 57.5 -152.5 57.5c-43.333 0 -84.5 -13.5 -123.5 -40.5
s-75.5 -67.5 -109.5 -121.5c-20 -31.333 -40.667 -72.166 -62 -122.499s-43.666 -110.5 -66.999 -180.5c-20.667 -60.667 -35.834 -114 -45.501 -160s-14.5 -88.333 -14.5 -127zM415.001 1317c0 25.333 10.001 48 30.001 68s43 30 69 30s48.833 -9.83301 68.5 -29.5
s29.5 -42.5 29.5 -68.5c0 -29.333 -9.33301 -53.333 -28 -72s-42 -28 -70 -28c-26.667 0 -49.834 9.83301 -69.501 29.5s-29.5 43.167 -29.5 70.5zM764.002 1317c0 25.333 10 48 30 68s42.667 30 68 30c26.667 0 50 -9.83301 70 -29.5s30 -42.5 30 -68.5
c0 -28.667 -9.5 -52.5 -28.5 -71.5s-42.833 -28.5 -71.5 -28.5c-26.667 0 -49.667 9.83301 -69 29.5s-29 43.167 -29 70.5z" />
    <glyph glyph-name="divide" unicode="&#xf7;" horiz-adv-x="1706" 
d="M254 553v117h1198v-117h-1198zM739 250c0 32 11.333 59.167 34 81.5s49.667 33.5 81 33.5s58.333 -11.333 81 -34s34 -49.667 34 -81s-11.167 -58.333 -33.5 -81s-49.5 -34 -81.5 -34s-59.167 11.167 -81.5 33.5s-33.5 49.5 -33.5 81.5zM739 971
c0 31.333 11.333 58.166 34 80.499s49.667 33.5 81 33.5c32 0 59.167 -11.167 81.5 -33.5s33.5 -49.166 33.5 -80.499c0 -32 -11.167 -59.167 -33.5 -81.5s-49.5 -33.5 -81.5 -33.5c-32.667 0 -60 11.167 -82 33.5s-33 49.5 -33 81.5z" />
    <glyph glyph-name="oslash" unicode="&#xf8;" horiz-adv-x="1100" 
d="M-6 -25l121.002 144c-32 34.667 -56.5 77.667 -73.5 129s-25.5 108.666 -25.5 171.999c0 84 15.833 165.5 47.5 244.5s76.834 150.5 135.501 214.5c54 58.667 113.167 103.334 177.5 134.001s132.166 46 203.499 46c51.333 0 99.666 -7.83301 144.999 -23.5
s88.333 -39.167 129 -70.5l80 92h63l-106 -131c34 -42.667 58.833 -87.667 74.5 -135s23.5 -102.666 23.5 -165.999c0 -80.667 -16.5 -162.334 -49.5 -245.001s-78.5 -155.334 -136.5 -218.001c-54.667 -59.333 -115.834 -105.333 -183.501 -138s-136.167 -49 -205.5 -49
c-52 0 -100.167 8.83301 -144.5 26.5s-83.5 43.834 -117.5 78.501l-91 -105h-67zM180.002 264c0 -10.667 2.33301 -30.001 7 -58.001c0.666992 -3.33301 1 -5.66602 1 -6.99902l611 698c-16 35.333 -41.167 63.333 -75.5 84s-73.5 31 -117.5 31
c-49.333 0 -95.5 -17 -138.5 -51s-82.833 -84.667 -119.5 -152c-20 -36.667 -40.833 -83.5 -62.5 -140.5s-43.167 -120.833 -64.5 -191.5c-13.333 -47.333 -23.5 -89.333 -30.5 -126s-10.5 -65.667 -10.5 -87zM209.002 140.999
c20.667 -38.667 46.832 -67.668 78.499 -87.001s68.834 -29 111.501 -29c53.333 0 102.5 18.333 147.5 55s85.5 91.334 121.5 164.001c42.667 87.333 78.5 185.666 107.5 294.999s43.5 195.333 43.5 258c0 2.66699 -0.5 9.33398 -1.5 20.001s-1.83301 19 -2.5 25z" />
    <glyph glyph-name="ugrave" unicode="&#xf9;" horiz-adv-x="1260" 
d="M-37 641c38.667 124 89.999 222.665 153.999 295.998s130 110 198 110c56 0 101.5 -21.5 136.5 -64.5s52.5 -99.5 52.5 -169.5c0 -45.333 -10.5 -99.666 -31.5 -162.999s-51.5 -133.333 -91.5 -210c-10.667 -20.667 -26.667 -49.667 -48 -87
c-59.333 -107.333 -89 -183.333 -89 -228c0 -24 8.66699 -44.667 26 -62s38 -26 62 -26c77.333 0 166.833 68.833 268.5 206.5s183.5 306.5 245.5 506.5l88 284h184l-252 -803c-0.666992 -2.66699 -1.66699 -6.33398 -3 -11.001c-14 -46.667 -21 -81 -21 -103
c0 -16 4.16699 -28.167 12.5 -36.5s20.5 -12.5 36.5 -12.5c34.667 0 75 25.5 121 76.5s89.667 120.167 131 207.5h45c-47.333 -109.333 -102.166 -196.333 -164.499 -261s-120.833 -97 -175.5 -97c-47.333 0 -83.5 17.5 -108.5 52.5s-37.5 85.833 -37.5 152.5
c0 25.333 2.16699 51.833 6.5 79.5s10.5 57.834 18.5 90.501c-76 -130.667 -147.5 -227.5 -214.5 -290.5s-131.5 -94.5 -193.5 -94.5c-56 0 -101.667 21.5 -137 64.5s-53 98.5 -53 166.5c0 50 8.33301 104 25 162s46 131 88 219l51 104c56 112.667 84 187.334 84 224.001
c0 20.667 -7.66699 38 -23 52s-34.333 21 -57 21c-49.333 0 -101.5 -33 -156.5 -99s-99.833 -151.667 -134.5 -257h-43zM515.999 1456c0 18.667 6.83301 35 20.5 49s29.5 21 47.5 21c14 0 28.5 -5 43.5 -15s29.167 -24.333 42.5 -43l215 -301h-68l-243 203
c-23.333 18.667 -38.833 34.167 -46.5 46.5s-11.5 25.5 -11.5 39.5z" />
    <glyph glyph-name="uacute" unicode="&#xfa;" horiz-adv-x="1260" 
d="M-37 641c38.667 124 89.999 222.665 153.999 295.998s130 110 198 110c56 0 101.5 -21.5 136.5 -64.5s52.5 -99.5 52.5 -169.5c0 -45.333 -10.5 -99.666 -31.5 -162.999s-51.5 -133.333 -91.5 -210c-10.667 -20.667 -26.667 -49.667 -48 -87
c-59.333 -107.333 -89 -183.333 -89 -228c0 -24 8.66699 -44.667 26 -62s38 -26 62 -26c77.333 0 166.833 68.833 268.5 206.5s183.5 306.5 245.5 506.5l88 284h184l-252 -803c-0.666992 -2.66699 -1.66699 -6.33398 -3 -11.001c-14 -46.667 -21 -81 -21 -103
c0 -16 4.16699 -28.167 12.5 -36.5s20.5 -12.5 36.5 -12.5c34.667 0 75 25.5 121 76.5s89.667 120.167 131 207.5h45c-47.333 -109.333 -102.166 -196.333 -164.499 -261s-120.833 -97 -175.5 -97c-47.333 0 -83.5 17.5 -108.5 52.5s-37.5 85.833 -37.5 152.5
c0 25.333 2.16699 51.833 6.5 79.5s10.5 57.834 18.5 90.501c-76 -130.667 -147.5 -227.5 -214.5 -290.5s-131.5 -94.5 -193.5 -94.5c-56 0 -101.667 21.5 -137 64.5s-53 98.5 -53 166.5c0 50 8.33301 104 25 162s46 131 88 219l51 104c56 112.667 84 187.334 84 224.001
c0 20.667 -7.66699 38 -23 52s-34.333 21 -57 21c-49.333 0 -101.5 -33 -156.5 -99s-99.833 -151.667 -134.5 -257h-43zM569.999 1167l299 313.999c12.667 12.667 26.5 23 41.5 31s28.167 12 39.5 12c18 0 33.833 -7.16699 47.5 -21.5s20.5 -30.5 20.5 -48.5
c0 -14 -5.16699 -27.167 -15.5 -39.5s-28.5 -27.166 -54.5 -44.499l-307 -203h-71z" />
    <glyph glyph-name="ucircumflex" unicode="&#xfb;" horiz-adv-x="1260" 
d="M-37 641c38.667 124 89.999 222.665 153.999 295.998s130 110 198 110c56 0 101.5 -21.5 136.5 -64.5s52.5 -99.5 52.5 -169.5c0 -45.333 -10.5 -99.666 -31.5 -162.999s-51.5 -133.333 -91.5 -210c-10.667 -20.667 -26.667 -49.667 -48 -87
c-59.333 -107.333 -89 -183.333 -89 -228c0 -24 8.66699 -44.667 26 -62s38 -26 62 -26c77.333 0 166.833 68.833 268.5 206.5s183.5 306.5 245.5 506.5l88 284h184l-252 -803c-0.666992 -2.66699 -1.66699 -6.33398 -3 -11.001c-14 -46.667 -21 -81 -21 -103
c0 -16 4.16699 -28.167 12.5 -36.5s20.5 -12.5 36.5 -12.5c34.667 0 75 25.5 121 76.5s89.667 120.167 131 207.5h45c-47.333 -109.333 -102.166 -196.333 -164.499 -261s-120.833 -97 -175.5 -97c-47.333 0 -83.5 17.5 -108.5 52.5s-37.5 85.833 -37.5 152.5
c0 25.333 2.16699 51.833 6.5 79.5s10.5 57.834 18.5 90.501c-76 -130.667 -147.5 -227.5 -214.5 -290.5s-131.5 -94.5 -193.5 -94.5c-56 0 -101.667 21.5 -137 64.5s-53 98.5 -53 166.5c0 50 8.33301 104 25 162s46 131 88 219l51 104c56 112.667 84 187.334 84 224.001
c0 20.667 -7.66699 38 -23 52s-34.333 21 -57 21c-49.333 0 -101.5 -33 -156.5 -99s-99.833 -151.667 -134.5 -257h-43zM425.999 1167l307 349h107l162 -349h-56l-178 207l-274 -207h-68z" />
    <glyph glyph-name="udieresis" unicode="&#xfc;" horiz-adv-x="1260" 
d="M-37 641c38.667 124 89.999 222.665 153.999 295.998s130 110 198 110c56 0 101.5 -21.5 136.5 -64.5s52.5 -99.5 52.5 -169.5c0 -45.333 -10.5 -99.666 -31.5 -162.999s-51.5 -133.333 -91.5 -210c-10.667 -20.667 -26.667 -49.667 -48 -87
c-59.333 -107.333 -89 -183.333 -89 -228c0 -24 8.66699 -44.667 26 -62s38 -26 62 -26c77.333 0 166.833 68.833 268.5 206.5s183.5 306.5 245.5 506.5l88 284h184l-252 -803c-0.666992 -2.66699 -1.66699 -6.33398 -3 -11.001c-14 -46.667 -21 -81 -21 -103
c0 -16 4.16699 -28.167 12.5 -36.5s20.5 -12.5 36.5 -12.5c34.667 0 75 25.5 121 76.5s89.667 120.167 131 207.5h45c-47.333 -109.333 -102.166 -196.333 -164.499 -261s-120.833 -97 -175.5 -97c-47.333 0 -83.5 17.5 -108.5 52.5s-37.5 85.833 -37.5 152.5
c0 25.333 2.16699 51.833 6.5 79.5s10.5 57.834 18.5 90.501c-76 -130.667 -147.5 -227.5 -214.5 -290.5s-131.5 -94.5 -193.5 -94.5c-56 0 -101.667 21.5 -137 64.5s-53 98.5 -53 166.5c0 50 8.33301 104 25 162s46 131 88 219l51 104c56 112.667 84 187.334 84 224.001
c0 20.667 -7.66699 38 -23 52s-34.333 21 -57 21c-49.333 0 -101.5 -33 -156.5 -99s-99.833 -151.667 -134.5 -257h-43zM480.999 1317c0 25.333 10.001 48 30.001 68s43 30 69 30s48.833 -9.83301 68.5 -29.5s29.5 -42.5 29.5 -68.5c0 -29.333 -9.33301 -53.333 -28 -72
s-42 -28 -70 -28c-26.667 0 -49.834 9.83301 -69.501 29.5s-29.5 43.167 -29.5 70.5zM830 1317c0 25.333 10 48 30 68s42.667 30 68 30c26.667 0 50 -9.83301 70 -29.5s30 -42.5 30 -68.5c0 -28.667 -9.5 -52.5 -28.5 -71.5s-42.833 -28.5 -71.5 -28.5
c-26.667 0 -49.667 9.83301 -69 29.5s-29 43.167 -29 70.5z" />
    <glyph glyph-name="yacute" unicode="&#xfd;" horiz-adv-x="1251" 
d="M-6 -186c0 38 12.5 69.667 37.5 95s56.833 38 95.5 38c32.667 0 58.5 -9.66699 77.5 -29s28.5 -45.333 28.5 -78c0 -26 -9.5 -52 -28.5 -78s-28.5 -41 -28.5 -45c0 -15.333 9.33301 -27.666 28 -36.999s44.334 -14 77.001 -14c91.333 0 173.333 38.167 246 114.5
s134.667 189.833 186 340.5l80 233c-76 -125.333 -149.5 -219 -220.5 -281s-139.5 -93 -205.5 -93c-60 0 -107.5 21.167 -142.5 63.5s-52.5 100.166 -52.5 173.499c0 90.667 42.667 218 128 382l30 58c40 78.667 67.667 137.5 83 176.5s23 68.5 23 88.5
c0 23.333 -7.33301 41.666 -22 54.999s-35.334 20 -62.001 20c-48.667 0 -100.667 -33 -156 -99s-106.333 -157 -153 -273h-45c58 142 118.833 248.5 182.5 319.5s129.834 106.5 198.501 106.5c55.333 0 99.5 -20.5 132.5 -61.5s49.5 -95.833 49.5 -164.5
c0 -93.333 -55 -241.666 -165 -444.999l-5 -9c-4 -8 -9.66699 -18.667 -17 -32c-59.333 -110.667 -89 -182.667 -89 -216c0 -28 9.16699 -50.667 27.5 -68s41.833 -26 70.5 -26c35.333 0 73.166 13 113.499 39s81.833 64 124.5 114c58 70 110.167 145.667 156.5 227
s80.833 158 103.5 230l123 395h184l-232 -737c-40 -129.333 -81.333 -231 -124 -305s-94.667 -139 -156 -195c-62.667 -56 -130.167 -99.333 -202.5 -130s-142.166 -46 -209.499 -46c-82.667 0 -148.334 17.5 -197.001 52.5s-73 81.833 -73 140.5zM566 1167l299 313.999
c12.667 12.667 26.5 23 41.5 31s28.167 12 39.5 12c18 0 33.833 -7.16699 47.5 -21.5s20.5 -30.5 20.5 -48.5c0 -14 -5.16699 -27.167 -15.5 -39.5s-28.5 -27.166 -54.5 -44.499l-307 -203h-71z" />
    <glyph glyph-name="thorn" unicode="&#xfe;" horiz-adv-x="1135" 
d="M-369 -356l16.999 53.002h98c56 0 93.667 7.83301 113 23.5s39 55.5 59 119.5l442 1405c6 19.333 10.667 36.166 14 50.499s5 24.833 5 31.5c0 25.333 -5.5 42 -16.5 50s-38.833 12 -83.5 12h-66l18 56c13.333 0 28.166 -0.166992 44.499 -0.5s39.833 -0.5 70.5 -0.5
c49.333 0 96 1.16699 140 3.5s86 5.83301 126 10.5l-215 -674c62 89.333 122.833 155.5 182.5 198.5s120.5 64.5 182.5 64.5c78.667 0 142.667 -34.167 192 -102.5s74 -157.833 74 -268.5c0 -89.333 -18.333 -176.333 -55 -261s-90 -163 -160 -235
c-62 -64 -127.667 -113.333 -197 -148s-136 -52 -200 -52c-55.333 0 -101.166 17.5 -137.499 52.5s-58.166 82.833 -65.499 143.5l-115 -363c-0.666992 -2.66699 -1.66699 -6.33398 -3 -11.001c-7.33301 -25.333 -11 -46 -11 -62c0 -14.667 6.33301 -25.5 19 -32.5
s33 -10.5 61 -10.5h112l-12 -53h-633zM251.999 221.002c0 -58.667 14.833 -106.333 44.5 -143s67.5 -55 113.5 -55c36.667 0 73.167 12.833 109.5 38.5s73.5 65.167 111.5 118.5c26 37.333 52 82.5 78 135.5s52.333 115.833 79 188.5c30 80 51.833 147.667 65.5 203
s20.5 101.666 20.5 138.999c0 47.333 -11.833 84.333 -35.5 111s-56.167 40 -97.5 40c-48.667 0 -101.334 -22.167 -158.001 -66.5s-109 -104.5 -157 -180.5c-49.333 -78.667 -90.666 -169.667 -123.999 -273s-50 -188.666 -50 -255.999z" />
    <glyph glyph-name="ydieresis" unicode="&#xff;" horiz-adv-x="1251" 
d="M-6 -186c0 38 12.5 69.667 37.5 95s56.833 38 95.5 38c32.667 0 58.5 -9.66699 77.5 -29s28.5 -45.333 28.5 -78c0 -26 -9.5 -52 -28.5 -78s-28.5 -41 -28.5 -45c0 -15.333 9.33301 -27.666 28 -36.999s44.334 -14 77.001 -14c91.333 0 173.333 38.167 246 114.5
s134.667 189.833 186 340.5l80 233c-76 -125.333 -149.5 -219 -220.5 -281s-139.5 -93 -205.5 -93c-60 0 -107.5 21.167 -142.5 63.5s-52.5 100.166 -52.5 173.499c0 90.667 42.667 218 128 382l30 58c40 78.667 67.667 137.5 83 176.5s23 68.5 23 88.5
c0 23.333 -7.33301 41.666 -22 54.999s-35.334 20 -62.001 20c-48.667 0 -100.667 -33 -156 -99s-106.333 -157 -153 -273h-45c58 142 118.833 248.5 182.5 319.5s129.834 106.5 198.501 106.5c55.333 0 99.5 -20.5 132.5 -61.5s49.5 -95.833 49.5 -164.5
c0 -93.333 -55 -241.666 -165 -444.999l-5 -9c-4 -8 -9.66699 -18.667 -17 -32c-59.333 -110.667 -89 -182.667 -89 -216c0 -28 9.16699 -50.667 27.5 -68s41.833 -26 70.5 -26c35.333 0 73.166 13 113.499 39s81.833 64 124.5 114c58 70 110.167 145.667 156.5 227
s80.833 158 103.5 230l123 395h184l-232 -737c-40 -129.333 -81.333 -231 -124 -305s-94.667 -139 -156 -195c-62.667 -56 -130.167 -99.333 -202.5 -130s-142.166 -46 -209.499 -46c-82.667 0 -148.334 17.5 -197.001 52.5s-73 81.833 -73 140.5zM477 1317
c0 25.333 10.001 48 30.001 68s43 30 69 30s48.833 -9.83301 68.5 -29.5s29.5 -42.5 29.5 -68.5c0 -29.333 -9.33301 -53.333 -28 -72s-42 -28 -70 -28c-26.667 0 -49.834 9.83301 -69.501 29.5s-29.5 43.167 -29.5 70.5zM826.001 1317c0 25.333 10 48 30 68
s42.667 30 68 30c26.667 0 50 -9.83301 70 -29.5s30 -42.5 30 -68.5c0 -28.667 -9.5 -52.5 -28.5 -71.5s-42.833 -28.5 -71.5 -28.5c-26.667 0 -49.667 9.83301 -69 29.5s-29 43.167 -29 70.5z" />
    <glyph glyph-name="OE" unicode="&#x152;" horiz-adv-x="2077" 
d="M49 522c0 124 25.6689 246.332 77.002 366.999s123.333 228.334 216 323.001c80 82.667 163.667 144 251 184s180.333 60 279 60c33.333 0 90.833 -3.33301 172.5 -10s147.167 -10 196.5 -10h883l-172 -564h-56c12.667 50 21.667 92 27 126s8 64.667 8 92
c0 103.333 -25.833 177.5 -77.5 222.5s-138.5 67.5 -260.5 67.5h-43c-56.667 0 -93.834 -6.66699 -111.501 -20s-35.834 -49.666 -54.501 -108.999l-149 -479h98c94 0 165 21.333 213 64s87 119.667 117 231h55l-219 -698h-57c14 42 24.333 78.833 31 110.5s10 59.5 10 83.5
c0 55.333 -15.667 94.5 -47 117.5s-88 34.5 -170 34.5h-49l-170 -537c-4 -12.667 -7.16699 -24.667 -9.5 -36s-3.5 -21 -3.5 -29c0 -19.333 7.33301 -32.833 22 -40.5s43 -11.5 85 -11.5h94c166.667 0 296.167 35.333 388.5 106s165.5 189.667 219.5 357h62l-166 -524h-826
c-26 0 -77.5 -3 -154.5 -9s-140.833 -9 -191.5 -9c-162.667 0 -289.667 47.667 -381 143s-137 227.666 -137 396.999zM231.002 366.999c0 -106.667 28.8301 -188.669 86.4971 -246.002s139.5 -86 245.5 -86c90.667 0 161.167 21.167 211.5 63.5s93.833 120.833 130.5 235.5
l230 725c8 26 14 50.333 18 73s6 42.667 6 60c0 67.333 -24.5 120 -73.5 158s-116.5 57 -202.5 57c-74 0 -144.167 -20.833 -210.5 -62.5s-125.166 -102.167 -176.499 -181.5c-23.333 -35.333 -47.666 -80.166 -72.999 -134.499s-51.666 -117.166 -78.999 -188.499
c-38 -100.667 -66.333 -190.167 -85 -268.5s-28 -146.5 -28 -204.5z" />
    <glyph glyph-name="oe" unicode="&#x153;" horiz-adv-x="1677" 
d="M14 420c0 82.667 16 163.834 48 243.501s77.667 151.5 137 215.5c53.333 58 112.5 102.167 177.5 132.5s133.5 45.5 205.5 45.5c82 0 153 -18 213 -54s111.667 -91.667 155 -167c66 72.667 134.167 127.667 204.5 165s141.5 56 213.5 56c66.667 0 121.167 -19 163.5 -57
s63.5 -86.667 63.5 -146c0 -102 -57.167 -190.667 -171.5 -266s-274.166 -128.666 -479.499 -159.999l-5 -20c-29.333 -107.333 -44 -182 -44 -224c0 -46 13.667 -83 41 -111s63.333 -42 108 -42c69.333 0 141.333 28.833 216 86.5s140 135.834 196 234.501h47
c-62.667 -118.667 -136 -210.834 -220 -276.501s-170.333 -98.5 -259 -98.5c-56.667 0 -105.334 12.667 -146.001 38s-76 64.666 -106 117.999c-52 -50.667 -107.833 -89.334 -167.5 -116.001s-121.167 -40 -184.5 -40c-117.333 0 -214.333 41.667 -291 125
s-115 189.333 -115 318zM184 260c0 -69.333 20 -125.832 60 -169.499s91.667 -65.5 155 -65.5c48 0 93 15 135 45s79 73.667 111 131c16.667 28.667 33.167 63.167 49.5 103.5s32.5 86.166 48.5 137.499c25.333 79.333 44 148.333 56 207s18 110.667 18 156
c0 61.333 -19.5 111.166 -58.5 149.499s-89.833 57.5 -152.5 57.5c-43.333 0 -84.5 -13.5 -123.5 -40.5s-75.5 -67.5 -109.5 -121.5c-20 -31.333 -40.667 -72.166 -62 -122.499s-43.666 -110.5 -66.999 -180.5c-20.667 -60.667 -35.834 -114 -45.501 -160
s-14.5 -88.333 -14.5 -127zM963 479.001c144.667 16 263.001 62.333 355.001 139s138 163.667 138 261c0 41.333 -10.833 73.833 -32.5 97.5s-51.834 35.5 -90.501 35.5c-62.667 0 -125.5 -45.333 -188.5 -136s-123.5 -223 -181.5 -397z" />
    <glyph glyph-name="Ydieresis" unicode="&#x178;" horiz-adv-x="1253" 
d="M106 0l18.999 60.9971h100c47.333 0 81.5 8.5 102.5 25.5s41.5 56.5 61.5 118.5l131 424l-182 647c-12 43.333 -26.667 71.166 -44 83.499s-50.333 18.5 -99 18.5h-76l18 58h623l-19 -58h-110c-38 0 -65.333 -4.66699 -82 -14s-25 -24.333 -25 -45
c0 -4.66699 1.5 -11.667 4.5 -21s5.16699 -16.333 6.5 -21l151 -587l361 447c22.667 28.667 39.834 54.834 51.501 78.501s17.5 44.5 17.5 62.5c0 34 -13.833 59.167 -41.5 75.5s-70.5 24.5 -128.5 24.5h-22l16 58h524l-19 -58c-45.333 -0.666992 -87 -12.667 -125 -36
s-89.667 -74.666 -155 -153.999l-456 -557l-131 -426c-6.66699 -21.333 -11.5 -39.166 -14.5 -53.499s-4.5 -26.5 -4.5 -36.5c0 -19.333 7 -33.166 21 -41.499s37.667 -12.5 71 -12.5h119l-18 -61h-646zM644.999 1729c0 25.333 10.001 48 30.001 68s43 30 69 30
s48.833 -9.83301 68.5 -29.5s29.5 -42.5 29.5 -68.5c0 -29.333 -9.33301 -53.333 -28 -72s-42 -28 -70 -28c-26.667 0 -49.834 9.83301 -69.501 29.5s-29.5 43.167 -29.5 70.5zM994 1729c0 25.333 10 48 30 68s42.667 30 68 30c26.667 0 50 -9.83301 70 -29.5
s30 -42.5 30 -68.5c0 -28.667 -9.5 -52.5 -28.5 -71.5s-42.833 -28.5 -71.5 -28.5c-26.667 0 -49.667 9.83301 -69 29.5s-29 43.167 -29 70.5z" />
    <glyph glyph-name="circumflex" unicode="&#x2c6;" horiz-adv-x="1024" 
d="M307 1167l307 349h107l162 -349h-56l-178 207l-274 -207h-68z" />
    <glyph glyph-name="tilde" unicode="&#x2dc;" horiz-adv-x="1024" 
d="M346 1225c10.667 62 30.1699 108.169 58.5029 138.502s66.166 45.5 113.499 45.5c14 0 27.333 -0.833008 40 -2.5s24.334 -4.16699 35.001 -7.5l132 -37c8.66699 -2 17.667 -3.5 27 -4.5s18.666 -1.5 27.999 -1.5c28.667 0 51.167 6.5 67.5 19.5
s28.166 33.833 35.499 62.5h49c-12.667 -66.667 -33.834 -115.834 -63.501 -147.501s-69.167 -47.5 -118.5 -47.5c-12 0 -23 0.666992 -33 2s-19.667 3.33301 -29 6l-131 37c-14 4 -26.667 7 -38 9s-21.333 3 -30 3c-25.333 0 -46 -6.33301 -62 -19
s-26.667 -31.334 -32 -56.001h-49z" />
    <glyph glyph-name="uni2000" unicode="&#x2000;" horiz-adv-x="992" 
 />
    <glyph glyph-name="uni2001" unicode="&#x2001;" horiz-adv-x="1985" 
 />
    <glyph glyph-name="uni2002" unicode="&#x2002;" horiz-adv-x="992" 
 />
    <glyph glyph-name="uni2003" unicode="&#x2003;" horiz-adv-x="1985" 
 />
    <glyph glyph-name="uni2004" unicode="&#x2004;" horiz-adv-x="661" 
 />
    <glyph glyph-name="uni2005" unicode="&#x2005;" horiz-adv-x="496" 
 />
    <glyph glyph-name="uni2006" unicode="&#x2006;" horiz-adv-x="330" 
 />
    <glyph glyph-name="uni2007" unicode="&#x2007;" horiz-adv-x="330" 
 />
    <glyph glyph-name="uni2008" unicode="&#x2008;" horiz-adv-x="248" 
 />
    <glyph glyph-name="uni2009" unicode="&#x2009;" horiz-adv-x="397" 
 />
    <glyph glyph-name="uni200A" unicode="&#x200a;" horiz-adv-x="110" 
 />
    <glyph glyph-name="uni2010" unicode="&#x2010;" horiz-adv-x="717" 
d="M29 424l57 180h506l-57 -180h-506z" />
    <glyph glyph-name="uni2011" unicode="&#x2011;" horiz-adv-x="717" 
d="M29 424l57 180h506l-57 -180h-506z" />
    <glyph glyph-name="figuredash" unicode="&#x2012;" horiz-adv-x="717" 
d="M29 424l57 180h506l-57 -180h-506z" />
    <glyph glyph-name="endash" unicode="&#x2013;" horiz-adv-x="1024" 
d="M86 449l43 133h715l-39 -133h-719z" />
    <glyph glyph-name="emdash" unicode="&#x2014;" horiz-adv-x="2048" 
d="M-68 449l45 133h2042l-39 -133h-2048z" />
    <glyph glyph-name="quoteleft" unicode="&#x2018;" horiz-adv-x="530" 
d="M197 1085c0 66 27.832 133.001 83.499 201.001s132.834 128.667 231.501 182l29 -38c-68 -42.667 -117.167 -79.834 -147.5 -111.501s-45.5 -60.834 -45.5 -87.501c0 -22 17.167 -52.167 51.5 -90.5s51.5 -75.166 51.5 -110.499c0 -32 -11.833 -59.5 -35.5 -82.5
s-52.167 -34.5 -85.5 -34.5c-38.667 0 -70.5 16.167 -95.5 48.5s-37.5 73.5 -37.5 123.5z" />
    <glyph glyph-name="quoteright" unicode="&#x2019;" horiz-adv-x="530" 
d="M203 954c67.333 42.667 115.831 79.5 145.498 110.5s44.5 59.833 44.5 86.5c0 21.333 -17 51.666 -51 90.999s-51 76.666 -51 111.999c0 32 11.667 59.333 35 82s52 34 86 34c36.667 0 68.334 -16 95.001 -48s40 -71 40 -117c0 -69.333 -27.667 -138.166 -83 -206.499
s-133.666 -130.166 -234.999 -185.499z" />
    <glyph glyph-name="quotesinglbase" unicode="&#x201a;" horiz-adv-x="530" 
d="M-47 -287c66.667 42 115.001 78.835 145.001 110.502s45 61.167 45 88.5c0 21.333 -17 51.666 -51 90.999s-51 76.666 -51 111.999c0 32 11.667 59 35 81s52 33 86 33c37.333 0 68.833 -15.667 94.5 -47s38.5 -70 38.5 -116c0 -70 -27.333 -138.833 -82 -206.5
s-132.334 -129.5 -233.001 -185.5z" />
    <glyph glyph-name="quotedblleft" unicode="&#x201c;" horiz-adv-x="924" 
d="M197 1085c0 66 27.832 133.001 83.499 201.001s132.834 128.667 231.501 182l29 -38c-68 -42.667 -117.167 -79.834 -147.5 -111.501s-45.5 -60.834 -45.5 -87.501c0 -22 17.167 -52.167 51.5 -90.5s51.5 -75.166 51.5 -110.499c0 -32 -11.833 -59.5 -35.5 -82.5
s-52.167 -34.5 -85.5 -34.5c-38.667 0 -70.5 16.167 -95.5 48.5s-37.5 73.5 -37.5 123.5zM589.999 1083c0 65.333 28 132 84 200s133.667 129 233 183l27 -39c-68 -42 -117.167 -78.833 -147.5 -110.5s-45.5 -60.834 -45.5 -87.501c0 -22 17.167 -52.167 51.5 -90.5
s51.5 -75.166 51.5 -110.499c0 -32 -11.833 -59.5 -35.5 -82.5s-52.167 -34.5 -85.5 -34.5c-38.667 0 -70.5 16.167 -95.5 48.5s-37.5 73.5 -37.5 123.5z" />
    <glyph glyph-name="quotedblright" unicode="&#x201d;" horiz-adv-x="924" 
d="M203 954c67.333 42.667 115.831 79.5 145.498 110.5s44.5 59.833 44.5 86.5c0 21.333 -17 51.666 -51 90.999s-51 76.666 -51 111.999c0 32 11.667 59.333 35 82s52 34 86 34c36.667 0 68.334 -16 95.001 -48s40 -71 40 -117c0 -69.333 -27.667 -138.166 -83 -206.499
s-133.666 -130.166 -234.999 -185.499zM595.998 952c68 42.667 116.668 79.333 146.001 110s44 59.667 44 87c0 21.333 -17 51.666 -51 90.999s-51 76.666 -51 111.999c0 32 11.833 59.333 35.5 82s52.167 34 85.5 34c37.333 0 69.166 -16 95.499 -48s39.5 -71 39.5 -117
c0 -69.333 -27.667 -138.166 -83 -206.499s-133.333 -130.166 -234 -185.499z" />
    <glyph glyph-name="quotedblbase" unicode="&#x201e;" horiz-adv-x="924" 
d="M-47 -287c66.667 42 115.001 78.835 145.001 110.502s45 61.167 45 88.5c0 21.333 -17 51.666 -51 90.999s-51 76.666 -51 111.999c0 32 11.667 59 35 81s52 33 86 33c37.333 0 68.833 -15.667 94.5 -47s38.5 -70 38.5 -116c0 -70 -27.333 -138.833 -82 -206.5
s-132.334 -129.5 -233.001 -185.5zM346.001 -286.998c66.667 42 115.166 78.835 145.499 110.502s45.5 61.167 45.5 88.5c0 21.333 -17.167 51.666 -51.5 90.999s-51.5 76.666 -51.5 111.999c0 32 11.833 59 35.5 81s52.167 33 85.5 33c37.333 0 68.833 -15.667 94.5 -47
s38.5 -70 38.5 -116c0 -70 -27.167 -138.833 -81.5 -206.5s-132.166 -129.5 -233.499 -185.5z" />
    <glyph glyph-name="bullet" unicode="&#x2022;" horiz-adv-x="1208" 
d="M307 762c0 82 28.999 151.666 86.999 208.999s128 86 210 86c81.333 0 150.833 -28.833 208.5 -86.5s86.5 -127.167 86.5 -208.5s-29.167 -151.166 -87.5 -209.499s-128.166 -87.5 -209.499 -87.5c-82 0 -151.667 29 -209 87s-86 128 -86 210z" />
    <glyph glyph-name="ellipsis" unicode="&#x2026;" horiz-adv-x="2048" 
d="M129 98c0 34 11.667 63 35 87s52 36 86 36c32.667 0 61 -12 85 -36s36 -53 36 -87c0 -32.667 -12 -61 -36 -85s-52.333 -36 -85 -36c-33.333 0 -61.833 12 -85.5 36s-35.5 52.333 -35.5 85zM811 98c0 34 11.667 63 35 87s52 36 86 36c32.667 0 61 -12 85 -36
s36 -53 36 -87c0 -32.667 -12 -61 -36 -85s-52.333 -36 -85 -36c-33.333 0 -61.833 12 -85.5 36s-35.5 52.333 -35.5 85zM1495 98c0 34 11.667 63 35 87s52 36 86 36c32.667 0 61 -12 85 -36s36 -53 36 -87c0 -32.667 -12 -61 -36 -85s-52.333 -36 -85 -36
c-33.333 0 -61.833 12 -85.5 36s-35.5 52.333 -35.5 85z" />
    <glyph glyph-name="uni202F" unicode="&#x202f;" horiz-adv-x="397" 
 />
    <glyph glyph-name="guilsinglleft" unicode="&#x2039;" horiz-adv-x="569" 
d="M53 549l293 299h139l-295 -313l166 -365h-120z" />
    <glyph glyph-name="guilsinglright" unicode="&#x203a;" horiz-adv-x="569" 
d="M-12 170l297 313l-168 365h121l182 -377l-293 -301h-139z" />
    <glyph glyph-name="uni205F" unicode="&#x205f;" horiz-adv-x="496" 
 />
    <glyph glyph-name="Euro" unicode="&#x20ac;" 
d="M-41 569l29 55.999h133c2.66699 16 6 32.333 10 49s8.66699 34.334 14 53.001c8.66699 28.667 15.5 50.167 20.5 64.5s9.83301 26.833 14.5 37.5h-157l28 56h152c17.333 38 37 77 59 117s46.667 81.333 74 124c62.667 95.333 137.167 172.5 223.5 231.5
s170.166 88.5 251.499 88.5c62.667 0 124 -18.833 184 -56.5s91.667 -56.5 95 -56.5c9.33301 0 18.166 4.5 26.499 13.5s15.833 21.833 22.5 38.5c5.33301 10.667 10 21.334 14 32.001h53l-143 -452h-51c0 6.66699 0.333008 17 1 31s1 25 1 33
c0.666992 7.33301 1.16699 15.5 1.5 24.5s0.5 22.5 0.5 40.5c0 99.333 -16.333 172.833 -49 220.5s-82 71.5 -148 71.5c-58.667 0 -112.667 -24.667 -162 -74s-99.666 -129.666 -150.999 -240.999c-16.667 -36.667 -30.5 -68.334 -41.5 -95.001s-22.5 -57 -34.5 -91h533
l-29 -56h-524l-1 -2c-28.667 -88 -49 -155.333 -61 -202h473l-30 -56h-457c-11.333 -50.667 -20 -98 -26 -142s-9 -84 -9 -120c0 -88 17 -154.333 51 -199s84.667 -67 152 -67c74.667 0 147.334 32.667 218.001 98s131.667 157 183 275h62
c-58 -140.667 -129 -247.834 -213 -321.501s-176.333 -110.5 -277 -110.5c-106.667 0 -195.5 44.5 -266.5 133.5s-106.5 201.5 -106.5 337.5c0 4.66699 0.333008 12 1 22s1 17.667 1 23c2 18 3.5 32 4.5 42s2.16699 19.667 3.5 29h-153z" />
    <glyph glyph-name="trademark" unicode="&#x2122;" horiz-adv-x="1683" 
d="M244 1260l12.001 177.997h440l11 -178h-25c-5.33301 52.667 -18.833 91 -40.5 115s-53.834 36 -96.501 36h-21v-426c0 -15.333 4 -27.666 12 -36.999s19 -14.666 33 -15.999l31 -2v-27h-248v27l31 2c14 0.666992 25 5.83398 33 15.501s12 22.167 12 37.5v426h-20
c-42.667 0 -75 -12 -97 -36s-35.667 -62.333 -41 -115h-26zM788.001 902.997v27.0039l34 2c14 1.33301 24.833 6.66602 32.5 15.999s11.5 21.666 11.5 36.999v371c0 15.333 -4.16699 27.666 -12.5 36.999s-19.833 14.666 -34.5 15.999l-31 2v27h183l141 -400l148 400h174
v-25l-30 -2c-14.667 -1.33301 -26 -6.5 -34 -15.5s-12 -21.5 -12 -37.5v-373c0 -16 4 -28.5 12 -37.5s19.333 -14.167 34 -15.5l30 -2v-27h-236v27l31 2c14 1.33301 25 6.66602 33 15.999s12 21.666 12 36.999v395l-178 -479h-15l-174 479v-395
c0 -15.333 4.16699 -27.666 12.5 -36.999s19.833 -14.666 34.5 -15.999l31 -2v-27h-197z" />
    <glyph glyph-name="uniE000" unicode="&#xe000;" horiz-adv-x="1050" 
d="M0 0v1050h1050v-1050h-1050z" />
  </font>
</defs>
</svg>
