<?xml version="1.0" standalone="no"?>
<!DOCTYPE svg PUBLIC "-//W3C//DTD SVG 1.1//EN" "http://www.w3.org/Graphics/SVG/1.1/DTD/svg11.dtd" >
<svg>
<metadata>
Created by FontForge 20090914 at Mon Dec 17 20:57:31 2012
 By www-data
Copyright 1990-2001 Bitstream Inc. All rights reserved.
</metadata>
<defs>
<font id="Century725BT-Roman" horiz-adv-x="1034" >
  <font-face 
    font-family="Century725 BT"
    font-weight="400"
    font-stretch="normal"
    units-per-em="2048"
    panose-1="2 4 5 4 6 7 5 2 3 4"
    ascent="1556"
    descent="-492"
    x-height="1010"
    cap-height="1436"
    bbox="-111 -483 2048 1985"
    underline-thickness="123"
    underline-position="-152"
    unicode-range="U+000D-U+E000"
  />
<missing-glyph horiz-adv-x="748" 
d="M68 0v1365h544v-1365h-544zM136 68h408v1229h-408v-1229z" />
    <glyph glyph-name=".notdef" horiz-adv-x="748" 
d="M68 0v1365h544v-1365h-544zM136 68h408v1229h-408v-1229z" />
    <glyph glyph-name="glyph1" horiz-adv-x="2048" 
 />
    <glyph glyph-name="glyph1" horiz-adv-x="2048" 
 />
    <glyph glyph-name="uni000D" unicode="&#xd;" horiz-adv-x="516" 
 />
    <glyph glyph-name="space" unicode=" " horiz-adv-x="516" 
 />
    <glyph glyph-name="exclam" unicode="!" horiz-adv-x="674" 
d="M215 98c0 34 11.667 63 35 87s52 36 86 36c32.667 0 61 -12 85 -36s36 -53 36 -87c0 -32.667 -12 -61 -36 -85s-52.333 -36 -85 -36c-33.333 0 -61.833 12 -85.5 36s-35.5 52.333 -35.5 85zM215 1315c0 50 10.333 88.3311 31 114.998s50.667 40 90 40
c38.667 0 68.5 -13.333 89.5 -40s31.5 -65 31.5 -115c0 -16 -6 -58.667 -18 -128c-49.333 -281.333 -75 -550.666 -77 -807.999h-53v88c0 169.333 -15.667 349.833 -47 541.5s-47 293.834 -47 306.501z" />
    <glyph glyph-name="quotedbl" unicode="&#x22;" horiz-adv-x="686" 
d="M86 1360c0 32 8.00098 57 24.001 75s38 27 66 27c29.333 0 51.666 -9.16699 66.999 -27.5s23 -44.5 23 -78.5c0 -10.667 -0.166992 -18.5 -0.5 -23.5s-0.833008 -9.83301 -1.5 -14.5l-69 -458h-35l-70 459l-3 26c-0.666992 6 -1 11 -1 15zM420.001 1356
c0 34 7.5 60.168 22.5 78.501s36.833 27.5 65.5 27.5c28 0 50 -9 66 -27s24 -43 24 -75c0 -10.667 -0.166992 -18.834 -0.5 -24.501s-0.833008 -11.167 -1.5 -16.5l-70 -459h-34l-70 459c-0.666992 4.66699 -1.16699 9.5 -1.5 14.5s-0.5 12.5 -0.5 22.5z" />
    <glyph glyph-name="numbersign" unicode="#" horiz-adv-x="1575" 
d="M88 449l51 139h312l98 276h-336l51 140h334l162 454h155l-161 -454h276l162 454h156l-162 -454h301l-49 -140h-301l-97 -276h320l-49 -139h-320l-162 -453h-155l162 453h-279l-162 -453h-153l159 453h-313zM604 588h283l96 276h-281z" />
    <glyph glyph-name="dollar" unicode="$" 
d="M51 1042c0 104.667 38 192.167 114 262.5s176.667 110.5 302 120.5v115h57v-115c118.667 -9.33301 213.167 -40.166 283.5 -92.499s105.5 -116.166 105.5 -191.499c0 -38 -10.167 -68.333 -30.5 -91s-46.833 -34 -79.5 -34c-31.333 0 -57 11.167 -77 33.5
s-30 51.5 -30 87.5c0 22.667 6.83301 47.667 20.5 75s20.5 43.333 20.5 48c0 26.667 -20.333 50.834 -61 72.501s-91 33.5 -151 35.5l-1 -524c160.667 -43.333 278.667 -99.333 354 -168s113 -154 113 -256c0 -113.333 -43.5 -209.5 -130.5 -288.5
s-199.167 -122.833 -336.5 -131.5v-158h-57v158c-119.333 10 -216.833 45 -292.5 105s-113.5 131.333 -113.5 214c0 48 11 85.667 33 113s52 41 90 41c28 0 51.5 -11 70.5 -33s28.5 -49.333 28.5 -82c0 -29.333 -10.333 -58.333 -31 -87s-31 -48.667 -31 -60
c0 -34 23.5 -65.833 70.5 -95.5s105.5 -47.834 175.5 -54.501v586c-141.333 39.333 -246 91.166 -314 155.499s-102 144.166 -102 239.499zM188 1116c0 -64.667 22.167 -117.501 66.5 -158.501s115.166 -74.167 212.499 -99.5v510
c-87.333 -7.33301 -155.666 -33.166 -204.999 -77.499s-74 -102.5 -74 -174.5zM524 55.999c94.667 6 168.5 35 221.5 87s79.5 121 79.5 207c0 74 -23.5 133 -70.5 177s-123.833 78.667 -230.5 104v-575z" />
    <glyph glyph-name="percent" unicode="%" horiz-adv-x="1626" 
d="M47 975c0 145.333 26.5 260.168 79.5 344.501s124.167 126.5 213.5 126.5s160.833 -42.333 214.5 -127s80.5 -199.334 80.5 -344.001s-26.667 -259 -80 -343s-125 -126 -215 -126c-88.667 0 -159.667 42.167 -213 126.5s-80 198.5 -80 342.5zM195 1006
c0 -187.333 10.6709 -309.667 32.0039 -367s59.666 -86 114.999 -86s93.666 28.833 114.999 86.5s32 170.167 32 337.5c0 166.667 -10.833 279 -32.5 337s-59.834 87 -114.501 87s-92.834 -27.667 -114.501 -83s-32.5 -159.333 -32.5 -312zM494.004 0.000976562l557 1427h86
l-555 -1427h-88zM991.004 451.001c0 144.667 26.5 259.334 79.5 344.001s124.167 127 213.5 127c90 0 161.667 -42.333 215 -127s80 -199.334 80 -344.001s-26.667 -259 -80 -343s-125 -126 -215 -126c-88.667 0 -159.667 42 -213 126s-80 198.333 -80 343zM1137 479.001
c0 -184 10.833 -305 32.5 -363s60.5 -87 116.5 -87c55.333 0 93.833 28.833 115.5 86.5s32.5 170.167 32.5 337.5c0 166.667 -11 279 -33 337s-60.333 87 -115 87s-93.167 -28.333 -115.5 -85s-33.5 -161 -33.5 -313z" />
    <glyph glyph-name="ampersand" unicode="&#x26;" horiz-adv-x="1366" 
d="M45 385c0 94.667 33.0059 178.67 99.0059 252.003s170.333 141.666 313 204.999c-20.667 60 -35.834 112.167 -45.501 156.5s-14.5 84.833 -14.5 121.5c0 96.667 28.167 175.167 84.5 235.5s129.166 90.5 218.499 90.5c71.333 0 130.166 -21.667 176.499 -65
s69.5 -97.333 69.5 -162c0 -65.333 -23 -126.166 -69 -182.499s-118.667 -111.833 -218 -166.5c32.667 -80.667 72 -166 118 -256s97.667 -182 155 -276c40 47.333 71.5 97.166 94.5 149.499s34.5 99.5 34.5 141.5c0 36.667 -10.5 63.5 -31.5 80.5s-53.5 25.5 -97.5 25.5h-8
v62h440v-62h-4c-86.667 0 -169.334 -72.333 -248.001 -217c-52.667 -97.333 -100.334 -174.333 -143.001 -231c35.333 -67.333 73.166 -118.333 113.499 -153s81.5 -52 123.5 -52c22 0 43 4.5 63 13.5s40 22.833 60 41.5l35 -35
c-42.667 -46.667 -85.5 -81.167 -128.5 -103.5s-88.167 -33.5 -135.5 -33.5c-46.667 0 -92.834 14.667 -138.501 44s-90.5 72.666 -134.5 129.999c-63.333 -54 -126.666 -94.5 -189.999 -121.5s-127.666 -40.5 -192.999 -40.5c-112.667 0 -207.334 39.667 -284.001 119
s-115 175.666 -115 288.999zM229.006 459.003c0 -104 31.8311 -191.831 95.498 -263.498s141.834 -107.5 234.501 -107.5c42.667 0 83.334 8.33301 122.001 25s76 41.667 112 75c-63.333 97.333 -121 195.666 -173 294.999s-99 199.666 -141 300.999
c-82 -36 -144.167 -81.333 -186.5 -136s-63.5 -117.667 -63.5 -189zM555.004 1221c0 -42.667 6.83105 -89.6699 20.498 -141.003s32.834 -102.666 57.501 -153.999c66.667 32 118.834 72.833 156.501 122.5s56.5 102.834 56.5 159.501
c0 52.667 -14.167 96.334 -42.5 131.001s-63.5 52 -105.5 52c-42.667 0 -77.167 -15.667 -103.5 -47s-39.5 -72.333 -39.5 -123z" />
    <glyph glyph-name="quotesingle" unicode="'" horiz-adv-x="352" 
d="M86 1356c0 33.333 7.83203 59.333 23.499 78s37.834 28 66.501 28c28 0 50 -9 66 -27s24 -43 24 -75c0 -4.66699 -0.166992 -9.66699 -0.5 -15s-1.5 -14.333 -3.5 -27l-67 -458h-35l-70 459c0 1.33301 -0.333008 4 -1 8c-2 13.333 -3 23 -3 29z" />
    <glyph glyph-name="parenleft" unicode="(" horiz-adv-x="752" 
d="M170 520c0 196.667 42 375.668 126 537.001s207.333 299 370 413v-63c-102.667 -104 -177.167 -225.667 -223.5 -365s-69.5 -313.333 -69.5 -522s23.167 -382.834 69.5 -522.501s120.833 -261.167 223.5 -364.5v-63c-162.667 114 -286 251.833 -370 413.5
s-126 340.5 -126 536.5z" />
    <glyph glyph-name="parenright" unicode=")" horiz-adv-x="752" 
d="M84 -367c102.667 104 177.5 226 224.5 366s70.5 313.667 70.5 521s-23.5 380.833 -70.5 520.5s-121.833 261.834 -224.5 366.501v63c162.667 -114 286.334 -251.833 371.001 -413.5s127 -340.5 127 -536.5c0 -195.333 -42.333 -373.833 -127 -535.5
s-208.334 -299.834 -371.001 -414.501v63z" />
    <glyph glyph-name="asterisk" unicode="*" horiz-adv-x="786" 
d="M27 1176c0 28 8.83105 51.334 26.498 70.001s40.167 28 67.5 28c30.667 0 76.334 -27.667 137.001 -83c34.667 -32 63.334 -57 86.001 -75l-8 -24h-37c-25.333 0 -54.5 -1.5 -87.5 -4.5s-52.833 -4.5 -59.5 -4.5c-38 0 -68.333 8.66699 -91 26s-34 39.666 -34 66.999z
M138.998 850.001c0 40.667 38.667 86 116 136c40 26.667 71.667 49 95 67l23 -15c-5.33301 -22 -12 -52.333 -20 -91c-25.333 -124.667 -65.333 -187 -120 -187c-24.667 0 -46.5 9 -65.5 27s-28.5 39 -28.5 63zM298.998 1378c0 28.667 8.5 51.667 25.5 69s39.833 26 68.5 26
s51.5 -8.83301 68.5 -26.5s25.5 -40.5 25.5 -68.5c0 -20.667 -11 -56.5 -33 -107.5s-37.333 -91.5 -46 -121.5h-27c-10 28.667 -26.167 69 -48.5 121s-33.5 88 -33.5 108zM413.998 1038l22.001 15c23.333 -18.667 55.666 -41.667 96.999 -69c76 -49.333 114 -94 114 -134
c0 -24 -9.5 -45 -28.5 -63s-40.833 -27 -65.5 -27c-54 0 -94 63.333 -120 190zM441.999 1116c22.667 18 51.667 43 87 75c60 55.333 105.667 83 137 83c26.667 0 49 -9.33301 67 -28s27 -42 27 -70s-11.333 -50.5 -34 -67.5s-53 -25.5 -91 -25.5
c-7.33301 0 -27.333 1.5 -60 4.5s-62 4.5 -88 4.5h-36z" />
    <glyph glyph-name="plus" unicode="+" horiz-adv-x="1706" 
d="M254 541v139h528v541h142v-541h528v-139h-528v-541h-142v541h-528z" />
    <glyph glyph-name="comma" unicode="," horiz-adv-x="516" 
d="M129 102c0 32.667 11.999 61.335 35.999 86.002s51.667 37 83 37c44 0 80.167 -17.5 108.5 -52.5s42.5 -80.167 42.5 -135.5c0 -48 -15.167 -101.333 -45.5 -160s-79.166 -128.334 -146.499 -209.001l-45 31c42.667 52.667 76.167 102.667 100.5 150
s36.5 84.666 36.5 111.999c0 12 -2.33301 20.167 -7 24.5s-13.334 6.5 -26.001 6.5c-4 0 -9.66699 -0.333008 -17 -1s-12.666 -1 -15.999 -1c-27.333 0 -51.5 11.167 -72.5 33.5s-31.5 48.5 -31.5 78.5z" />
    <glyph glyph-name="hyphen" unicode="-" horiz-adv-x="621" 
d="M41 442v168h541v-168h-541z" />
    <glyph glyph-name="period" unicode="." horiz-adv-x="516" 
d="M137 98c0 34 11.667 63 35 87s52 36 86 36c32.667 0 61 -12 85 -36s36 -53 36 -87c0 -32.667 -12 -61 -36 -85s-52.333 -36 -85 -36c-33.333 0 -61.833 12 -85.5 36s-35.5 52.333 -35.5 85z" />
    <glyph glyph-name="slash" unicode="/" horiz-adv-x="569" 
d="M-111 -190l629 1660h100l-628 -1660h-101z" />
    <glyph glyph-name="zero" unicode="0" 
d="M72 713c0 225.333 40.167 403.833 120.5 535.5s188.166 197.5 323.499 197.5s243.333 -65.833 324 -197.5s121 -310.167 121 -535.5c0 -226 -40.333 -404.333 -121 -535s-188.667 -196 -324 -196s-243.166 65.333 -323.499 196s-120.5 309 -120.5 535zM283 756
c0 -297.333 16.833 -491.167 50.5 -581.5s94.5 -135.5 182.5 -135.5s149.333 45.5 184 136.5s52 270.167 52 537.5c0 268 -17.333 448 -52 540s-96 138 -184 138c-86.667 0 -147.167 -44.167 -181.5 -132.5s-51.5 -255.833 -51.5 -502.5z" />
    <glyph glyph-name="one" unicode="1" 
d="M197 0v57h102c59.333 0 99.833 11.5 121.5 34.5s32.5 77.833 32.5 164.5v655c0 72.667 -8 118.167 -24 136.5s-58.667 27.5 -128 27.5h-104v49c108 12 196 46.833 264 104.5s111.667 134.834 131 231.501h41v-1202c0 -86.667 9.33301 -141.834 28 -165.501
s59.667 -35.5 123 -35.5h105v-57h-692z" />
    <glyph glyph-name="two" unicode="2" 
d="M33 0c9.33301 78 35 155.667 77 233s96.667 147.666 164 210.999c36 34 83.833 76.167 143.5 126.5s98.834 85.5 117.501 105.5c58 62.667 100.333 123.667 127 183s40 122 40 188c0 99.333 -27.333 180 -82 242s-126 93 -214 93c-64 0 -120 -17 -168 -51
s-72 -72 -72 -114c0 -22 6.33301 -39.333 19 -52s36.334 -24.334 71.001 -35.001c44 -12 76.167 -28.5 96.5 -49.5s30.5 -48.167 30.5 -81.5c0 -36 -12.667 -66.5 -38 -91.5s-57 -37.5 -95 -37.5c-52.667 0 -97.334 22.833 -134.001 68.5s-55 102.167 -55 169.5
c0 97.333 38 178 114 242s173.333 96 292 96c129.333 0 237.5 -38 324.5 -114s130.5 -169 130.5 -279c0 -63.333 -12 -120.5 -36 -171.5s-62 -100.5 -114 -148.5c-40 -37.333 -105.167 -85.166 -195.5 -143.499s-152.166 -99.166 -185.499 -122.499
c-58.667 -42.667 -110.334 -90 -155.001 -142s-74.334 -99 -89.001 -141h523c71.333 0 121 11.667 149 35s51.333 70.333 70 141h43l-43 -360h-856z" />
    <glyph glyph-name="three" unicode="3" 
d="M63 315c0 52 13.332 94.4961 39.999 127.496s60.667 49.5 102 49.5c34.667 0 64.167 -13.167 88.5 -39.5s36.5 -58.5 36.5 -96.5c0 -32.667 -14 -68.667 -42 -108s-42 -66.666 -42 -81.999c0 -33.333 20.333 -62.166 61 -86.499s90.667 -36.5 150 -36.5
c93.333 0 162 30 206 90s66 154.333 66 283c0 120.667 -20.333 208.167 -61 262.5s-106.334 81.5 -197.001 81.5c-30.667 0 -65.667 -4.5 -105 -13.5s-63.666 -13.5 -72.999 -13.5c-16.667 0 -29.334 3.5 -38.001 10.5s-13 16.5 -13 28.5c0 14 6.33301 25 19 33s30 12 52 12
c14.667 0 38.834 -1.33301 72.501 -4s60.167 -4 79.5 -4c80.667 0 139 23.333 175 70s54 122.334 54 227.001c0 92 -19.833 162.167 -59.5 210.5s-97.5 72.5 -173.5 72.5c-56 0 -103.5 -10.667 -142.5 -32s-58.5 -45 -58.5 -71c0 -18 17.833 -41.167 53.5 -69.5
s53.5 -63.166 53.5 -104.499c0 -28 -11.833 -53 -35.5 -75s-51.5 -33 -83.5 -33c-39.333 0 -73.5 15.833 -102.5 47.5s-43.5 69.5 -43.5 113.5c0 79.333 37.667 146 113 200s169 81 281 81c115.333 0 211 -32.167 287 -96.5s114 -144.166 114 -239.499
c0 -73.333 -24.5 -138 -73.5 -194s-118.167 -98.667 -207.5 -128c104 -26.667 184.667 -73.167 242 -139.5s86 -145.833 86 -238.5c0 -119.333 -44.667 -220.5 -134 -303.5s-199.666 -124.5 -330.999 -124.5c-114 0 -211.833 33.167 -293.5 99.5
s-122.5 144.166 -122.5 233.499z" />
    <glyph glyph-name="four" unicode="4" 
d="M63 338v63.001l601 1035h96v-1008h201v-90h-201v-119c0 -74.667 8.33301 -120.334 25 -137.001s52.667 -25 108 -25h68v-57h-621v57h98c60.667 0 99.5 9.33301 116.5 28s25.5 66 25.5 142v111h-517zM147 428.001h433v743z" />
    <glyph glyph-name="five" unicode="5" 
d="M84 303c0 48.667 13.8281 89.166 41.4951 121.499s61.5 48.5 101.5 48.5c34.667 0 64.167 -12.5 88.5 -37.5s36.5 -55.5 36.5 -91.5c0 -34 -15.333 -69.667 -46 -107s-46 -62.333 -46 -75c0 -30.667 21.833 -58.834 65.5 -84.501s94.834 -38.5 153.501 -38.5
c90 0 156.833 33.333 200.5 100s65.5 168.334 65.5 305.001c0 146 -22.667 254.167 -68 324.5s-115.333 105.5 -210 105.5c-59.333 0 -112.666 -18 -159.999 -54s-84.666 -86.667 -111.999 -152l-43 14l24 745h31c42.667 -28 90.334 -49 143.001 -63s112 -21 178 -21
c121.333 0 229 19.667 323 59c11.333 4.66699 17.666 7 18.999 7c6 0 10.333 -1.16699 13 -3.5s4 -5.83301 4 -10.5c0 -33.333 -52 -79 -156 -137s-216 -87 -336 -87c-26.667 0.666992 -54.167 2.83398 -82.5 6.50098s-58.166 9.16699 -89.499 16.5l-12 -387
c41.333 43.333 86.5 75.666 135.5 96.999s102.833 32 161.5 32c131.333 0 240.333 -44.667 327 -134s130 -203 130 -341c0 -134 -45.5 -247.333 -136.5 -340s-201.167 -139 -330.5 -139c-113.333 0 -210.666 31.833 -291.999 95.5s-122 138.834 -122 225.501z" />
    <glyph glyph-name="six" unicode="6" 
d="M90 705c0 236.667 43.8291 419.335 131.496 548.002s211.834 193 372.501 193c103.333 0 190.333 -25.167 261 -75.5s106 -110.5 106 -180.5c0 -42 -11.167 -75.333 -33.5 -100s-52.166 -37 -89.499 -37c-35.333 0 -63.666 11.333 -84.999 34s-32 53 -32 91
c0 16 6.16699 38.667 18.5 68s18.5 49 18.5 59c0 22 -17 42.5 -51 61.5s-74.333 28.5 -121 28.5c-105.333 0 -179.166 -40.833 -221.499 -122.5s-63.5 -232.834 -63.5 -453.501v-92c31.333 61.333 72.333 108 123 140s108 48 172 48c108.667 0 198.667 -41.167 270 -123.5
s107 -186.5 107 -312.5c0 -142.667 -40.667 -261.167 -122 -355.5s-181.333 -141.5 -300 -141.5c-145.333 0 -258.5 63.167 -339.5 189.5s-121.5 304.166 -121.5 533.499zM302.996 444.001c0 -133.333 20.667 -234.833 62 -304.5s101.333 -104.5 180 -104.5
c75.333 0 131.333 29.833 168 89.5s55 151.167 55 274.5c0 170 -15.333 288.667 -46 356s-83 101 -157 101c-78.667 0 -142 -37 -190 -111s-72 -174.333 -72 -301z" />
    <glyph glyph-name="seven" unicode="7" 
d="M109 1053l43 374.002h813c-10.667 -108.667 -73.334 -257.667 -188.001 -447l-48 -79c-76 -128 -129.5 -240.833 -160.5 -338.5s-46.5 -197.834 -46.5 -300.501c0 -24 1 -53.5 3 -88.5s3 -57.5 3 -67.5c0 -39.333 -9.5 -69.833 -28.5 -91.5s-45.5 -32.5 -79.5 -32.5
c-42.667 0 -75.834 18.667 -99.501 56s-35.5 89.666 -35.5 156.999c0 81.333 20.833 169.5 62.5 264.5s104.167 196.5 187.5 304.5l70 90c144.667 185.333 226.334 314.333 245.001 387h-451c-85.333 0 -143.666 -13.167 -174.999 -39.5s-51.333 -75.833 -60 -148.5h-55z
" />
    <glyph glyph-name="eight" unicode="8" 
d="M68 381c0 74.667 22.332 142.166 66.999 202.499s111.667 112.833 201 157.5c-76 47.333 -131.833 98.5 -167.5 153.5s-53.5 117.167 -53.5 186.5c0 107.333 38.167 194.666 114.5 261.999s175.833 101 298.5 101s222 -29.833 298 -89.5s114 -137.167 114 -232.5
c0 -68.667 -21.167 -130.667 -63.5 -186s-103.833 -101.666 -184.5 -138.999c98.667 -56 171.167 -116.333 217.5 -181s69.5 -137.667 69.5 -219c0 -121.333 -44.5 -220.833 -133.5 -298.5s-204.167 -116.5 -345.5 -116.5c-121.333 0 -223.666 38.833 -306.999 116.5
s-125 171.834 -125 282.501zM179.999 370.999c0 -98.667 30.332 -178.668 90.999 -240.001s139.667 -92 237 -92c90.667 0 165.834 27.333 225.501 82s89.5 122.334 89.5 203.001c0 72 -26.667 134 -80 186s-171.333 119 -354 201c-69.333 -34 -121.5 -79.667 -156.5 -137
s-52.5 -125 -52.5 -203zM265.998 1159c0 -65.333 26.834 -122.831 80.501 -172.498s149.167 -102.834 286.5 -159.501c67.333 30.667 119.666 72 156.999 124s56 109.667 56 173c0 75.333 -29.667 138.666 -89 189.999s-133.333 77 -222 77c-78 0 -142.333 -22 -193 -66
s-76 -99.333 -76 -166z" />
    <glyph glyph-name="nine" unicode="9" 
d="M76 948c0 142.667 40.667 261.331 122 355.998s181.333 142 300 142c144.667 0 257.5 -63.667 338.5 -191s121.5 -305.333 121.5 -534c0 -237.333 -43.667 -420.166 -131 -548.499s-211.333 -192.5 -372 -192.5c-104 0 -191.5 25.5 -262.5 76.5
s-106.5 112.167 -106.5 183.5c0 38 11.5 69.667 34.5 95s51.167 38 84.5 38c38.667 0 68.834 -11 90.501 -33s32.5 -52.667 32.5 -92c0 -16 -6.16699 -38.5 -18.5 -67.5s-18.5 -48.833 -18.5 -59.5c0 -22.667 16.833 -43 50.5 -61s74.167 -27 121.5 -27
c105.333 0 179.166 40.333 221.499 121s63.5 230 63.5 448v96c-32 -60.667 -73.167 -107.167 -123.5 -139.5s-107.5 -48.5 -171.5 -48.5c-108.667 0 -198.667 41.333 -270 124s-107 187.334 -107 314.001zM281 1004c0 -158 15.667 -270.334 47 -337.001s83 -100 155 -100
c79.333 0 142.833 37 190.5 111s71.5 174.333 71.5 301c0 134.667 -20.333 237 -61 307s-100 105 -178 105s-135 -31.167 -171 -93.5s-54 -160.166 -54 -293.499z" />
    <glyph glyph-name="colon" unicode=":" horiz-adv-x="516" 
d="M137 98c0 34 11.667 63 35 87s52 36 86 36c32.667 0 61 -12 85 -36s36 -53 36 -87c0 -32.667 -12 -61 -36 -85s-52.333 -36 -85 -36c-33.333 0 -61.833 12 -85.5 36s-35.5 52.333 -35.5 85zM137 911c0 34 11.667 62.667 35 86s52 35 86 35
c33.333 0 61.833 -11.833 85.5 -35.5s35.5 -52.167 35.5 -85.5c0 -32.667 -12 -60.834 -36 -84.501s-52.333 -35.5 -85 -35.5c-33.333 0 -61.833 11.833 -85.5 35.5s-35.5 51.834 -35.5 84.501z" />
    <glyph glyph-name="semicolon" unicode=";" horiz-adv-x="516" 
d="M129 102c0 32.667 11.999 61.335 35.999 86.002s51.667 37 83 37c44 0 80.167 -17.5 108.5 -52.5s42.5 -80.167 42.5 -135.5c0 -48 -15.167 -101.333 -45.5 -160s-79.166 -128.334 -146.499 -209.001l-45 31c42.667 52.667 76.167 102.667 100.5 150
s36.5 84.666 36.5 111.999c0 12 -2.33301 20.167 -7 24.5s-13.334 6.5 -26.001 6.5c-4 0 -9.66699 -0.333008 -17 -1s-12.666 -1 -15.999 -1c-27.333 0 -51.5 11.167 -72.5 33.5s-31.5 48.5 -31.5 78.5zM136.999 911.001c0 34 11.667 62.667 35 86s52 35 86 35
c33.333 0 61.833 -11.833 85.5 -35.5s35.5 -52.167 35.5 -85.5c0 -32.667 -12 -60.834 -36 -84.501s-52.333 -35.5 -85 -35.5c-33.333 0 -61.833 11.833 -85.5 35.5s-35.5 51.834 -35.5 84.501z" />
    <glyph glyph-name="less" unicode="&#x3c;" horiz-adv-x="1706" 
d="M264 547v129l1178 483v-153l-969 -396l969 -393v-154z" />
    <glyph glyph-name="equal" unicode="=" horiz-adv-x="1706" 
d="M254 342v139h1198v-139h-1198zM254 739v140h1198v-140h-1198z" />
    <glyph glyph-name="greater" unicode="&#x3e;" horiz-adv-x="1706" 
d="M264 63v154l971 393l-971 396v153l1178 -483v-129z" />
    <glyph glyph-name="question" unicode="?" horiz-adv-x="952" 
d="M68 1176c0 80 34.832 148.996 104.499 206.996s154.167 87 253.5 87c134 0 240.5 -35.667 319.5 -107s118.5 -168 118.5 -290c0 -56 -9.5 -107.167 -28.5 -153.5s-48.167 -88.5 -87.5 -126.5c-37.333 -36 -97 -77.333 -179 -124c-30.667 -16.667 -53 -29.334 -67 -38.001
c-38 -22.667 -66.667 -55.667 -86 -99s-29 -96.333 -29 -159h-61c0 5.33301 -0.333008 13.333 -1 24s-1 18.334 -1 23.001c0 58.667 8.16699 109.167 24.5 151.5s42.166 79.833 77.499 112.5c20 18 46.667 39.333 80 64s54.333 41.667 63 51c32 33.333 54.667 69.333 68 108
s20 90.667 20 156c0 115.333 -21.667 201.833 -65 259.5s-108.333 86.5 -195 86.5c-59.333 0 -110 -14.167 -152 -42.5s-63 -61.166 -63 -98.499c0 -13.333 2.83301 -24.166 8.5 -32.499s18.5 -19.5 38.5 -33.5c38 -24.667 62.167 -45.167 72.5 -61.5
s15.5 -36.166 15.5 -59.499s-10.167 -44.166 -30.5 -62.499s-44.166 -27.5 -71.499 -27.5c-41.333 0 -76.166 17.5 -104.499 52.5s-42.5 79.167 -42.5 132.5zM243.999 97.9961c0 34 11.832 63 35.499 87s52.834 36 87.501 36c32.667 0 60.834 -12 84.501 -36
s35.5 -53 35.5 -87c0 -32.667 -11.833 -61 -35.5 -85s-51.834 -36 -84.501 -36c-34 0 -63 12 -87 36s-36 52.333 -36 85z" />
    <glyph glyph-name="at" unicode="@" horiz-adv-x="2019" 
d="M141 537c0 135.333 28.834 262.168 86.501 380.501s141.5 222.833 251.5 313.5c89.333 74 187.5 129.667 294.5 167s221.167 56 342.5 56c230.667 0 415.667 -62.833 555 -188.5s209 -292.167 209 -499.5c0 -106 -19.5 -205.333 -58.5 -298s-94.5 -171.667 -166.5 -237
c-39.333 -34.667 -81.333 -61.334 -126 -80.001s-89.334 -28 -134.001 -28c-64 0 -113.667 17.667 -149 53s-55.333 87.333 -60 156c-41.333 -70 -87.333 -122 -138 -156s-107 -51 -169 -51c-86 0 -154.667 30.667 -206 92s-77 143.333 -77 246
c0 72.667 16.5 144.667 49.5 216s79.833 136.333 140.5 195c45.333 43.333 94 76.5 146 99.5s103.667 34.5 155 34.5c60 0 108.667 -16.167 146 -48.5s62.666 -79.833 75.999 -142.5l51 174h158l-172 -612l-4 -12c-10 -37.333 -15 -66 -15 -86
c0 -34 7.83301 -60.333 23.5 -79s37.834 -28 66.501 -28c22 0 48.833 6.66699 80.5 20s61.5 30.666 89.5 51.999c79.333 60 139.166 136.167 179.499 228.5s60.5 198.5 60.5 318.5c0 88.667 -17.5 170.334 -52.5 245.001s-87.167 141.667 -156.5 201
c-60 51.333 -131.333 90.833 -214 118.5s-171.667 41.5 -267 41.5c-120 0 -231.833 -20.5 -335.5 -61.5s-195.5 -101.167 -275.5 -180.5c-84 -82.667 -147.333 -178.334 -190 -287.001s-64 -228 -64 -358c0 -121.333 19 -225.666 57 -312.999s97.667 -165.333 179 -234
c72.667 -61.333 157.334 -108.333 254.001 -141s199 -49 307 -49c113.333 0 222.333 17.167 327 51.5s204.667 86.166 300 155.499l33 -41c-98 -73.333 -202.167 -128.666 -312.5 -165.999s-225.5 -56 -345.5 -56c-126 0 -241.167 15.167 -345.5 45.5
s-195.833 75.5 -274.5 135.5c-100.667 75.333 -177.5 167.5 -230.5 276.5s-79.5 229.167 -79.5 360.5zM760.001 369.002c0 -57.333 13.1699 -103.501 39.5029 -138.501s60.166 -52.5 101.499 -52.5c43.333 0 84.166 14.5 122.499 43.5s75.5 73.167 111.5 132.5
c36.667 62 66.167 130 88.5 204s33.5 140 33.5 198c0 61.333 -14 110.833 -42 148.5s-65 56.5 -111 56.5c-36 0 -68.833 -10.167 -98.5 -30.5s-59.834 -53.5 -90.501 -99.5c-47.333 -71.333 -85 -149.166 -113 -233.499s-42 -160.5 -42 -228.5z" />
    <glyph glyph-name="A" unicode="A" horiz-adv-x="1380" 
d="M-47 0v60.998h14c66.667 0 122.5 20.333 167.5 61s84.167 106.334 117.5 197.001l403 1117h115l440 -1229c21.333 -62 44 -101.833 68 -119.5s61 -26.5 111 -26.5h45v-61h-600v61h43c63.333 0 103.333 4.33301 120 13s25 25 25 49c0 5.33301 -1 12.5 -3 21.5
s-5 19.5 -9 31.5l-95 270h-550l-60 -157c-6 -17.333 -10.833 -36.166 -14.5 -56.499s-5.5 -40.5 -5.5 -60.5c0 -36 13.833 -63.5 41.5 -82.5s68.5 -28.5 122.5 -28.5h8v-61h-504zM391 519.998h496l-244 705z" />
    <glyph glyph-name="B" unicode="B" horiz-adv-x="1327" 
d="M37 0v61h80c48.667 0 80.667 8.5 96 25.5s23 56.5 23 118.5v1032c0 61.333 -7.83301 100.5 -23.5 117.5s-47.5 25.5 -95.5 25.5h-80v56h655c160.667 0 285.167 -29.333 373.5 -88s132.5 -140.667 132.5 -246c0 -84.667 -31.5 -157 -94.5 -217s-152.833 -103 -269.5 -129
c126 -17.333 224.667 -59 296 -125s107 -148.667 107 -248c0 -124 -54.5 -218.833 -163.5 -284.5s-266.833 -98.5 -473.5 -98.5h-563zM424 215c0 -67.333 10.166 -109.834 30.499 -127.501s74.833 -26.5 163.5 -26.5c136.667 0 236.834 26.833 300.501 80.5
s95.5 137.5 95.5 251.5c0 112.667 -31 195.834 -93 249.501s-158 80.5 -288 80.5h-209v-508zM423.999 785.999h154.001c143.333 0 246.333 23.333 309 70s94 122.334 94 227.001c0 107.333 -28.833 183.666 -86.5 228.999s-159.834 68 -306.501 68
c-70 0 -114.833 -9 -134.5 -27s-29.5 -62.667 -29.5 -134v-433z" />
    <glyph glyph-name="C" unicode="C" horiz-adv-x="1309" 
d="M72 719c0 210 56.8311 387.668 170.498 533.001s249.834 218 408.501 218c80.667 0 159.167 -22.167 235.5 -66.5s116.166 -66.5 119.499 -66.5c6.66699 0 13.5 2.33301 20.5 7s13.5 11 19.5 19l56 79h45l8 -545h-49c-44.667 171.333 -102.667 299.166 -174 383.499
s-157.333 126.5 -258 126.5c-125.333 0 -219.166 -56.833 -281.499 -170.5s-93.5 -284.834 -93.5 -513.501c0 -225.333 33.333 -394 100 -506s166.334 -168 299.001 -168c119.333 0 217 44.667 293 134s119 211.333 129 366h62c-10 -178 -60.5 -319.167 -151.5 -423.5
s-207.833 -156.5 -350.5 -156.5c-174.667 0 -319.667 70.333 -435 211s-173 320.334 -173 539.001z" />
    <glyph glyph-name="D" unicode="D" horiz-adv-x="1380" 
d="M84 0l-0.000976562 61.001h80c48.667 0 80.667 8.5 96 25.5s23 56.5 23 118.5v1032c0 61.333 -7.83301 100.5 -23.5 117.5s-47.5 25.5 -95.5 25.5h-80v56h512c96 0 174.333 -5.33301 235 -16s116 -28 166 -52c110.667 -52.667 197.834 -136 261.501 -250
s95.5 -244.333 95.5 -391c0 -128.667 -24 -245.834 -72 -351.501s-115.667 -190.5 -203 -254.5c-58 -43.333 -121.5 -74.333 -190.5 -93s-163.167 -28 -282.5 -28h-522zM472.999 244.001c0 -78.667 8.83203 -128.833 26.499 -150.5s60.167 -32.5 127.5 -32.5
c180 0 308.5 49.167 385.5 147.5s115.5 264.5 115.5 498.5c0 242 -37.167 413.667 -111.5 515s-200.166 152 -377.499 152c-73.333 0 -119.333 -8.33301 -138 -25s-28 -54.667 -28 -114v-991z" />
    <glyph glyph-name="E" unicode="E" horiz-adv-x="1325" 
d="M37 0l-0.00292969 60.9971h80c48 0 79.833 8.83301 95.5 26.5s23.5 56.834 23.5 117.501v1032c0 61.333 -7.83301 100.5 -23.5 117.5s-47.5 25.5 -95.5 25.5h-80v56h1159l14 -437h-53c-19.333 142.667 -62.166 241.834 -128.499 297.501s-177.166 83.5 -332.499 83.5
c-134 0 -212.833 -11.167 -236.5 -33.5s-35.5 -78.5 -35.5 -168.5v-387h137c104 0 175.5 20.333 214.5 61s58.5 115.667 58.5 225h57v-639h-57c0 110.667 -19.667 186.834 -59 228.501s-110.666 62.5 -213.999 62.5h-137v-489c0 -76 11.5 -124.833 34.5 -146.5
s91.5 -32.5 205.5 -32.5h26c152.667 0 263.167 31.167 331.5 93.5s111.5 169.833 129.5 322.5h51l-8 -477h-1157z" />
    <glyph glyph-name="F" unicode="F" horiz-adv-x="1280" 
d="M37 0l0.00195312 61h80c48 0 79.833 8.83301 95.5 26.5s23.5 56.834 23.5 117.501v1032c0 61.333 -7.83301 100.5 -23.5 117.5s-47.5 25.5 -95.5 25.5h-80v56h1177l3 -471h-60c-11.333 153.333 -50.833 260.833 -118.5 322.5s-183.167 92.5 -346.5 92.5
c-131.333 0 -208.833 -11.167 -232.5 -33.5s-35.5 -78.5 -35.5 -168.5v-387h125c103.333 0 174.166 20.333 212.499 61s57.5 115.667 57.5 225h58v-639h-58c0 111.333 -19.333 187.666 -58 228.999s-109.334 62 -212.001 62h-125v-524c0 -62 8.5 -101.5 25.5 -118.5
s56.833 -25.5 119.5 -25.5h84v-61h-616z" />
    <glyph glyph-name="G" unicode="G" horiz-adv-x="1386" 
d="M72 715c0 216 58.168 395.5 174.501 538.5s258.166 214.5 425.499 214.5c110.667 0 217.667 -38 321 -114c22 -16.667 35.667 -25 41 -25c6.66699 0 13.667 2.83301 21 8.5s14.666 14.5 21.999 26.5l49 78h45l15 -510h-62c-40.667 158.667 -98.167 278.167 -172.5 358.5
s-164.166 120.5 -269.499 120.5c-124 0 -217.833 -56.5 -281.5 -169.5s-95.5 -279.833 -95.5 -500.5c0 -237.333 30.5 -415 91.5 -533s152.833 -177 275.5 -177c107.333 0 188.333 34.5 243 103.5s82 171.5 82 307.5c0 107.333 -10 172.5 -30 195.5s-64.333 34.5 -133 34.5
h-52v55h598v-55h-51c-57.333 0 -94.833 -10 -112.5 -30s-26.5 -62.667 -26.5 -128v-522h-41l-66 123c-5.33301 11.333 -11 20.333 -17 27s-11 10 -15 10c-7.33301 0 -20.166 -9.5 -38.499 -28.5s-33.5 -33.5 -45.5 -43.5c-44 -36.667 -92.333 -64.667 -145 -84
s-107.667 -29 -165 -29c-168.667 0 -308.334 69.833 -419.001 209.5s-166 319.167 -166 538.5z" />
    <glyph glyph-name="H" unicode="H" horiz-adv-x="1462" 
d="M37 0v60.9961h80c48 0 79.833 8.83301 95.5 26.5s23.5 56.834 23.5 117.501v1032c0 61.333 -7.83301 100.5 -23.5 117.5s-47.5 25.5 -95.5 25.5h-80v56h588v-56h-82c-48 0 -79.833 -8.66699 -95.5 -26s-23.5 -56.333 -23.5 -117v-381h612v381
c0 61.333 -7.66699 100.5 -23 117.5s-47 25.5 -95 25.5h-80v56h587v-56h-79c-48 0 -79.833 -8.66699 -95.5 -26s-23.5 -56.333 -23.5 -117v-1032c0 -61.333 7.66699 -100.666 23 -117.999s47.333 -26 96 -26h79v-61h-587v61h80c47.333 0 78.833 8.83301 94.5 26.5
s23.5 56.834 23.5 117.501v571h-612v-571c0 -61.333 7.83301 -100.666 23.5 -117.999s47.5 -26 95.5 -26h82v-61h-588z" />
    <glyph glyph-name="I" unicode="I" horiz-adv-x="672" 
d="M41 0v61h94c40 0 67.5 8.5 82.5 25.5s22.5 48.167 22.5 93.5v1082c0 45.333 -7.5 76.333 -22.5 93s-42.5 25 -82.5 25h-94v56h588v-56h-94c-40 0 -67.5 -8.33301 -82.5 -25s-22.5 -47.667 -22.5 -93v-1082c0 -45.333 7.5 -76.5 22.5 -93.5s42.5 -25.5 82.5 -25.5h94v-61
h-588z" />
    <glyph glyph-name="J" unicode="J" horiz-adv-x="1010" 
d="M14 301c0 62.667 17.333 114.833 52 156.5s77.667 62.5 129 62.5c40.667 0 74 -13.5 100 -40.5s39 -61.833 39 -104.5c0 -32.667 -9.5 -59.834 -28.5 -81.501s-49.833 -40.167 -92.5 -55.5c-22.667 -8.66699 -37.5 -17 -44.5 -25s-10.5 -19 -10.5 -33
c0 -41.333 19.833 -77.5 59.5 -108.5s87.834 -46.5 144.501 -46.5c87.333 0 150.166 30.833 188.499 92.5s57.5 164.5 57.5 308.5v811c0 61.333 -7.66699 100.5 -23 117.5s-47.333 25.5 -96 25.5h-81v56h587v-56h-80c-47.333 0 -78.833 -8.66699 -94.5 -26
s-23.5 -56.333 -23.5 -117v-815c0 -70 -5 -128.167 -15 -174.5s-25.667 -85.833 -47 -118.5c-32 -49.333 -77 -88.666 -135 -117.999s-120 -44 -186 -44c-117.333 0 -213.333 31.667 -288 95s-112 143 -112 239z" />
    <glyph glyph-name="K" unicode="K" horiz-adv-x="1407" 
d="M37 0v60.998h80c48 0 79.833 8.83301 95.5 26.5s23.5 56.834 23.5 117.501v1032c0 61.333 -7.83301 100.5 -23.5 117.5s-47.5 25.5 -95.5 25.5h-80v56h588v-56h-82c-48 0 -79.833 -8.66699 -95.5 -26s-23.5 -56.333 -23.5 -117v-565l471 469
c34.667 35.333 60 65.833 76 91.5s24 47.5 24 65.5c0 26.667 -10 46.667 -30 60s-49.333 20 -88 20h-48v58h562l-1 -58c-63.333 -0.666992 -124 -16.167 -182 -46.5s-120.667 -79.5 -188 -147.5l-287 -293l412 -645c44 -69.333 86.5 -117.5 127.5 -144.5
s91.167 -40.5 150.5 -40.5h33v-61h-629v61h56c37.333 0 65 5 83 15s27 25 27 45c0 10 -2 20.333 -6 31s-12.667 27 -26 49l-359 563l-178 -176v-383c0 -61.333 7.83301 -100.666 23.5 -117.999s47.5 -26 95.5 -26h82v-61h-588z" />
    <glyph glyph-name="L" unicode="L" horiz-adv-x="1233" 
d="M37 0l-0.000976562 60.999h80c48 0 79.833 8.83301 95.5 26.5s23.5 56.834 23.5 117.501v1032c0 61.333 -7.83301 100.5 -23.5 117.5s-47.5 25.5 -95.5 25.5h-80v56h588v-56h-82c-48 0 -79.833 -8.66699 -95.5 -26s-23.5 -56.333 -23.5 -117v-954
c0 -102 12.667 -164.5 38 -187.5s82.333 -34.5 171 -34.5h67c120 0 212.833 39 278.5 117s108.834 200.333 129.501 367h53l-12 -545h-1112z" />
    <glyph glyph-name="M" unicode="M" horiz-adv-x="1640" 
d="M31 0l-0.000976562 60.9961c75.333 0 126.833 18.833 154.5 56.5s41.5 113.834 41.5 228.501v860c0 76.667 -9.33301 124.834 -28 144.501s-59.667 29.5 -123 29.5h-45v56h430l350 -1143l356 1143h430v-56h-81c-48 0 -79.833 -8.66699 -95.5 -26
s-23.5 -56.333 -23.5 -117v-1032c0 -61.333 7.66699 -100.666 23 -117.999s47.333 -26 96 -26h81v-61h-587v61h80c47.333 0 78.833 8.83301 94.5 26.5s23.5 56.834 23.5 117.501v1145l-430 -1368h-61l-422 1398v-1038c0 -120 12.833 -196.833 38.5 -230.5
s74.834 -50.5 147.501 -50.5h6v-61h-456z" />
    <glyph glyph-name="N" unicode="N" horiz-adv-x="1368" 
d="M39 0l0.000976562 60.998h10c65.333 0 112.333 21.333 141 64s43 112.334 43 209.001v868c0 74 -9.5 121.833 -28.5 143.5s-54.5 32.5 -106.5 32.5h-59v58h352l715 -1117v768c0 122 -13.833 200.333 -41.5 235s-80.834 53.334 -159.501 56.001v58h455v-57
c-74 -4.66699 -124 -24.5 -150 -59.5s-39 -112.5 -39 -232.5v-1101h-65l-807 1255v-907c0 -108 13.333 -180.5 40 -217.5s76 -55.5 148 -55.5h7v-61h-455z" />
    <glyph glyph-name="O" unicode="O" horiz-adv-x="1389" 
d="M72 719c0 222 58.5 402.667 175.5 542s265.833 209 446.5 209c181.333 0 330.833 -69.833 448.5 -209.5s176.5 -320.167 176.5 -541.5s-58.667 -402 -176 -542s-267 -210 -449 -210c-181.333 0 -330.333 69.833 -447 209.5s-175 320.5 -175 542.5zM299 721
c0 -224 33.833 -395 101.5 -513s165.5 -177 293.5 -177s226 59 294 177s102 289 102 513c0 224.667 -34 396.167 -102 514.5s-166 177.5 -294 177.5s-225.833 -59.167 -293.5 -177.5s-101.5 -289.833 -101.5 -514.5z" />
    <glyph glyph-name="P" unicode="P" horiz-adv-x="1233" 
d="M37 0v60.998h80c48 0 79.833 8.83301 95.5 26.5s23.5 56.834 23.5 117.501v1032c0 61.333 -7.83301 100.5 -23.5 117.5s-47.5 25.5 -95.5 25.5h-80v56h645c164.667 0 291.5 -32.167 380.5 -96.5s133.5 -155.166 133.5 -272.499
c0 -128.667 -46.167 -225.334 -138.5 -290.001s-229.833 -97 -412.5 -97h-221v-475c0 -63.333 8.66699 -103.166 26 -119.499s60 -24.5 128 -24.5h63v-61h-604zM424 740.998l189.999 0.000976562c120.667 0 210 25.833 268 77.5s87 131.167 87 238.5
c0 115.333 -27.5 198 -82.5 248s-147.167 75 -276.5 75c-85.333 0 -137.666 -8.33301 -156.999 -25s-29 -59.334 -29 -128.001v-486z" />
    <glyph glyph-name="Q" unicode="Q" horiz-adv-x="1389" 
d="M72 719c0 221.333 58.499 401.833 175.499 541.5s265.833 209.5 446.5 209.5c181.333 0 330.833 -69.833 448.5 -209.5s176.5 -320.167 176.5 -541.5c0 -156.667 -29.333 -293.167 -88 -409.5s-144 -206.5 -256 -270.5c17.333 -32 37.5 -56 60.5 -72s48.5 -24 76.5 -24
c31.333 0 57 9.33301 77 28s34 46.667 42 84h51c-11.333 -94 -35.166 -164.833 -71.499 -212.5s-84.833 -71.5 -145.5 -71.5c-56.667 0 -103.667 16.5 -141 49.5s-70.333 88.167 -99 165.5c-19.333 -6.66699 -39.5 -11.5 -60.5 -14.5s-44.5 -4.5 -70.5 -4.5
c-180.667 0 -329.5 69.833 -446.5 209.5s-175.5 320.5 -175.5 542.5zM298.999 721c0 -152 15.502 -279.666 46.502 -382.999s77.5 -182.333 139.5 -237c-0.666992 4.66699 -1.16699 9.66699 -1.5 15s-0.5 12.333 -0.5 21c0 54 16.167 97.5 48.5 130.5
s74.833 49.5 127.5 49.5s101.167 -16.333 145.5 -49s85.5 -82.334 123.5 -149.001c53.333 56.667 93.666 135.5 120.999 236.5s41 222.833 41 365.5c0 224.667 -33.833 396.167 -101.5 514.5s-165.834 177.5 -294.501 177.5c-128 0 -225.833 -59.167 -293.5 -177.5
s-101.5 -289.833 -101.5 -514.5zM541.001 102.001c0 -4.66699 0.165039 -9.49902 0.498047 -14.499s1.5 -13.833 3.5 -26.5c20.667 -11.333 43 -19.833 67 -25.5s50.667 -8.5 80 -8.5c20.667 0 40.167 1.66699 58.5 5s36.5 8.33301 54.5 15
c-19.333 61.333 -42.166 107.333 -68.499 138s-56.166 46 -89.499 46c-30.667 0 -56 -11.833 -76 -35.5s-30 -54.834 -30 -93.501z" />
    <glyph glyph-name="R" unicode="R" horiz-adv-x="1399" 
d="M37 0l0.000976562 60.998h80c48 0 79.833 8.83301 95.5 26.5s23.5 56.834 23.5 117.501v1032c0 61.333 -7.83301 100.5 -23.5 117.5s-47.5 25.5 -95.5 25.5h-80v56h608c188.667 0 330.667 -27.333 426 -82s143 -136 143 -244c0 -90.667 -36.833 -167.334 -110.5 -230.001
s-175.834 -103.334 -306.501 -122.001c86.667 -20 151 -52.5 193 -97.5s71.667 -114.833 89 -209.5c6 -34 12 -82 18 -144c12 -130.667 44.333 -196 97 -196c32.667 0 58.667 17.333 78 52s32.333 87.334 39 158.001l59 1c0 -107.333 -21.333 -191.666 -64 -252.999
s-100.334 -92 -173.001 -92c-78 0 -137.667 35.5 -179 106.5s-68 183.167 -80 336.5c-10.667 138.667 -33.667 225.167 -69 259.5s-99.666 51.5 -192.999 51.5h-188v-526c0 -61.333 7.83301 -100.666 23.5 -117.999s47.5 -26 95.5 -26h82v-61h-588zM424.001 792.998h202.999
c122 0 211.833 24.5 269.5 73.5s86.5 125.5 86.5 229.5c0 100.667 -28.333 173.167 -85 217.5s-150.667 66.5 -282 66.5c-85.333 0 -138.666 -9 -159.999 -27s-32 -71.667 -32 -161v-399z" />
    <glyph glyph-name="S" unicode="S" horiz-adv-x="1196" 
d="M117 1090c0 112.667 38.834 203.832 116.501 273.499s179.5 104.5 305.5 104.5c96 0 196 -38.333 300 -115c29.333 -21.333 48 -32 56 -32c6.66699 0 14.667 4.83301 24 14.5s19.666 24.5 30.999 44.5l35 56h51v-490h-51c-34.667 143.333 -93.167 256 -175.5 338
s-177.5 123 -285.5 123c-79.333 0 -142.833 -22.167 -190.5 -66.5s-71.5 -104.166 -71.5 -179.499c0 -68 20.833 -122.333 62.5 -163s125.5 -82 251.5 -124c13.333 -4 34.333 -10.667 63 -20c167.333 -53.333 282.666 -106.666 345.999 -159.999
c48.667 -39.333 85 -84.333 109 -135s36 -107.334 36 -170.001c0 -120 -43 -220.333 -129 -301s-193.667 -121 -323 -121c-47.333 0 -94.666 7.16699 -141.999 21.5s-92.333 35.166 -135 62.499c-21.333 14 -47 33.167 -77 57.5s-50 36.5 -60 36.5
c-11.333 0 -23.166 -6.66699 -35.499 -20s-21.5 -29.666 -27.5 -48.999l-23 -76h-51v588h51c34 -176.667 95 -313 183 -409s195 -144 321 -144c83.333 0 151.666 25 204.999 75s80 113.667 80 191c0 73.333 -20.167 134.5 -60.5 183.5s-102.833 88.833 -187.5 119.5l-95 34
c-187.333 66 -307.333 119.667 -360 161c-50 39.333 -87 82.833 -111 130.5s-36 101.167 -36 160.5z" />
    <glyph glyph-name="T" unicode="T" horiz-adv-x="1313" 
d="M39 889l14 546.999h1207l14 -547h-49c-7.33301 155.333 -41.833 275.333 -103.5 360s-145.5 127 -251.5 127c-42.667 0 -73 -12.667 -91 -38s-27 -68.666 -27 -129.999v-1003c0 -63.333 8.66699 -103.166 26 -119.499s58.333 -24.5 123 -24.5h78v-61h-645v61h82
c62 0 101.667 8 119 24s26 56 26 120v1003c0 61.333 -9 104.666 -27 129.999s-48.667 38 -92 38c-105.333 0 -188.833 -42.333 -250.5 -127s-96.167 -204.667 -103.5 -360h-49z" />
    <glyph glyph-name="U" unicode="U" horiz-adv-x="1485" 
d="M33 1380v55.999h588v-56h-82c-48 0 -79.833 -8.66699 -95.5 -26s-23.5 -56.333 -23.5 -117v-686c0 -179.333 30.667 -309.5 92 -390.5s159.666 -121.5 294.999 -121.5c124.667 0 217 33.667 277 101s90 171.666 90 312.999v120v531c0 110.667 -13 184.334 -39 221.001
s-74 55 -144 55h-12v56h461v-55c-77.333 -2 -130.166 -20.667 -158.499 -56s-42.5 -112.333 -42.5 -231v-594c0 -101.333 -5.33301 -175.666 -16 -222.999s-28.667 -89.666 -54 -126.999c-38.667 -58.667 -93.167 -103.834 -163.5 -135.501s-151.5 -47.5 -243.5 -47.5
c-101.333 0 -190 15.333 -266 46s-135.667 74.667 -179 132c-30.667 42 -52.667 91.5 -66 148.5s-20 146.833 -20 269.5v674c0 61.333 -7.66699 100.5 -23 117.5s-47 25.5 -95 25.5h-80z" />
    <glyph glyph-name="V" unicode="V" horiz-adv-x="1296" 
d="M-39 1380l-0.000976562 56.0029h569v-56h-63c-44 0 -74.5 -4.83301 -91.5 -14.5s-25.5 -25.834 -25.5 -48.501c0 -6.66699 1.5 -16.667 4.5 -30s6.83301 -27 11.5 -41l355 -1002l295 837c10 29.333 18 59.666 24 90.999s9 59 9 83c0 44.667 -11 76.667 -33 96
s-57.667 29 -107 29h-32v56h499v-56h-10c-63.333 0 -114.666 -19.333 -153.999 -58s-78 -111.334 -116 -218.001l-404 -1122h-69l-451 1241c-22 62.667 -45.833 104.5 -71.5 125.5s-61.167 31.5 -106.5 31.5h-33z" />
    <glyph glyph-name="W" unicode="W" horiz-adv-x="1833" 
d="M-49 1379l0.000976562 57.002h549v-57c-63.333 -2 -106.5 -9.33301 -129.5 -22s-34.5 -34.334 -34.5 -65.001c0 -8 0.833008 -16.5 2.5 -25.5s4.16699 -19.5 7.5 -31.5l291 -959l252 850l-35 115c-14 47.333 -35.833 82 -65.5 104s-69.167 33 -118.5 33h-8v58h563l-1 -58
c-73.333 -1.33301 -123.333 -9.5 -150 -24.5s-40 -40.833 -40 -77.5c0 -11.333 1.33301 -24 4 -38s6.33398 -27.333 11.001 -40l288 -930l240 819c9.33301 31.333 16.5 61.666 21.5 90.999s7.5 55 7.5 77c0 40 -12.833 70.5 -38.5 91.5s-62.834 31.5 -111.501 31.5h-18v58
h477v-57c-66.667 -2.66699 -118.834 -21.5 -156.501 -56.5s-69.5 -95.5 -95.5 -181.5l-342 -1155h-86l-313 1015l-304 -1015h-79l-369 1202c-22.667 74 -49.167 123.667 -79.5 149s-76.833 39.333 -139.5 42z" />
    <glyph glyph-name="X" unicode="X" horiz-adv-x="1374" 
d="M-6 0l0.00195312 60.998c60 0 109.667 10.833 149 32.5s86.666 70.5 141.999 146.5l327 458l-350 535c-36.667 57.333 -71.834 95.833 -105.501 115.5s-77.5 29.5 -131.5 29.5v58h589v-58h-41c-36 0 -62.667 -5.16699 -80 -15.5s-26 -26.166 -26 -47.499
c0 -12.667 3.33301 -27 10 -43s17.667 -36 33 -60l227 -338l211 304c15.333 21.333 27.333 42.5 36 63.5s13 38.5 13 52.5c0 29.333 -11.333 50.5 -34 63.5s-61.667 20.167 -117 21.5v57h506v-58c-64.667 -2.66699 -121.167 -18.5 -169.5 -47.5
s-95.833 -75.833 -142.5 -140.5l-266 -373l385 -598c38 -59.333 74.667 -100.5 110 -123.5s78 -34.5 128 -34.5h20v-61h-614v61h16c49.333 0 85.333 5.33301 108 16s34 27.334 34 50.001c0 13.333 -3 27.5 -9 42.5s-15.333 32.167 -28 51.5l-275 416l-243 -342
c-23.333 -32 -39.5 -58.833 -48.5 -80.5s-13.5 -42.5 -13.5 -62.5c0 -31.333 11.667 -54.333 35 -69s59.333 -22 108 -22v-61h-493z" />
    <glyph glyph-name="Y" unicode="Y" horiz-adv-x="1262" 
d="M-43 1381l-0.000976562 55h549v-56c-51.333 0 -88.5 -6 -111.5 -18s-34.5 -31 -34.5 -57c0 -12.667 2.5 -26.167 7.5 -40.5s13.5 -32.5 25.5 -54.5l312 -557l251 512c13.333 27.333 22.5 50.166 27.5 68.499s7.5 35.833 7.5 52.5c0 31.333 -11.667 54.833 -35 70.5
s-58 23.5 -104 23.5h-8v56h444v-56h-12c-52 0 -94.667 -12.833 -128 -38.5s-68.666 -75.5 -105.999 -149.5l-313 -627v-360c0 -62.667 8.16699 -102.334 24.5 -119.001s55.166 -25 116.499 -25h86v-61h-645v61h86c62.667 0 102 8.33301 118 25s24 56.334 24 119.001v366
l-371 670c-31.333 56.667 -61.166 93.334 -89.499 110.001s-68.833 26.667 -121.5 30z" />
    <glyph glyph-name="Z" unicode="Z" horiz-adv-x="1368" 
d="M111 0v62.999l868 1315h-197c-194 0 -336.5 -34.667 -427.5 -104s-143.5 -182.666 -157.5 -339.999h-52l13 502h1038v-58l-872 -1315h251c204.667 0 347.667 37.833 429 113.5s135 214.167 161 415.5h60l-25 -592h-1089z" />
    <glyph glyph-name="bracketleft" unicode="[" horiz-adv-x="752" 
d="M201 -403l-0.000976562 1839h524v-56h-119c-92 0 -151.5 -15.333 -178.5 -46s-40.5 -93 -40.5 -187v-1262c0 -93.333 13.333 -155.166 40 -185.499s86.334 -45.5 179.001 -45.5h119v-57h-524z" />
    <glyph glyph-name="backslash" unicode="\" horiz-adv-x="569" 
d="M-49 1470h100l629 -1660h-100z" />
    <glyph glyph-name="bracketright" unicode="]" horiz-adv-x="752" 
d="M27 -346l118 -0.000976562c92.667 0 152.5 15.333 179.5 46s40.5 92.334 40.5 185.001v1262c0 93.333 -13.667 155.5 -41 186.5s-87 46.5 -179 46.5h-118v56h524v-1839h-524v57z" />
    <glyph glyph-name="asciicircum" unicode="^" horiz-adv-x="2048" 
d="M412 897l514 565h194l512 -565h-98l-512 420l-514 -420h-96z" />
    <glyph glyph-name="underscore" unicode="_" horiz-adv-x="1024" 
d="M0 -340h1024v-143h-1024v143z" />
    <glyph glyph-name="grave" unicode="`" horiz-adv-x="1024" 
d="M229 1432c0 19.333 7 36.001 21 50.001s31 21 51 21c14 0 28 -4 42 -12s32.667 -23.667 56 -47l289 -299h-67l-330 205c-20.667 13.333 -36.167 26.666 -46.5 39.999s-15.5 27.333 -15.5 42z" />
    <glyph glyph-name="a" unicode="a" horiz-adv-x="1100" 
d="M82 252c0 73.333 24.833 133.166 74.5 179.499s134.834 87.5 255.501 123.5c61.333 18.667 114.333 37.334 159 56.001s85 39 121 61v67c0 89.333 -15.667 151 -47 185s-86 51 -164 51c-57.333 0 -105 -9.16699 -143 -27.5s-57 -40.5 -57 -66.5
c0 -17.333 19.333 -38 58 -62s58 -54 58 -90c0 -30 -11.833 -55.5 -35.5 -76.5s-52.834 -31.5 -87.501 -31.5c-40.667 0 -74 14 -100 42s-39 65 -39 111c0 77.333 35.5 139.666 106.5 186.999s165.833 71 284.5 71c126.667 0 216.834 -25.833 270.501 -77.5
s80.5 -141.167 80.5 -268.5v-475c0 -55.333 5.33301 -92.333 16 -111s29.667 -28 57 -28c26.667 0 46 9.5 58 28.5s18 49.833 18 92.5v108h57v-100c0 -73.333 -16.667 -128.166 -50 -164.499s-83.333 -54.5 -150 -54.5c-55.333 0 -99 15.333 -131 46
s-52.667 77.334 -62 140.001c-38 -60 -85.333 -106 -142 -138s-119.334 -48 -188.001 -48c-82 0 -148.833 25.167 -200.5 75.5s-77.5 115.166 -77.5 194.499zM289 258c0 -58 13.5 -103.5 40.5 -136.5s63.833 -49.5 110.5 -49.5c54.667 0 105 21.167 151 63.5
s79.667 98.833 101 169.5v301c-28 -14 -67.333 -32.667 -118 -56c-190 -88.667 -285 -186 -285 -292z" />
    <glyph glyph-name="b" unicode="b" horiz-adv-x="1090" 
d="M4 1374l-0.00195312 62c54.667 0 110.5 0.833008 167.5 2.5s116.5 4.16699 178.5 7.5v-588c32.667 56 73.167 98.667 121.5 128s102.166 44 161.499 44c108.667 0 199.667 -50.167 273 -150.5s110 -226.833 110 -379.5c0 -149.333 -40.667 -273 -122 -371
s-182.666 -147 -303.999 -147c-59.333 0 -114.666 12.667 -165.999 38s-99.666 63.666 -144.999 114.999l-56 -135h-57v1278c0 38.667 -6.66699 64.334 -20 77.001s-42.333 19 -87 19h-55zM349.998 387c0 -104.667 20.502 -187.5 61.502 -248.5s95.5 -91.5 163.5 -91.5
c73.333 0 127.666 35.667 162.999 107s53 181 53 329c0 164 -16.833 282.167 -50.5 354.5s-87.834 108.5 -162.501 108.5c-68 0 -123 -31 -165 -93s-63 -145 -63 -249v-217z" />
    <glyph glyph-name="c" unicode="c" horiz-adv-x="958" 
d="M72 498c0 155.333 44.8311 283.5 134.498 384.5s203.167 151.5 340.5 151.5c98.667 0 182.334 -29.333 251.001 -88s103 -129.667 103 -213c0 -47.333 -13.5 -86.5 -40.5 -117.5s-60.5 -46.5 -100.5 -46.5c-34 0 -63.333 12.5 -88 37.5s-37 54.167 -37 87.5
s15.667 64.833 47 94.5s47 52.167 47 67.5c0 30.667 -16.167 58.5 -48.5 83.5s-70.833 37.5 -115.5 37.5c-86.667 0 -152.667 -38.167 -198 -114.5s-68 -188.5 -68 -336.5c0 -156 24.167 -274.833 72.5 -356.5s118.5 -122.5 210.5 -122.5c74 0 136.333 28.667 187 86
s80.334 133.666 89.001 228.999h57c-8.66699 -119.333 -46.667 -213.666 -114 -282.999s-154 -104 -260 -104c-136.667 0 -249 49 -337 147s-132 223.333 -132 376z" />
    <glyph glyph-name="d" unicode="d" horiz-adv-x="1114" 
d="M80 496c0 152.667 36.833 279.167 110.5 379.5s165.167 150.5 274.5 150.5c57.333 0 110.333 -14.833 159 -44.5s89 -72.167 121 -127.5v424c0 38.667 -6.5 64.334 -19.5 77.001s-41.833 19 -86.5 19h-55v62c60 0 118.667 0.833008 176 2.5s113.666 4.16699 168.999 7.5
l1 -1288c0 -38.667 6.66699 -64.5 20 -77.5s42 -19.5 86 -19.5h56v-61c-59.333 0 -117.833 -0.833008 -175.5 -2.5s-114.5 -4.16699 -170.5 -7.5l-1 184c-34.667 -64.667 -76.667 -112.834 -126 -144.501s-106 -47.5 -170 -47.5c-111.333 0 -200.666 46.667 -267.999 140
s-101 218 -101 374zM305 506c0 -146.667 16.833 -256 50.5 -328s85.167 -108 154.5 -108c70 0 126.667 31.833 170 95.5s65 148.5 65 254.5v188c0 102.667 -21.5 184.334 -64.5 245.001s-99.833 91 -170.5 91c-69.333 0 -120.833 -35.833 -154.5 -107.5
s-50.5 -181.834 -50.5 -330.501z" />
    <glyph glyph-name="e" unicode="e" horiz-adv-x="1014" 
d="M72 504c0 154 42.1641 280.832 126.497 380.499s190.833 149.5 319.5 149.5c130 0 235.333 -47.833 316 -143.5s122 -223.167 124 -382.5h-665v-8c0 -147.333 24.5 -258 73.5 -332s122.833 -111 221.5 -111c74.667 0 139.334 24.167 194.001 72.5s93 115.833 115 202.5
h55c-19.333 -109.333 -65.666 -196.166 -138.999 -260.499s-162.666 -96.5 -267.999 -96.5c-142.667 0 -257.167 48 -343.5 144s-129.5 224.333 -129.5 385zM292.997 562.999h452v41c0 118 -19.833 209 -59.5 273s-96.167 96 -169.5 96c-72 0 -127.167 -33.5 -165.5 -100.5
s-57.5 -163.833 -57.5 -290.5v-19z" />
    <glyph glyph-name="f" unicode="f" horiz-adv-x="627" 
d="M53 0l0.00195312 61.002h19c57.333 0 94.166 7 110.499 21s24.5 51.667 24.5 113v757h-154v58h154v26c0 139.333 23.167 246.166 69.5 320.499s112.5 111.5 198.5 111.5c54 0 99.333 -16.333 136 -49s55 -72.334 55 -119.001c0 -30 -9.33301 -54.833 -28 -74.5
s-42.334 -29.5 -71.001 -29.5c-30 0 -54.5 8.83301 -73.5 26.5s-28.5 40.167 -28.5 67.5c0 22 8.5 42.5 25.5 61.5s25.5 31.5 25.5 37.5c0 6.66699 -4 12.334 -12 17.001s-18.333 7 -31 7c-31.333 0 -55.5 -9.66699 -72.5 -29s-25.5 -46.333 -25.5 -81
c0 -7.33301 2.33301 -43.333 7 -108s7.66699 -126.334 9 -185.001h184v-58h-184v-757c0 -62.667 8.83301 -100.667 26.5 -114s60.167 -20 127.5 -20h26v-61h-518z" />
    <glyph glyph-name="g" unicode="g" horiz-adv-x="1044" 
d="M66 -221c0 42 15.0039 79.1689 45.0039 111.502s73.667 58.5 131 78.5c-46.667 17.333 -83.334 42 -110.001 74s-40 67.667 -40 107c0 41.333 16.667 79.833 50 115.5s83 67.834 149 96.501c-55.333 38 -97.5 83.167 -126.5 135.5s-43.5 109.166 -43.5 170.499
c0 100.667 38.833 186.834 116.5 258.501s172.5 107.5 284.5 107.5c42.667 0 83.667 -5.33301 123 -16s75 -26.334 107 -47.001c32 50.667 67.167 88.5 105.5 113.5s80.166 37.5 125.499 37.5c44 0 81.333 -14.667 112 -44s46 -64.333 46 -105
c0 -31.333 -9.33301 -57 -28 -77s-42.334 -30 -71.001 -30c-27.333 0 -50.166 8.5 -68.499 25.5s-27.5 37.833 -27.5 62.5c0 7.33301 1 17.5 3 30.5s3 22.167 3 27.5c0 8.66699 -3.83301 16.167 -11.5 22.5s-16.834 9.5 -27.501 9.5c-18 0 -37.333 -9.16699 -58 -27.5
s-40 -44.5 -58 -78.5c41.333 -37.333 72.5 -78.5 93.5 -123.5s31.5 -93.833 31.5 -146.5c0 -102.667 -39.167 -189.5 -117.5 -260.5s-175.166 -106.5 -290.499 -106.5c-24 0 -48.333 2.16699 -73 6.5s-52.334 11.166 -83.001 20.499
c-38 -11.333 -67.833 -27.833 -89.5 -49.5s-32.5 -45.5 -32.5 -71.5c0 -30 12.833 -52.167 38.5 -66.5s65.167 -21.5 118.5 -21.5c7.33301 0 31.666 0.333008 72.999 1s79.333 1 114 1c134.667 0 236.834 -21.333 306.501 -64s104.5 -105.334 104.5 -188.001
c0 -95.333 -44.333 -172.5 -133 -231.5s-206.667 -88.5 -354 -88.5c-134.667 0 -241.334 20.833 -320.001 62.5s-118 97.5 -118 167.5zM190.004 -196.998c0 -56 33.332 -102.667 99.999 -140s152.334 -56 257.001 -56c94 0 171.333 19 232 57s91 85 91 141
c0 81.333 -103.333 125.333 -310 132c-104.667 3.33301 -189 8 -253 14c-40 -21.333 -69.5 -43.833 -88.5 -67.5s-28.5 -50.5 -28.5 -80.5zM344.003 682.002c0 -117.333 13.5 -200.333 40.5 -249s72.167 -73 135.5 -73c62.667 0 108 24.167 136 72.5s42 126.833 42 235.5
c0 108 -14 186.167 -42 234.5s-73.333 72.5 -136 72.5c-61.333 0 -106 -23.333 -134 -70s-42 -121 -42 -223z" />
    <glyph glyph-name="h" unicode="h" horiz-adv-x="1128" 
d="M31 0l-0.000976562 61h55c45.333 0 74.5 6.66699 87.5 20s19.5 43 19.5 89v1108c0 38.667 -6.66699 64.334 -20 77.001s-42.333 19 -87 19h-55v62c55.333 0 111.833 0.833008 169.5 2.5s116.167 4.16699 175.5 7.5l1 -592c32.667 54.667 74.5 97.334 125.5 128.001
s105.5 46 163.5 46c96 0 165 -28.333 207 -85s63 -152.667 63 -288v-485c0 -46.667 6.5 -76.5 19.5 -89.5s41.833 -19.5 86.5 -19.5h52v-61h-492v61h43c44.667 0 73.334 6.5 86.001 19.5s19 42.833 19 89.5v547c0 77.333 -11.667 133.166 -35 167.499s-61 51.5 -113 51.5
c-72 0 -127.5 -27.833 -166.5 -83.5s-58.5 -135.834 -58.5 -240.501v-442c0 -47.333 6.33301 -77.333 19 -90s41 -19 85 -19h45v-61h-495z" />
    <glyph glyph-name="i" unicode="i" horiz-adv-x="584" 
d="M53 0v60.999h56c44.667 0 73.5 6.66699 86.5 20s19.5 43 19.5 89v682c0 38.667 -6.66699 64.334 -20 77.001s-42 19 -86 19h-56v62c54.667 0 110.5 0.833008 167.5 2.5s116.5 4.16699 178.5 7.5v-850c0 -46.667 6.66699 -76.5 20 -89.5s42.333 -19.5 87 -19.5h57v-61
h-510zM168 1315c0 36 12.833 66.833 38.5 92.5s57.167 38.5 94.5 38.5s68.833 -12.667 94.5 -38s38.5 -56.333 38.5 -93c0 -36 -13.167 -67.167 -39.5 -93.5s-57.5 -39.5 -93.5 -39.5s-67.167 13.167 -93.5 39.5s-39.5 57.5 -39.5 93.5z" />
    <glyph glyph-name="j" unicode="j" horiz-adv-x="555" 
d="M-70 -293c0 28.667 8.66895 52.165 26.002 70.498s39.666 27.5 66.999 27.5c22.667 0 41.5 -7 56.5 -21s22.5 -31.333 22.5 -52c0 -15.333 -5.66699 -31.666 -17 -48.999s-17 -26.333 -17 -27c0 -16.667 3.66699 -29 11 -37s18.666 -12 33.999 -12c28 0 47.5 19 58.5 57
s16.5 114.667 16.5 230v958c0 38.667 -6.5 64.334 -19.5 77.001s-41.833 19 -86.5 19h-55v62c55.333 0 111.833 0.833008 169.5 2.5s116.167 4.16699 175.5 7.5l1 -1043c0 -145.333 -19.833 -253 -59.5 -323s-100.5 -105 -182.5 -105c-58 0 -106 15.5 -144 46.5
s-57 68.167 -57 111.5zM141.002 1315c0 36 12.834 66.833 38.501 92.5s57.167 38.5 94.5 38.5s68.666 -12.667 93.999 -38s38 -56.333 38 -93c0 -36 -13 -67.167 -39 -93.5s-57 -39.5 -93 -39.5c-35.333 0 -66.333 13.167 -93 39.5s-40 57.5 -40 93.5z" />
    <glyph glyph-name="k" unicode="k" horiz-adv-x="1130" 
d="M31 0v61.001h55c45.333 0 74.5 6.66699 87.5 20s19.5 43 19.5 89v1108c0 38.667 -6.66699 64.334 -20 77.001s-42.333 19 -87 19h-55v62c55.333 0 111.833 0.833008 169.5 2.5s116.167 4.16699 175.5 7.5l1 -918l295 267c18.667 17.333 32.834 34 42.501 50
s14.5 30.667 14.5 44c0 21.333 -8.16699 37.166 -24.5 47.499s-41.5 15.5 -75.5 15.5h-35v58h481v-58h-12c-86.667 0 -184.334 -48.333 -293.001 -145l-2 -2l-160 -141l328 -490c29.333 -44 57.166 -73.833 83.499 -89.5s60.5 -23.5 102.5 -23.5h17v-61h-521v61h66
c30.667 0 51.667 2.66699 63 8s17 14.333 17 27c0 4.66699 -1.16699 9.66699 -3.5 15s-8.16602 14.666 -17.499 27.999l-266 406l-100 -86v-289c0 -46.667 6.5 -76.5 19.5 -89.5s41.833 -19.5 86.5 -19.5h43v-61h-495z" />
    <glyph glyph-name="l" unicode="l" horiz-adv-x="559" 
d="M31 0v60.999h55c45.333 0 74.5 6.66699 87.5 20s19.5 43 19.5 89v1108c0 38.667 -6.66699 64.334 -20 77.001s-42.333 19 -87 19h-55v62c55.333 0 111.833 0.833008 169.5 2.5s116.167 4.16699 175.5 7.5l1 -1276c0 -47.333 6.33301 -77.333 19 -90s41 -19 85 -19h58v-61
h-508z" />
    <glyph glyph-name="m" unicode="m" horiz-adv-x="1655" 
d="M49 0v60.998h55c45.333 0 74.5 6.66699 87.5 20s19.5 43 19.5 89v682c0 38.667 -6.66699 64.334 -20 77.001s-42.333 19 -87 19h-55v62c54.667 0 110.5 0.833008 167.5 2.5s116.5 4.16699 178.5 7.5v-166c34 55.333 75.333 97.5 124 126.5s102.334 43.5 161.001 43.5
c59.333 0 109 -16.667 149 -50s68.667 -82.333 86 -147c35.333 64 79.166 112.833 131.499 146.5s109.833 50.5 172.5 50.5c85.333 0 147.166 -28.5 185.499 -85.5s57.5 -151.5 57.5 -283.5v-485c0 -46.667 6.66699 -76.5 20 -89.5s42.333 -19.5 87 -19.5h49v-61h-477v61h30
c45.333 0 74.5 6.66699 87.5 20s19.5 43 19.5 89v547c0 74.667 -10.833 128.834 -32.5 162.501s-56.5 50.5 -104.5 50.5c-62 0 -113.667 -29.333 -155 -88s-62 -134 -62 -226v-446c0 -46.667 6.5 -76.5 19.5 -89.5s41.833 -19.5 86.5 -19.5h35v-61h-457v61h25
c45.333 0 74.333 6.66699 87 20s19 43 19 89v547c0 74.667 -10.667 128.834 -32 162.501s-55.666 50.5 -102.999 50.5c-66.667 0 -118.167 -27.333 -154.5 -82s-54.5 -133.334 -54.5 -236.001v-442c0 -46.667 6.66699 -76.5 20 -89.5s42.333 -19.5 87 -19.5h28v-61h-481z
" />
    <glyph glyph-name="n" unicode="n" horiz-adv-x="1147" 
d="M49 0l-0.000976562 60.998h55c45.333 0 74.5 6.66699 87.5 20s19.5 43 19.5 89v682c0 38.667 -6.66699 64.334 -20 77.001s-42.333 19 -87 19h-55v62c54.667 0 110.5 0.833008 167.5 2.5s116.5 4.16699 178.5 7.5v-166c32.667 54.667 74.834 97.334 126.501 128.001
s106.5 46 164.5 46c96 0 164.667 -28 206 -84s62 -152.333 62 -289v-485c0 -45.333 6.16699 -74.833 18.5 -88.5s44.5 -20.5 96.5 -20.5h43v-61h-491v61h43c44.667 0 73.5 6.66699 86.5 20s19.5 43 19.5 89v547c0 76.667 -11.833 132.334 -35.5 167.001s-61.5 52 -113.5 52
c-72.667 0 -128.5 -27.833 -167.5 -83.5s-58.5 -135.834 -58.5 -240.501v-442c0 -46.667 6.66699 -76.5 20 -89.5s42.333 -19.5 87 -19.5h43v-61h-496z" />
    <glyph glyph-name="o" unicode="o" horiz-adv-x="1053" 
d="M72 506c0 145.333 44.833 269.333 134.5 372s196.167 154 319.5 154s230 -51.333 320 -154s135 -226.667 135 -372c0 -146 -45 -270.667 -135 -374s-196.667 -155 -320 -155s-229.833 51.667 -319.5 155s-134.5 228 -134.5 374zM299 506
c0 -166.667 18 -286.834 54 -360.501s93.667 -110.5 173 -110.5c80 0 138 36.833 174 110.5s54 193.834 54 360.501c0 166 -18 286 -54 360s-94 111 -174 111c-79.333 0 -137 -37 -173 -111s-54 -194 -54 -360z" />
    <glyph glyph-name="p" unicode="p" horiz-adv-x="1116" 
d="M20 -365l63.999 -0.000976562c44.667 0 72.167 5.5 82.5 16.5s15.5 40.5 15.5 88.5v1112c0 40.667 -6.66699 66.834 -20 78.501s-48.666 18.167 -105.999 19.5h-36v60c56 0 112.833 0.833008 170.5 2.5s116.167 4.16699 175.5 7.5l1 -166
c35.333 56.667 78.5 99.834 129.5 129.501s106.833 44.5 167.5 44.5c110 0 198.833 -46.833 266.5 -140.5s101.5 -218.167 101.5 -373.5c0 -154.667 -36.5 -282.834 -109.5 -384.501s-164.167 -152.5 -273.5 -152.5c-58.667 0 -112.334 14.833 -161.001 44.5
s-89 72.5 -121 128.5v-410c0 -50 5.83301 -80 17.5 -90s37.834 -15 78.501 -15h65v-63h-508v63zM366.999 394.999c0 -102 21.5 -182.833 64.5 -242.5s100.5 -89.5 172.5 -89.5c70.667 0 122.167 35.5 154.5 106.5s48.5 183.833 48.5 338.5c0 152 -16.5 263.333 -49.5 334
s-84.833 106 -155.5 106c-72 0 -129.167 -30 -171.5 -90s-63.5 -142 -63.5 -246v-217z" />
    <glyph glyph-name="q" unicode="q" horiz-adv-x="1090" 
d="M76 508c0 143.333 38.3311 264.831 114.998 364.498s166 149.5 268 149.5c62.667 0 118.834 -15.5 168.501 -46.5s95.834 -79.167 138.501 -144.5l121 193h39v-1284c0 -50 5.83301 -80 17.5 -90s37.834 -15 78.501 -15h65v-63h-507v63h65c44 0 71 5.33301 81 16
s15 40.334 15 89.001v410c-32 -56 -72.333 -98.833 -121 -128.5s-102.334 -44.5 -161.001 -44.5c-111.333 0 -203 49.333 -275 148s-108 226.334 -108 383.001zM300.998 501.998c0 -152 16.667 -262.667 50 -332s86.333 -104 159 -104c70.667 0 126.834 29.333 168.501 88
s62.5 139 62.5 241v211c0 103.333 -21.333 185.5 -64 246.5s-99 91.5 -169 91.5c-70.667 0 -122.834 -35.667 -156.501 -107s-50.5 -183 -50.5 -335z" />
    <glyph glyph-name="r" unicode="r" horiz-adv-x="870" 
d="M49 0l-0.000976562 61.001h55c45.333 0 74.5 6.66699 87.5 20s19.5 43 19.5 89v682c0 38.667 -6.66699 64.334 -20 77.001s-42.333 19 -87 19h-55v62c56 0 112.333 0.833008 169 2.5s113.667 4.16699 171 7.5v-160c32 53.333 69.5 94.333 112.5 123s87.5 43 133.5 43
c60.667 0 110.334 -18.667 149.001 -56s58 -85 58 -143c0 -48 -13.5 -87.5 -40.5 -118.5s-61.5 -46.5 -103.5 -46.5c-34.667 0 -63.334 11.167 -86.001 33.5s-34 51.166 -34 86.499c0 40.667 16.667 73.667 50 99s50 41.666 50 48.999c0 10 -5.66699 18.333 -17 25
s-25.666 10 -42.999 10c-44 0 -85.833 -17 -125.5 -51s-72.167 -81.333 -97.5 -142v-602c0 -46.667 6.66699 -76.5 20 -89.5s42.333 -19.5 87 -19.5h57v-61h-510z" />
    <glyph glyph-name="s" unicode="s" horiz-adv-x="948" 
d="M117 741c0 82 29.333 151 88 207s131.667 84 219 84c64.667 0 126 -17 184 -51s87.333 -51 88 -51c9.33301 0 19 7.16699 29 21.5s18.333 33.833 25 58.5h47l6 -346h-49c-28.667 94 -73.334 169.333 -134.001 226s-126 85 -196 85c-50 0 -90.833 -14.833 -122.5 -44.5
s-47.5 -68.167 -47.5 -115.5c0 -78 85.333 -142.667 256 -194c20.667 -6 37.334 -11 50.001 -15c105.333 -32 182 -73.667 230 -125s72 -117.333 72 -198c0 -83.333 -31.167 -154 -93.5 -212s-140.166 -87 -233.499 -87c-85.333 0 -174.333 33.333 -267 100
c-24 18 -39 27 -45 27c-10.667 0 -20.834 -9.5 -30.501 -28.5s-18.5 -46.5 -26.5 -82.5h-47l10 430h53c15.333 -115.333 55.333 -208 120 -278s142.334 -105 233.001 -105c59.333 0 107.166 15.667 143.499 47s54.5 72.333 54.5 123c0 47.333 -16.667 85.333 -50 114
s-103.333 59 -210 91c-134 40.667 -226.833 85 -278.5 133s-77.5 110 -77.5 186z" />
    <glyph glyph-name="t" unicode="t" horiz-adv-x="694" 
d="M29 952l-0.000976562 56.999c90.667 2.66699 160.5 40.334 209.5 113.001s76.833 180.667 83.5 324h51v-436h237v-58h-237v-651c0 -92 6 -151.5 18 -178.5s33.333 -40.5 64 -40.5c30 0 52.5 14.333 67.5 43s22.5 73 22.5 133c0 0.666992 -0.333008 3 -1 7
c-0.666992 12 -1 24 -1 36h61v-65c0 -83.333 -17.667 -146.5 -53 -189.5s-87.333 -64.5 -156 -64.5c-75.333 0 -128.666 26 -159.999 78s-47 148 -47 288v604h-159z" />
    <glyph glyph-name="u" unicode="u" horiz-adv-x="1147" 
d="M45 948l-0.000976562 62c56 0 112 1 168 3s111.333 5 166 9v-678c0 -110.667 11 -181.667 33 -213s59.333 -47 112 -47c77.333 0 135 30.5 173 91.5s57 154.167 57 279.5v397c0 38.667 -6.66699 64.334 -20 77.001s-42.333 19 -87 19h-45v62c56 0 111.833 1 167.5 3
s111.834 5 168.501 9v-852c0 -46.667 6.66699 -76.5 20 -89.5s42 -19.167 86 -18.5h46l-1 -62c-25.333 0.666992 -51.5 1.16699 -78.5 1.5s-62.167 0.5 -105.5 0.5c-26.667 0 -52.167 -0.166992 -76.5 -0.5s-49.166 -0.833008 -74.499 -1.5v166
c-39.333 -59.333 -84.333 -103.5 -135 -132.5s-108.334 -43.5 -173.001 -43.5c-92 0 -157.167 26.333 -195.5 79s-57.5 149 -57.5 289v494c0 39.333 -6.5 65.166 -19.5 77.499s-41.5 18.5 -85.5 18.5h-43z" />
    <glyph glyph-name="v" unicode="v" horiz-adv-x="967" 
d="M-57 952l0.000976562 58.002h503v-58h-55c-29.333 0 -50.666 -4.33301 -63.999 -13s-20 -22.667 -20 -42c0 -12 1.66699 -25.5 5 -40.5s8 -30.167 14 -45.5l225 -586l182 537c6 17.333 10.667 35.166 14 53.499s5 34.5 5 48.5c0 29.333 -10.167 51.333 -30.5 66
s-50.5 22 -90.5 22h-17v58h387v-58c-50 -2.66699 -89.333 -16.834 -118 -42.501s-54.667 -71.5 -78 -137.5l-281 -786h-63l-340 848c-18.667 45.333 -39.334 76.333 -62.001 93s-55.334 25 -98.001 25h-18z" />
    <glyph glyph-name="w" unicode="w" horiz-adv-x="1487" 
d="M-57 952v57.9961h477v-58c-46.667 0 -79.5 -4.66699 -98.5 -14s-28.5 -25 -28.5 -47c0 -10.667 1.33301 -22.167 4 -34.5s6 -24.166 10 -35.499l211 -563l174 545c-19.333 61.333 -39.833 101.5 -61.5 120.5s-54.5 28.5 -98.5 28.5h-45v58h523v-58h-52
c-36 0 -62.333 -5.5 -79 -16.5s-25 -28.5 -25 -52.5c0 -10 1.5 -21.667 4.5 -35s7.83301 -28.666 14.5 -45.999l204 -562l197 528c6.66699 18 11.667 35.5 15 52.5s5 32.167 5 45.5c0 29.333 -10.167 51 -30.5 65s-51.833 21 -94.5 21h-18v58h397v-57
c-49.333 -3.33301 -89.5 -18.166 -120.5 -44.499s-57.5 -69.166 -79.5 -128.499l-304 -794h-57l-264 723l-227 -723h-54l-323 829c-20.667 53.333 -43 89.5 -67 108.5s-57.667 28.5 -101 28.5h-8z" />
    <glyph glyph-name="x" unicode="x" horiz-adv-x="1145" 
d="M10 0l0.000976562 61.001c87.333 0 171 46 251 138l7 8l238 274l-295 359c-35.333 42.667 -67.666 72 -96.999 88s-64 24 -104 24v58h494v-58h-23c-33.333 0 -57 -3.33301 -71 -10s-21 -17.667 -21 -33c0 -6 2 -12.833 6 -20.5s11.333 -18.167 22 -31.5l206 -253l178 215
c12.667 14.667 22.334 28.667 29.001 42s10 25.333 10 36c0 20 -7.83301 34.167 -23.5 42.5s-42.167 12.5 -79.5 12.5h-37v58h420v-58c-42.667 0 -80.334 -8.5 -113.001 -25.5s-69.334 -48.833 -110.001 -95.5l-235 -270l333 -411c24.667 -31.333 50.167 -54 76.5 -68
s56.166 -21 89.499 -21h8v-61h-512v61h48c28.667 0 49.334 3.66699 62.001 11s19 18.666 19 33.999c0 8.66699 -2 17.5 -6 26.5s-10 18.833 -18 29.5l-217 272l-172 -209c-18.667 -22 -32.334 -41.333 -41.001 -58s-13 -32.667 -13 -48c0 -19.333 7 -33.833 21 -43.5
s34.333 -14.5 61 -14.5h43v-61h-434z" />
    <glyph glyph-name="y" unicode="y" horiz-adv-x="1028" 
d="M-10 -258c0 41.333 13.5 76.501 40.5 105.501s59.167 43.5 96.5 43.5c38 0 70.333 -12.167 97 -36.5s40 -53.5 40 -87.5c0 -36.667 -17 -65.334 -51 -86.001s-51 -33.667 -51 -39c0 -8 4.83301 -14.833 14.5 -20.5s21.834 -8.5 36.501 -8.5c59.333 0 113.5 30 162.5 90
s97.833 157 146.5 291l-368 831l-2 4c-36.667 82 -86.667 123 -150 123h-12v58h495v-58h-69c-30 0 -50.833 -3.5 -62.5 -10.5s-17.5 -19.167 -17.5 -36.5c0 -11.333 5 -29.333 15 -54l9 -23l246 -599l176 492c8.66699 24 15.334 47.5 20.001 70.5s7 41.167 7 54.5
c0 39.333 -10 66.833 -30 82.5s-55 23.5 -105 23.5h-12v58h405v-58h-6c-46 0 -82.333 -11.333 -109 -34s-51.667 -66 -75 -130l-306 -823c-54.667 -148.667 -110.834 -255.167 -168.501 -319.5s-124.834 -96.5 -201.501 -96.5c-59.333 0 -109.333 18.833 -150 56.5
s-61 83.167 -61 136.5z" />
    <glyph glyph-name="z" unicode="z" horiz-adv-x="997" 
d="M66 0l0.000976562 45l634 907h-180c-99.333 0 -176.5 -23.333 -231.5 -70s-95.833 -123.667 -122.5 -231h-53l14 359h778v-62l-620 -889h209c110 0 195.167 30.667 255.5 92s95.166 152.333 104.499 273h59l-8 -424h-839z" />
    <glyph glyph-name="braceleft" unicode="{" horiz-adv-x="1024" 
d="M178 604l-0.000976562 63.998c107.333 8.66699 180.333 33.167 219 73.5s58 114.166 58 221.499v206c0 132.667 27.333 223.667 82 273s155 74 301 74h10v-53c-90.667 -1.33301 -152.667 -19.666 -186 -54.999s-50 -105.333 -50 -210v-141
c0 -151.333 -19.667 -254.166 -59 -308.499s-111.666 -92.166 -216.999 -113.499c106 -21.333 178.5 -59.166 217.5 -113.499s58.5 -157.166 58.5 -308.499v-141c0 -104.667 16.5 -174.334 49.5 -209.001s95.167 -52.667 186.5 -54v-53h-10c-146 0 -246.333 24.667 -301 74
s-82 140 -82 272v207c0 107.333 -19.667 181.166 -59 221.499s-112 64.833 -218 73.5z" />
    <glyph glyph-name="bar" unicode="|" horiz-adv-x="1024" 
d="M438 -483v2048h150v-2048h-150z" />
    <glyph glyph-name="braceright" unicode="}" horiz-adv-x="1024" 
d="M176 -191c91.333 1.33301 153.499 19.5029 186.499 54.5029s49.5 104.5 49.5 208.5v141c0 151.333 19.5 254.166 58.5 308.499s111.5 92.166 217.5 113.499c-105.333 21.333 -177.666 59.166 -216.999 113.499s-59 157.166 -59 308.499v141
c0 104.667 -16.667 174.667 -50 210s-95.333 53.666 -186 54.999v53h10c146.667 0 247.5 -24.667 302.5 -74s82.5 -140.333 82.5 -273v-206c0 -107.333 19.333 -181.166 58 -221.499s111.667 -64.833 219 -73.5v-64c-107.333 -8.66699 -180.333 -33.167 -219 -73.5
s-58 -114.166 -58 -221.499v-207c0 -132 -27.5 -222.667 -82.5 -272s-155.833 -74 -302.5 -74h-10v53z" />
    <glyph glyph-name="asciitilde" unicode="~" horiz-adv-x="1706" 
d="M178 451l-0.00292969 154.999c70.667 48 138 84 202 108s125.667 36 185 36c41.333 0 83.833 -4.5 127.5 -13.5s98.167 -25.167 163.5 -48.5c10.667 -3.33301 26.334 -9 47.001 -17c106 -38 186 -57 240 -57c58.667 0 118.5 12.333 179.5 37
s130.167 64.334 207.5 119.001v-156c-69.333 -48 -135.666 -83.5 -198.999 -106.5s-126.666 -34.5 -189.999 -34.5c-62 0 -147.333 19.333 -256 58c-14.667 5.33301 -26 9.33301 -34 12l-15 5c-117.333 40 -208.333 60 -273 60c-56 0 -114.333 -12.333 -175 -37
s-130.667 -64.667 -210 -120z" />
    <glyph glyph-name="uni00A0" unicode="&#xa0;" 
 />
    <glyph glyph-name="exclamdown" unicode="&#xa1;" horiz-adv-x="674" 
d="M215 131c0 16 6 58.666 18 127.999c48.667 280 74.334 549.333 77.001 808h52c1.33301 -253.333 26.666 -521 75.999 -803c12.667 -71.333 19 -115.666 19 -132.999c0 -50 -10.333 -88.167 -31 -114.5s-50.667 -39.5 -90 -39.5s-69.333 13.167 -90 39.5
s-31 64.5 -31 114.5zM215 1348c0 32.667 12 60.833 36 84.5s52.333 35.5 85 35.5s61 -12 85 -36s36 -52 36 -84c0 -34 -11.667 -62.667 -35 -86s-52 -35 -86 -35c-33.333 0 -61.833 11.667 -85.5 35s-35.5 52 -35.5 86z" />
    <glyph glyph-name="cent" unicode="&#xa2;" 
d="M88 528c0 142.667 40.3311 263.332 120.998 361.999s184.334 154.334 311.001 167.001v139h62v-137c102.667 -12 183.834 -45 243.501 -99s89.5 -121.333 89.5 -202c0 -46.667 -12.5 -85 -37.5 -115s-56.167 -45 -93.5 -45c-30.667 0 -57.334 11.5 -80.001 34.5
s-34 50.5 -34 82.5c0 29.333 12.5 61 37.5 95s37.5 57.667 37.5 71c0 29.333 -15.333 55.5 -46 78.5s-69.667 36.167 -117 39.5v-923h12c77.333 0 140.833 27.5 190.5 82.5s79.5 131.167 89.5 228.5h56c-9.33301 -115.333 -45 -207.333 -107 -276
s-142.333 -105.667 -241 -111v-135h-62v135c-129.333 11.333 -233.666 65.333 -312.999 162s-119 218.667 -119 366zM294.998 554.998c0 -141.333 18.499 -250.832 55.499 -328.499s93.5 -125.834 169.5 -144.501v915c-73.333 -8 -129.166 -49.5 -167.499 -124.5
s-57.5 -180.833 -57.5 -317.5z" />
    <glyph glyph-name="sterling" unicode="&#xa3;" 
d="M35 152c0 53.333 19.5049 95.666 58.5049 126.999s92.5 47 160.5 47c34 0 72.333 -5.5 115 -16.5s87 -26.5 133 -46.5c10 15.333 17.167 31.333 21.5 48s6.5 37.334 6.5 62.001c0 35.333 -10.333 73.666 -31 114.999s-58.667 96.333 -114 165h-287v56h240
c-62 69.333 -108.167 134.166 -138.5 194.499s-45.5 117.5 -45.5 171.5c0 102 41.5 189.333 124.5 262s184.833 109 305.5 109c99.333 0 185.833 -31 259.5 -93s110.5 -134 110.5 -216c0 -47.333 -12.333 -86.833 -37 -118.5s-55.334 -47.5 -92.001 -47.5
c-31.333 0 -58.166 11.5 -80.499 34.5s-33.5 51.167 -33.5 84.5c0 32.667 17 65 51 97s51 59 51 81c0 34.667 -20.333 64.5 -61 89.5s-91.334 37.5 -152.001 37.5c-75.333 0 -136.5 -22.167 -183.5 -66.5s-70.5 -100.833 -70.5 -169.5c0 -54.667 19 -114.834 57 -180.501
s107.667 -155.5 209 -269.5h336v-56h-303c13.333 -27.333 23.166 -53.166 29.499 -77.499s9.5 -47.5 9.5 -69.5c0 -42 -10.5 -85.667 -31.5 -131s-52.167 -91.666 -93.5 -138.999c48.667 -26.667 91.167 -46 127.5 -58s70.166 -18 101.499 -18
c53.333 0 97.166 14.167 131.499 42.5s60.166 71.5 77.499 129.5l43 -8c-16.667 -108 -48 -192.333 -94 -253s-101.333 -91 -166 -91c-40.667 0 -84.334 12.833 -131.001 38.5s-99 65.834 -157 120.501c-57.333 -58 -106.333 -98 -147 -120s-84 -33 -130 -33
c-53.333 0 -96.666 15.333 -129.999 46s-50 70.667 -50 120zM86.0049 156c0 -34.667 12.666 -63.5 37.999 -86.5s57 -34.5 95 -34.5c37.333 0 74.333 11.5 111 34.5s75.334 59.167 116.001 108.5c-34 28 -69.833 50 -107.5 66s-71.167 24 -100.5 24
c-48 0 -85.333 -9.83301 -112 -29.5s-40 -47.167 -40 -82.5z" />
    <glyph glyph-name="currency" unicode="&#xa4;" 
d="M0 561l23.001 62.001h141c-0.666992 9.33301 -1.16699 20.333 -1.5 33s-0.5 31.667 -0.5 57c0 30 0.333008 52.5 1 67.5s1.66699 28.5 3 40.5h-152l21 62h137c21.333 167.333 71.5 303 150.5 407s170.833 156 275.5 156c66.667 0 128 -20.833 184 -62.5
s84.667 -62.5 86 -62.5c15.333 0 28.666 11.333 39.999 34c0.666992 1.33301 1 2.33301 1 3l29 59h37l4 -452h-49c-34 143.333 -77 250.166 -129 320.499s-114.333 105.5 -187 105.5c-79.333 0 -137.666 -38.833 -174.999 -116.5s-59.333 -208.167 -66 -391.5h536l-20 -62
h-518v-198h452l-22 -62h-428c6.66699 -188 30.834 -322 72.501 -402s106.834 -120 195.501 -120c71.333 0 132.166 32.333 182.499 97s86.5 157.334 108.5 278.001h55c-22.667 -138.667 -65.334 -245.334 -128.001 -320.001s-140 -112 -232 -112
c-126 0 -229.333 51 -310 153s-130.334 244 -149.001 426h-168z" />
    <glyph glyph-name="yen" unicode="&#xa5;" horiz-adv-x="1223" 
d="M-41 1367l-0.000976562 54.001h528v-55c-50 0 -86.333 -5.83301 -109 -17.5s-34 -30.5 -34 -56.5c0 -12 2.5 -25.167 7.5 -39.5s13.5 -32.5 25.5 -54.5l307 -553l250 508c12.667 27.333 21.667 50.166 27 68.499s8 35.833 8 52.5c0 30.667 -11.667 53.667 -35 69
s-58.333 23 -105 23h-8v55h441v-55h-13c-50.667 0 -92.167 -12.333 -124.5 -37s-67.166 -73.667 -104.499 -147l-146 -291h287v-62h-317l-107 -208h424v-62h-454v-356c0 -61.333 7.83301 -100.333 23.5 -117s54.834 -25 117.501 -25h84v-61h-623v61h84
c63.333 0 102.833 8.33301 118.5 25s23.5 55.667 23.5 117v356h-457v62h426l-115 208h-311v62h274l-186 338c-32 56.667 -61.833 93 -89.5 109s-66.834 25.667 -117.501 29z" />
    <glyph glyph-name="brokenbar" unicode="&#xa6;" horiz-adv-x="1024" 
d="M438 -350v758h150v-758h-150zM438 674v758h150v-758h-150z" />
    <glyph glyph-name="section" unicode="&#xa7;" horiz-adv-x="1024" 
d="M117 664c0 71.333 26.833 130.497 80.5 177.497s122.167 71.167 205.5 72.5c-71.333 63.333 -120.5 116.5 -147.5 159.5s-40.5 87.833 -40.5 134.5c0 76 29.167 138.667 87.5 188s133.5 74 225.5 74c82.667 0 150.167 -20.167 202.5 -60.5s78.5 -91.166 78.5 -152.499
c0 -34 -11.167 -62.167 -33.5 -84.5s-50.166 -33.5 -83.499 -33.5c-29.333 0 -53.666 8.33301 -72.999 25s-29 37.667 -29 63c0 20.667 10.833 43.834 32.5 69.501s32.5 43.5 32.5 53.5c0 16.667 -12.5 32 -37.5 46s-55.5 21 -91.5 21c-50 0 -89.333 -12.833 -118 -38.5
s-43 -60.5 -43 -104.5c0 -38 12.667 -75.5 38 -112.5s76.666 -88.167 153.999 -153.5l176 -150c58.667 -49.333 102.334 -98 131.001 -146s43 -96.333 43 -145c0 -73.333 -26.5 -133.166 -79.5 -179.499s-122.5 -70.5 -208.5 -72.5c65.333 -54 113.666 -105 144.999 -153
s47 -96 47 -144c0 -74.667 -31.667 -135.667 -95 -183s-147 -71 -251 -71c-79.333 0 -146.666 20.5 -201.999 61.5s-83 89.5 -83 145.5c0 38 10.667 68.667 32 92s49 35 83 35c29.333 0 53.666 -9.66699 72.999 -29s29 -43 29 -71c0 -25.333 -10.5 -49.5 -31.5 -72.5
s-31.5 -38.5 -31.5 -46.5c0 -18.667 13.333 -33.834 40 -45.501s61.667 -17.5 105 -17.5c53.333 0 96.666 14 129.999 42s50 63.667 50 107c0 32.667 -13.5 67.667 -40.5 105s-75.5 86.333 -145.5 147l-180 156c-61.333 52 -106 101.333 -134 148s-42 94.334 -42 143.001z
M254 732.997c0 -35.333 9.49902 -69.335 28.499 -102.002s56.5 -75 112.5 -127c53.333 -49.333 97.5 -84.166 132.5 -104.499s67.5 -30.5 97.5 -30.5c40.667 0 74.667 13 102 39s41 58.667 41 98c0 33.333 -11.5 67.833 -34.5 103.5s-60.5 76.834 -112.5 123.501
c-61.333 54 -106.666 89 -135.999 105s-58 24 -86 24c-39.333 0 -73.333 -13 -102 -39s-43 -56 -43 -90z" />
    <glyph glyph-name="dieresis" unicode="&#xa8;" horiz-adv-x="1024" 
d="M238 1298c0 27.333 9.66699 51 29 71s42.333 30 69 30s50 -10.167 70 -30.5s30 -43.833 30 -70.5c0 -28 -9.66699 -51.667 -29 -71s-43 -29 -71 -29s-51.333 9.66699 -70 29s-28 43 -28 71zM588 1298c0 26.667 10 50.167 30 70.5s43.333 30.5 70 30.5s49.667 -10 69 -30
s29 -43.667 29 -71c0 -28 -9.33301 -51.667 -28 -71s-42 -29 -70 -29s-51.667 9.66699 -71 29s-29 43 -29 71z" />
    <glyph glyph-name="copyright" unicode="&#xa9;" horiz-adv-x="1683" 
d="M131 678c0 94 17.832 183.998 53.499 269.998s87.5 163.333 155.5 232c66.667 67.333 143.5 119.333 230.5 156s178.167 55 273.5 55c92 0 181.667 -18.167 269 -54.5s164 -87.166 230 -152.499c66.667 -66 118.167 -143.333 154.5 -232s54.5 -180 54.5 -274
c0 -93.333 -17.833 -183.166 -53.5 -269.499s-87.5 -163.833 -155.5 -232.5c-66 -67.333 -142 -119 -228 -155s-177 -54 -273 -54c-94.667 0 -184.667 17.833 -270 53.5s-162.666 87.5 -231.999 155.5c-68.667 68 -120.667 144.333 -156 229s-53 175.667 -53 273z
M222.999 677.998c0 -84.667 15.5 -164.333 46.5 -239s76.5 -141.667 136.5 -201c60.667 -60 127.834 -105.5 201.501 -136.5s151.834 -46.5 234.501 -46.5c84 0 163 15.5 237 46.5s140.333 76.5 199 136.5c59.333 60 104.833 128 136.5 204s47.5 154.667 47.5 236
c0 82 -16 162.333 -48 241s-76.667 146.334 -134 203.001c-57.333 57.333 -124.333 102.166 -201 134.499s-155 48.5 -235 48.5c-82 0 -161.333 -16.333 -238 -49s-144.334 -78.667 -203.001 -138c-58.667 -60 -103.334 -127.5 -134.001 -202.5s-46 -154.167 -46 -237.5z
M419.999 669.999c0 122 39.4971 224.501 118.497 307.501s175.833 124.5 290.5 124.5c50 0 99.833 -11 149.5 -33s76.5 -33 80.5 -33c18 0 32 4.83301 42 14.5s17 25.5 21 47.5h37l2 -316h-43c-21.333 90 -55.666 158 -102.999 204s-106.333 69 -177 69
c-79.333 0 -139.166 -31.167 -179.499 -93.5s-60.5 -154.833 -60.5 -277.5c0 -124.667 22.167 -219.334 66.5 -284.001s108.833 -97 193.5 -97c56 0 107.167 14.667 153.5 44s88.833 73.333 127.5 132l39 -26c-40.667 -70 -90 -122.667 -148 -158s-124.333 -53 -199 -53
c-115.333 0 -212.666 41.333 -291.999 124s-119 184 -119 304z" />
    <glyph glyph-name="ordfeminine" unicode="&#xaa;" horiz-adv-x="825" 
d="M61 905c0 51.333 18.499 93.167 55.499 125.5s101.167 61.5 192.5 87.5c45.333 12.667 85 25.5 119 38.5s64.667 27.5 92 43.5v47c0 62 -11.833 104.833 -35.5 128.5s-65.167 35.5 -124.5 35.5c-42.667 0 -78.167 -6.33301 -106.5 -19s-42.5 -28 -42.5 -46
c0 -12.667 14.667 -27.334 44 -44.001s44 -37.667 44 -63c0 -20.667 -9 -38.5 -27 -53.5s-39.667 -22.5 -65 -22.5c-31.333 0 -56.666 9.83301 -75.999 29.5s-29 46.167 -29 79.5c0 54 26.667 97.5 80 130.5s124.333 49.5 213 49.5c95.333 0 162.833 -18 202.5 -54
s59.5 -98.667 59.5 -188v-333c0 -38 4.16699 -63.667 12.5 -77s22.833 -20 43.5 -20c20 0 34.5 6.5 43.5 19.5s13.5 34.5 13.5 64.5v76h43v-70c0 -51.333 -12.5 -89.666 -37.5 -114.999s-62.833 -38 -113.5 -38c-41.333 0 -73.833 10.5 -97.5 31.5s-39.167 53.5 -46.5 97.5
c-28.667 -42 -64.167 -74 -106.5 -96s-89.5 -33 -141.5 -33c-62 0 -112.333 17.5 -151 52.5s-58 80.167 -58 135.5zM216.999 909.001c0 -40 10.168 -71.498 30.501 -94.498s47.833 -34.5 82.5 -34.5c41.333 0 79.166 14.667 113.499 44s59.833 68.666 76.5 117.999v211
l-86 -38c-144.667 -62.667 -217 -131.334 -217 -206.001z" />
    <glyph glyph-name="guillemotleft" unicode="&#xab;" horiz-adv-x="958" 
d="M72 526l247 359h166l-241 -359l241 -358h-166zM465 526l248 359h166l-242 -359l242 -358h-166z" />
    <glyph glyph-name="logicalnot" unicode="&#xac;" horiz-adv-x="1706" 
d="M254 721v139h1198v-502h-137v363h-1061z" />
    <glyph glyph-name="uni00AD" unicode="&#xad;" horiz-adv-x="621" 
d="M41 442v168h541v-168h-541z" />
    <glyph glyph-name="registered" unicode="&#xae;" horiz-adv-x="1683" 
d="M131 678c0 94.667 17.666 184.832 52.999 270.499s86.666 162.834 153.999 231.501c66.667 67.333 143.834 119.333 231.501 156s179.167 55 274.5 55c93.333 0 184.333 -18.667 273 -56s166.334 -89.666 233.001 -156.999c64.667 -66 114.5 -142.833 149.5 -230.5
s52.5 -179.5 52.5 -275.5c0 -92.667 -18.667 -182.667 -56 -270s-91 -165.333 -161 -234c-66.667 -66 -142.667 -116 -228 -150s-177.333 -51 -276 -51c-89.333 0 -176.5 18.167 -261.5 54.5s-161.5 87.833 -229.5 154.5c-68 67.333 -119.833 143.666 -155.5 228.999
s-53.5 176.333 -53.5 273zM222.999 677.998c0 -84.667 15.5029 -164.331 46.5029 -238.998s76.5 -141.667 136.5 -201c59.333 -60 125.833 -105.5 199.5 -136.5s152.5 -46.5 236.5 -46.5c83.333 0 162.333 15.667 237 47s141 76.666 199 135.999
c58.667 60 103.667 127.667 135 203s47 154.333 47 237c0 83.333 -15.833 164 -47.5 242s-75.834 145.333 -132.501 202c-57.333 57.333 -124.333 102.166 -201 134.499s-155 48.5 -235 48.5c-82 0 -161.333 -16.333 -238 -49s-144.334 -78.667 -203.001 -138
c-58.667 -60 -103.334 -127.5 -134.001 -202.5s-46 -154.167 -46 -237.5zM467.002 289.001l0.000976562 44c46 2.66699 77.667 11.167 95 25.5s26 38.833 26 73.5v516c0 35.333 -8.66699 60.166 -26 74.499s-49 23.166 -95 26.499v45h397c96 0 173 -18 231 -54
s87 -83 87 -141c0 -55.333 -22 -99.166 -66 -131.499s-117 -57.5 -219 -75.5c63.333 -18.667 111.666 -44.167 144.999 -76.5s56 -75.833 68 -130.5l3 -28c7.33301 -83.333 29.666 -125 66.999 -125c20.667 0 36.334 11.167 47.001 33.5s16 54.833 16 97.5h45v-19
c0 -56 -13.667 -99 -41 -129s-67 -45 -119 -45c-32.667 0 -60.667 5.33301 -84 16s-40.333 26 -51 46c-13.333 24.667 -20.666 61.334 -21.999 110.001s-4 81 -8 97c-12.667 47.333 -34.834 82.333 -66.501 105s-75.167 34 -130.5 34h-29v-246c0 -34 8.5 -58 25.5 -72
s48.167 -23 93.5 -27v-44h-389zM737.003 981.001l1 -260c8.66699 -0.666992 18 -1.16699 28 -1.5s21.667 -0.5 35 -0.5c70 0 124.333 15 163 45s58 72.333 58 127c0 48 -16.667 86.667 -50 116s-78 44 -134 44c-34 0 -59.333 -5.83301 -76 -17.5s-25 -29.167 -25 -52.5z" />
    <glyph glyph-name="macron" unicode="&#xaf;" horiz-adv-x="1024" 
d="M254 1235v127h516v-127h-516z" />
    <glyph glyph-name="degree" unicode="&#xb0;" horiz-adv-x="674" 
d="M49 1167c0 80 28.333 148.167 85 204.5s124.667 84.5 204 84.5c78.667 0 146.167 -28.167 202.5 -84.5s84.5 -124.5 84.5 -204.5c0 -79.333 -28 -146.833 -84 -202.5s-124.333 -83.5 -205 -83.5s-148.667 27.667 -204 83s-83 123 -83 203zM143 1169
c0 -54 19 -100.167 57 -138.5s84 -57.5 138 -57.5s99.5 19.167 136.5 57.5s55.5 84.5 55.5 138.5s-18.5 99.667 -55.5 137s-82.5 56 -136.5 56s-100 -18.667 -138 -56s-57 -83 -57 -137z" />
    <glyph glyph-name="plusminus" unicode="&#xb1;" horiz-adv-x="1706" 
d="M254 29v141h1198v-141h-1198zM254 713v139h528v340h142v-340h528v-139h-528v-340h-142v340h-528z" />
    <glyph glyph-name="uni00B2" unicode="&#xb2;" horiz-adv-x="682" 
d="M23 569c6 47.333 22.665 94.002 49.998 140.002s63 88.333 107 127l95 75.5c39.333 30.333 65 51.5 77 63.5c38.667 37.333 66.834 73.833 84.501 109.5s26.5 73.5 26.5 113.5c0 59.333 -18.167 107.666 -54.5 144.999s-83.166 56 -140.499 56
c-42.667 0 -79.834 -10.333 -111.501 -31s-47.5 -44 -47.5 -70c0 -12 4 -21.667 12 -29s24.333 -14.666 49 -21.999c28.667 -7.33301 49.5 -17.166 62.5 -29.499s19.5 -28.5 19.5 -48.5c0 -22 -8.16699 -40.333 -24.5 -55s-36.833 -22 -61.5 -22
c-34.667 0 -64.167 13.667 -88.5 41s-36.5 61.333 -36.5 102c0 58 25 106.333 75 145s113.667 58 191 58c86 0 157.667 -23 215 -69s86 -102.333 86 -169c0 -38 -7.83301 -72.333 -23.5 -103s-40.5 -59.667 -74.5 -87c-26.667 -22.667 -69.667 -51.334 -129 -86.001
s-100.333 -59.334 -123 -74.001c-38.667 -25.333 -72.667 -53.833 -102 -85.5s-48.666 -59.834 -57.999 -84.501h344c48 0 81 7 99 21s33 42.333 45 85h28l-28 -217h-563z" />
    <glyph glyph-name="uni00B3" unicode="&#xb3;" horiz-adv-x="682" 
d="M41 758c0 31.333 8.83398 56.8301 26.501 76.4971s40.167 29.5 67.5 29.5c23.333 0 42.833 -7.83301 58.5 -23.5s23.5 -35.167 23.5 -58.5c0 -19.333 -9.16699 -40.5 -27.5 -63.5s-27.5 -39.167 -27.5 -48.5c0 -20.667 13.333 -38.167 40 -52.5s59.667 -21.5 99 -21.5
c62.667 0 108.334 17.833 137.001 53.5s43 92.167 43 169.5c0 72.667 -13.333 125.334 -40 158.001s-70 49 -130 49c-20.667 0 -44 -2.66699 -70 -8s-42 -8 -48 -8c-10.667 0 -18.834 2 -24.501 6s-8.5 9.33301 -8.5 16c0 8.66699 4 15.334 12 20.001s19.667 7 35 7
c9.33301 0 25.166 -0.666992 47.499 -2s39.833 -2 52.5 -2c54 0 92.833 13.833 116.5 41.5s35.5 73.167 35.5 136.5c0 55.333 -13.167 97.5 -39.5 126.5s-64.5 43.5 -114.5 43.5c-37.333 0 -68.833 -6.33301 -94.5 -19s-38.5 -27 -38.5 -43c0 -10 11.667 -23.667 35 -41
s35 -38.333 35 -63c0 -17.333 -7.66699 -32.666 -23 -45.999s-33.666 -20 -54.999 -20c-26 0 -48.5 9.5 -67.5 28.5s-28.5 41.833 -28.5 68.5c0 47.333 24.833 87.5 74.5 120.5s111.5 49.5 185.5 49.5c75.333 0 138.166 -19.5 188.499 -58.5s75.5 -87.167 75.5 -144.5
c0 -44 -16.167 -82.833 -48.5 -116.5s-77.5 -59.167 -135.5 -76.5c67.333 -16 120 -43.833 158 -83.5s57 -87.5 57 -143.5c0 -71.333 -29.5 -131.833 -88.5 -181.5s-132.167 -74.5 -219.5 -74.5c-74.667 0 -139 19.833 -193 59.5s-81 86.167 -81 139.5z" />
    <glyph glyph-name="acute" unicode="&#xb4;" horiz-adv-x="1024" 
d="M336 1145l289 298.999c23.333 23.333 42 39 56 47s28 12 42 12c20 0 37 -7 51 -21s21 -30.667 21 -50c0 -14.667 -5.16699 -28.667 -15.5 -42s-25.833 -26.666 -46.5 -39.999l-330 -205h-67z" />
    <glyph glyph-name="uni00B5" unicode="&#xb5;" horiz-adv-x="1169" 
d="M-102 -326c0 29.333 23.3311 121.669 69.998 277.002s83.334 296 110.001 422l108 512h168l-100 -475c-6 -26.667 -10.5 -51.5 -13.5 -74.5s-4.5 -42.833 -4.5 -59.5c0 -46.667 13.833 -82.834 41.5 -108.501s67.5 -38.5 119.5 -38.5c64.667 0 116 18.167 154 54.5
s65.333 93.833 82 172.5l112 529h173l-115 -532c-6 -28.667 -10.667 -53.834 -14 -75.501s-5 -39.167 -5 -52.5c0 -32 8.83301 -56.667 26.5 -74s43.167 -26 76.5 -26c29.333 0 56.333 8.33301 81 25s44 39.667 58 69c8.66699 18 17.667 42.333 27 73
c11.333 37.333 24.333 56 39 56c6 0 11.167 -2.66699 15.5 -8s6.5 -12.333 6.5 -21c0 -22.667 -4.5 -52 -13.5 -88s-20.833 -69.333 -35.5 -100c-26 -52 -56.833 -91 -92.5 -117s-76.5 -39 -122.5 -39c-54 0 -95.833 18.333 -125.5 55s-44.5 88 -44.5 154v13
c-34.667 -76.667 -75.667 -132.834 -123 -168.501s-104.666 -53.5 -171.999 -53.5c-63.333 0 -113.666 18.667 -150.999 56s-60 92 -68 164c-22 -95.333 -43.333 -213.666 -64 -354.999c-24.667 -173.333 -63.334 -260 -116.001 -260c-28.667 0 -50.5 8.16699 -65.5 24.5
s-22.5 39.5 -22.5 69.5z" />
    <glyph glyph-name="paragraph" unicode="&#xb6;" horiz-adv-x="1024" 
d="M66 1130c0 104.667 35.8311 189 107.498 253s166.834 96 285.501 96h499v-86h-120v-1393h-111v1393h-176v-1393h-113v782c-113.333 5.33301 -203.666 39.5 -270.999 102.5s-101 144.833 -101 245.5z" />
    <glyph glyph-name="periodcentered" unicode="&#xb7;" horiz-adv-x="516" 
d="M137 713c0 33.333 11.667 62.166 35 86.499s52 36.5 86 36.5c32.667 0 61 -12.167 85 -36.5s36 -53.166 36 -86.499c0 -32.667 -12 -61 -36 -85s-52.333 -36 -85 -36c-33.333 0 -61.833 11.833 -85.5 35.5s-35.5 52.167 -35.5 85.5z" />
    <glyph glyph-name="cedilla" unicode="&#xb8;" horiz-adv-x="1024" 
d="M274 -371l35.001 78.002c39.333 -22.667 79 -40.334 119 -53.001s74.667 -19 104 -19c42 0 72.667 7.5 92 22.5s29 38.5 29 70.5c0 27.333 -9.66699 49.166 -29 65.499s-45.666 24.5 -78.999 24.5c-7.33301 0 -16.5 -0.5 -27.5 -1.5s-23.833 -2.5 -38.5 -4.5v188h64v-112
c16 2 29.5 3.33301 40.5 4s20.5 1.33398 28.5 2.00098c53.333 0 95.666 -15 126.999 -45s47 -69.667 47 -119c0 -55.333 -19.333 -98.5 -58 -129.5s-92.334 -46.5 -161.001 -46.5c-36 0 -75.167 5.16699 -117.5 15.5s-100.833 30.166 -175.5 59.499z" />
    <glyph glyph-name="uni00B9" unicode="&#xb9;" horiz-adv-x="682" 
d="M129 569l0.000976562 34.999h68c39.333 0 66.166 6.83301 80.499 20.5s21.5 46.5 21.5 98.5v393c0 43.333 -5.33301 70.5 -16 81.5s-38.667 16.5 -84 16.5h-70v29c72 7.33301 130.5 28.333 175.5 63s73.833 81.334 86.5 140.001h27v-721c0 -52.667 6.16699 -86 18.5 -100
s39.5 -21 81.5 -21h70v-35h-459z" />
    <glyph glyph-name="ordmasculine" unicode="&#xba;" horiz-adv-x="791" 
d="M53 1083c0 102 33.833 189 101.5 261s147.834 108 240.501 108s172.5 -36 239.5 -108s100.5 -159 100.5 -261s-33.667 -189.167 -101 -261.5s-147 -108.5 -239 -108.5c-92.667 0 -172.834 36.167 -240.501 108.5s-101.5 159.5 -101.5 261.5zM225 1083
c0 -116.667 13.5 -200.668 40.5 -252.001s70.167 -77 129.5 -77s102.5 26 129.5 78s40.5 135.667 40.5 251c0 116 -13.5 200 -40.5 252s-70.167 78 -129.5 78s-102.5 -25.667 -129.5 -77s-40.5 -135.666 -40.5 -252.999z" />
    <glyph glyph-name="guillemotright" unicode="&#xbb;" horiz-adv-x="958" 
d="M80 168l239 358l-239 359h166l248 -359l-248 -358h-166zM473 168l240 358l-240 359h166l248 -359l-248 -358h-166z" />
    <glyph glyph-name="onequarter" unicode="&#xbc;" horiz-adv-x="1645" 
d="M125 627v31.999h63c38 0 63.667 6.33301 77 19s20 43.334 20 92.001v367c0 41.333 -4.83301 67 -14.5 77s-36.5 15 -80.5 15h-65v26c67.333 7.33301 122.5 27.333 165.5 60s70.5 75.667 82.5 129h26v-672c0 -49.333 5.83301 -80.5 17.5 -93.5s37.5 -19.5 77.5 -19.5h65
v-32h-434zM309 -18.001l928 1464h96l-927 -1464h-97zM1034 187.999v36.999l377 580h62v-565h124v-52h-124v-65c0 -41.333 5.33301 -66.666 16 -75.999s33 -14 67 -14h41v-33h-389v33h62c38 0 62.167 4.83301 72.5 14.5s15.5 36.167 15.5 79.5v61h-324zM1085 239.998h273v415
z" />
    <glyph glyph-name="onehalf" unicode="&#xbd;" horiz-adv-x="1645" 
d="M125 627v31.999h63c38 0 63.667 6.33301 77 19s20 43.334 20 92.001v367c0 41.333 -4.83301 67 -14.5 77s-36.5 15 -80.5 15h-65v26c67.333 7.33301 122.5 27.333 165.5 60s70.5 75.667 82.5 129h26v-672c0 -49.333 5.83301 -80.5 17.5 -93.5s37.5 -19.5 77.5 -19.5h65
v-32h-434zM309 -18.001l928 1464h96l-927 -1464h-97zM1014 -0.000976562c6 43.333 22.168 86.6689 48.501 130.002s60.5 83.333 102.5 120c20.667 17.333 50.167 40.166 88.5 68.499s63.5 48.5 75.5 60.5c37.333 34.667 64.5 68.667 81.5 102s25.5 68.333 25.5 105
c0 55.333 -17.333 100.5 -52 135.5s-79.667 52.5 -135 52.5c-40 0 -75.167 -9.5 -105.5 -28.5s-45.5 -40.167 -45.5 -63.5c0 -12.667 3.83301 -22.5 11.5 -29.5s22.834 -13.5 45.501 -19.5c28.667 -8 49.167 -17.667 61.5 -29s18.5 -26.333 18.5 -45c0 -20 -8 -37 -24 -51
s-36 -21 -60 -21c-32.667 0 -60.667 12.833 -84 38.5s-35 57.5 -35 95.5c0 54 24.167 98.833 72.5 134.5s109.5 53.5 183.5 53.5c81.333 0 149.5 -21.167 204.5 -63.5s82.5 -94.166 82.5 -155.499c0 -35.333 -7.5 -67.333 -22.5 -96s-38.833 -56.667 -71.5 -84
c-25.333 -20.667 -66.333 -46.834 -123 -78.501s-96.334 -54.834 -119.001 -69.501c-36.667 -24 -68.834 -50.667 -96.501 -80s-46.834 -56 -57.501 -80h330c44.667 0 75.834 6.66699 93.501 20s32.167 40.333 43.5 81h29l-29 -203h-538z" />
    <glyph glyph-name="threequarters" unicode="&#xbe;" horiz-adv-x="1645" 
d="M41 803c0 29.333 8.16699 53 24.5 71s37.5 27 63.5 27c22 0 40.5 -7.33301 55.5 -22s22.5 -32.667 22.5 -54c0 -18 -8.5 -38 -25.5 -60s-25.5 -37.333 -25.5 -46c0 -18.667 12.5 -34.667 37.5 -48s56.167 -20 93.5 -20c59.333 0 102.833 16.833 130.5 50.5
s41.5 86.5 41.5 158.5c0 67.333 -12.833 116.333 -38.5 147s-66.834 46 -123.501 46c-19.333 0 -41.5 -2.83301 -66.5 -8.5s-40.5 -8.5 -46.5 -8.5c-10.667 0.666992 -18.667 2.83398 -24 6.50098s-8 9.16699 -8 16.5s4 13.166 12 17.499s19 6.5 33 6.5
c8.66699 0 23.834 -0.666992 45.501 -2s38.5 -2 50.5 -2c50.667 0 87.5 13.167 110.5 39.5s34.5 68.5 34.5 126.5c0 52 -12.667 91.667 -38 119s-61.666 41 -108.999 41c-35.333 0 -65.333 -6 -90 -18s-37 -25 -37 -39c0 -10.667 11.167 -24 33.5 -40s33.5 -35.667 33.5 -59
c0 -15.333 -7.5 -29.333 -22.5 -42s-32.5 -19 -52.5 -19c-24.667 0 -45.834 9 -63.501 27s-26.5 39.667 -26.5 65c0 44 23.333 81 70 111s105 45 175 45c73.333 0 134 -17.833 182 -53.5s72 -80.167 72 -133.5c0 -41.333 -15.167 -77.666 -45.5 -108.999
s-73.833 -55 -130.5 -71c65.333 -16 115.833 -42.5 151.5 -79.5s53.5 -81.5 53.5 -133.5c0 -66.667 -28.167 -123.334 -84.5 -170.001s-125.833 -70 -208.5 -70c-72 0 -133.333 18.5 -184 55.5s-76 80.833 -76 131.5zM309 -18l928 1464h96l-927 -1464h-97zM1034 188v36.999
l377 580h62v-565h124v-52h-124v-65c0 -41.333 5.33301 -66.666 16 -75.999s33 -14 67 -14h41v-33h-389v33h62c38 0 62.167 4.83301 72.5 14.5s15.5 36.167 15.5 79.5v61h-324zM1085 239.999h273v415z" />
    <glyph glyph-name="questiondown" unicode="&#xbf;" horiz-adv-x="952" 
d="M92 375c0 56 9.50195 106.668 28.502 152.001s48.5 87.333 88.5 126c35.333 36 94.666 77 177.999 123l68 39c37.333 22.667 65.666 56 84.999 100s29 97.333 29 160h62c0 -5.33301 0.333008 -13.333 1 -24s1 -18.334 1 -23.001c0 -60 -8.16699 -111.167 -24.5 -153.5
s-42.5 -79.833 -78.5 -112.5c-19.333 -18 -45.5 -39.333 -78.5 -64s-53.833 -41.667 -62.5 -51c-32.667 -35.333 -55.834 -72.666 -69.501 -111.999s-20.5 -90 -20.5 -152c0 -114.667 21.667 -200.667 65 -258s108.333 -86 195 -86c60 0 110.833 13.833 152.5 41.5
s62.5 60.167 62.5 97.5c0 12.667 -2.66699 23.334 -8 32.001s-18.333 20 -39 34c-34.667 22 -57.667 41.167 -69 57.5s-17 35.166 -17 56.499c0 27.333 9.83301 50.666 29.5 69.999s43.167 29 70.5 29c41.333 0 76.333 -17.667 105 -53s43 -79.333 43 -132
c0 -80 -34.833 -149.167 -104.5 -207.5s-154.5 -87.5 -254.5 -87.5c-133.333 0 -239.666 36 -318.999 108s-119 168.667 -119 290zM471.002 1348c0 32.667 12 60.833 36 84.5s52.333 35.5 85 35.5s61 -12 85 -36s36 -52 36 -84c0 -34 -11.667 -62.667 -35 -86
s-52 -35 -86 -35c-33.333 0 -61.833 11.667 -85.5 35s-35.5 52 -35.5 86z" />
    <glyph glyph-name="Agrave" unicode="&#xc0;" horiz-adv-x="1380" 
d="M-47 0v60.998h14c66.667 0 122.5 20.333 167.5 61s84.167 106.334 117.5 197.001l403 1117h115l440 -1229c21.333 -62 44 -101.833 68 -119.5s61 -26.5 111 -26.5h45v-61h-600v61h43c63.333 0 103.333 4.33301 120 13s25 25 25 49c0 5.33301 -1 12.5 -3 21.5
s-5 19.5 -9 31.5l-95 270h-550l-60 -157c-6 -17.333 -10.833 -36.166 -14.5 -56.499s-5.5 -40.5 -5.5 -60.5c0 -36 13.833 -63.5 41.5 -82.5s68.5 -28.5 122.5 -28.5h8v-61h-504zM391 519.998h496l-244 705zM426 1868c0 19.333 7 36.001 21 50.001s31 21 51 21
c14 0 28 -4 42 -12s32.667 -23.667 56 -47l289 -299h-67l-330 205c-20.667 13.333 -36.167 26.666 -46.5 39.999s-15.5 27.333 -15.5 42z" />
    <glyph glyph-name="Aacute" unicode="&#xc1;" horiz-adv-x="1380" 
d="M-47 0v60.998h14c66.667 0 122.5 20.333 167.5 61s84.167 106.334 117.5 197.001l403 1117h115l440 -1229c21.333 -62 44 -101.833 68 -119.5s61 -26.5 111 -26.5h45v-61h-600v61h43c63.333 0 103.333 4.33301 120 13s25 25 25 49c0 5.33301 -1 12.5 -3 21.5
s-5 19.5 -9 31.5l-95 270h-550l-60 -157c-6 -17.333 -10.833 -36.166 -14.5 -56.499s-5.5 -40.5 -5.5 -60.5c0 -36 13.833 -63.5 41.5 -82.5s68.5 -28.5 122.5 -28.5h8v-61h-504zM391 519.998h496l-244 705zM533 1581l289 298.999c23.333 23.333 42 39 56 47s28 12 42 12
c20 0 37 -7 51 -21s21 -30.667 21 -50c0 -14.667 -5.16699 -28.667 -15.5 -42s-25.833 -26.666 -46.5 -39.999l-330 -205h-67z" />
    <glyph glyph-name="Acircumflex" unicode="&#xc2;" horiz-adv-x="1380" 
d="M-47 0v60.998h14c66.667 0 122.5 20.333 167.5 61s84.167 106.334 117.5 197.001l403 1117h115l440 -1229c21.333 -62 44 -101.833 68 -119.5s61 -26.5 111 -26.5h45v-61h-600v61h43c63.333 0 103.333 4.33301 120 13s25 25 25 49c0 5.33301 -1 12.5 -3 21.5
s-5 19.5 -9 31.5l-95 270h-550l-60 -157c-6 -17.333 -10.833 -36.166 -14.5 -56.499s-5.5 -40.5 -5.5 -60.5c0 -36 13.833 -63.5 41.5 -82.5s68.5 -28.5 122.5 -28.5h8v-61h-504zM391 519.998h496l-244 705zM418 1581l232 348h118l232 -348h-58l-233 209l-233 -209h-58z" />
    <glyph glyph-name="Atilde" unicode="&#xc3;" horiz-adv-x="1380" 
d="M-47 0v60.998h14c66.667 0 122.5 20.333 167.5 61s84.167 106.334 117.5 197.001l403 1117h115l440 -1229c21.333 -62 44 -101.833 68 -119.5s61 -26.5 111 -26.5h45v-61h-600v61h43c63.333 0 103.333 4.33301 120 13s25 25 25 49c0 5.33301 -1 12.5 -3 21.5
s-5 19.5 -9 31.5l-95 270h-550l-60 -157c-6 -17.333 -10.833 -36.166 -14.5 -56.499s-5.5 -40.5 -5.5 -60.5c0 -36 13.833 -63.5 41.5 -82.5s68.5 -28.5 122.5 -28.5h8v-61h-504zM391 519.998h496l-244 705zM422 1626c12.667 70.667 35.3301 123.833 67.9971 159.5
s75.667 53.5 129 53.5c12.667 0 24 -0.666992 34 -2s19.667 -3.33301 29 -6l111 -29c16 -4 27.833 -6.66699 35.5 -8s14.167 -2 19.5 -2c24.667 0 43.834 6.16699 57.501 18.5s25.834 34.833 36.501 67.5h54c-13.333 -68.667 -36.166 -120 -68.499 -154
s-74.5 -51 -126.5 -51c-9.33301 0 -20.166 0.833008 -32.499 2.5s-25.833 4.16699 -40.5 7.5l-109 27c-8 2 -16.833 3.5 -26.5 4.5s-19.834 1.5 -30.501 1.5c-22 0 -39.833 -7 -53.5 -21s-25.5 -37 -35.5 -69h-51z" />
    <glyph glyph-name="Adieresis" unicode="&#xc4;" horiz-adv-x="1380" 
d="M-47 0v60.998h14c66.667 0 122.5 20.333 167.5 61s84.167 106.334 117.5 197.001l403 1117h115l440 -1229c21.333 -62 44 -101.833 68 -119.5s61 -26.5 111 -26.5h45v-61h-600v61h43c63.333 0 103.333 4.33301 120 13s25 25 25 49c0 5.33301 -1 12.5 -3 21.5
s-5 19.5 -9 31.5l-95 270h-550l-60 -157c-6 -17.333 -10.833 -36.166 -14.5 -56.499s-5.5 -40.5 -5.5 -60.5c0 -36 13.833 -63.5 41.5 -82.5s68.5 -28.5 122.5 -28.5h8v-61h-504zM391 519.998h496l-244 705zM435 1734c0 27.333 9.66699 51 29 71s42.333 30 69 30
s50 -10.167 70 -30.5s30 -43.833 30 -70.5c0 -28 -9.66699 -51.667 -29 -71s-43 -29 -71 -29s-51.333 9.66699 -70 29s-28 43 -28 71zM785 1734c0 26.667 10 50.167 30 70.5s43.333 30.5 70 30.5s49.667 -10 69 -30s29 -43.667 29 -71c0 -28 -9.33301 -51.667 -28 -71
s-42 -29 -70 -29s-51.667 9.66699 -71 29s-29 43 -29 71z" />
    <glyph glyph-name="Aring" unicode="&#xc5;" horiz-adv-x="1380" 
d="M-47 0v60.998h14c66.667 0 122.5 20.333 167.5 61s84.167 106.334 117.5 197.001l403 1117h115l440 -1229c21.333 -62 44 -101.833 68 -119.5s61 -26.5 111 -26.5h45v-61h-600v61h43c63.333 0 103.333 4.33301 120 13s25 25 25 49c0 5.33301 -1 12.5 -3 21.5
s-5 19.5 -9 31.5l-95 270h-550l-60 -157c-6 -17.333 -10.833 -36.166 -14.5 -56.499s-5.5 -40.5 -5.5 -60.5c0 -36 13.833 -63.5 41.5 -82.5s68.5 -28.5 122.5 -28.5h8v-61h-504zM391 519.998h496l-244 705zM461 1743c0 67.333 23.167 124.502 69.5 171.502
s102.833 70.5 169.5 70.5s123.667 -23.667 171 -71s71 -104.333 71 -171s-23.333 -123.334 -70 -170.001s-104 -70 -172 -70c-66.667 0 -123.167 23.167 -169.5 69.5s-69.5 103.166 -69.5 170.499zM553 1743c0 -41.333 14.333 -76.668 43 -106.001s63.334 -44 104.001 -44
c41.333 0 77 14.833 107 44.5s45 64.834 45 105.501c0 41.333 -14.833 76.5 -44.5 105.5s-65.5 43.5 -107.5 43.5c-40.667 0 -75.334 -14.333 -104.001 -43s-43 -64 -43 -106z" />
    <glyph glyph-name="AE" unicode="&#xc6;" horiz-adv-x="2001" 
d="M-39 0v60.999h10c65.333 0 119.833 17 163.5 51s93.167 103 148.5 207l528 998c3.33301 6.66699 6.16602 13.167 8.49902 19.5s3.5 10.833 3.5 13.5c0 11.333 -4.83301 19.166 -14.5 23.499s-27.167 6.5 -52.5 6.5h-45v56h1159l16 -437h-53
c-19.333 142.667 -62.166 241.834 -128.499 297.501s-177.166 83.5 -332.499 83.5c-134.667 0 -213.667 -11.167 -237 -33.5s-35 -78.5 -35 -168.5v-387h137c104 0 175.333 20.333 214 61s58 115.667 58 225h58v-639h-58c0 110.667 -19.5 186.834 -58.5 228.501
s-110.167 62.5 -213.5 62.5h-137v-489c0 -76 11.333 -124.833 34 -146.5s91 -32.5 205 -32.5h27c152.667 0 263.167 31.167 331.5 93.5s111.5 169.833 129.5 322.5h51l-8 -477h-1159v61h82c45.333 0 75.666 7.5 90.999 22.5s23 45.833 23 92.5v29v241h-483l-57 -112
c-14.667 -28 -25.834 -56.5 -33.501 -85.5s-11.5 -55.167 -11.5 -78.5c0 -36 13.333 -63.167 40 -81.5s66.334 -27.5 119.001 -27.5v-61h-520zM465 519.999h442v840z" />
    <glyph glyph-name="Ccedilla" unicode="&#xc7;" horiz-adv-x="1309" 
d="M72 719c0 210 56.8311 387.668 170.498 533.001s249.834 218 408.501 218c80.667 0 159.167 -22.167 235.5 -66.5s116.166 -66.5 119.499 -66.5c6.66699 0 13.5 2.33301 20.5 7s13.5 11 19.5 19l56 79h45l8 -545h-49c-44.667 171.333 -102.667 299.166 -174 383.499
s-157.333 126.5 -258 126.5c-125.333 0 -219.166 -56.833 -281.499 -170.5s-93.5 -284.834 -93.5 -513.501c0 -225.333 33.333 -394 100 -506s166.334 -168 299.001 -168c119.333 0 217 44.667 293 134s119 211.333 129 366h62c-10 -178 -60.5 -319.167 -151.5 -423.5
s-207.833 -156.5 -350.5 -156.5c-174.667 0 -319.667 70.333 -435 211s-173 320.334 -173 539.001zM416.998 -370.999l35.001 78.002c39.333 -22.667 79 -40.334 119 -53.001s74.667 -19 104 -19c42 0 72.667 7.5 92 22.5s29 38.5 29 70.5
c0 27.333 -9.66699 49.166 -29 65.499s-45.666 24.5 -78.999 24.5c-7.33301 0 -16.5 -0.5 -27.5 -1.5s-23.833 -2.5 -38.5 -4.5v188h64v-112c16 2 29.5 3.33301 40.5 4s20.5 1.33398 28.5 2.00098c53.333 0 95.666 -15 126.999 -45s47 -69.667 47 -119
c0 -55.333 -19.333 -98.5 -58 -129.5s-92.334 -46.5 -161.001 -46.5c-36 0 -75.167 5.16699 -117.5 15.5s-100.833 30.166 -175.5 59.499z" />
    <glyph glyph-name="Egrave" unicode="&#xc8;" horiz-adv-x="1325" 
d="M37 0l-0.00292969 60.9971h80c48 0 79.833 8.83301 95.5 26.5s23.5 56.834 23.5 117.501v1032c0 61.333 -7.83301 100.5 -23.5 117.5s-47.5 25.5 -95.5 25.5h-80v56h1159l14 -437h-53c-19.333 142.667 -62.166 241.834 -128.499 297.501s-177.166 83.5 -332.499 83.5
c-134 0 -212.833 -11.167 -236.5 -33.5s-35.5 -78.5 -35.5 -168.5v-387h137c104 0 175.5 20.333 214.5 61s58.5 115.667 58.5 225h57v-639h-57c0 110.667 -19.667 186.834 -59 228.501s-110.666 62.5 -213.999 62.5h-137v-489c0 -76 11.5 -124.833 34.5 -146.5
s91.5 -32.5 205.5 -32.5h26c152.667 0 263.167 31.167 331.5 93.5s111.5 169.833 129.5 322.5h51l-8 -477h-1157zM380.997 1868c0 19.333 7 36.001 21 50.001s31 21 51 21c14 0 28 -4 42 -12s32.667 -23.667 56 -47l289 -299h-67l-330 205
c-20.667 13.333 -36.167 26.666 -46.5 39.999s-15.5 27.333 -15.5 42z" />
    <glyph glyph-name="Eacute" unicode="&#xc9;" horiz-adv-x="1325" 
d="M37 0l-0.00292969 60.9971h80c48 0 79.833 8.83301 95.5 26.5s23.5 56.834 23.5 117.501v1032c0 61.333 -7.83301 100.5 -23.5 117.5s-47.5 25.5 -95.5 25.5h-80v56h1159l14 -437h-53c-19.333 142.667 -62.166 241.834 -128.499 297.501s-177.166 83.5 -332.499 83.5
c-134 0 -212.833 -11.167 -236.5 -33.5s-35.5 -78.5 -35.5 -168.5v-387h137c104 0 175.5 20.333 214.5 61s58.5 115.667 58.5 225h57v-639h-57c0 110.667 -19.667 186.834 -59 228.501s-110.666 62.5 -213.999 62.5h-137v-489c0 -76 11.5 -124.833 34.5 -146.5
s91.5 -32.5 205.5 -32.5h26c152.667 0 263.167 31.167 331.5 93.5s111.5 169.833 129.5 322.5h51l-8 -477h-1157zM487.997 1581l289 298.999c23.333 23.333 42 39 56 47s28 12 42 12c20 0 37 -7 51 -21s21 -30.667 21 -50c0 -14.667 -5.16699 -28.667 -15.5 -42
s-25.833 -26.666 -46.5 -39.999l-330 -205h-67z" />
    <glyph glyph-name="Ecircumflex" unicode="&#xca;" horiz-adv-x="1325" 
d="M37 0l-0.00292969 60.9971h80c48 0 79.833 8.83301 95.5 26.5s23.5 56.834 23.5 117.501v1032c0 61.333 -7.83301 100.5 -23.5 117.5s-47.5 25.5 -95.5 25.5h-80v56h1159l14 -437h-53c-19.333 142.667 -62.166 241.834 -128.499 297.501s-177.166 83.5 -332.499 83.5
c-134 0 -212.833 -11.167 -236.5 -33.5s-35.5 -78.5 -35.5 -168.5v-387h137c104 0 175.5 20.333 214.5 61s58.5 115.667 58.5 225h57v-639h-57c0 110.667 -19.667 186.834 -59 228.501s-110.666 62.5 -213.999 62.5h-137v-489c0 -76 11.5 -124.833 34.5 -146.5
s91.5 -32.5 205.5 -32.5h26c152.667 0 263.167 31.167 331.5 93.5s111.5 169.833 129.5 322.5h51l-8 -477h-1157zM372.997 1581l232 348h118l232 -348h-58l-233 209l-233 -209h-58z" />
    <glyph glyph-name="Edieresis" unicode="&#xcb;" horiz-adv-x="1325" 
d="M37 0l-0.00292969 60.9971h80c48 0 79.833 8.83301 95.5 26.5s23.5 56.834 23.5 117.501v1032c0 61.333 -7.83301 100.5 -23.5 117.5s-47.5 25.5 -95.5 25.5h-80v56h1159l14 -437h-53c-19.333 142.667 -62.166 241.834 -128.499 297.501s-177.166 83.5 -332.499 83.5
c-134 0 -212.833 -11.167 -236.5 -33.5s-35.5 -78.5 -35.5 -168.5v-387h137c104 0 175.5 20.333 214.5 61s58.5 115.667 58.5 225h57v-639h-57c0 110.667 -19.667 186.834 -59 228.501s-110.666 62.5 -213.999 62.5h-137v-489c0 -76 11.5 -124.833 34.5 -146.5
s91.5 -32.5 205.5 -32.5h26c152.667 0 263.167 31.167 331.5 93.5s111.5 169.833 129.5 322.5h51l-8 -477h-1157zM389.997 1734c0 27.333 9.66699 51 29 71s42.333 30 69 30s50 -10.167 70 -30.5s30 -43.833 30 -70.5c0 -28 -9.66699 -51.667 -29 -71s-43 -29 -71 -29
s-51.333 9.66699 -70 29s-28 43 -28 71zM739.997 1734c0 26.667 10 50.167 30 70.5s43.333 30.5 70 30.5s49.667 -10 69 -30s29 -43.667 29 -71c0 -28 -9.33301 -51.667 -28 -71s-42 -29 -70 -29s-51.667 9.66699 -71 29s-29 43 -29 71z" />
    <glyph glyph-name="Igrave" unicode="&#xcc;" horiz-adv-x="672" 
d="M41 0v61h94c40 0 67.5 8.5 82.5 25.5s22.5 48.167 22.5 93.5v1082c0 45.333 -7.5 76.333 -22.5 93s-42.5 25 -82.5 25h-94v56h588v-56h-94c-40 0 -67.5 -8.33301 -82.5 -25s-22.5 -47.667 -22.5 -93v-1082c0 -45.333 7.5 -76.5 22.5 -93.5s42.5 -25.5 82.5 -25.5h94v-61
h-588zM53 1868c0 19.333 7 36.001 21 50.001s31 21 51 21c14 0 28 -4 42 -12s32.667 -23.667 56 -47l289 -299h-67l-330 205c-20.667 13.333 -36.167 26.666 -46.5 39.999s-15.5 27.333 -15.5 42z" />
    <glyph glyph-name="Iacute" unicode="&#xcd;" horiz-adv-x="672" 
d="M41 0v61h94c40 0 67.5 8.5 82.5 25.5s22.5 48.167 22.5 93.5v1082c0 45.333 -7.5 76.333 -22.5 93s-42.5 25 -82.5 25h-94v56h588v-56h-94c-40 0 -67.5 -8.33301 -82.5 -25s-22.5 -47.667 -22.5 -93v-1082c0 -45.333 7.5 -76.5 22.5 -93.5s42.5 -25.5 82.5 -25.5h94v-61
h-588zM160 1581l289 298.999c23.333 23.333 42 39 56 47s28 12 42 12c20 0 37 -7 51 -21s21 -30.667 21 -50c0 -14.667 -5.16699 -28.667 -15.5 -42s-25.833 -26.666 -46.5 -39.999l-330 -205h-67z" />
    <glyph glyph-name="Icircumflex" unicode="&#xce;" horiz-adv-x="672" 
d="M41 0v61h94c40 0 67.5 8.5 82.5 25.5s22.5 48.167 22.5 93.5v1082c0 45.333 -7.5 76.333 -22.5 93s-42.5 25 -82.5 25h-94v56h588v-56h-94c-40 0 -67.5 -8.33301 -82.5 -25s-22.5 -47.667 -22.5 -93v-1082c0 -45.333 7.5 -76.5 22.5 -93.5s42.5 -25.5 82.5 -25.5h94v-61
h-588zM45 1581l232 348h118l232 -348h-58l-233 209l-233 -209h-58z" />
    <glyph glyph-name="Idieresis" unicode="&#xcf;" horiz-adv-x="672" 
d="M41 0v61h94c40 0 67.5 8.5 82.5 25.5s22.5 48.167 22.5 93.5v1082c0 45.333 -7.5 76.333 -22.5 93s-42.5 25 -82.5 25h-94v56h588v-56h-94c-40 0 -67.5 -8.33301 -82.5 -25s-22.5 -47.667 -22.5 -93v-1082c0 -45.333 7.5 -76.5 22.5 -93.5s42.5 -25.5 82.5 -25.5h94v-61
h-588zM62 1734c0 27.333 9.66699 51 29 71s42.333 30 69 30s50 -10.167 70 -30.5s30 -43.833 30 -70.5c0 -28 -9.66699 -51.667 -29 -71s-43 -29 -71 -29s-51.333 9.66699 -70 29s-28 43 -28 71zM412 1734c0 26.667 10 50.167 30 70.5s43.333 30.5 70 30.5
s49.667 -10 69 -30s29 -43.667 29 -71c0 -28 -9.33301 -51.667 -28 -71s-42 -29 -70 -29s-51.667 9.66699 -71 29s-29 43 -29 71z" />
    <glyph glyph-name="Eth" unicode="&#xd0;" horiz-adv-x="1427" 
d="M47 778l-0.000976562 72.001h236v387c0 61.333 -7.83301 100.5 -23.5 117.5s-47.5 25.5 -95.5 25.5h-80v56h512c96 0 174.333 -5.33301 235 -16s116 -28 166 -52c110.667 -52.667 197.834 -136 261.501 -250s95.5 -244.333 95.5 -391
c0 -128.667 -24 -245.834 -72 -351.501s-115.667 -190.5 -203 -254.5c-58 -43.333 -121.5 -74.333 -190.5 -93s-163.167 -28 -282.5 -28h-522v61h80c48.667 0 80.667 8.5 96 25.5s23 56.5 23 118.5v573h-236zM472.999 244.001c0 -78.667 8.83203 -128.833 26.499 -150.5
s60.167 -32.5 127.5 -32.5c180 0 308.5 49.167 385.5 147.5s115.5 264.5 115.5 498.5c0 242 -37.167 413.667 -111.5 515s-200.166 152 -377.499 152c-73.333 0 -119.333 -8.33301 -138 -25s-28 -54.667 -28 -114v-385h320v-72h-320v-534z" />
    <glyph glyph-name="Ntilde" unicode="&#xd1;" horiz-adv-x="1368" 
d="M39 0l0.000976562 60.998h10c65.333 0 112.333 21.333 141 64s43 112.334 43 209.001v868c0 74 -9.5 121.833 -28.5 143.5s-54.5 32.5 -106.5 32.5h-59v58h352l715 -1117v768c0 122 -13.833 200.333 -41.5 235s-80.834 53.334 -159.501 56.001v58h455v-57
c-74 -4.66699 -124 -24.5 -150 -59.5s-39 -112.5 -39 -232.5v-1101h-65l-807 1255v-907c0 -108 13.333 -180.5 40 -217.5s76 -55.5 148 -55.5h7v-61h-455zM418.001 1626c12.667 70.667 35.3301 123.833 67.9971 159.5s75.667 53.5 129 53.5c12.667 0 24 -0.666992 34 -2
s19.667 -3.33301 29 -6l111 -29c16 -4 27.833 -6.66699 35.5 -8s14.167 -2 19.5 -2c24.667 0 43.834 6.16699 57.501 18.5s25.834 34.833 36.501 67.5h54c-13.333 -68.667 -36.166 -120 -68.499 -154s-74.5 -51 -126.5 -51c-9.33301 0 -20.166 0.833008 -32.499 2.5
s-25.833 4.16699 -40.5 7.5l-109 27c-8 2 -16.833 3.5 -26.5 4.5s-19.834 1.5 -30.501 1.5c-22 0 -39.833 -7 -53.5 -21s-25.5 -37 -35.5 -69h-51z" />
    <glyph glyph-name="Ograve" unicode="&#xd2;" horiz-adv-x="1389" 
d="M72 719c0 222 58.5 402.667 175.5 542s265.833 209 446.5 209c181.333 0 330.833 -69.833 448.5 -209.5s176.5 -320.167 176.5 -541.5s-58.667 -402 -176 -542s-267 -210 -449 -210c-181.333 0 -330.333 69.833 -447 209.5s-175 320.5 -175 542.5zM299 721
c0 -224 33.833 -395 101.5 -513s165.5 -177 293.5 -177s226 59 294 177s102 289 102 513c0 224.667 -34 396.167 -102 514.5s-166 177.5 -294 177.5s-225.833 -59.167 -293.5 -177.5s-101.5 -289.833 -101.5 -514.5zM411 1868c0 19.333 7 36.001 21 50.001s31 21 51 21
c14 0 28 -4 42 -12s32.667 -23.667 56 -47l289 -299h-67l-330 205c-20.667 13.333 -36.167 26.666 -46.5 39.999s-15.5 27.333 -15.5 42z" />
    <glyph glyph-name="Oacute" unicode="&#xd3;" horiz-adv-x="1389" 
d="M72 719c0 222 58.5 402.667 175.5 542s265.833 209 446.5 209c181.333 0 330.833 -69.833 448.5 -209.5s176.5 -320.167 176.5 -541.5s-58.667 -402 -176 -542s-267 -210 -449 -210c-181.333 0 -330.333 69.833 -447 209.5s-175 320.5 -175 542.5zM299 721
c0 -224 33.833 -395 101.5 -513s165.5 -177 293.5 -177s226 59 294 177s102 289 102 513c0 224.667 -34 396.167 -102 514.5s-166 177.5 -294 177.5s-225.833 -59.167 -293.5 -177.5s-101.5 -289.833 -101.5 -514.5zM518 1581l289 298.999c23.333 23.333 42 39 56 47
s28 12 42 12c20 0 37 -7 51 -21s21 -30.667 21 -50c0 -14.667 -5.16699 -28.667 -15.5 -42s-25.833 -26.666 -46.5 -39.999l-330 -205h-67z" />
    <glyph glyph-name="Ocircumflex" unicode="&#xd4;" horiz-adv-x="1389" 
d="M72 719c0 222 58.5 402.667 175.5 542s265.833 209 446.5 209c181.333 0 330.833 -69.833 448.5 -209.5s176.5 -320.167 176.5 -541.5s-58.667 -402 -176 -542s-267 -210 -449 -210c-181.333 0 -330.333 69.833 -447 209.5s-175 320.5 -175 542.5zM299 721
c0 -224 33.833 -395 101.5 -513s165.5 -177 293.5 -177s226 59 294 177s102 289 102 513c0 224.667 -34 396.167 -102 514.5s-166 177.5 -294 177.5s-225.833 -59.167 -293.5 -177.5s-101.5 -289.833 -101.5 -514.5zM403 1581l232 348h118l232 -348h-58l-233 209l-233 -209
h-58z" />
    <glyph glyph-name="Otilde" unicode="&#xd5;" horiz-adv-x="1389" 
d="M72 719c0 222 58.5 402.667 175.5 542s265.833 209 446.5 209c181.333 0 330.833 -69.833 448.5 -209.5s176.5 -320.167 176.5 -541.5s-58.667 -402 -176 -542s-267 -210 -449 -210c-181.333 0 -330.333 69.833 -447 209.5s-175 320.5 -175 542.5zM299 721
c0 -224 33.833 -395 101.5 -513s165.5 -177 293.5 -177s226 59 294 177s102 289 102 513c0 224.667 -34 396.167 -102 514.5s-166 177.5 -294 177.5s-225.833 -59.167 -293.5 -177.5s-101.5 -289.833 -101.5 -514.5zM407 1626c12.667 70.667 35.3301 123.833 67.9971 159.5
s75.667 53.5 129 53.5c12.667 0 24 -0.666992 34 -2s19.667 -3.33301 29 -6l111 -29c16 -4 27.833 -6.66699 35.5 -8s14.167 -2 19.5 -2c24.667 0 43.834 6.16699 57.501 18.5s25.834 34.833 36.501 67.5h54c-13.333 -68.667 -36.166 -120 -68.499 -154
s-74.5 -51 -126.5 -51c-9.33301 0 -20.166 0.833008 -32.499 2.5s-25.833 4.16699 -40.5 7.5l-109 27c-8 2 -16.833 3.5 -26.5 4.5s-19.834 1.5 -30.501 1.5c-22 0 -39.833 -7 -53.5 -21s-25.5 -37 -35.5 -69h-51z" />
    <glyph glyph-name="Odieresis" unicode="&#xd6;" horiz-adv-x="1389" 
d="M72 719c0 222 58.5 402.667 175.5 542s265.833 209 446.5 209c181.333 0 330.833 -69.833 448.5 -209.5s176.5 -320.167 176.5 -541.5s-58.667 -402 -176 -542s-267 -210 -449 -210c-181.333 0 -330.333 69.833 -447 209.5s-175 320.5 -175 542.5zM299 721
c0 -224 33.833 -395 101.5 -513s165.5 -177 293.5 -177s226 59 294 177s102 289 102 513c0 224.667 -34 396.167 -102 514.5s-166 177.5 -294 177.5s-225.833 -59.167 -293.5 -177.5s-101.5 -289.833 -101.5 -514.5zM420 1734c0 27.333 9.66699 51 29 71s42.333 30 69 30
s50 -10.167 70 -30.5s30 -43.833 30 -70.5c0 -28 -9.66699 -51.667 -29 -71s-43 -29 -71 -29s-51.333 9.66699 -70 29s-28 43 -28 71zM770 1734c0 26.667 10 50.167 30 70.5s43.333 30.5 70 30.5s49.667 -10 69 -30s29 -43.667 29 -71c0 -28 -9.33301 -51.667 -28 -71
s-42 -29 -70 -29s-51.667 9.66699 -71 29s-29 43 -29 71z" />
    <glyph glyph-name="multiply" unicode="&#xd7;" horiz-adv-x="1706" 
d="M293 141l469 469l-469 469l98 99l469 -469l469 469l98 -99l-469 -469l469 -469l-98 -96l-469 467l-469 -467z" />
    <glyph glyph-name="Oslash" unicode="&#xd8;" horiz-adv-x="1389" 
d="M4 0l200.998 227.001c-45.333 67.333 -78.833 141.333 -100.5 222s-32.5 170.667 -32.5 270c0 221.333 58.5 401.833 175.5 541.5s265.833 209.5 446.5 209.5c84 0 162.833 -16.833 236.5 -50.5s141.834 -84.167 204.501 -151.5l151 168h96l-200 -226
c46 -69.333 80.333 -144.333 103 -225s34 -169.334 34 -266.001c0 -221.333 -58.833 -402 -176.5 -542s-267.167 -210 -448.5 -210c-84.667 0 -164.667 17.5 -240 52.5s-142.666 85.833 -201.999 152.5l-156 -172h-92zM298.998 731.001
c0 -66.667 2.83398 -129.669 8.50098 -189.002s14.5 -115.666 26.5 -168.999l696 776c-36 88.667 -81.833 154.834 -137.5 198.501s-121.834 65.5 -198.501 65.5c-126.667 0 -224.167 -58.667 -292.5 -176s-102.5 -286 -102.5 -506zM359.999 292.999
c30 -84 73.833 -148.667 131.5 -194s125.167 -68 202.5 -68c128 0 226 59 294 177s102 289 102 513c0 78.667 -3 145.5 -9 200.5s-15.333 103.5 -28 145.5z" />
    <glyph glyph-name="Ugrave" unicode="&#xd9;" horiz-adv-x="1485" 
d="M33 1380v55.999h588v-56h-82c-48 0 -79.833 -8.66699 -95.5 -26s-23.5 -56.333 -23.5 -117v-686c0 -179.333 30.667 -309.5 92 -390.5s159.666 -121.5 294.999 -121.5c124.667 0 217 33.667 277 101s90 171.666 90 312.999v120v531c0 110.667 -13 184.334 -39 221.001
s-74 55 -144 55h-12v56h461v-55c-77.333 -2 -130.166 -20.667 -158.499 -56s-42.5 -112.333 -42.5 -231v-594c0 -101.333 -5.33301 -175.666 -16 -222.999s-28.667 -89.666 -54 -126.999c-38.667 -58.667 -93.167 -103.834 -163.5 -135.501s-151.5 -47.5 -243.5 -47.5
c-101.333 0 -190 15.333 -266 46s-135.667 74.667 -179 132c-30.667 42 -52.667 91.5 -66 148.5s-20 146.833 -20 269.5v674c0 61.333 -7.66699 100.5 -23 117.5s-47 25.5 -95 25.5h-80zM481 1868c0 19.333 7 36.001 21 50.001s31 21 51 21c14 0 28 -4 42 -12
s32.667 -23.667 56 -47l289 -299h-67l-330 205c-20.667 13.333 -36.167 26.666 -46.5 39.999s-15.5 27.333 -15.5 42z" />
    <glyph glyph-name="Uacute" unicode="&#xda;" horiz-adv-x="1485" 
d="M33 1380v55.999h588v-56h-82c-48 0 -79.833 -8.66699 -95.5 -26s-23.5 -56.333 -23.5 -117v-686c0 -179.333 30.667 -309.5 92 -390.5s159.666 -121.5 294.999 -121.5c124.667 0 217 33.667 277 101s90 171.666 90 312.999v120v531c0 110.667 -13 184.334 -39 221.001
s-74 55 -144 55h-12v56h461v-55c-77.333 -2 -130.166 -20.667 -158.499 -56s-42.5 -112.333 -42.5 -231v-594c0 -101.333 -5.33301 -175.666 -16 -222.999s-28.667 -89.666 -54 -126.999c-38.667 -58.667 -93.167 -103.834 -163.5 -135.501s-151.5 -47.5 -243.5 -47.5
c-101.333 0 -190 15.333 -266 46s-135.667 74.667 -179 132c-30.667 42 -52.667 91.5 -66 148.5s-20 146.833 -20 269.5v674c0 61.333 -7.66699 100.5 -23 117.5s-47 25.5 -95 25.5h-80zM588 1581l289 298.999c23.333 23.333 42 39 56 47s28 12 42 12c20 0 37 -7 51 -21
s21 -30.667 21 -50c0 -14.667 -5.16699 -28.667 -15.5 -42s-25.833 -26.666 -46.5 -39.999l-330 -205h-67z" />
    <glyph glyph-name="Ucircumflex" unicode="&#xdb;" horiz-adv-x="1485" 
d="M33 1380v55.999h588v-56h-82c-48 0 -79.833 -8.66699 -95.5 -26s-23.5 -56.333 -23.5 -117v-686c0 -179.333 30.667 -309.5 92 -390.5s159.666 -121.5 294.999 -121.5c124.667 0 217 33.667 277 101s90 171.666 90 312.999v120v531c0 110.667 -13 184.334 -39 221.001
s-74 55 -144 55h-12v56h461v-55c-77.333 -2 -130.166 -20.667 -158.499 -56s-42.5 -112.333 -42.5 -231v-594c0 -101.333 -5.33301 -175.666 -16 -222.999s-28.667 -89.666 -54 -126.999c-38.667 -58.667 -93.167 -103.834 -163.5 -135.501s-151.5 -47.5 -243.5 -47.5
c-101.333 0 -190 15.333 -266 46s-135.667 74.667 -179 132c-30.667 42 -52.667 91.5 -66 148.5s-20 146.833 -20 269.5v674c0 61.333 -7.66699 100.5 -23 117.5s-47 25.5 -95 25.5h-80zM473 1581l232 348h118l232 -348h-58l-233 209l-233 -209h-58z" />
    <glyph glyph-name="Udieresis" unicode="&#xdc;" horiz-adv-x="1485" 
d="M33 1380v55.999h588v-56h-82c-48 0 -79.833 -8.66699 -95.5 -26s-23.5 -56.333 -23.5 -117v-686c0 -179.333 30.667 -309.5 92 -390.5s159.666 -121.5 294.999 -121.5c124.667 0 217 33.667 277 101s90 171.666 90 312.999v120v531c0 110.667 -13 184.334 -39 221.001
s-74 55 -144 55h-12v56h461v-55c-77.333 -2 -130.166 -20.667 -158.499 -56s-42.5 -112.333 -42.5 -231v-594c0 -101.333 -5.33301 -175.666 -16 -222.999s-28.667 -89.666 -54 -126.999c-38.667 -58.667 -93.167 -103.834 -163.5 -135.501s-151.5 -47.5 -243.5 -47.5
c-101.333 0 -190 15.333 -266 46s-135.667 74.667 -179 132c-30.667 42 -52.667 91.5 -66 148.5s-20 146.833 -20 269.5v674c0 61.333 -7.66699 100.5 -23 117.5s-47 25.5 -95 25.5h-80zM490 1734c0 27.333 9.66699 51 29 71s42.333 30 69 30s50 -10.167 70 -30.5
s30 -43.833 30 -70.5c0 -28 -9.66699 -51.667 -29 -71s-43 -29 -71 -29s-51.333 9.66699 -70 29s-28 43 -28 71zM840 1734c0 26.667 10 50.167 30 70.5s43.333 30.5 70 30.5s49.667 -10 69 -30s29 -43.667 29 -71c0 -28 -9.33301 -51.667 -28 -71s-42 -29 -70 -29
s-51.667 9.66699 -71 29s-29 43 -29 71z" />
    <glyph glyph-name="Yacute" unicode="&#xdd;" horiz-adv-x="1262" 
d="M-43 1381l-0.000976562 55h549v-56c-51.333 0 -88.5 -6 -111.5 -18s-34.5 -31 -34.5 -57c0 -12.667 2.5 -26.167 7.5 -40.5s13.5 -32.5 25.5 -54.5l312 -557l251 512c13.333 27.333 22.5 50.166 27.5 68.499s7.5 35.833 7.5 52.5c0 31.333 -11.667 54.833 -35 70.5
s-58 23.5 -104 23.5h-8v56h444v-56h-12c-52 0 -94.667 -12.833 -128 -38.5s-68.666 -75.5 -105.999 -149.5l-313 -627v-360c0 -62.667 8.16699 -102.334 24.5 -119.001s55.166 -25 116.499 -25h86v-61h-645v61h86c62.667 0 102 8.33301 118 25s24 56.334 24 119.001v366
l-371 670c-31.333 56.667 -61.166 93.334 -89.499 110.001s-68.833 26.667 -121.5 30zM454.999 1581l289 298.999c23.333 23.333 42 39 56 47s28 12 42 12c20 0 37 -7 51 -21s21 -30.667 21 -50c0 -14.667 -5.16699 -28.667 -15.5 -42s-25.833 -26.666 -46.5 -39.999
l-330 -205h-67z" />
    <glyph glyph-name="Thorn" unicode="&#xde;" horiz-adv-x="1262" 
d="M37 0v60.9971h80c48 0 79.833 8.83301 95.5 26.5s23.5 56.834 23.5 117.501v1032c0 61.333 -7.83301 100.5 -23.5 117.5s-47.5 25.5 -95.5 25.5h-80v56h588v-56h-82c-48 0 -79.833 -8.66699 -95.5 -26s-23.5 -56.333 -23.5 -117v-51h258
c164.667 0 291.5 -32.167 380.5 -96.5s133.5 -155.166 133.5 -272.499c0 -128.667 -46.333 -225.667 -139 -291s-230 -98 -412 -98h-221v-223c0 -63.333 8.66699 -103.166 26 -119.499s60 -24.5 128 -24.5h63v-61h-604zM424 488.997l189.999 0.000976562
c120.667 0 210 25.833 268 77.5s87 131.167 87 238.5c0 115.333 -27.5 198 -82.5 248s-147.167 75 -276.5 75c-85.333 0 -137.666 -8.33301 -156.999 -25s-29 -59.334 -29 -128.001v-486z" />
    <glyph glyph-name="germandbls" unicode="&#xdf;" horiz-adv-x="1147" 
d="M37 0v61.002h18c58.667 0 96.334 7.16699 113.001 21.5s25 51.833 25 112.5v811c0 98 6.66699 169.5 20 214.5s36 85.833 68 122.5c33.333 40 78.333 71.167 135 93.5s118.667 33.5 186 33.5c114 0 206.333 -25.167 277 -75.5s106 -115.833 106 -196.5
c0 -64 -27.667 -120.5 -83 -169.5s-128.666 -81.167 -219.999 -96.5c120 -22.667 209 -73 267 -151s87 -186.667 87 -326c0 -138.667 -30.333 -251.5 -91 -338.5s-136.667 -130.5 -228 -130.5c-66 0 -121.833 21 -167.5 63s-68.5 92 -68.5 150c0 36 9.83301 65.5 29.5 88.5
s44.834 34.5 75.501 34.5c28.667 0 53.167 -9.83301 73.5 -29.5s30.5 -42.834 30.5 -69.501c0 -30.667 -12.667 -57.5 -38 -80.5s-38 -39.167 -38 -48.5c0 -15.333 7.66699 -28.666 23 -39.999s33.666 -17 54.999 -17c51.333 0 87.833 26.5 109.5 79.5
s32.5 146.5 32.5 280.5c0 204 -21.167 339 -63.5 405s-120.833 99 -235.5 99h-17v53c3.33301 0 8.16602 -0.333008 14.499 -1s11.166 -1 14.499 -1c72 0 129.167 21.167 171.5 63.5s63.5 99.166 63.5 170.499c0 70.667 -18.167 126.5 -54.5 167.5s-85.5 61.5 -147.5 61.5
c-76.667 0 -130 -26.667 -160 -80s-45 -161 -45 -323v-817c0 -58.667 7 -95.334 21 -110.001s41.667 -22 83 -22h13v-63h-455z" />
    <glyph glyph-name="agrave" unicode="&#xe0;" horiz-adv-x="1100" 
d="M82 252c0 73.333 24.833 133.166 74.5 179.499s134.834 87.5 255.501 123.5c61.333 18.667 114.333 37.334 159 56.001s85 39 121 61v67c0 89.333 -15.667 151 -47 185s-86 51 -164 51c-57.333 0 -105 -9.16699 -143 -27.5s-57 -40.5 -57 -66.5
c0 -17.333 19.333 -38 58 -62s58 -54 58 -90c0 -30 -11.833 -55.5 -35.5 -76.5s-52.834 -31.5 -87.501 -31.5c-40.667 0 -74 14 -100 42s-39 65 -39 111c0 77.333 35.5 139.666 106.5 186.999s165.833 71 284.5 71c126.667 0 216.834 -25.833 270.501 -77.5
s80.5 -141.167 80.5 -268.5v-475c0 -55.333 5.33301 -92.333 16 -111s29.667 -28 57 -28c26.667 0 46 9.5 58 28.5s18 49.833 18 92.5v108h57v-100c0 -73.333 -16.667 -128.166 -50 -164.499s-83.333 -54.5 -150 -54.5c-55.333 0 -99 15.333 -131 46
s-52.667 77.334 -62 140.001c-38 -60 -85.333 -106 -142 -138s-119.334 -48 -188.001 -48c-82 0 -148.833 25.167 -200.5 75.5s-77.5 115.166 -77.5 194.499zM243 1432c0 19.333 7 36.001 21 50.001s31 21 51 21c14 0 28 -4 42 -12s32.667 -23.667 56 -47l289 -299h-67
l-330 205c-20.667 13.333 -36.167 26.666 -46.5 39.999s-15.5 27.333 -15.5 42zM289 258.001c0 -58 13.5 -103.5 40.5 -136.5s63.833 -49.5 110.5 -49.5c54.667 0 105 21.167 151 63.5s79.667 98.833 101 169.5v301c-28 -14 -67.333 -32.667 -118 -56
c-190 -88.667 -285 -186 -285 -292z" />
    <glyph glyph-name="aacute" unicode="&#xe1;" horiz-adv-x="1100" 
d="M82 252c0 73.333 24.833 133.166 74.5 179.499s134.834 87.5 255.501 123.5c61.333 18.667 114.333 37.334 159 56.001s85 39 121 61v67c0 89.333 -15.667 151 -47 185s-86 51 -164 51c-57.333 0 -105 -9.16699 -143 -27.5s-57 -40.5 -57 -66.5
c0 -17.333 19.333 -38 58 -62s58 -54 58 -90c0 -30 -11.833 -55.5 -35.5 -76.5s-52.834 -31.5 -87.501 -31.5c-40.667 0 -74 14 -100 42s-39 65 -39 111c0 77.333 35.5 139.666 106.5 186.999s165.833 71 284.5 71c126.667 0 216.834 -25.833 270.501 -77.5
s80.5 -141.167 80.5 -268.5v-475c0 -55.333 5.33301 -92.333 16 -111s29.667 -28 57 -28c26.667 0 46 9.5 58 28.5s18 49.833 18 92.5v108h57v-100c0 -73.333 -16.667 -128.166 -50 -164.499s-83.333 -54.5 -150 -54.5c-55.333 0 -99 15.333 -131 46
s-52.667 77.334 -62 140.001c-38 -60 -85.333 -106 -142 -138s-119.334 -48 -188.001 -48c-82 0 -148.833 25.167 -200.5 75.5s-77.5 115.166 -77.5 194.499zM289 258c0 -58 13.5 -103.5 40.5 -136.5s63.833 -49.5 110.5 -49.5c54.667 0 105 21.167 151 63.5
s79.667 98.833 101 169.5v301c-28 -14 -67.333 -32.667 -118 -56c-190 -88.667 -285 -186 -285 -292zM350 1145l289 298.999c23.333 23.333 42 39 56 47s28 12 42 12c20 0 37 -7 51 -21s21 -30.667 21 -50c0 -14.667 -5.16699 -28.667 -15.5 -42
s-25.833 -26.666 -46.5 -39.999l-330 -205h-67z" />
    <glyph glyph-name="acircumflex" unicode="&#xe2;" horiz-adv-x="1100" 
d="M82 252c0 73.333 24.833 133.166 74.5 179.499s134.834 87.5 255.501 123.5c61.333 18.667 114.333 37.334 159 56.001s85 39 121 61v67c0 89.333 -15.667 151 -47 185s-86 51 -164 51c-57.333 0 -105 -9.16699 -143 -27.5s-57 -40.5 -57 -66.5
c0 -17.333 19.333 -38 58 -62s58 -54 58 -90c0 -30 -11.833 -55.5 -35.5 -76.5s-52.834 -31.5 -87.501 -31.5c-40.667 0 -74 14 -100 42s-39 65 -39 111c0 77.333 35.5 139.666 106.5 186.999s165.833 71 284.5 71c126.667 0 216.834 -25.833 270.501 -77.5
s80.5 -141.167 80.5 -268.5v-475c0 -55.333 5.33301 -92.333 16 -111s29.667 -28 57 -28c26.667 0 46 9.5 58 28.5s18 49.833 18 92.5v108h57v-100c0 -73.333 -16.667 -128.166 -50 -164.499s-83.333 -54.5 -150 -54.5c-55.333 0 -99 15.333 -131 46
s-52.667 77.334 -62 140.001c-38 -60 -85.333 -106 -142 -138s-119.334 -48 -188.001 -48c-82 0 -148.833 25.167 -200.5 75.5s-77.5 115.166 -77.5 194.499zM235 1145l232 348h118l232 -348h-58l-233 209l-233 -209h-58zM289 258c0 -58 13.5 -103.5 40.5 -136.5
s63.833 -49.5 110.5 -49.5c54.667 0 105 21.167 151 63.5s79.667 98.833 101 169.5v301c-28 -14 -67.333 -32.667 -118 -56c-190 -88.667 -285 -186 -285 -292z" />
    <glyph glyph-name="atilde" unicode="&#xe3;" horiz-adv-x="1100" 
d="M82 252c0 73.333 24.833 133.166 74.5 179.499s134.834 87.5 255.501 123.5c61.333 18.667 114.333 37.334 159 56.001s85 39 121 61v67c0 89.333 -15.667 151 -47 185s-86 51 -164 51c-57.333 0 -105 -9.16699 -143 -27.5s-57 -40.5 -57 -66.5
c0 -17.333 19.333 -38 58 -62s58 -54 58 -90c0 -30 -11.833 -55.5 -35.5 -76.5s-52.834 -31.5 -87.501 -31.5c-40.667 0 -74 14 -100 42s-39 65 -39 111c0 77.333 35.5 139.666 106.5 186.999s165.833 71 284.5 71c126.667 0 216.834 -25.833 270.501 -77.5
s80.5 -141.167 80.5 -268.5v-475c0 -55.333 5.33301 -92.333 16 -111s29.667 -28 57 -28c26.667 0 46 9.5 58 28.5s18 49.833 18 92.5v108h57v-100c0 -73.333 -16.667 -128.166 -50 -164.499s-83.333 -54.5 -150 -54.5c-55.333 0 -99 15.333 -131 46
s-52.667 77.334 -62 140.001c-38 -60 -85.333 -106 -142 -138s-119.334 -48 -188.001 -48c-82 0 -148.833 25.167 -200.5 75.5s-77.5 115.166 -77.5 194.499zM239 1190c12.667 70.667 35.3301 123.833 67.9971 159.5s75.667 53.5 129 53.5c12.667 0 24 -0.666992 34 -2
s19.667 -3.33301 29 -6l111 -29c16 -4 27.833 -6.66699 35.5 -8s14.167 -2 19.5 -2c24.667 0 43.834 6.16699 57.501 18.5s25.834 34.833 36.501 67.5h54c-13.333 -68.667 -36.166 -120 -68.499 -154s-74.5 -51 -126.5 -51c-9.33301 0 -20.166 0.833008 -32.499 2.5
s-25.833 4.16699 -40.5 7.5l-109 27c-8 2 -16.833 3.5 -26.5 4.5s-19.834 1.5 -30.501 1.5c-22 0 -39.833 -7 -53.5 -21s-25.5 -37 -35.5 -69h-51zM288.996 257.999c0 -58 13.5 -103.5 40.5 -136.5s63.833 -49.5 110.5 -49.5c54.667 0 105 21.167 151 63.5
s79.667 98.833 101 169.5v301c-28 -14 -67.333 -32.667 -118 -56c-190 -88.667 -285 -186 -285 -292z" />
    <glyph glyph-name="adieresis" unicode="&#xe4;" horiz-adv-x="1100" 
d="M82 252c0 73.333 24.833 133.166 74.5 179.499s134.834 87.5 255.501 123.5c61.333 18.667 114.333 37.334 159 56.001s85 39 121 61v67c0 89.333 -15.667 151 -47 185s-86 51 -164 51c-57.333 0 -105 -9.16699 -143 -27.5s-57 -40.5 -57 -66.5
c0 -17.333 19.333 -38 58 -62s58 -54 58 -90c0 -30 -11.833 -55.5 -35.5 -76.5s-52.834 -31.5 -87.501 -31.5c-40.667 0 -74 14 -100 42s-39 65 -39 111c0 77.333 35.5 139.666 106.5 186.999s165.833 71 284.5 71c126.667 0 216.834 -25.833 270.501 -77.5
s80.5 -141.167 80.5 -268.5v-475c0 -55.333 5.33301 -92.333 16 -111s29.667 -28 57 -28c26.667 0 46 9.5 58 28.5s18 49.833 18 92.5v108h57v-100c0 -73.333 -16.667 -128.166 -50 -164.499s-83.333 -54.5 -150 -54.5c-55.333 0 -99 15.333 -131 46
s-52.667 77.334 -62 140.001c-38 -60 -85.333 -106 -142 -138s-119.334 -48 -188.001 -48c-82 0 -148.833 25.167 -200.5 75.5s-77.5 115.166 -77.5 194.499zM252 1298c0 27.333 9.66699 51 29 71s42.333 30 69 30s50 -10.167 70 -30.5s30 -43.833 30 -70.5
c0 -28 -9.66699 -51.667 -29 -71s-43 -29 -71 -29s-51.333 9.66699 -70 29s-28 43 -28 71zM289 258c0 -58 13.5 -103.5 40.5 -136.5s63.833 -49.5 110.5 -49.5c54.667 0 105 21.167 151 63.5s79.667 98.833 101 169.5v301c-28 -14 -67.333 -32.667 -118 -56
c-190 -88.667 -285 -186 -285 -292zM602 1298c0 26.667 10 50.167 30 70.5s43.333 30.5 70 30.5s49.667 -10 69 -30s29 -43.667 29 -71c0 -28 -9.33301 -51.667 -28 -71s-42 -29 -70 -29s-51.667 9.66699 -71 29s-29 43 -29 71z" />
    <glyph glyph-name="aring" unicode="&#xe5;" horiz-adv-x="1100" 
d="M82 252c0 73.333 24.833 133.166 74.5 179.499s134.834 87.5 255.501 123.5c61.333 18.667 114.333 37.334 159 56.001s85 39 121 61v67c0 89.333 -15.667 151 -47 185s-86 51 -164 51c-57.333 0 -105 -9.16699 -143 -27.5s-57 -40.5 -57 -66.5
c0 -17.333 19.333 -38 58 -62s58 -54 58 -90c0 -30 -11.833 -55.5 -35.5 -76.5s-52.834 -31.5 -87.501 -31.5c-40.667 0 -74 14 -100 42s-39 65 -39 111c0 77.333 35.5 139.666 106.5 186.999s165.833 71 284.5 71c126.667 0 216.834 -25.833 270.501 -77.5
s80.5 -141.167 80.5 -268.5v-475c0 -55.333 5.33301 -92.333 16 -111s29.667 -28 57 -28c26.667 0 46 9.5 58 28.5s18 49.833 18 92.5v108h57v-100c0 -73.333 -16.667 -128.166 -50 -164.499s-83.333 -54.5 -150 -54.5c-55.333 0 -99 15.333 -131 46
s-52.667 77.334 -62 140.001c-38 -60 -85.333 -106 -142 -138s-119.334 -48 -188.001 -48c-82 0 -148.833 25.167 -200.5 75.5s-77.5 115.166 -77.5 194.499zM272 1341c0 67.333 23.333 124.168 70 170.501s103.334 69.5 170.001 69.5s123.667 -23.333 171 -70
s71 -103.334 71 -170.001s-23.5 -123.5 -70.5 -170.5s-104.167 -70.5 -171.5 -70.5c-66.667 0 -123.334 23.333 -170.001 70s-70 103.667 -70 171zM289 258.002c0 -58 13.5 -103.5 40.5 -136.5s63.833 -49.5 110.5 -49.5c54.667 0 105 21.167 151 63.5
s79.667 98.833 101 169.5v301c-28 -14 -67.333 -32.667 -118 -56c-190 -88.667 -285 -186 -285 -292zM365 1339c0 -40.667 14.333 -75.333 43 -104s63.334 -43 104.001 -43c41.333 0 77 14.5 107 43.5s45 63.5 45 103.5c0 42 -15 77.833 -45 107.5s-65.667 44.5 -107 44.5
c-40.667 0 -75.334 -14.833 -104.001 -44.5s-43 -65.5 -43 -107.5z" />
    <glyph glyph-name="ae" unicode="&#xe6;" horiz-adv-x="1597" 
d="M82 252c0 72 24.168 130.831 72.501 176.498s134.166 87.834 257.499 126.501c70 22 125.333 41.667 166 59s78.667 36.666 114 57.999v67c0 88.667 -15.667 149.834 -47 183.501s-86 50.5 -164 50.5c-57.333 0 -105 -9 -143 -27s-57 -39.667 -57 -65
c0 -17.333 19.333 -38 58 -62s58 -54 58 -90c0 -30 -11.833 -55.5 -35.5 -76.5s-52.834 -31.5 -87.501 -31.5c-40.667 0 -74 14 -100 42s-39 65 -39 111c0 78 35.167 140.5 105.5 187.5s164.166 70.5 281.499 70.5c68 0 127 -8.66699 177 -26s92 -43.333 126 -78
c46.667 38 91.834 65.167 135.501 81.5s90.834 24.5 141.501 24.5c130 0 235 -47.833 315 -143.5s121 -223.167 123 -382.5h-663v-8c0 -147.333 24.5 -258 73.5 -332s122.5 -111 220.5 -111c75.333 0 139.833 24.167 193.5 72.5s91.834 115.833 114.501 202.5h57
c-19.333 -109.333 -65.666 -196.166 -138.999 -260.499s-163 -96.5 -269 -96.5c-86.667 0 -165.334 20.5 -236.001 61.5s-128.334 99.833 -173.001 176.5c-40.667 -76 -91.167 -133.5 -151.5 -172.5s-128.833 -58.5 -205.5 -58.5c-82.667 0 -150 25 -202 75s-78 115 -78 195
zM289.001 257.998c0 -58 13.5 -103.5 40.5 -136.5s63.833 -49.5 110.5 -49.5c54.667 0 105 21.167 151 63.5s79.667 98.833 101 169.5v301c-28 -14 -67.333 -32.667 -118 -56c-190 -88.667 -285 -186 -285 -292zM877.001 562.998h452v41c0 118 -20 209 -60 273
s-96.333 96 -169 96s-128 -33.5 -166 -100.5s-57 -163.833 -57 -290.5v-19z" />
    <glyph glyph-name="ccedilla" unicode="&#xe7;" horiz-adv-x="958" 
d="M72 498c0 155.333 44.8311 283.5 134.498 384.5s203.167 151.5 340.5 151.5c98.667 0 182.334 -29.333 251.001 -88s103 -129.667 103 -213c0 -47.333 -13.5 -86.5 -40.5 -117.5s-60.5 -46.5 -100.5 -46.5c-34 0 -63.333 12.5 -88 37.5s-37 54.167 -37 87.5
s15.667 64.833 47 94.5s47 52.167 47 67.5c0 30.667 -16.167 58.5 -48.5 83.5s-70.833 37.5 -115.5 37.5c-86.667 0 -152.667 -38.167 -198 -114.5s-68 -188.5 -68 -336.5c0 -156 24.167 -274.833 72.5 -356.5s118.5 -122.5 210.5 -122.5c74 0 136.333 28.667 187 86
s80.334 133.666 89.001 228.999h57c-8.66699 -119.333 -46.667 -213.666 -114 -282.999s-154 -104 -260 -104c-136.667 0 -249 49 -337 147s-132 223.333 -132 376zM275.998 -371l35.001 78.002c39.333 -22.667 79 -40.334 119 -53.001s74.667 -19 104 -19
c42 0 72.667 7.5 92 22.5s29 38.5 29 70.5c0 27.333 -9.66699 49.166 -29 65.499s-45.666 24.5 -78.999 24.5c-7.33301 0 -16.5 -0.5 -27.5 -1.5s-23.833 -2.5 -38.5 -4.5v188h64v-112c16 2 29.5 3.33301 40.5 4s20.5 1.33398 28.5 2.00098c53.333 0 95.666 -15 126.999 -45
s47 -69.667 47 -119c0 -55.333 -19.333 -98.5 -58 -129.5s-92.334 -46.5 -161.001 -46.5c-36 0 -75.167 5.16699 -117.5 15.5s-100.833 30.166 -175.5 59.499z" />
    <glyph glyph-name="egrave" unicode="&#xe8;" horiz-adv-x="1014" 
d="M72 504c0 154 42.1641 280.832 126.497 380.499s190.833 149.5 319.5 149.5c130 0 235.333 -47.833 316 -143.5s122 -223.167 124 -382.5h-665v-8c0 -147.333 24.5 -258 73.5 -332s122.833 -111 221.5 -111c74.667 0 139.334 24.167 194.001 72.5s93 115.833 115 202.5
h55c-19.333 -109.333 -65.666 -196.166 -138.999 -260.499s-162.666 -96.5 -267.999 -96.5c-142.667 0 -257.167 48 -343.5 144s-129.5 224.333 -129.5 385zM224.997 1432c0 19.333 7 36.001 21 50.001s31 21 51 21c14 0 28 -4 42 -12s32.667 -23.667 56 -47l289 -299h-67
l-330 205c-20.667 13.333 -36.167 26.666 -46.5 39.999s-15.5 27.333 -15.5 42zM292.997 563h452v41c0 118 -19.833 209 -59.5 273s-96.167 96 -169.5 96c-72 0 -127.167 -33.5 -165.5 -100.5s-57.5 -163.833 -57.5 -290.5v-19z" />
    <glyph glyph-name="eacute" unicode="&#xe9;" horiz-adv-x="1014" 
d="M72 504c0 154 42.1641 280.832 126.497 380.499s190.833 149.5 319.5 149.5c130 0 235.333 -47.833 316 -143.5s122 -223.167 124 -382.5h-665v-8c0 -147.333 24.5 -258 73.5 -332s122.833 -111 221.5 -111c74.667 0 139.334 24.167 194.001 72.5s93 115.833 115 202.5
h55c-19.333 -109.333 -65.666 -196.166 -138.999 -260.499s-162.666 -96.5 -267.999 -96.5c-142.667 0 -257.167 48 -343.5 144s-129.5 224.333 -129.5 385zM292.997 562.999h452v41c0 118 -19.833 209 -59.5 273s-96.167 96 -169.5 96c-72 0 -127.167 -33.5 -165.5 -100.5
s-57.5 -163.833 -57.5 -290.5v-19zM331.997 1145l289 298.999c23.333 23.333 42 39 56 47s28 12 42 12c20 0 37 -7 51 -21s21 -30.667 21 -50c0 -14.667 -5.16699 -28.667 -15.5 -42s-25.833 -26.666 -46.5 -39.999l-330 -205h-67z" />
    <glyph glyph-name="ecircumflex" unicode="&#xea;" horiz-adv-x="1014" 
d="M72 504c0 154 42.1641 280.832 126.497 380.499s190.833 149.5 319.5 149.5c130 0 235.333 -47.833 316 -143.5s122 -223.167 124 -382.5h-665v-8c0 -147.333 24.5 -258 73.5 -332s122.833 -111 221.5 -111c74.667 0 139.334 24.167 194.001 72.5s93 115.833 115 202.5
h55c-19.333 -109.333 -65.666 -196.166 -138.999 -260.499s-162.666 -96.5 -267.999 -96.5c-142.667 0 -257.167 48 -343.5 144s-129.5 224.333 -129.5 385zM216.997 1145l232 348h118l232 -348h-58l-233 209l-233 -209h-58zM292.997 562.999h452v41
c0 118 -19.833 209 -59.5 273s-96.167 96 -169.5 96c-72 0 -127.167 -33.5 -165.5 -100.5s-57.5 -163.833 -57.5 -290.5v-19z" />
    <glyph glyph-name="edieresis" unicode="&#xeb;" horiz-adv-x="1014" 
d="M72 504c0 154 42.1641 280.832 126.497 380.499s190.833 149.5 319.5 149.5c130 0 235.333 -47.833 316 -143.5s122 -223.167 124 -382.5h-665v-8c0 -147.333 24.5 -258 73.5 -332s122.833 -111 221.5 -111c74.667 0 139.334 24.167 194.001 72.5s93 115.833 115 202.5
h55c-19.333 -109.333 -65.666 -196.166 -138.999 -260.499s-162.666 -96.5 -267.999 -96.5c-142.667 0 -257.167 48 -343.5 144s-129.5 224.333 -129.5 385zM233.997 1298c0 27.333 9.66699 51 29 71s42.333 30 69 30s50 -10.167 70 -30.5s30 -43.833 30 -70.5
c0 -28 -9.66699 -51.667 -29 -71s-43 -29 -71 -29s-51.333 9.66699 -70 29s-28 43 -28 71zM292.997 562.999h452v41c0 118 -19.833 209 -59.5 273s-96.167 96 -169.5 96c-72 0 -127.167 -33.5 -165.5 -100.5s-57.5 -163.833 -57.5 -290.5v-19zM583.997 1298
c0 26.667 10 50.167 30 70.5s43.333 30.5 70 30.5s49.667 -10 69 -30s29 -43.667 29 -71c0 -28 -9.33301 -51.667 -28 -71s-42 -29 -70 -29s-51.667 9.66699 -71 29s-29 43 -29 71z" />
    <glyph glyph-name="igrave" unicode="&#xec;" horiz-adv-x="584" 
d="M-4 1432c0 19.333 7 36.001 21 50.001s31 21 51 21c14 0 28 -4 42 -12s32.667 -23.667 56 -47l289 -299h-67l-330 205c-20.667 13.333 -36.167 26.666 -46.5 39.999s-15.5 27.333 -15.5 42zM53 0.000976562v60.999h56c44.667 0 73.5 6.66699 86.5 20s19.5 43 19.5 89v682
c0 38.667 -6.66699 64.334 -20 77.001s-42 19 -86 19h-56v62c54.667 0 110.5 0.833008 167.5 2.5s116.5 4.16699 178.5 7.5v-850c0 -46.667 6.66699 -76.5 20 -89.5s42.333 -19.5 87 -19.5h57v-61h-510z" />
    <glyph glyph-name="iacute" unicode="&#xed;" horiz-adv-x="584" 
d="M53 0v60.999h56c44.667 0 73.5 6.66699 86.5 20s19.5 43 19.5 89v682c0 38.667 -6.66699 64.334 -20 77.001s-42 19 -86 19h-56v62c54.667 0 110.5 0.833008 167.5 2.5s116.5 4.16699 178.5 7.5v-850c0 -46.667 6.66699 -76.5 20 -89.5s42.333 -19.5 87 -19.5h57v-61
h-510zM103 1145l289 298.999c23.333 23.333 42 39 56 47s28 12 42 12c20 0 37 -7 51 -21s21 -30.667 21 -50c0 -14.667 -5.16699 -28.667 -15.5 -42s-25.833 -26.666 -46.5 -39.999l-330 -205h-67z" />
    <glyph glyph-name="icircumflex" unicode="&#xee;" horiz-adv-x="584" 
d="M-12 1145l232 348h118l232 -348h-58l-233 209l-233 -209h-58zM53 0v60.999h56c44.667 0 73.5 6.66699 86.5 20s19.5 43 19.5 89v682c0 38.667 -6.66699 64.334 -20 77.001s-42 19 -86 19h-56v62c54.667 0 110.5 0.833008 167.5 2.5s116.5 4.16699 178.5 7.5v-850
c0 -46.667 6.66699 -76.5 20 -89.5s42.333 -19.5 87 -19.5h57v-61h-510z" />
    <glyph glyph-name="idieresis" unicode="&#xef;" horiz-adv-x="584" 
d="M5 1298c0 27.333 9.66699 51 29 71s42.333 30 69 30s50 -10.167 70 -30.5s30 -43.833 30 -70.5c0 -28 -9.66699 -51.667 -29 -71s-43 -29 -71 -29s-51.333 9.66699 -70 29s-28 43 -28 71zM53 0v60.999h56c44.667 0 73.5 6.66699 86.5 20s19.5 43 19.5 89v682
c0 38.667 -6.66699 64.334 -20 77.001s-42 19 -86 19h-56v62c54.667 0 110.5 0.833008 167.5 2.5s116.5 4.16699 178.5 7.5v-850c0 -46.667 6.66699 -76.5 20 -89.5s42.333 -19.5 87 -19.5h57v-61h-510zM355 1298c0 26.667 10 50.167 30 70.5s43.333 30.5 70 30.5
s49.667 -10 69 -30s29 -43.667 29 -71c0 -28 -9.33301 -51.667 -28 -71s-42 -29 -70 -29s-51.667 9.66699 -71 29s-29 43 -29 71z" />
    <glyph glyph-name="eth" unicode="&#xf0;" horiz-adv-x="1053" 
d="M72 483c0 140.667 44.834 260.5 134.501 359.5s196.167 148.5 319.5 148.5c27.333 0 53.666 -3 78.999 -9s51 -15.333 77 -28c-14.667 43.333 -30.667 85.666 -48 126.999s-37 82.333 -59 123l-280 -112l-21 53l275 112c-19.333 32.667 -38.333 62.834 -57 90.501
s-38 54.167 -58 79.5l58 46l84 -94l71 -83l281 111l22 -49l-264 -109c99.333 -143.333 173.333 -276.333 222 -399s73 -238 73 -346c0 -150.667 -44.167 -276.167 -132.5 -376.5s-195.833 -150.5 -322.5 -150.5c-123.333 0 -229.833 49.333 -319.5 148
s-134.5 218 -134.5 358zM299.001 483c0 -159.333 17.999 -274.166 53.999 -344.499s93.667 -105.5 173 -105.5c80 0 138 35.167 174 105.5s54 185.166 54 344.499c0 160 -18.167 275.5 -54.5 346.5s-94.166 106.5 -173.499 106.5s-137 -35.5 -173 -106.5
s-54 -186.5 -54 -346.5z" />
    <glyph glyph-name="ntilde" unicode="&#xf1;" horiz-adv-x="1147" 
d="M49 0l-0.000976562 60.998h55c45.333 0 74.5 6.66699 87.5 20s19.5 43 19.5 89v682c0 38.667 -6.66699 64.334 -20 77.001s-42.333 19 -87 19h-55v62c54.667 0 110.5 0.833008 167.5 2.5s116.5 4.16699 178.5 7.5v-166c32.667 54.667 74.834 97.334 126.501 128.001
s106.5 46 164.5 46c96 0 164.667 -28 206 -84s62 -152.333 62 -289v-485c0 -45.333 6.16699 -74.833 18.5 -88.5s44.5 -20.5 96.5 -20.5h43v-61h-491v61h43c44.667 0 73.5 6.66699 86.5 20s19.5 43 19.5 89v547c0 76.667 -11.833 132.334 -35.5 167.001s-61.5 52 -113.5 52
c-72.667 0 -128.5 -27.833 -167.5 -83.5s-58.5 -135.834 -58.5 -240.501v-442c0 -46.667 6.66699 -76.5 20 -89.5s42.333 -19.5 87 -19.5h43v-61h-496zM285.999 1190c12.667 70.667 35.3301 123.833 67.9971 159.5s75.667 53.5 129 53.5c12.667 0 24 -0.666992 34 -2
s19.667 -3.33301 29 -6l111 -29c16 -4 27.833 -6.66699 35.5 -8s14.167 -2 19.5 -2c24.667 0 43.834 6.16699 57.501 18.5s25.834 34.833 36.501 67.5h54c-13.333 -68.667 -36.166 -120 -68.499 -154s-74.5 -51 -126.5 -51c-9.33301 0 -20.166 0.833008 -32.499 2.5
s-25.833 4.16699 -40.5 7.5l-109 27c-8 2 -16.833 3.5 -26.5 4.5s-19.834 1.5 -30.501 1.5c-22 0 -39.833 -7 -53.5 -21s-25.5 -37 -35.5 -69h-51z" />
    <glyph glyph-name="ograve" unicode="&#xf2;" horiz-adv-x="1053" 
d="M72 506c0 145.333 44.833 269.333 134.5 372s196.167 154 319.5 154s230 -51.333 320 -154s135 -226.667 135 -372c0 -146 -45 -270.667 -135 -374s-196.667 -155 -320 -155s-229.833 51.667 -319.5 155s-134.5 228 -134.5 374zM243 1432c0 19.333 7 36.001 21 50.001
s31 21 51 21c14 0 28 -4 42 -12s32.667 -23.667 56 -47l289 -299h-67l-330 205c-20.667 13.333 -36.167 26.666 -46.5 39.999s-15.5 27.333 -15.5 42zM299 506.001c0 -166.667 18 -286.834 54 -360.501s93.667 -110.5 173 -110.5c80 0 138 36.833 174 110.5
s54 193.834 54 360.501c0 166 -18 286 -54 360s-94 111 -174 111c-79.333 0 -137 -37 -173 -111s-54 -194 -54 -360z" />
    <glyph glyph-name="oacute" unicode="&#xf3;" horiz-adv-x="1053" 
d="M72 506c0 145.333 44.833 269.333 134.5 372s196.167 154 319.5 154s230 -51.333 320 -154s135 -226.667 135 -372c0 -146 -45 -270.667 -135 -374s-196.667 -155 -320 -155s-229.833 51.667 -319.5 155s-134.5 228 -134.5 374zM299 506
c0 -166.667 18 -286.834 54 -360.501s93.667 -110.5 173 -110.5c80 0 138 36.833 174 110.5s54 193.834 54 360.501c0 166 -18 286 -54 360s-94 111 -174 111c-79.333 0 -137 -37 -173 -111s-54 -194 -54 -360zM350 1145l289 298.999c23.333 23.333 42 39 56 47s28 12 42 12
c20 0 37 -7 51 -21s21 -30.667 21 -50c0 -14.667 -5.16699 -28.667 -15.5 -42s-25.833 -26.666 -46.5 -39.999l-330 -205h-67z" />
    <glyph glyph-name="ocircumflex" unicode="&#xf4;" horiz-adv-x="1053" 
d="M72 506c0 145.333 44.833 269.333 134.5 372s196.167 154 319.5 154s230 -51.333 320 -154s135 -226.667 135 -372c0 -146 -45 -270.667 -135 -374s-196.667 -155 -320 -155s-229.833 51.667 -319.5 155s-134.5 228 -134.5 374zM235 1145l232 348h118l232 -348h-58
l-233 209l-233 -209h-58zM299 506c0 -166.667 18 -286.834 54 -360.501s93.667 -110.5 173 -110.5c80 0 138 36.833 174 110.5s54 193.834 54 360.501c0 166 -18 286 -54 360s-94 111 -174 111c-79.333 0 -137 -37 -173 -111s-54 -194 -54 -360z" />
    <glyph glyph-name="otilde" unicode="&#xf5;" horiz-adv-x="1053" 
d="M72 506c0 145.333 44.833 269.333 134.5 372s196.167 154 319.5 154s230 -51.333 320 -154s135 -226.667 135 -372c0 -146 -45 -270.667 -135 -374s-196.667 -155 -320 -155s-229.833 51.667 -319.5 155s-134.5 228 -134.5 374zM239 1190
c12.667 70.667 35.3301 123.833 67.9971 159.5s75.667 53.5 129 53.5c12.667 0 24 -0.666992 34 -2s19.667 -3.33301 29 -6l111 -29c16 -4 27.833 -6.66699 35.5 -8s14.167 -2 19.5 -2c24.667 0 43.834 6.16699 57.501 18.5s25.834 34.833 36.501 67.5h54
c-13.333 -68.667 -36.166 -120 -68.499 -154s-74.5 -51 -126.5 -51c-9.33301 0 -20.166 0.833008 -32.499 2.5s-25.833 4.16699 -40.5 7.5l-109 27c-8 2 -16.833 3.5 -26.5 4.5s-19.834 1.5 -30.501 1.5c-22 0 -39.833 -7 -53.5 -21s-25.5 -37 -35.5 -69h-51z
M298.996 505.999c0 -166.667 18 -286.834 54 -360.501s93.667 -110.5 173 -110.5c80 0 138 36.833 174 110.5s54 193.834 54 360.501c0 166 -18 286 -54 360s-94 111 -174 111c-79.333 0 -137 -37 -173 -111s-54 -194 -54 -360z" />
    <glyph glyph-name="odieresis" unicode="&#xf6;" horiz-adv-x="1053" 
d="M72 506c0 145.333 44.833 269.333 134.5 372s196.167 154 319.5 154s230 -51.333 320 -154s135 -226.667 135 -372c0 -146 -45 -270.667 -135 -374s-196.667 -155 -320 -155s-229.833 51.667 -319.5 155s-134.5 228 -134.5 374zM252 1298c0 27.333 9.66699 51 29 71
s42.333 30 69 30s50 -10.167 70 -30.5s30 -43.833 30 -70.5c0 -28 -9.66699 -51.667 -29 -71s-43 -29 -71 -29s-51.333 9.66699 -70 29s-28 43 -28 71zM299 506c0 -166.667 18 -286.834 54 -360.501s93.667 -110.5 173 -110.5c80 0 138 36.833 174 110.5
s54 193.834 54 360.501c0 166 -18 286 -54 360s-94 111 -174 111c-79.333 0 -137 -37 -173 -111s-54 -194 -54 -360zM602 1298c0 26.667 10 50.167 30 70.5s43.333 30.5 70 30.5s49.667 -10 69 -30s29 -43.667 29 -71c0 -28 -9.33301 -51.667 -28 -71s-42 -29 -70 -29
s-51.667 9.66699 -71 29s-29 43 -29 71z" />
    <glyph glyph-name="divide" unicode="&#xf7;" horiz-adv-x="1706" 
d="M254 541v139h1198v-139h-1198zM729 242c0 34 12.333 63.333 37 88s54 37 88 37s63.333 -12.333 88 -37s37 -54 37 -88c0 -34.667 -12.167 -64.167 -36.5 -88.5s-53.833 -36.5 -88.5 -36.5c-35.333 0 -65 12 -89 36s-36 53.667 -36 89zM729 979
c0 34.667 12.333 64.5 37 89.5s54 37.5 88 37.5s63.333 -12.5 88 -37.5s37 -54.833 37 -89.5c0 -34 -12.167 -63.333 -36.5 -88s-53.833 -37 -88.5 -37s-64.167 12.167 -88.5 36.5s-36.5 53.833 -36.5 88.5z" />
    <glyph glyph-name="oslash" unicode="&#xf8;" horiz-adv-x="1053" 
d="M37 0l145 160c-35.333 46.667 -62.5 100 -81.5 160s-28.5 122 -28.5 186c0 145.333 44.833 269.333 134.5 372s196.167 154 319.5 154c56 0 109.5 -11.667 160.5 -35s101.5 -59.333 151.5 -108l102 121h76l-146 -162c36 -47.333 63.5 -100.333 82.5 -159
s28.5 -119.667 28.5 -183c0 -146 -45 -270.667 -135 -374s-196.667 -155 -320 -155c-57.333 0 -112.333 12.167 -165 36.5s-100 59.5 -142 105.5l-104 -119h-78zM299 506c0 -52 0.666992 -92.333 2 -121s3.33301 -56 6 -82l424 473c-12 62 -36.333 111 -73 147
s-80.667 54 -132 54c-79.333 0 -137 -37 -173 -111s-54 -194 -54 -360zM319 229c15.333 -62 40.999 -109.834 76.999 -143.501s79.333 -50.5 130 -50.5c80 0 138 36.833 174 110.5s54 193.834 54 360.501c0 31.333 -0.666992 63.5 -2 96.5s-3.66602 67.167 -6.99902 102.5z
" />
    <glyph glyph-name="ugrave" unicode="&#xf9;" horiz-adv-x="1147" 
d="M45 948l-0.000976562 62c56 0 112 1 168 3s111.333 5 166 9v-678c0 -110.667 11 -181.667 33 -213s59.333 -47 112 -47c77.333 0 135 30.5 173 91.5s57 154.167 57 279.5v397c0 38.667 -6.66699 64.334 -20 77.001s-42.333 19 -87 19h-45v62c56 0 111.833 1 167.5 3
s111.834 5 168.501 9v-852c0 -46.667 6.66699 -76.5 20 -89.5s42 -19.5 86 -19.5h46l-1 -61c-25.333 0.666992 -51.5 1.16699 -78.5 1.5s-62.167 0.5 -105.5 0.5c-26.667 0 -52.167 -0.166992 -76.5 -0.5s-49.166 -0.833008 -74.499 -1.5v166
c-39.333 -59.333 -84.333 -103.5 -135 -132.5s-108.334 -43.5 -173.001 -43.5c-92 0 -157.167 26.333 -195.5 79s-57.5 149 -57.5 289v494c0 39.333 -6.5 65.166 -19.5 77.499s-41.5 18.5 -85.5 18.5h-43zM277.999 1432c0 19.333 7 36.001 21 50.001s31 21 51 21
c14 0 28 -4 42 -12s32.667 -23.667 56 -47l289 -299h-67l-330 205c-20.667 13.333 -36.167 26.666 -46.5 39.999s-15.5 27.333 -15.5 42z" />
    <glyph glyph-name="uacute" unicode="&#xfa;" horiz-adv-x="1147" 
d="M45 948l-0.000976562 62c56 0 112 1 168 3s111.333 5 166 9v-678c0 -110.667 11 -181.667 33 -213s59.333 -47 112 -47c77.333 0 135 30.5 173 91.5s57 154.167 57 279.5v397c0 38.667 -6.66699 64.334 -20 77.001s-42.333 19 -87 19h-45v62c56 0 111.833 1 167.5 3
s111.834 5 168.501 9v-852c0 -46.667 6.66699 -76.5 20 -89.5s42 -19.5 86 -19.5h46l-1 -61c-25.333 0.666992 -51.5 1.16699 -78.5 1.5s-62.167 0.5 -105.5 0.5c-26.667 0 -52.167 -0.166992 -76.5 -0.5s-49.166 -0.833008 -74.499 -1.5v166
c-39.333 -59.333 -84.333 -103.5 -135 -132.5s-108.334 -43.5 -173.001 -43.5c-92 0 -157.167 26.333 -195.5 79s-57.5 149 -57.5 289v494c0 39.333 -6.5 65.166 -19.5 77.499s-41.5 18.5 -85.5 18.5h-43zM384.999 1145l289 298.999c23.333 23.333 42 39 56 47s28 12 42 12
c20 0 37 -7 51 -21s21 -30.667 21 -50c0 -14.667 -5.16699 -28.667 -15.5 -42s-25.833 -26.666 -46.5 -39.999l-330 -205h-67z" />
    <glyph glyph-name="ucircumflex" unicode="&#xfb;" horiz-adv-x="1147" 
d="M45 948l-0.000976562 62c56 0 112 1 168 3s111.333 5 166 9v-678c0 -110.667 11 -181.667 33 -213s59.333 -47 112 -47c77.333 0 135 30.5 173 91.5s57 154.167 57 279.5v397c0 38.667 -6.66699 64.334 -20 77.001s-42.333 19 -87 19h-45v62c56 0 111.833 1 167.5 3
s111.834 5 168.501 9v-852c0 -46.667 6.66699 -76.5 20 -89.5s42 -19.5 86 -19.5h46l-1 -61c-25.333 0.666992 -51.5 1.16699 -78.5 1.5s-62.167 0.5 -105.5 0.5c-26.667 0 -52.167 -0.166992 -76.5 -0.5s-49.166 -0.833008 -74.499 -1.5v166
c-39.333 -59.333 -84.333 -103.5 -135 -132.5s-108.334 -43.5 -173.001 -43.5c-92 0 -157.167 26.333 -195.5 79s-57.5 149 -57.5 289v494c0 39.333 -6.5 65.166 -19.5 77.499s-41.5 18.5 -85.5 18.5h-43zM269.999 1145l232 348h118l232 -348h-58l-233 209l-233 -209h-58z
" />
    <glyph glyph-name="udieresis" unicode="&#xfc;" horiz-adv-x="1147" 
d="M45 948l-0.000976562 62c56 0 112 1 168 3s111.333 5 166 9v-678c0 -110.667 11 -181.667 33 -213s59.333 -47 112 -47c77.333 0 135 30.5 173 91.5s57 154.167 57 279.5v397c0 38.667 -6.66699 64.334 -20 77.001s-42.333 19 -87 19h-45v62c56 0 111.833 1 167.5 3
s111.834 5 168.501 9v-852c0 -46.667 6.66699 -76.5 20 -89.5s42 -19.5 86 -19.5h46l-1 -61c-25.333 0.666992 -51.5 1.16699 -78.5 1.5s-62.167 0.5 -105.5 0.5c-26.667 0 -52.167 -0.166992 -76.5 -0.5s-49.166 -0.833008 -74.499 -1.5v166
c-39.333 -59.333 -84.333 -103.5 -135 -132.5s-108.334 -43.5 -173.001 -43.5c-92 0 -157.167 26.333 -195.5 79s-57.5 149 -57.5 289v494c0 39.333 -6.5 65.166 -19.5 77.499s-41.5 18.5 -85.5 18.5h-43zM286.999 1298c0 27.333 9.66699 51 29 71s42.333 30 69 30
s50 -10.167 70 -30.5s30 -43.833 30 -70.5c0 -28 -9.66699 -51.667 -29 -71s-43 -29 -71 -29s-51.333 9.66699 -70 29s-28 43 -28 71zM636.999 1298c0 26.667 10 50.167 30 70.5s43.333 30.5 70 30.5s49.667 -10 69 -30s29 -43.667 29 -71c0 -28 -9.33301 -51.667 -28 -71
s-42 -29 -70 -29s-51.667 9.66699 -71 29s-29 43 -29 71z" />
    <glyph glyph-name="yacute" unicode="&#xfd;" horiz-adv-x="1028" 
d="M-10 -258c0 41.333 13.5 76.501 40.5 105.501s59.167 43.5 96.5 43.5c38 0 70.333 -12.167 97 -36.5s40 -53.5 40 -87.5c0 -36.667 -17 -65.334 -51 -86.001s-51 -33.667 -51 -39c0 -8 4.83301 -14.833 14.5 -20.5s21.834 -8.5 36.501 -8.5c59.333 0 113.5 30 162.5 90
s97.833 157 146.5 291l-368 831l-2 4c-36.667 82 -86.667 123 -150 123h-12v58h495v-58h-69c-30 0 -50.833 -3.5 -62.5 -10.5s-17.5 -19.167 -17.5 -36.5c0 -11.333 5 -29.333 15 -54l9 -23l246 -599l176 492c8.66699 24 15.334 47.5 20.001 70.5s7 41.167 7 54.5
c0 39.333 -10 66.833 -30 82.5s-55 23.5 -105 23.5h-12v58h405v-58h-6c-46 0 -82.333 -11.333 -109 -34s-51.667 -66 -75 -130l-306 -823c-54.667 -148.667 -110.834 -255.167 -168.501 -319.5s-124.834 -96.5 -201.501 -96.5c-59.333 0 -109.333 18.833 -150 56.5
s-61 83.167 -61 136.5zM338 1145l289 298.999c23.333 23.333 42 39 56 47s28 12 42 12c20 0 37 -7 51 -21s21 -30.667 21 -50c0 -14.667 -5.16699 -28.667 -15.5 -42s-25.833 -26.666 -46.5 -39.999l-330 -205h-67z" />
    <glyph glyph-name="thorn" unicode="&#xfe;" horiz-adv-x="1102" 
d="M6 -365l63.998 -0.000976562c44 0 71.333 5.5 82 16.5s16 40.5 16 88.5v1538c0 41.333 -6.83301 67.666 -20.5 78.999s-49.167 17 -106.5 17h-35v62c55.333 0 111.833 0.833008 169.5 2.5s116.5 4.16699 176.5 7.5v-592c36 56.667 79.5 99.834 130.5 129.501
s106.5 44.5 166.5 44.5c110.667 0 199.834 -46.833 267.501 -140.5s101.5 -218.167 101.5 -373.5s-36.167 -283.666 -108.5 -384.999s-163.166 -152 -272.499 -152c-59.333 0 -113.5 14.833 -162.5 44.5s-89.833 72.5 -122.5 128.5v-410c0 -50 6 -80 18 -90
s38.333 -15 79 -15h65v-63h-508v63zM351.998 394.999c0 -102 21.667 -182.833 65 -242.5s101 -89.5 173 -89.5c70 0 121.333 35.5 154 106.5s49 183.833 49 338.5c0 152 -16.5 263.333 -49.5 334s-84.833 106 -155.5 106c-72 0 -129.333 -30 -172 -90s-64 -142 -64 -246
v-217z" />
    <glyph glyph-name="ydieresis" unicode="&#xff;" horiz-adv-x="1028" 
d="M-10 -258c0 41.333 13.5 76.501 40.5 105.501s59.167 43.5 96.5 43.5c38 0 70.333 -12.167 97 -36.5s40 -53.5 40 -87.5c0 -36.667 -17 -65.334 -51 -86.001s-51 -33.667 -51 -39c0 -8 4.83301 -14.833 14.5 -20.5s21.834 -8.5 36.501 -8.5c59.333 0 113.5 30 162.5 90
s97.833 157 146.5 291l-368 831l-2 4c-36.667 82 -86.667 123 -150 123h-12v58h495v-58h-69c-30 0 -50.833 -3.5 -62.5 -10.5s-17.5 -19.167 -17.5 -36.5c0 -11.333 5 -29.333 15 -54l9 -23l246 -599l176 492c8.66699 24 15.334 47.5 20.001 70.5s7 41.167 7 54.5
c0 39.333 -10 66.833 -30 82.5s-55 23.5 -105 23.5h-12v58h405v-58h-6c-46 0 -82.333 -11.333 -109 -34s-51.667 -66 -75 -130l-306 -823c-54.667 -148.667 -110.834 -255.167 -168.501 -319.5s-124.834 -96.5 -201.501 -96.5c-59.333 0 -109.333 18.833 -150 56.5
s-61 83.167 -61 136.5zM240 1298c0 27.333 9.66699 51 29 71s42.333 30 69 30s50 -10.167 70 -30.5s30 -43.833 30 -70.5c0 -28 -9.66699 -51.667 -29 -71s-43 -29 -71 -29s-51.333 9.66699 -70 29s-28 43 -28 71zM590 1298c0 26.667 10 50.167 30 70.5s43.333 30.5 70 30.5
s49.667 -10 69 -30s29 -43.667 29 -71c0 -28 -9.33301 -51.667 -28 -71s-42 -29 -70 -29s-51.667 9.66699 -71 29s-29 43 -29 71z" />
    <glyph glyph-name="OE" unicode="&#x152;" horiz-adv-x="2111" 
d="M72 719c0 222.667 57.3359 402.5 172.003 539.5s264.667 205.5 450 205.5c42.667 0 112.667 -4.66699 210 -14s172.666 -14 225.999 -14h852l15 -437h-53c-20 142.667 -63 241.834 -129 297.501s-176.667 83.5 -332 83.5c-134 0 -212.667 -11 -236 -33
s-35 -78.333 -35 -169v-387h138c103.333 0 174.166 20.333 212.499 61s57.5 115.667 57.5 225h57v-639h-57c0 111.333 -19.333 187.666 -58 228.999s-109.334 62 -212.001 62h-138v-489c0 -76 11.333 -124.833 34 -146.5s90.667 -32.5 204 -32.5h27
c152.667 0 263.5 31.333 332.5 94s112.167 170 129.5 322h50l-9 -477h-860c-54 0 -128.5 -4.5 -223.5 -13.5s-162.5 -13.5 -202.5 -13.5c-185.333 0 -335.333 68.5 -450 205.5s-172 317.167 -172 540.5zM299.003 721c0 -229.333 34.165 -402.001 102.498 -518.001
s170.833 -174 307.5 -174c54.667 0 104 9.33301 148 28s79.333 45.334 106 80.001c21.333 27.333 36.5 59.833 45.5 97.5s13.5 103.5 13.5 197.5v582c0 76 -3.66699 132.833 -11 170.5s-19.333 70.167 -36 97.5c-23.333 38.667 -60.166 69.5 -110.499 92.5
s-107.166 34.5 -170.499 34.5c-130 0 -228.333 -58.167 -295 -174.5s-100 -287.5 -100 -513.5z" />
    <glyph glyph-name="oe" unicode="&#x153;" horiz-adv-x="1698" 
d="M72 506c0 145.333 44.832 269.33 134.499 371.997s196.167 154 319.5 154c63.333 0 123.666 -14.667 180.999 -44s109 -72 155 -128c46.667 58 98.5 101.5 155.5 130.5s118.5 43.5 184.5 43.5c130 0 235 -47.833 315 -143.5s121 -223.167 123 -382.5h-665v-8
c0 -147.333 24.5 -258 73.5 -332s122.833 -111 221.5 -111c74.667 0 139.334 24.167 194.001 72.5s93 115.833 115 202.5h55c-19.333 -109.333 -65.833 -196.166 -139.5 -260.499s-162.834 -96.5 -267.501 -96.5c-76.667 0 -145.667 14.833 -207 44.5
s-114.666 73.834 -159.999 132.501c-42.667 -56 -93.167 -99.5 -151.5 -130.5s-119.166 -46.5 -182.499 -46.5c-123.333 0 -229.833 51.833 -319.5 155.5s-134.5 228.834 -134.5 375.501zM298.999 505.997c0 -166.667 18 -286.834 54 -360.501s93.667 -110.5 173 -110.5
c80 0 138 36.833 174 110.5s54 193.834 54 360.501c0 166 -18 286 -54 360s-94 111 -174 111c-79.333 0 -137 -37 -173 -111s-54 -194 -54 -360zM974.999 562.997h455.001v41c0 117.333 -20 207.833 -60 271.5s-96.667 95.5 -170 95.5
c-72.667 0 -128.334 -33.333 -167.001 -100s-58 -163 -58 -289v-19z" />
    <glyph glyph-name="Ydieresis" unicode="&#x178;" horiz-adv-x="1262" 
d="M-43 1381l-0.000976562 55h549v-56c-51.333 0 -88.5 -6 -111.5 -18s-34.5 -31 -34.5 -57c0 -12.667 2.5 -26.167 7.5 -40.5s13.5 -32.5 25.5 -54.5l312 -557l251 512c13.333 27.333 22.5 50.166 27.5 68.499s7.5 35.833 7.5 52.5c0 31.333 -11.667 54.833 -35 70.5
s-58 23.5 -104 23.5h-8v56h444v-56h-12c-52 0 -94.667 -12.833 -128 -38.5s-68.666 -75.5 -105.999 -149.5l-313 -627v-360c0 -62.667 8.16699 -102.334 24.5 -119.001s55.166 -25 116.499 -25h86v-61h-645v61h86c62.667 0 102 8.33301 118 25s24 56.334 24 119.001v366
l-371 670c-31.333 56.667 -61.166 93.334 -89.499 110.001s-68.833 26.667 -121.5 30zM356.999 1734c0 27.333 9.66699 51 29 71s42.333 30 69 30s50 -10.167 70 -30.5s30 -43.833 30 -70.5c0 -28 -9.66699 -51.667 -29 -71s-43 -29 -71 -29s-51.333 9.66699 -70 29
s-28 43 -28 71zM706.999 1734c0 26.667 10 50.167 30 70.5s43.333 30.5 70 30.5s49.667 -10 69 -30s29 -43.667 29 -71c0 -28 -9.33301 -51.667 -28 -71s-42 -29 -70 -29s-51.667 9.66699 -71 29s-29 43 -29 71z" />
    <glyph glyph-name="circumflex" unicode="&#x2c6;" horiz-adv-x="1024" 
d="M221 1145l232 348h118l232 -348h-58l-233 209l-233 -209h-58z" />
    <glyph glyph-name="tilde" unicode="&#x2dc;" horiz-adv-x="1024" 
d="M225 1190c12.667 70.667 35.3301 123.833 67.9971 159.5s75.667 53.5 129 53.5c12.667 0 24 -0.666992 34 -2s19.667 -3.33301 29 -6l111 -29c16 -4 27.833 -6.66699 35.5 -8s14.167 -2 19.5 -2c24.667 0 43.834 6.16699 57.501 18.5s25.834 34.833 36.501 67.5h54
c-13.333 -68.667 -36.166 -120 -68.499 -154s-74.5 -51 -126.5 -51c-9.33301 0 -20.166 0.833008 -32.499 2.5s-25.833 4.16699 -40.5 7.5l-109 27c-8 2 -16.833 3.5 -26.5 4.5s-19.834 1.5 -30.501 1.5c-22 0 -39.833 -7 -53.5 -21s-25.5 -37 -35.5 -69h-51z" />
    <glyph glyph-name="uni2000" unicode="&#x2000;" horiz-adv-x="992" 
 />
    <glyph glyph-name="uni2001" unicode="&#x2001;" horiz-adv-x="1985" 
 />
    <glyph glyph-name="uni2002" unicode="&#x2002;" horiz-adv-x="992" 
 />
    <glyph glyph-name="uni2003" unicode="&#x2003;" horiz-adv-x="1985" 
 />
    <glyph glyph-name="uni2004" unicode="&#x2004;" horiz-adv-x="661" 
 />
    <glyph glyph-name="uni2005" unicode="&#x2005;" horiz-adv-x="496" 
 />
    <glyph glyph-name="uni2006" unicode="&#x2006;" horiz-adv-x="330" 
 />
    <glyph glyph-name="uni2007" unicode="&#x2007;" horiz-adv-x="330" 
 />
    <glyph glyph-name="uni2008" unicode="&#x2008;" horiz-adv-x="248" 
 />
    <glyph glyph-name="uni2009" unicode="&#x2009;" horiz-adv-x="397" 
 />
    <glyph glyph-name="uni200A" unicode="&#x200a;" horiz-adv-x="110" 
 />
    <glyph glyph-name="uni2010" unicode="&#x2010;" horiz-adv-x="621" 
d="M41 442v168h541v-168h-541z" />
    <glyph glyph-name="uni2011" unicode="&#x2011;" horiz-adv-x="621" 
d="M41 442v168h541v-168h-541z" />
    <glyph glyph-name="figuredash" unicode="&#x2012;" horiz-adv-x="621" 
d="M41 442v168h541v-168h-541z" />
    <glyph glyph-name="endash" unicode="&#x2013;" horiz-adv-x="1024" 
d="M0 465v123h1024v-123h-1024z" />
    <glyph glyph-name="emdash" unicode="&#x2014;" horiz-adv-x="2048" 
d="M0 465v123h2048v-123h-2048z" />
    <glyph glyph-name="quoteleft" unicode="&#x2018;" horiz-adv-x="516" 
d="M125 1141c0 54 17 109.001 51 165.001s84 110.667 150 164l39 -43c-54 -47.333 -91.833 -86.833 -113.5 -118.5s-32.5 -61.5 -32.5 -89.5c0 -12 2.66699 -20.833 8 -26.5s13 -8.5 23 -8.5c0.666992 0 6 1 16 3s19 3 27 3c28.667 0 52.5 -10.167 71.5 -30.5
s28.5 -45.833 28.5 -76.5c0 -32.667 -11.167 -59.834 -33.5 -81.501s-50.833 -32.5 -85.5 -32.5c-42 0 -77.333 16.333 -106 49s-43 73.667 -43 123z" />
    <glyph glyph-name="quoteright" unicode="&#x2019;" horiz-adv-x="516" 
d="M127 1356c0 33.333 11.499 60.665 34.499 81.998s53.167 32 90.5 32c38.667 0 71.834 -16.333 99.501 -49s41.5 -73.667 41.5 -123c0 -54 -17.167 -109.333 -51.5 -166s-83.833 -111 -148.5 -163l-37 43c54.667 48.667 92.5 88.334 113.5 119.001s31.5 60 31.5 88
c0 10.667 -2.66699 19.334 -8 26.001s-12.333 10 -21 10c-2 0 -8 -1 -18 -3s-19 -3 -27 -3c-28 0 -51.667 10.333 -71 31s-29 46 -29 76z" />
    <glyph glyph-name="quotesinglbase" unicode="&#x201a;" horiz-adv-x="516" 
d="M125 111c0 33.333 11.5 60.666 34.5 81.999s53.167 32 90.5 32c39.333 0 73 -16.5 101 -49.5s42 -73.833 42 -122.5c0 -53.333 -17 -107.833 -51 -163.5s-83.667 -110.167 -149 -163.5l-37 43c54.667 48.667 92.5 88.334 113.5 119.001s31.5 59.667 31.5 87
c0 10.667 -2.66699 19.167 -8 25.5s-12.333 9.5 -21 9.5c-2 0 -8.33301 -1 -19 -3s-20 -3 -28 -3c-28 0 -51.667 10.167 -71 30.5s-29 45.833 -29 76.5z" />
    <glyph glyph-name="quotedblleft" unicode="&#x201c;" horiz-adv-x="895" 
d="M125 1141c0 54 17 109.001 51 165.001s84 110.667 150 164l39 -43c-54 -47.333 -91.833 -86.833 -113.5 -118.5s-32.5 -61.5 -32.5 -89.5c0 -12 2.66699 -20.833 8 -26.5s13 -8.5 23 -8.5c0.666992 0 6 1 16 3s19 3 27 3c28.667 0 52.5 -10.167 71.5 -30.5
s28.5 -45.833 28.5 -76.5c0 -32.667 -11.167 -59.834 -33.5 -81.501s-50.833 -32.5 -85.5 -32.5c-42 0 -77.333 16.333 -106 49s-43 73.667 -43 123zM506 1141c0 54.667 16.832 110.001 50.499 166.001s83.167 110.333 148.5 163l38 -43
c-53.333 -47.333 -90.833 -86.833 -112.5 -118.5s-32.5 -61.5 -32.5 -89.5c0 -12 2.66699 -20.833 8 -26.5s13 -8.5 23 -8.5c0.666992 0 6 1 16 3s19 3 27 3c28.667 0 52.5 -10.167 71.5 -30.5s28.5 -45.833 28.5 -76.5c0 -32.667 -11.167 -59.834 -33.5 -81.501
s-50.833 -32.5 -85.5 -32.5c-41.333 0 -76.166 16.333 -104.499 49s-42.5 73.667 -42.5 123z" />
    <glyph glyph-name="quotedblright" unicode="&#x201d;" horiz-adv-x="895" 
d="M127 1356c0 33.333 11.499 60.665 34.499 81.998s53.167 32 90.5 32c38.667 0 71.834 -16.333 99.501 -49s41.5 -73.667 41.5 -123c0 -54 -17.167 -109.333 -51.5 -166s-83.833 -111 -148.5 -163l-37 43c54.667 48.667 92.5 88.334 113.5 119.001s31.5 60 31.5 88
c0 10.667 -2.66699 19.334 -8 26.001s-12.333 10 -21 10c-2 0 -8 -1 -18 -3s-19 -3 -27 -3c-28 0 -51.667 10.333 -71 31s-29 46 -29 76zM505.999 1356c0 33.333 11.5 60.665 34.5 81.998s53.167 32 90.5 32c38.667 0 71.834 -16.333 99.501 -49s41.5 -73.667 41.5 -123
c0 -54.667 -16.833 -110 -50.5 -166s-83.167 -110.333 -148.5 -163l-38 43c54.667 48.667 92.5 88.334 113.5 119.001s31.5 60 31.5 88c0 10.667 -2.66699 19.334 -8 26.001s-12.333 10 -21 10c-2.66699 0 -8.83398 -1 -18.501 -3s-18.5 -3 -26.5 -3
c-28 0 -51.667 10.333 -71 31s-29 46 -29 76z" />
    <glyph glyph-name="quotedblbase" unicode="&#x201e;" horiz-adv-x="895" 
d="M125 111c0 33.333 11.5 60.666 34.5 81.999s53.167 32 90.5 32c39.333 0 73 -16.5 101 -49.5s42 -73.833 42 -122.5c0 -53.333 -17 -107.833 -51 -163.5s-83.667 -110.167 -149 -163.5l-37 43c54.667 48.667 92.5 88.334 113.5 119.001s31.5 59.667 31.5 87
c0 10.667 -2.66699 19.167 -8 25.5s-12.333 9.5 -21 9.5c-2 0 -8.33301 -1 -19 -3s-20 -3 -28 -3c-28 0 -51.667 10.167 -71 30.5s-29 45.833 -29 76.5zM506 111c0 33.333 11.333 60.666 34 81.999s52.334 32 89.001 32c38.667 0 72.167 -16.5 100.5 -49.5
s42.5 -73.833 42.5 -122.5c0 -53.333 -17 -107.833 -51 -163.5s-84 -110.167 -150 -163.5l-36 43c54.667 48.667 92.5 88.334 113.5 119.001s31.5 59.667 31.5 87c0 10.667 -2.66699 19.167 -8 25.5s-12.333 9.5 -21 9.5c-2.66699 0 -8.83398 -1 -18.501 -3
s-18.5 -3 -26.5 -3c-28 0 -51.667 10.167 -71 30.5s-29 45.833 -29 76.5z" />
    <glyph glyph-name="bullet" unicode="&#x2022;" horiz-adv-x="1208" 
d="M307 762c0 82 28.999 151.666 86.999 208.999s128 86 210 86c81.333 0 150.833 -28.833 208.5 -86.5s86.5 -127.167 86.5 -208.5s-29.167 -151.166 -87.5 -209.499s-128.166 -87.5 -209.499 -87.5c-82 0 -151.667 29 -209 87s-86 128 -86 210z" />
    <glyph glyph-name="ellipsis" unicode="&#x2026;" horiz-adv-x="2048" 
d="M221 98c0 34 11.667 63 35 87s52 36 86 36c32.667 0 61 -12 85 -36s36 -53 36 -87c0 -32.667 -12 -61 -36 -85s-52.333 -36 -85 -36c-33.333 0 -61.833 12 -85.5 36s-35.5 52.333 -35.5 85zM903 98c0 34 11.667 63 35 87s52 36 86 36c32.667 0 61 -12 85 -36
s36 -53 36 -87c0 -32.667 -12 -61 -36 -85s-52.333 -36 -85 -36c-33.333 0 -61.833 12 -85.5 36s-35.5 52.333 -35.5 85zM1587 98c0 34 11.667 63 35 87s52 36 86 36c32.667 0 61 -12 85 -36s36 -53 36 -87c0 -32.667 -12 -61 -36 -85s-52.333 -36 -85 -36
c-33.333 0 -61.833 12 -85.5 36s-35.5 52.333 -35.5 85z" />
    <glyph glyph-name="uni202F" unicode="&#x202f;" horiz-adv-x="397" 
 />
    <glyph glyph-name="guilsinglleft" unicode="&#x2039;" horiz-adv-x="563" 
d="M72 526l247 359h166l-241 -359l241 -358h-166z" />
    <glyph glyph-name="guilsinglright" unicode="&#x203a;" horiz-adv-x="563" 
d="M80 168l239 358l-239 359h166l248 -359l-248 -358h-166z" />
    <glyph glyph-name="uni205F" unicode="&#x205f;" horiz-adv-x="496" 
 />
    <glyph glyph-name="Euro" unicode="&#x20ac;" 
d="M0 561l23.001 62.001h141c-0.666992 9.33301 -1.16699 20.333 -1.5 33s-0.5 31.667 -0.5 57c0 30 0.333008 52.5 1 67.5s1.66699 28.5 3 40.5h-152l21 62h137c21.333 167.333 71.5 303 150.5 407s170.833 156 275.5 156c66.667 0 128 -20.833 184 -62.5
s84.667 -62.5 86 -62.5c15.333 0 28.666 11.333 39.999 34c0.666992 1.33301 1 2.33301 1 3l29 59h37l4 -452h-49c-34 143.333 -77 250.166 -129 320.499s-114.333 105.5 -187 105.5c-79.333 0 -137.666 -38.833 -174.999 -116.5s-59.333 -208.167 -66 -391.5h536l-20 -62
h-518v-198h452l-22 -62h-428c6.66699 -188 30.834 -322 72.501 -402s106.834 -120 195.501 -120c71.333 0 132.166 32.333 182.499 97s86.5 157.334 108.5 278.001h55c-22.667 -138.667 -65.334 -245.334 -128.001 -320.001s-140 -112 -232 -112
c-126 0 -229.333 51 -310 153s-130.334 244 -149.001 426h-168z" />
    <glyph glyph-name="trademark" unicode="&#x2122;" horiz-adv-x="1683" 
d="M240 1260l10.001 182h444l11 -182h-27c-5.33301 52 -18.833 90.167 -40.5 114.5s-53.167 36.5 -94.5 36.5h-17v-424c0 -16 3.5 -28.5 10.5 -37.5s17.167 -14.167 30.5 -15.5l33 -2v-29h-254v29l31 2c14 1.33301 24.667 6.5 32 15.5s11 21.5 11 37.5v424h-17
c-42.667 0 -74.834 -12 -96.501 -36s-35.167 -62.333 -40.5 -115h-26zM780.001 903v29.002l34 2c13.333 1.33301 23.666 6.5 30.999 15.5s11 21.5 11 37.5v371c0 16 -3.66699 28.5 -11 37.5s-17.666 14.167 -30.999 15.5l-34 4v27h191l137 -391l143 391h181v-25l-30 -2
c-14 -1.33301 -24.5 -6.33301 -31.5 -15s-10.5 -21.334 -10.5 -38.001v-375c0 -16.667 3.5 -29.334 10.5 -38.001s17.5 -13.667 31.5 -15l30 -2v-29h-240v29l31 2c14 1.33301 24.667 6.5 32 15.5s11 21.5 11 37.5v387l-172 -473h-21l-172 475v-389
c0 -16 3.66699 -28.5 11 -37.5s18 -14.167 32 -15.5l33 -2v-29h-197z" />
    <glyph glyph-name="uniE000" unicode="&#xe000;" horiz-adv-x="1010" 
d="M0 0v1010h1010v-1010h-1010z" />
  </font>
</defs>
</svg>
